G04 EAGLE Gerber RS-274X export*
G75*
%MOMM*%
%FSLAX34Y34*%
%LPD*%
%INBottom Copper*%
%IPPOS*%
%AMOC8*
5,1,8,0,0,1.08239X$1,22.5*%
G01*
%ADD10C,0.152400*%
%ADD11P,2.089446X8X112.500000*%
%ADD12P,2.089446X8X292.500000*%
%ADD13C,5.588000*%
%ADD14C,1.930400*%
%ADD15R,1.930400X1.930400*%
%ADD16R,1.000000X0.900000*%
%ADD17R,1.250009X1.250009*%
%ADD18R,1.016000X1.016000*%
%ADD19C,3.175000*%
%ADD20R,2.667000X4.191000*%
%ADD21C,1.500000*%
%ADD22P,2.089446X8X22.500000*%
%ADD23C,2.781300*%
%ADD24C,0.812800*%
%ADD25C,0.609600*%
%ADD26C,0.812800*%
%ADD27C,0.504000*%
%ADD28C,0.406400*%
%ADD29C,0.457200*%
%ADD30C,0.609600*%
%ADD31C,0.203200*%
%ADD32C,0.304800*%
%ADD33C,0.127000*%
%ADD34C,0.508000*%
%ADD35C,0.600000*%
%ADD36C,0.453200*%

G36*
X443818Y1216771D02*
X443818Y1216771D01*
X443836Y1216769D01*
X444018Y1216790D01*
X444201Y1216809D01*
X444218Y1216814D01*
X444235Y1216816D01*
X444410Y1216873D01*
X444586Y1216927D01*
X444601Y1216935D01*
X444618Y1216941D01*
X444778Y1217031D01*
X444940Y1217119D01*
X444953Y1217130D01*
X444969Y1217139D01*
X445108Y1217259D01*
X445249Y1217376D01*
X445260Y1217390D01*
X445274Y1217402D01*
X445386Y1217547D01*
X445501Y1217690D01*
X445509Y1217706D01*
X445520Y1217720D01*
X445602Y1217885D01*
X445687Y1218047D01*
X445692Y1218064D01*
X445700Y1218081D01*
X445747Y1218259D01*
X445798Y1218434D01*
X445800Y1218452D01*
X445804Y1218469D01*
X445831Y1218800D01*
X445831Y1340968D01*
X445829Y1340986D01*
X445831Y1341004D01*
X445810Y1341186D01*
X445791Y1341369D01*
X445786Y1341386D01*
X445784Y1341403D01*
X445727Y1341578D01*
X445673Y1341754D01*
X445665Y1341769D01*
X445659Y1341786D01*
X445569Y1341946D01*
X445481Y1342108D01*
X445470Y1342121D01*
X445461Y1342137D01*
X445341Y1342276D01*
X445224Y1342417D01*
X445210Y1342428D01*
X445198Y1342442D01*
X445053Y1342554D01*
X444910Y1342669D01*
X444894Y1342677D01*
X444880Y1342688D01*
X444715Y1342770D01*
X444553Y1342855D01*
X444536Y1342860D01*
X444520Y1342868D01*
X444341Y1342915D01*
X444166Y1342966D01*
X444148Y1342968D01*
X444131Y1342972D01*
X443800Y1342999D01*
X432613Y1342999D01*
X432595Y1342997D01*
X432577Y1342999D01*
X432395Y1342978D01*
X432212Y1342959D01*
X432195Y1342954D01*
X432178Y1342952D01*
X432003Y1342895D01*
X431827Y1342841D01*
X431812Y1342833D01*
X431795Y1342827D01*
X431635Y1342737D01*
X431473Y1342649D01*
X431460Y1342638D01*
X431444Y1342629D01*
X431305Y1342509D01*
X431164Y1342392D01*
X431153Y1342378D01*
X431139Y1342366D01*
X431027Y1342221D01*
X430912Y1342078D01*
X430904Y1342062D01*
X430893Y1342048D01*
X430811Y1341883D01*
X430726Y1341721D01*
X430721Y1341704D01*
X430713Y1341688D01*
X430666Y1341509D01*
X430615Y1341334D01*
X430613Y1341316D01*
X430609Y1341299D01*
X430582Y1340968D01*
X430582Y1327909D01*
X417278Y1327909D01*
X417260Y1327907D01*
X417243Y1327909D01*
X417060Y1327887D01*
X416877Y1327869D01*
X416860Y1327864D01*
X416843Y1327862D01*
X416668Y1327805D01*
X416493Y1327751D01*
X416477Y1327743D01*
X416460Y1327737D01*
X416300Y1327647D01*
X416139Y1327559D01*
X416125Y1327548D01*
X416109Y1327539D01*
X415970Y1327419D01*
X415829Y1327302D01*
X415818Y1327288D01*
X415805Y1327276D01*
X415692Y1327131D01*
X415577Y1326988D01*
X415569Y1326972D01*
X415558Y1326958D01*
X415476Y1326793D01*
X415391Y1326631D01*
X415387Y1326614D01*
X415379Y1326597D01*
X415331Y1326419D01*
X415280Y1326244D01*
X415279Y1326226D01*
X415274Y1326209D01*
X415247Y1325878D01*
X415247Y1323845D01*
X415245Y1323845D01*
X415245Y1325878D01*
X415243Y1325896D01*
X415245Y1325913D01*
X415223Y1326096D01*
X415205Y1326279D01*
X415200Y1326296D01*
X415198Y1326313D01*
X415141Y1326488D01*
X415087Y1326663D01*
X415079Y1326679D01*
X415073Y1326696D01*
X414983Y1326856D01*
X414895Y1327017D01*
X414884Y1327031D01*
X414875Y1327047D01*
X414755Y1327186D01*
X414638Y1327327D01*
X414624Y1327338D01*
X414612Y1327351D01*
X414467Y1327464D01*
X414324Y1327579D01*
X414308Y1327587D01*
X414294Y1327598D01*
X414129Y1327680D01*
X413967Y1327765D01*
X413949Y1327769D01*
X413933Y1327777D01*
X413755Y1327825D01*
X413580Y1327876D01*
X413562Y1327877D01*
X413545Y1327882D01*
X413214Y1327909D01*
X399910Y1327909D01*
X399910Y1340968D01*
X399908Y1340986D01*
X399910Y1341004D01*
X399889Y1341186D01*
X399870Y1341369D01*
X399865Y1341386D01*
X399863Y1341403D01*
X399806Y1341578D01*
X399752Y1341754D01*
X399744Y1341769D01*
X399738Y1341786D01*
X399648Y1341946D01*
X399560Y1342108D01*
X399549Y1342121D01*
X399540Y1342137D01*
X399420Y1342276D01*
X399303Y1342417D01*
X399289Y1342428D01*
X399277Y1342442D01*
X399132Y1342554D01*
X398989Y1342669D01*
X398973Y1342677D01*
X398959Y1342688D01*
X398794Y1342770D01*
X398632Y1342855D01*
X398615Y1342860D01*
X398599Y1342868D01*
X398420Y1342915D01*
X398245Y1342966D01*
X398227Y1342968D01*
X398210Y1342972D01*
X397879Y1342999D01*
X362721Y1342999D01*
X362703Y1342997D01*
X362685Y1342999D01*
X362503Y1342978D01*
X362320Y1342959D01*
X362303Y1342954D01*
X362286Y1342952D01*
X362111Y1342895D01*
X361935Y1342841D01*
X361920Y1342833D01*
X361903Y1342827D01*
X361743Y1342737D01*
X361581Y1342649D01*
X361568Y1342638D01*
X361552Y1342629D01*
X361413Y1342509D01*
X361272Y1342392D01*
X361261Y1342378D01*
X361247Y1342366D01*
X361135Y1342221D01*
X361020Y1342078D01*
X361012Y1342062D01*
X361001Y1342048D01*
X360919Y1341883D01*
X360834Y1341721D01*
X360829Y1341704D01*
X360821Y1341688D01*
X360774Y1341509D01*
X360723Y1341334D01*
X360721Y1341316D01*
X360717Y1341299D01*
X360690Y1340968D01*
X360690Y1327909D01*
X347386Y1327909D01*
X347368Y1327907D01*
X347351Y1327909D01*
X347168Y1327887D01*
X346985Y1327869D01*
X346968Y1327864D01*
X346951Y1327862D01*
X346776Y1327805D01*
X346601Y1327751D01*
X346585Y1327743D01*
X346568Y1327737D01*
X346408Y1327647D01*
X346247Y1327559D01*
X346233Y1327548D01*
X346217Y1327539D01*
X346078Y1327419D01*
X345937Y1327302D01*
X345926Y1327288D01*
X345913Y1327276D01*
X345800Y1327131D01*
X345685Y1326988D01*
X345677Y1326972D01*
X345666Y1326958D01*
X345584Y1326793D01*
X345499Y1326631D01*
X345495Y1326614D01*
X345487Y1326597D01*
X345439Y1326419D01*
X345388Y1326244D01*
X345387Y1326226D01*
X345382Y1326209D01*
X345355Y1325878D01*
X345355Y1323845D01*
X345353Y1323845D01*
X345353Y1325878D01*
X345351Y1325896D01*
X345353Y1325913D01*
X345331Y1326096D01*
X345313Y1326279D01*
X345308Y1326296D01*
X345306Y1326313D01*
X345249Y1326488D01*
X345195Y1326663D01*
X345187Y1326679D01*
X345181Y1326696D01*
X345091Y1326856D01*
X345003Y1327017D01*
X344992Y1327031D01*
X344983Y1327047D01*
X344863Y1327186D01*
X344746Y1327327D01*
X344732Y1327338D01*
X344720Y1327351D01*
X344575Y1327464D01*
X344432Y1327579D01*
X344416Y1327587D01*
X344402Y1327598D01*
X344237Y1327680D01*
X344075Y1327765D01*
X344057Y1327769D01*
X344041Y1327777D01*
X343863Y1327825D01*
X343688Y1327876D01*
X343670Y1327877D01*
X343653Y1327882D01*
X343322Y1327909D01*
X330018Y1327909D01*
X330018Y1340968D01*
X330016Y1340986D01*
X330018Y1341004D01*
X329997Y1341186D01*
X329978Y1341369D01*
X329973Y1341386D01*
X329971Y1341403D01*
X329914Y1341578D01*
X329860Y1341754D01*
X329852Y1341769D01*
X329846Y1341786D01*
X329756Y1341946D01*
X329668Y1342108D01*
X329657Y1342121D01*
X329648Y1342137D01*
X329528Y1342276D01*
X329411Y1342417D01*
X329397Y1342428D01*
X329385Y1342442D01*
X329240Y1342554D01*
X329097Y1342669D01*
X329081Y1342677D01*
X329067Y1342688D01*
X328902Y1342770D01*
X328740Y1342855D01*
X328723Y1342860D01*
X328707Y1342868D01*
X328528Y1342915D01*
X328353Y1342966D01*
X328335Y1342968D01*
X328318Y1342972D01*
X327987Y1342999D01*
X316800Y1342999D01*
X316782Y1342997D01*
X316764Y1342999D01*
X316582Y1342978D01*
X316399Y1342959D01*
X316382Y1342954D01*
X316365Y1342952D01*
X316190Y1342895D01*
X316014Y1342841D01*
X315999Y1342833D01*
X315982Y1342827D01*
X315822Y1342737D01*
X315660Y1342649D01*
X315647Y1342638D01*
X315631Y1342629D01*
X315492Y1342509D01*
X315351Y1342392D01*
X315340Y1342378D01*
X315327Y1342366D01*
X315214Y1342221D01*
X315099Y1342078D01*
X315091Y1342062D01*
X315080Y1342048D01*
X314998Y1341883D01*
X314913Y1341721D01*
X314908Y1341704D01*
X314900Y1341688D01*
X314853Y1341509D01*
X314802Y1341334D01*
X314800Y1341316D01*
X314796Y1341299D01*
X314769Y1340968D01*
X314769Y1218800D01*
X314771Y1218782D01*
X314769Y1218764D01*
X314790Y1218582D01*
X314809Y1218399D01*
X314814Y1218382D01*
X314816Y1218365D01*
X314873Y1218190D01*
X314927Y1218014D01*
X314935Y1217999D01*
X314941Y1217982D01*
X315031Y1217822D01*
X315119Y1217660D01*
X315130Y1217647D01*
X315139Y1217631D01*
X315259Y1217492D01*
X315376Y1217351D01*
X315390Y1217340D01*
X315402Y1217327D01*
X315547Y1217214D01*
X315690Y1217099D01*
X315706Y1217091D01*
X315720Y1217080D01*
X315885Y1216998D01*
X316047Y1216913D01*
X316064Y1216908D01*
X316081Y1216900D01*
X316259Y1216853D01*
X316434Y1216802D01*
X316452Y1216800D01*
X316469Y1216796D01*
X316800Y1216769D01*
X443800Y1216769D01*
X443818Y1216771D01*
G37*
G36*
X757508Y1254871D02*
X757508Y1254871D01*
X757526Y1254869D01*
X757708Y1254890D01*
X757891Y1254909D01*
X757908Y1254914D01*
X757925Y1254916D01*
X758100Y1254973D01*
X758276Y1255027D01*
X758291Y1255035D01*
X758308Y1255041D01*
X758468Y1255131D01*
X758630Y1255219D01*
X758643Y1255230D01*
X758659Y1255239D01*
X758798Y1255359D01*
X758939Y1255476D01*
X758950Y1255490D01*
X758964Y1255502D01*
X759076Y1255647D01*
X759191Y1255790D01*
X759199Y1255806D01*
X759210Y1255820D01*
X759292Y1255985D01*
X759377Y1256147D01*
X759382Y1256164D01*
X759390Y1256181D01*
X759437Y1256359D01*
X759488Y1256534D01*
X759490Y1256552D01*
X759494Y1256569D01*
X759521Y1256900D01*
X759521Y1340968D01*
X759519Y1340986D01*
X759521Y1341004D01*
X759500Y1341186D01*
X759481Y1341369D01*
X759476Y1341386D01*
X759474Y1341403D01*
X759417Y1341578D01*
X759363Y1341754D01*
X759355Y1341769D01*
X759349Y1341786D01*
X759259Y1341946D01*
X759171Y1342108D01*
X759160Y1342121D01*
X759151Y1342137D01*
X759031Y1342276D01*
X758914Y1342417D01*
X758900Y1342428D01*
X758888Y1342442D01*
X758743Y1342554D01*
X758600Y1342669D01*
X758584Y1342677D01*
X758570Y1342688D01*
X758405Y1342770D01*
X758243Y1342855D01*
X758226Y1342860D01*
X758210Y1342868D01*
X758031Y1342915D01*
X757856Y1342966D01*
X757838Y1342968D01*
X757821Y1342972D01*
X757490Y1342999D01*
X754177Y1342999D01*
X754159Y1342997D01*
X754141Y1342999D01*
X753959Y1342978D01*
X753776Y1342959D01*
X753759Y1342954D01*
X753742Y1342952D01*
X753567Y1342895D01*
X753391Y1342841D01*
X753376Y1342833D01*
X753359Y1342827D01*
X753199Y1342737D01*
X753037Y1342649D01*
X753024Y1342638D01*
X753008Y1342629D01*
X752869Y1342509D01*
X752728Y1342392D01*
X752717Y1342378D01*
X752703Y1342366D01*
X752591Y1342221D01*
X752476Y1342078D01*
X752468Y1342062D01*
X752457Y1342048D01*
X752375Y1341883D01*
X752290Y1341721D01*
X752285Y1341704D01*
X752277Y1341688D01*
X752230Y1341509D01*
X752179Y1341334D01*
X752177Y1341316D01*
X752173Y1341299D01*
X752146Y1340968D01*
X752146Y1327909D01*
X738842Y1327909D01*
X738824Y1327907D01*
X738807Y1327909D01*
X738624Y1327887D01*
X738441Y1327869D01*
X738424Y1327864D01*
X738407Y1327862D01*
X738232Y1327805D01*
X738057Y1327751D01*
X738041Y1327743D01*
X738024Y1327737D01*
X737864Y1327647D01*
X737703Y1327559D01*
X737689Y1327548D01*
X737673Y1327539D01*
X737534Y1327419D01*
X737393Y1327302D01*
X737382Y1327288D01*
X737369Y1327276D01*
X737256Y1327131D01*
X737141Y1326988D01*
X737133Y1326972D01*
X737122Y1326958D01*
X737040Y1326793D01*
X736955Y1326631D01*
X736951Y1326614D01*
X736943Y1326597D01*
X736895Y1326419D01*
X736844Y1326244D01*
X736843Y1326226D01*
X736838Y1326209D01*
X736811Y1325878D01*
X736811Y1323845D01*
X736809Y1323845D01*
X736809Y1325878D01*
X736807Y1325896D01*
X736809Y1325913D01*
X736787Y1326096D01*
X736769Y1326279D01*
X736764Y1326296D01*
X736762Y1326313D01*
X736705Y1326488D01*
X736651Y1326663D01*
X736643Y1326679D01*
X736637Y1326696D01*
X736547Y1326856D01*
X736459Y1327017D01*
X736448Y1327031D01*
X736439Y1327047D01*
X736319Y1327186D01*
X736202Y1327327D01*
X736188Y1327338D01*
X736176Y1327351D01*
X736031Y1327464D01*
X735888Y1327579D01*
X735872Y1327587D01*
X735858Y1327598D01*
X735693Y1327680D01*
X735531Y1327765D01*
X735513Y1327769D01*
X735497Y1327777D01*
X735319Y1327825D01*
X735144Y1327876D01*
X735126Y1327877D01*
X735109Y1327882D01*
X734778Y1327909D01*
X721474Y1327909D01*
X721474Y1340968D01*
X721472Y1340986D01*
X721474Y1341004D01*
X721453Y1341186D01*
X721434Y1341369D01*
X721429Y1341386D01*
X721427Y1341403D01*
X721370Y1341578D01*
X721316Y1341754D01*
X721308Y1341769D01*
X721302Y1341786D01*
X721212Y1341946D01*
X721124Y1342108D01*
X721113Y1342121D01*
X721104Y1342137D01*
X720984Y1342276D01*
X720867Y1342417D01*
X720853Y1342428D01*
X720841Y1342442D01*
X720696Y1342554D01*
X720553Y1342669D01*
X720537Y1342677D01*
X720523Y1342688D01*
X720358Y1342770D01*
X720196Y1342855D01*
X720179Y1342860D01*
X720163Y1342868D01*
X719984Y1342915D01*
X719809Y1342966D01*
X719791Y1342968D01*
X719774Y1342972D01*
X719443Y1342999D01*
X684285Y1342999D01*
X684267Y1342997D01*
X684249Y1342999D01*
X684067Y1342978D01*
X683884Y1342959D01*
X683867Y1342954D01*
X683850Y1342952D01*
X683675Y1342895D01*
X683499Y1342841D01*
X683484Y1342833D01*
X683467Y1342827D01*
X683307Y1342737D01*
X683145Y1342649D01*
X683132Y1342638D01*
X683116Y1342629D01*
X682977Y1342509D01*
X682836Y1342392D01*
X682825Y1342378D01*
X682811Y1342366D01*
X682699Y1342221D01*
X682584Y1342078D01*
X682576Y1342062D01*
X682565Y1342048D01*
X682483Y1341883D01*
X682398Y1341721D01*
X682393Y1341704D01*
X682385Y1341688D01*
X682338Y1341509D01*
X682287Y1341334D01*
X682285Y1341316D01*
X682281Y1341299D01*
X682254Y1340968D01*
X682254Y1327909D01*
X668950Y1327909D01*
X668932Y1327907D01*
X668915Y1327909D01*
X668732Y1327887D01*
X668549Y1327869D01*
X668532Y1327864D01*
X668515Y1327862D01*
X668340Y1327805D01*
X668165Y1327751D01*
X668149Y1327743D01*
X668132Y1327737D01*
X667972Y1327647D01*
X667811Y1327559D01*
X667797Y1327548D01*
X667781Y1327539D01*
X667642Y1327419D01*
X667501Y1327302D01*
X667490Y1327288D01*
X667477Y1327276D01*
X667364Y1327131D01*
X667249Y1326988D01*
X667241Y1326972D01*
X667230Y1326958D01*
X667148Y1326793D01*
X667063Y1326631D01*
X667059Y1326614D01*
X667051Y1326597D01*
X667003Y1326419D01*
X666952Y1326244D01*
X666951Y1326226D01*
X666946Y1326209D01*
X666919Y1325878D01*
X666919Y1323845D01*
X666917Y1323845D01*
X666917Y1325878D01*
X666915Y1325896D01*
X666917Y1325913D01*
X666895Y1326096D01*
X666877Y1326279D01*
X666872Y1326296D01*
X666870Y1326313D01*
X666813Y1326488D01*
X666759Y1326663D01*
X666751Y1326679D01*
X666745Y1326696D01*
X666655Y1326856D01*
X666567Y1327017D01*
X666556Y1327031D01*
X666547Y1327047D01*
X666427Y1327186D01*
X666310Y1327327D01*
X666296Y1327338D01*
X666284Y1327351D01*
X666139Y1327464D01*
X665996Y1327579D01*
X665980Y1327587D01*
X665966Y1327598D01*
X665801Y1327680D01*
X665639Y1327765D01*
X665621Y1327769D01*
X665605Y1327777D01*
X665427Y1327825D01*
X665252Y1327876D01*
X665234Y1327877D01*
X665217Y1327882D01*
X664886Y1327909D01*
X651582Y1327909D01*
X651582Y1340968D01*
X651580Y1340986D01*
X651582Y1341004D01*
X651561Y1341186D01*
X651542Y1341369D01*
X651537Y1341386D01*
X651535Y1341403D01*
X651478Y1341578D01*
X651424Y1341754D01*
X651416Y1341769D01*
X651410Y1341786D01*
X651320Y1341946D01*
X651232Y1342108D01*
X651221Y1342121D01*
X651212Y1342137D01*
X651092Y1342276D01*
X650975Y1342417D01*
X650961Y1342428D01*
X650949Y1342442D01*
X650804Y1342554D01*
X650661Y1342669D01*
X650645Y1342677D01*
X650631Y1342688D01*
X650466Y1342770D01*
X650304Y1342855D01*
X650287Y1342860D01*
X650271Y1342868D01*
X650092Y1342915D01*
X649917Y1342966D01*
X649899Y1342968D01*
X649882Y1342972D01*
X649551Y1342999D01*
X648270Y1342999D01*
X648252Y1342997D01*
X648234Y1342999D01*
X648052Y1342978D01*
X647869Y1342959D01*
X647852Y1342954D01*
X647835Y1342952D01*
X647660Y1342895D01*
X647484Y1342841D01*
X647469Y1342833D01*
X647452Y1342827D01*
X647292Y1342737D01*
X647130Y1342649D01*
X647117Y1342638D01*
X647101Y1342629D01*
X646962Y1342509D01*
X646821Y1342392D01*
X646810Y1342378D01*
X646797Y1342366D01*
X646684Y1342221D01*
X646569Y1342078D01*
X646561Y1342062D01*
X646550Y1342048D01*
X646468Y1341883D01*
X646383Y1341721D01*
X646378Y1341704D01*
X646370Y1341688D01*
X646323Y1341509D01*
X646272Y1341334D01*
X646270Y1341316D01*
X646266Y1341299D01*
X646239Y1340968D01*
X646239Y1256900D01*
X646241Y1256882D01*
X646239Y1256864D01*
X646260Y1256682D01*
X646279Y1256499D01*
X646284Y1256482D01*
X646286Y1256465D01*
X646343Y1256290D01*
X646397Y1256114D01*
X646405Y1256099D01*
X646411Y1256082D01*
X646501Y1255922D01*
X646589Y1255760D01*
X646600Y1255747D01*
X646609Y1255731D01*
X646729Y1255592D01*
X646846Y1255451D01*
X646860Y1255440D01*
X646872Y1255427D01*
X647017Y1255314D01*
X647160Y1255199D01*
X647176Y1255191D01*
X647190Y1255180D01*
X647355Y1255098D01*
X647517Y1255013D01*
X647534Y1255008D01*
X647551Y1255000D01*
X647729Y1254953D01*
X647904Y1254902D01*
X647922Y1254900D01*
X647939Y1254896D01*
X648270Y1254869D01*
X757490Y1254869D01*
X757508Y1254871D01*
G37*
G36*
X580390Y963860D02*
X580390Y963860D01*
X580456Y963862D01*
X580499Y963880D01*
X580546Y963888D01*
X580603Y963921D01*
X580663Y963946D01*
X580698Y963978D01*
X580739Y964002D01*
X580781Y964053D01*
X580829Y964098D01*
X580851Y964140D01*
X580880Y964176D01*
X580901Y964239D01*
X580932Y964297D01*
X580940Y964352D01*
X580952Y964389D01*
X580951Y964428D01*
X580959Y964483D01*
X580959Y1010203D01*
X580948Y1010267D01*
X580946Y1010333D01*
X580928Y1010377D01*
X580920Y1010423D01*
X580886Y1010480D01*
X580861Y1010541D01*
X580830Y1010576D01*
X580805Y1010617D01*
X580754Y1010658D01*
X580710Y1010707D01*
X580668Y1010728D01*
X580631Y1010758D01*
X580569Y1010779D01*
X580510Y1010809D01*
X580456Y1010817D01*
X580419Y1010830D01*
X580379Y1010829D01*
X580325Y1010837D01*
X535875Y1010837D01*
X535810Y1010825D01*
X535744Y1010823D01*
X535701Y1010805D01*
X535654Y1010797D01*
X535597Y1010764D01*
X535537Y1010739D01*
X535502Y1010707D01*
X535461Y1010683D01*
X535420Y1010632D01*
X535371Y1010587D01*
X535349Y1010545D01*
X535320Y1010509D01*
X535299Y1010447D01*
X535268Y1010388D01*
X535260Y1010333D01*
X535248Y1010296D01*
X535249Y1010257D01*
X535241Y1010203D01*
X535241Y964483D01*
X535252Y964418D01*
X535254Y964352D01*
X535272Y964308D01*
X535280Y964262D01*
X535314Y964205D01*
X535339Y964144D01*
X535370Y964109D01*
X535395Y964068D01*
X535446Y964027D01*
X535490Y963978D01*
X535532Y963957D01*
X535569Y963927D01*
X535631Y963906D01*
X535690Y963876D01*
X535744Y963868D01*
X535781Y963855D01*
X535821Y963856D01*
X535875Y963848D01*
X580325Y963848D01*
X580390Y963860D01*
G37*
G36*
X611353Y140360D02*
X611353Y140360D01*
X611401Y140359D01*
X612148Y140458D01*
X612196Y140473D01*
X612286Y140492D01*
X612993Y140754D01*
X613036Y140780D01*
X613119Y140818D01*
X613750Y141231D01*
X613787Y141266D01*
X613859Y141322D01*
X614382Y141865D01*
X614410Y141907D01*
X614469Y141978D01*
X614858Y142623D01*
X614876Y142670D01*
X614917Y142752D01*
X615152Y143468D01*
X615159Y143518D01*
X615181Y143607D01*
X615252Y144358D01*
X615249Y144384D01*
X615254Y144417D01*
X615254Y165881D01*
X619954Y165881D01*
X620019Y165892D01*
X620085Y165894D01*
X620128Y165912D01*
X620175Y165920D01*
X620232Y165954D01*
X620292Y165979D01*
X620327Y166010D01*
X620368Y166035D01*
X620410Y166086D01*
X620458Y166130D01*
X620480Y166172D01*
X620509Y166209D01*
X620530Y166271D01*
X620561Y166330D01*
X620569Y166384D01*
X620581Y166421D01*
X620580Y166461D01*
X620588Y166515D01*
X620588Y172167D01*
X620577Y172231D01*
X620575Y172297D01*
X620557Y172341D01*
X620549Y172387D01*
X620515Y172444D01*
X620490Y172505D01*
X620459Y172540D01*
X620434Y172581D01*
X620383Y172622D01*
X620339Y172671D01*
X620297Y172692D01*
X620260Y172722D01*
X620198Y172743D01*
X620139Y172773D01*
X620085Y172781D01*
X620048Y172794D01*
X620008Y172793D01*
X619954Y172801D01*
X602936Y172801D01*
X602871Y172789D01*
X602805Y172787D01*
X602762Y172769D01*
X602715Y172761D01*
X602658Y172728D01*
X602598Y172703D01*
X602563Y172671D01*
X602522Y172647D01*
X602481Y172596D01*
X602432Y172551D01*
X602410Y172509D01*
X602381Y172473D01*
X602360Y172411D01*
X602329Y172352D01*
X602321Y172297D01*
X602309Y172260D01*
X602310Y172221D01*
X602302Y172167D01*
X602302Y144036D01*
X602310Y143990D01*
X602313Y143917D01*
X602452Y143188D01*
X602471Y143141D01*
X602495Y143053D01*
X602792Y142374D01*
X602820Y142332D01*
X602864Y142251D01*
X603305Y141655D01*
X603342Y141620D01*
X603402Y141551D01*
X603965Y141068D01*
X604009Y141043D01*
X604083Y140989D01*
X604739Y140643D01*
X604787Y140628D01*
X604871Y140592D01*
X605588Y140401D01*
X605638Y140397D01*
X605728Y140380D01*
X606470Y140354D01*
X606480Y140356D01*
X606492Y140354D01*
X611318Y140354D01*
X611353Y140360D01*
G37*
G36*
X556718Y140356D02*
X556718Y140356D01*
X556730Y140354D01*
X557472Y140380D01*
X557521Y140391D01*
X557612Y140401D01*
X558329Y140592D01*
X558375Y140613D01*
X558461Y140643D01*
X559117Y140989D01*
X559157Y141020D01*
X559235Y141068D01*
X559320Y141142D01*
X559321Y141142D01*
X559798Y141551D01*
X559830Y141590D01*
X559895Y141655D01*
X560336Y142251D01*
X560359Y142296D01*
X560408Y142374D01*
X560706Y143053D01*
X560717Y143102D01*
X560748Y143188D01*
X560887Y143917D01*
X560888Y143964D01*
X560898Y144036D01*
X560898Y172167D01*
X560887Y172231D01*
X560885Y172297D01*
X560867Y172341D01*
X560859Y172387D01*
X560825Y172444D01*
X560800Y172505D01*
X560769Y172540D01*
X560744Y172581D01*
X560693Y172622D01*
X560649Y172671D01*
X560607Y172692D01*
X560570Y172722D01*
X560508Y172743D01*
X560449Y172773D01*
X560395Y172781D01*
X560358Y172794D01*
X560318Y172793D01*
X560264Y172801D01*
X543246Y172801D01*
X543181Y172789D01*
X543115Y172787D01*
X543072Y172769D01*
X543025Y172761D01*
X542968Y172728D01*
X542908Y172703D01*
X542873Y172671D01*
X542832Y172647D01*
X542791Y172596D01*
X542742Y172551D01*
X542720Y172509D01*
X542691Y172473D01*
X542670Y172411D01*
X542639Y172352D01*
X542631Y172297D01*
X542619Y172260D01*
X542620Y172221D01*
X542612Y172167D01*
X542612Y166515D01*
X542623Y166450D01*
X542625Y166384D01*
X542643Y166341D01*
X542651Y166294D01*
X542685Y166237D01*
X542710Y166177D01*
X542741Y166142D01*
X542766Y166101D01*
X542817Y166060D01*
X542861Y166011D01*
X542903Y165989D01*
X542940Y165960D01*
X543002Y165939D01*
X543061Y165908D01*
X543115Y165900D01*
X543152Y165888D01*
X543192Y165889D01*
X543246Y165881D01*
X547946Y165881D01*
X547946Y144417D01*
X547950Y144391D01*
X547949Y144358D01*
X548019Y143607D01*
X548032Y143559D01*
X548048Y143468D01*
X548283Y142752D01*
X548307Y142708D01*
X548342Y142623D01*
X548731Y141978D01*
X548765Y141939D01*
X548818Y141865D01*
X549341Y141322D01*
X549382Y141292D01*
X549450Y141231D01*
X550081Y140818D01*
X550127Y140799D01*
X550207Y140754D01*
X550914Y140492D01*
X550964Y140483D01*
X551052Y140458D01*
X551799Y140359D01*
X551835Y140361D01*
X551882Y140354D01*
X556708Y140354D01*
X556718Y140356D01*
G37*
G36*
X620093Y175427D02*
X620093Y175427D01*
X620159Y175429D01*
X620203Y175447D01*
X620249Y175455D01*
X620306Y175489D01*
X620367Y175514D01*
X620402Y175545D01*
X620443Y175570D01*
X620484Y175621D01*
X620533Y175665D01*
X620554Y175707D01*
X620584Y175744D01*
X620605Y175806D01*
X620635Y175865D01*
X620643Y175919D01*
X620656Y175956D01*
X620655Y175996D01*
X620663Y176050D01*
X620663Y189380D01*
X620651Y189445D01*
X620649Y189511D01*
X620631Y189554D01*
X620623Y189601D01*
X620590Y189658D01*
X620565Y189718D01*
X620533Y189753D01*
X620509Y189794D01*
X620458Y189836D01*
X620413Y189884D01*
X620371Y189906D01*
X620335Y189935D01*
X620273Y189956D01*
X620214Y189987D01*
X620159Y189995D01*
X620122Y190007D01*
X620083Y190006D01*
X620029Y190014D01*
X601235Y190014D01*
X601170Y190003D01*
X601104Y190001D01*
X601061Y189983D01*
X601014Y189975D01*
X600957Y189941D01*
X600897Y189916D01*
X600862Y189885D01*
X600821Y189860D01*
X600779Y189809D01*
X600731Y189765D01*
X600709Y189723D01*
X600680Y189686D01*
X600659Y189624D01*
X600628Y189565D01*
X600620Y189511D01*
X600608Y189474D01*
X600608Y189464D01*
X600608Y189463D01*
X600609Y189433D01*
X600601Y189380D01*
X600601Y176050D01*
X600612Y175985D01*
X600614Y175919D01*
X600632Y175876D01*
X600640Y175829D01*
X600674Y175772D01*
X600699Y175712D01*
X600730Y175677D01*
X600755Y175636D01*
X600806Y175595D01*
X600850Y175546D01*
X600892Y175524D01*
X600929Y175495D01*
X600991Y175474D01*
X601050Y175443D01*
X601104Y175435D01*
X601141Y175423D01*
X601181Y175424D01*
X601235Y175416D01*
X620029Y175416D01*
X620093Y175427D01*
G37*
G36*
X562030Y175412D02*
X562030Y175412D01*
X562096Y175414D01*
X562139Y175432D01*
X562186Y175440D01*
X562243Y175474D01*
X562304Y175499D01*
X562338Y175530D01*
X562379Y175555D01*
X562421Y175606D01*
X562469Y175650D01*
X562491Y175692D01*
X562520Y175729D01*
X562542Y175791D01*
X562572Y175850D01*
X562580Y175904D01*
X562592Y175941D01*
X562591Y175981D01*
X562599Y176035D01*
X562599Y189365D01*
X562588Y189430D01*
X562586Y189496D01*
X562568Y189539D01*
X562560Y189586D01*
X562526Y189643D01*
X562501Y189703D01*
X562470Y189738D01*
X562446Y189779D01*
X562394Y189821D01*
X562350Y189869D01*
X562308Y189891D01*
X562271Y189920D01*
X562209Y189941D01*
X562150Y189972D01*
X562096Y189980D01*
X562059Y189992D01*
X562019Y189991D01*
X561965Y189999D01*
X543235Y189999D01*
X543170Y189988D01*
X543104Y189986D01*
X543061Y189968D01*
X543014Y189960D01*
X542957Y189926D01*
X542897Y189901D01*
X542862Y189870D01*
X542821Y189845D01*
X542780Y189794D01*
X542731Y189750D01*
X542709Y189708D01*
X542680Y189671D01*
X542659Y189609D01*
X542628Y189550D01*
X542620Y189496D01*
X542608Y189459D01*
X542608Y189449D01*
X542608Y189448D01*
X542609Y189418D01*
X542601Y189365D01*
X542601Y176035D01*
X542612Y175970D01*
X542614Y175904D01*
X542632Y175861D01*
X542640Y175814D01*
X542674Y175757D01*
X542699Y175697D01*
X542730Y175662D01*
X542755Y175621D01*
X542806Y175580D01*
X542850Y175531D01*
X542892Y175509D01*
X542929Y175480D01*
X542991Y175459D01*
X543050Y175428D01*
X543104Y175420D01*
X543141Y175408D01*
X543181Y175409D01*
X543235Y175401D01*
X561965Y175401D01*
X562030Y175412D01*
G37*
%LPC*%
G36*
X419309Y1300890D02*
X419309Y1300890D01*
X419309Y1319783D01*
X430582Y1319783D01*
X430582Y1302628D01*
X430445Y1302119D01*
X430182Y1301662D01*
X429810Y1301290D01*
X429353Y1301027D01*
X428844Y1300890D01*
X419309Y1300890D01*
G37*
%LPD*%
%LPC*%
G36*
X670981Y1300890D02*
X670981Y1300890D01*
X670981Y1319783D01*
X682254Y1319783D01*
X682254Y1302628D01*
X682117Y1302119D01*
X681854Y1301662D01*
X681482Y1301290D01*
X681025Y1301027D01*
X680516Y1300890D01*
X670981Y1300890D01*
G37*
%LPD*%
%LPC*%
G36*
X740873Y1300890D02*
X740873Y1300890D01*
X740873Y1319783D01*
X752146Y1319783D01*
X752146Y1302628D01*
X752009Y1302119D01*
X751746Y1301662D01*
X751374Y1301290D01*
X750917Y1301027D01*
X750408Y1300890D01*
X740873Y1300890D01*
G37*
%LPD*%
%LPC*%
G36*
X349417Y1300890D02*
X349417Y1300890D01*
X349417Y1319783D01*
X360690Y1319783D01*
X360690Y1302628D01*
X360553Y1302119D01*
X360290Y1301662D01*
X359918Y1301290D01*
X359461Y1301027D01*
X358952Y1300890D01*
X349417Y1300890D01*
G37*
%LPD*%
%LPC*%
G36*
X331756Y1300890D02*
X331756Y1300890D01*
X331247Y1301027D01*
X330790Y1301290D01*
X330418Y1301662D01*
X330155Y1302119D01*
X330018Y1302628D01*
X330018Y1319783D01*
X341291Y1319783D01*
X341291Y1300890D01*
X331756Y1300890D01*
G37*
%LPD*%
%LPC*%
G36*
X653320Y1300890D02*
X653320Y1300890D01*
X652811Y1301027D01*
X652354Y1301290D01*
X651982Y1301662D01*
X651719Y1302119D01*
X651582Y1302628D01*
X651582Y1319783D01*
X662855Y1319783D01*
X662855Y1300890D01*
X653320Y1300890D01*
G37*
%LPD*%
%LPC*%
G36*
X723212Y1300890D02*
X723212Y1300890D01*
X722703Y1301027D01*
X722246Y1301290D01*
X721874Y1301662D01*
X721611Y1302119D01*
X721474Y1302628D01*
X721474Y1319783D01*
X732747Y1319783D01*
X732747Y1300890D01*
X723212Y1300890D01*
G37*
%LPD*%
%LPC*%
G36*
X401648Y1300890D02*
X401648Y1300890D01*
X401139Y1301027D01*
X400682Y1301290D01*
X400310Y1301662D01*
X400047Y1302119D01*
X399910Y1302628D01*
X399910Y1319783D01*
X411183Y1319783D01*
X411183Y1300890D01*
X401648Y1300890D01*
G37*
%LPD*%
%LPC*%
G36*
X344231Y1233531D02*
X344231Y1233531D01*
X344231Y1237223D01*
X345073Y1236875D01*
X346066Y1236211D01*
X346911Y1235366D01*
X347575Y1234373D01*
X347923Y1233531D01*
X344231Y1233531D01*
G37*
%LPD*%
%LPC*%
G36*
X407731Y1233531D02*
X407731Y1233531D01*
X407731Y1237223D01*
X408573Y1236875D01*
X409566Y1236211D01*
X410411Y1235366D01*
X411075Y1234373D01*
X411423Y1233531D01*
X407731Y1233531D01*
G37*
%LPD*%
%LPC*%
G36*
X336477Y1233531D02*
X336477Y1233531D01*
X336825Y1234373D01*
X337489Y1235366D01*
X338334Y1236211D01*
X339327Y1236875D01*
X340169Y1237223D01*
X340169Y1233531D01*
X336477Y1233531D01*
G37*
%LPD*%
%LPC*%
G36*
X399977Y1233531D02*
X399977Y1233531D01*
X400325Y1234373D01*
X400989Y1235366D01*
X401834Y1236211D01*
X402827Y1236875D01*
X403669Y1237223D01*
X403669Y1233531D01*
X399977Y1233531D01*
G37*
%LPD*%
%LPC*%
G36*
X407731Y1229469D02*
X407731Y1229469D01*
X411423Y1229469D01*
X411075Y1228627D01*
X410411Y1227634D01*
X409566Y1226789D01*
X408573Y1226125D01*
X407731Y1225777D01*
X407731Y1229469D01*
G37*
%LPD*%
%LPC*%
G36*
X344231Y1229469D02*
X344231Y1229469D01*
X347923Y1229469D01*
X347575Y1228627D01*
X346911Y1227634D01*
X346066Y1226789D01*
X345073Y1226125D01*
X344231Y1225777D01*
X344231Y1229469D01*
G37*
%LPD*%
%LPC*%
G36*
X402827Y1226125D02*
X402827Y1226125D01*
X401834Y1226789D01*
X400989Y1227634D01*
X400325Y1228627D01*
X399977Y1229469D01*
X403669Y1229469D01*
X403669Y1225777D01*
X402827Y1226125D01*
G37*
%LPD*%
%LPC*%
G36*
X339327Y1226125D02*
X339327Y1226125D01*
X338334Y1226789D01*
X337489Y1227634D01*
X336825Y1228627D01*
X336477Y1229469D01*
X340169Y1229469D01*
X340169Y1225777D01*
X339327Y1226125D01*
G37*
%LPD*%
%LPC*%
G36*
X750631Y1271631D02*
X750631Y1271631D01*
X750631Y1273652D01*
X750741Y1273606D01*
X751482Y1273111D01*
X752111Y1272482D01*
X752606Y1271741D01*
X752652Y1271631D01*
X750631Y1271631D01*
G37*
%LPD*%
%LPC*%
G36*
X661731Y1271631D02*
X661731Y1271631D01*
X661731Y1273652D01*
X661841Y1273606D01*
X662582Y1273111D01*
X663211Y1272482D01*
X663706Y1271741D01*
X663752Y1271631D01*
X661731Y1271631D01*
G37*
%LPD*%
%LPC*%
G36*
X744548Y1271631D02*
X744548Y1271631D01*
X744594Y1271741D01*
X745089Y1272482D01*
X745718Y1273111D01*
X746459Y1273606D01*
X746569Y1273652D01*
X746569Y1271631D01*
X744548Y1271631D01*
G37*
%LPD*%
%LPC*%
G36*
X655648Y1271631D02*
X655648Y1271631D01*
X655694Y1271741D01*
X656189Y1272482D01*
X656818Y1273111D01*
X657559Y1273606D01*
X657669Y1273652D01*
X657669Y1271631D01*
X655648Y1271631D01*
G37*
%LPD*%
%LPC*%
G36*
X661731Y1267569D02*
X661731Y1267569D01*
X663752Y1267569D01*
X663706Y1267459D01*
X663211Y1266718D01*
X662582Y1266089D01*
X661841Y1265594D01*
X661731Y1265548D01*
X661731Y1267569D01*
G37*
%LPD*%
%LPC*%
G36*
X750631Y1267569D02*
X750631Y1267569D01*
X752652Y1267569D01*
X752606Y1267459D01*
X752111Y1266718D01*
X751482Y1266089D01*
X750741Y1265594D01*
X750631Y1265548D01*
X750631Y1267569D01*
G37*
%LPD*%
%LPC*%
G36*
X746459Y1265594D02*
X746459Y1265594D01*
X745718Y1266089D01*
X745089Y1266718D01*
X744594Y1267459D01*
X744548Y1267569D01*
X746569Y1267569D01*
X746569Y1265548D01*
X746459Y1265594D01*
G37*
%LPD*%
%LPC*%
G36*
X657559Y1265594D02*
X657559Y1265594D01*
X656818Y1266089D01*
X656189Y1266718D01*
X655694Y1267459D01*
X655648Y1267569D01*
X657669Y1267569D01*
X657669Y1265548D01*
X657559Y1265594D01*
G37*
%LPD*%
D10*
X326516Y179432D02*
X326516Y188075D01*
X322194Y188075D01*
X320753Y186635D01*
X320753Y185194D01*
X322194Y183754D01*
X320753Y182313D01*
X320753Y180873D01*
X322194Y179432D01*
X326516Y179432D01*
X326516Y183754D02*
X322194Y183754D01*
X315720Y188075D02*
X312839Y188075D01*
X315720Y188075D02*
X317160Y186635D01*
X317160Y180873D01*
X315720Y179432D01*
X312839Y179432D01*
X311398Y180873D01*
X311398Y186635D01*
X312839Y188075D01*
X304924Y188075D02*
X304924Y179432D01*
X307805Y188075D02*
X302043Y188075D01*
X295569Y188075D02*
X295569Y179432D01*
X298450Y188075D02*
X292688Y188075D01*
X287654Y188075D02*
X284773Y188075D01*
X287654Y188075D02*
X289095Y186635D01*
X289095Y180873D01*
X287654Y179432D01*
X284773Y179432D01*
X283333Y180873D01*
X283333Y186635D01*
X284773Y188075D01*
X279740Y188075D02*
X279740Y179432D01*
X276858Y185194D02*
X279740Y188075D01*
X276858Y185194D02*
X273977Y188075D01*
X273977Y179432D01*
D11*
X316800Y1046080D03*
X291400Y1046080D03*
D12*
X291400Y1020680D03*
X316800Y1020680D03*
D11*
X766100Y874910D03*
X791500Y874910D03*
D13*
X416010Y850410D03*
X666000Y850410D03*
D14*
X588301Y1193720D03*
D15*
X553299Y1193720D03*
D14*
X689901Y1193720D03*
D15*
X654899Y1193720D03*
D12*
X860000Y1045000D03*
X795000Y1060000D03*
D11*
X860000Y1020000D03*
D12*
X770000Y1060000D03*
D11*
X860000Y995000D03*
X770000Y1010000D03*
D16*
X195850Y370100D03*
X179850Y370100D03*
X179850Y329100D03*
X195850Y329100D03*
D17*
X554244Y152189D03*
X608956Y152189D03*
D18*
X557343Y182873D03*
X605857Y182873D03*
D19*
X297120Y1120690D03*
X373320Y1120690D03*
X708600Y1120690D03*
X784800Y1120690D03*
X784800Y946700D03*
X708600Y946700D03*
X373320Y946700D03*
X297120Y946700D03*
X297120Y772710D03*
X373320Y772710D03*
X708600Y772710D03*
X784800Y772710D03*
D20*
X345354Y1323846D03*
X415246Y1323846D03*
X666918Y1323846D03*
X736810Y1323846D03*
D12*
X816900Y874910D03*
D11*
X766100Y849510D03*
D21*
X487300Y1250550D03*
X538100Y1250550D03*
X563500Y1250550D03*
X588900Y1250550D03*
X614300Y1250550D03*
X614300Y1301350D03*
X588900Y1301350D03*
X563500Y1301350D03*
X538100Y1301350D03*
X487300Y1301350D03*
D22*
X481900Y1328020D03*
X507300Y1328020D03*
X532700Y1328020D03*
X608900Y1328020D03*
X583500Y1328020D03*
X558100Y1328020D03*
D11*
X791500Y849510D03*
D22*
X816900Y849510D03*
D19*
X297120Y598720D03*
X373320Y598720D03*
X708600Y598720D03*
X784800Y598720D03*
X784800Y424730D03*
X708600Y424730D03*
X373320Y424730D03*
X297120Y424730D03*
X297120Y250740D03*
X373320Y250740D03*
X708600Y250740D03*
X784800Y250740D03*
D23*
X197500Y1190000D03*
X197500Y1151900D03*
X197500Y1113800D03*
D22*
X200000Y880000D03*
X200000Y830000D03*
X200000Y805000D03*
X200000Y855000D03*
X860000Y1070000D03*
D24*
X458723Y940670D02*
X441260Y958133D01*
X411415Y958133D01*
D25*
X411415Y958133D03*
X631125Y1136568D03*
D26*
X499998Y1191178D03*
D24*
X458723Y940670D02*
X458723Y848278D01*
X631125Y1213085D02*
X631443Y1213403D01*
X629855Y1214990D01*
X610488Y1214990D01*
X631125Y1213085D02*
X631125Y1136568D01*
X656208Y1141330D02*
X656208Y1102595D01*
X673988Y1084815D01*
D26*
X632395Y904956D03*
D24*
X656208Y1141330D02*
X672718Y1157840D01*
X673988Y1084815D02*
X673988Y1039730D01*
X632395Y998138D01*
D26*
X604455Y875927D03*
X604455Y836848D03*
D25*
X568260Y808590D03*
D24*
X470153Y836848D02*
X458723Y848278D01*
X470153Y836848D02*
X573023Y836848D01*
X604455Y836848D01*
X572812Y813142D02*
X568260Y808590D01*
X572812Y813142D02*
X572812Y821896D01*
X573023Y836848D01*
D27*
X610488Y1214990D03*
D24*
X629855Y1214990D02*
X672718Y1214990D01*
X672718Y1157840D01*
X672718Y1214990D02*
X726058Y1214990D01*
X746695Y1235628D01*
D27*
X746695Y1235628D03*
D24*
X610488Y1214990D02*
X523810Y1214990D01*
X499998Y1191178D01*
X604455Y875927D02*
X604455Y836848D01*
D27*
X653668Y807003D03*
D28*
X578952Y807003D01*
X572812Y813142D01*
D24*
X632395Y904956D02*
X632395Y998138D01*
D25*
X617155Y1114978D03*
X667955Y1115613D03*
D29*
X560640Y1033063D03*
D28*
X557465Y1036238D01*
X557465Y1064178D01*
D25*
X557465Y1064178D03*
D28*
X195850Y370100D02*
X195850Y329100D01*
X432847Y1048620D02*
X432847Y1049417D01*
X432847Y1048620D02*
X440942Y1048620D01*
X440942Y1048620D01*
X432847Y1048620D01*
X432847Y1047823D01*
X433158Y1046258D01*
X433768Y1044785D01*
X434654Y1043459D01*
X435782Y1042331D01*
X437108Y1041445D01*
X438581Y1040835D01*
X440145Y1040524D01*
X440942Y1040524D01*
X440942Y1048620D01*
X440943Y1048620D01*
X440943Y1040524D01*
X441740Y1040524D01*
X443304Y1040835D01*
X444777Y1041445D01*
X446103Y1042331D01*
X447231Y1043459D01*
X448117Y1044785D01*
X448727Y1046258D01*
X448872Y1046988D01*
X455161Y1046988D01*
X457498Y1046020D01*
X458679Y1046020D01*
X458679Y1033443D01*
X459684Y1031016D01*
X468079Y1022621D01*
X449008Y1022621D01*
X448722Y1022908D01*
X445734Y1024145D01*
X442501Y1024145D01*
X439513Y1022908D01*
X439227Y1022621D01*
X354711Y1022621D01*
X354424Y1022908D01*
X351437Y1024145D01*
X349038Y1024145D01*
X374509Y1049616D01*
X432886Y1049616D01*
X432847Y1049417D01*
X617155Y1114978D02*
X617155Y1122057D01*
X617155Y1114978D02*
X617155Y1114978D01*
X617155Y1122057D01*
X616458Y1122057D01*
X615090Y1121785D01*
X614234Y1121431D01*
X614234Y1149499D01*
X612842Y1152860D01*
X610270Y1155432D01*
X586714Y1178988D01*
X591231Y1178988D01*
X596646Y1181231D01*
X600790Y1185375D01*
X603033Y1190790D01*
X603033Y1196650D01*
X600790Y1202065D01*
X597009Y1205846D01*
X621981Y1205846D01*
X621981Y1134749D01*
X623373Y1131388D01*
X625945Y1128816D01*
X629306Y1127424D01*
X632944Y1127424D01*
X636305Y1128816D01*
X638877Y1131388D01*
X639253Y1132296D01*
X639253Y1073316D01*
X637706Y1073956D01*
X619355Y1073956D01*
X614234Y1079078D01*
X614234Y1108524D01*
X615090Y1108170D01*
X616458Y1107898D01*
X617155Y1107898D01*
X617155Y1114977D01*
X617155Y1114977D01*
X617155Y1107898D01*
X617852Y1107898D01*
X619220Y1108170D01*
X620509Y1108703D01*
X621668Y1109478D01*
X622654Y1110464D01*
X623429Y1111624D01*
X623963Y1112912D01*
X624235Y1114280D01*
X624235Y1114977D01*
X617155Y1114977D01*
X617155Y1114978D01*
X624235Y1114978D01*
X624235Y1115675D01*
X623963Y1117043D01*
X623429Y1118331D01*
X622654Y1119491D01*
X621668Y1120477D01*
X620509Y1121252D01*
X619220Y1121785D01*
X617852Y1122057D01*
X617155Y1122057D01*
X614298Y1176890D02*
X614298Y1183970D01*
X614298Y1176890D02*
X614297Y1176890D01*
X614297Y1183970D01*
X613600Y1183970D01*
X612232Y1183698D01*
X610944Y1183164D01*
X609784Y1182389D01*
X608798Y1181403D01*
X608023Y1180244D01*
X607490Y1178955D01*
X607218Y1177587D01*
X607218Y1176890D01*
X614297Y1176890D01*
X614297Y1176890D01*
X607218Y1176890D01*
X607218Y1176193D01*
X607490Y1174825D01*
X608023Y1173536D01*
X608798Y1172377D01*
X609784Y1171391D01*
X610944Y1170616D01*
X612232Y1170082D01*
X613600Y1169810D01*
X614297Y1169810D01*
X614297Y1176890D01*
X614298Y1176890D01*
X614298Y1169810D01*
X614995Y1169810D01*
X616363Y1170082D01*
X617651Y1170616D01*
X618811Y1171391D01*
X619797Y1172377D01*
X620572Y1173536D01*
X621105Y1174825D01*
X621377Y1176193D01*
X621377Y1176890D01*
X614298Y1176890D01*
X614298Y1176890D01*
X621377Y1176890D01*
X621377Y1177587D01*
X621105Y1178955D01*
X620572Y1180244D01*
X619797Y1181403D01*
X618811Y1182389D01*
X617651Y1183164D01*
X616363Y1183698D01*
X614995Y1183970D01*
X614298Y1183970D01*
X860508Y1058684D02*
X860508Y1045508D01*
X859492Y1045508D01*
X859492Y1069492D01*
X860508Y1069492D01*
X860508Y1058684D01*
X199492Y829492D02*
X199492Y816316D01*
X199492Y829492D02*
X200508Y829492D01*
X200508Y805508D01*
X199492Y805508D01*
X199492Y816316D01*
X554244Y152190D02*
X554244Y152190D01*
X554244Y171368D01*
X554244Y171368D01*
X554244Y152190D01*
X702257Y827955D02*
X704783Y827955D01*
X702257Y827955D02*
X699923Y826988D01*
X698137Y825202D01*
X697170Y822868D01*
X697170Y790657D01*
X696730Y790475D01*
X690835Y784580D01*
X689706Y781854D01*
X670681Y781854D01*
X667320Y780462D01*
X664748Y777890D01*
X663356Y774529D01*
X663356Y521644D01*
X266644Y521644D01*
X266644Y543475D01*
X379663Y543475D01*
X381997Y544442D01*
X383783Y546228D01*
X384750Y548562D01*
X384750Y580773D01*
X385190Y580955D01*
X391085Y586850D01*
X394275Y594552D01*
X394275Y602888D01*
X391085Y610590D01*
X385190Y616485D01*
X384750Y616667D01*
X384750Y648878D01*
X383783Y651212D01*
X381997Y652998D01*
X379663Y653965D01*
X279144Y653965D01*
X279144Y717465D01*
X379663Y717465D01*
X381997Y718432D01*
X383783Y720218D01*
X384750Y722552D01*
X384750Y754763D01*
X385190Y754945D01*
X391085Y760840D01*
X394275Y768542D01*
X394275Y776878D01*
X391085Y784580D01*
X385190Y790475D01*
X384750Y790657D01*
X384750Y822868D01*
X383783Y825202D01*
X381997Y826988D01*
X379663Y827955D01*
X306264Y827955D01*
X306264Y891455D01*
X379663Y891455D01*
X381997Y892422D01*
X383783Y894208D01*
X384750Y896542D01*
X384750Y928753D01*
X385190Y928935D01*
X391085Y934830D01*
X394275Y942532D01*
X394275Y950868D01*
X391085Y958570D01*
X385190Y964465D01*
X384750Y964647D01*
X384750Y996858D01*
X383783Y999192D01*
X381997Y1000978D01*
X379663Y1001945D01*
X340808Y1001945D01*
X344802Y1005939D01*
X345884Y1008553D01*
X345884Y1008850D01*
X348203Y1007890D01*
X351437Y1007890D01*
X354424Y1009127D01*
X354711Y1009414D01*
X393434Y1009414D01*
X392459Y1008439D01*
X391222Y1005452D01*
X391222Y1002218D01*
X392459Y999231D01*
X394746Y996944D01*
X397733Y995707D01*
X398413Y995707D01*
X397921Y995503D01*
X395634Y993217D01*
X394397Y990229D01*
X394397Y986996D01*
X395634Y984008D01*
X397921Y981722D01*
X400908Y980485D01*
X404142Y980485D01*
X406595Y981501D01*
X465130Y981501D01*
X467583Y980485D01*
X470817Y980485D01*
X473804Y981722D01*
X476091Y984008D01*
X477328Y986996D01*
X477328Y989560D01*
X486958Y979930D01*
X487720Y978090D01*
X488031Y977779D01*
X487234Y975855D01*
X487234Y972762D01*
X486188Y973195D01*
X484820Y973467D01*
X484123Y973467D01*
X484123Y966388D01*
X484122Y966388D01*
X484122Y973467D01*
X483425Y973467D01*
X482057Y973195D01*
X480769Y972662D01*
X479609Y971887D01*
X478623Y970901D01*
X477848Y969741D01*
X477315Y968453D01*
X477043Y967085D01*
X477043Y966388D01*
X484122Y966388D01*
X484122Y966387D01*
X477043Y966387D01*
X477043Y965690D01*
X477315Y964322D01*
X477848Y963034D01*
X478623Y961874D01*
X479609Y960888D01*
X480769Y960113D01*
X482057Y959580D01*
X483425Y959308D01*
X484122Y959308D01*
X484122Y966387D01*
X484123Y966387D01*
X484123Y959308D01*
X484820Y959308D01*
X486188Y959580D01*
X487234Y960013D01*
X487234Y953427D01*
X488162Y951187D01*
X489877Y949472D01*
X498347Y941002D01*
X498347Y937178D01*
X497839Y935951D01*
X497839Y891268D01*
X497552Y890982D01*
X496315Y887994D01*
X496315Y884761D01*
X497552Y881773D01*
X499838Y879487D01*
X502826Y878250D01*
X505141Y878250D01*
X505141Y862204D01*
X506146Y859777D01*
X519932Y845991D01*
X473940Y845991D01*
X467866Y852065D01*
X467866Y942489D01*
X466474Y945850D01*
X463902Y948422D01*
X463902Y948422D01*
X449012Y963312D01*
X446440Y965884D01*
X443079Y967276D01*
X409596Y967276D01*
X406235Y965884D01*
X403663Y963312D01*
X402271Y959951D01*
X402271Y956314D01*
X403663Y952953D01*
X406235Y950381D01*
X409596Y948989D01*
X437472Y948989D01*
X449579Y936882D01*
X449579Y846459D01*
X450971Y843098D01*
X462401Y831668D01*
X464973Y829096D01*
X468334Y827704D01*
X563749Y827704D01*
X563733Y826560D01*
X562833Y826560D01*
X559846Y825323D01*
X557559Y823037D01*
X556543Y820584D01*
X554611Y818651D01*
X553528Y816037D01*
X553528Y761371D01*
X550455Y758298D01*
X550451Y758298D01*
X547463Y757061D01*
X545177Y754774D01*
X543940Y751787D01*
X543940Y748553D01*
X545177Y745566D01*
X547463Y743279D01*
X550451Y742042D01*
X553684Y742042D01*
X556672Y743279D01*
X558958Y745566D01*
X559750Y747477D01*
X566669Y754396D01*
X567752Y757010D01*
X567752Y792588D01*
X644310Y792588D01*
X645488Y792100D01*
X648512Y792100D01*
X651305Y793257D01*
X653443Y795395D01*
X654600Y798188D01*
X654600Y799403D01*
X655179Y799403D01*
X657973Y800560D01*
X660110Y802697D01*
X661267Y805491D01*
X661267Y808514D01*
X660110Y811308D01*
X657973Y813445D01*
X655179Y814602D01*
X652156Y814602D01*
X650978Y814114D01*
X581956Y814114D01*
X581956Y821831D01*
X582039Y827704D01*
X606274Y827704D01*
X609635Y829096D01*
X612207Y831668D01*
X613599Y835029D01*
X613599Y877746D01*
X612207Y881106D01*
X609635Y883679D01*
X606274Y885071D01*
X602636Y885071D01*
X599275Y883679D01*
X596703Y881106D01*
X595311Y877746D01*
X595311Y845991D01*
X590333Y845991D01*
X590363Y846021D01*
X591481Y848721D01*
X591481Y851644D01*
X590363Y854344D01*
X588296Y856410D01*
X585596Y857528D01*
X582674Y857528D01*
X579974Y856410D01*
X577907Y854344D01*
X577165Y852552D01*
X576637Y852024D01*
X547813Y852024D01*
X547813Y852753D01*
X548734Y853134D01*
X551021Y855421D01*
X552258Y858408D01*
X552258Y861642D01*
X551021Y864629D01*
X548734Y866916D01*
X545747Y868153D01*
X545341Y868153D01*
X533331Y880163D01*
X534764Y880757D01*
X537051Y883043D01*
X538288Y886031D01*
X538288Y889264D01*
X537051Y892252D01*
X536764Y892538D01*
X536764Y903359D01*
X536803Y903333D01*
X538276Y902723D01*
X539840Y902412D01*
X540637Y902412D01*
X540637Y910507D01*
X540638Y910507D01*
X540638Y902412D01*
X541435Y902412D01*
X542999Y902723D01*
X544472Y903333D01*
X545798Y904219D01*
X546926Y905347D01*
X547812Y906673D01*
X548422Y908146D01*
X548733Y909710D01*
X548733Y910507D01*
X540638Y910507D01*
X540638Y910508D01*
X548733Y910508D01*
X548733Y911305D01*
X548422Y912869D01*
X547812Y914342D01*
X546926Y915668D01*
X545798Y916796D01*
X544472Y917682D01*
X542999Y918292D01*
X541435Y918603D01*
X540638Y918603D01*
X540638Y910508D01*
X540637Y910508D01*
X540637Y918603D01*
X539840Y918603D01*
X538276Y918292D01*
X536803Y917682D01*
X536764Y917656D01*
X536764Y926253D01*
X537526Y928092D01*
X537526Y931023D01*
X536405Y933730D01*
X534333Y935802D01*
X531625Y936923D01*
X529906Y936923D01*
X529906Y947280D01*
X528978Y949521D01*
X523795Y954704D01*
X534014Y954704D01*
X536441Y955709D01*
X538299Y957567D01*
X539499Y958768D01*
X559116Y958768D01*
X559116Y948102D01*
X558354Y946263D01*
X558354Y943332D01*
X559475Y940625D01*
X561547Y938553D01*
X563434Y937772D01*
X563434Y936982D01*
X564555Y934275D01*
X566627Y932203D01*
X568467Y931441D01*
X619369Y880539D01*
X621226Y878682D01*
X623654Y877676D01*
X649259Y877676D01*
X646931Y876121D01*
X644503Y874128D01*
X642282Y871907D01*
X640289Y869479D01*
X638544Y866867D01*
X637063Y864096D01*
X635861Y861194D01*
X634949Y858188D01*
X634336Y855107D01*
X634073Y852442D01*
X663968Y852442D01*
X663968Y848378D01*
X634073Y848378D01*
X634336Y845713D01*
X634949Y842632D01*
X635861Y839626D01*
X637063Y836724D01*
X638544Y833953D01*
X640289Y831341D01*
X642282Y828913D01*
X644503Y826692D01*
X646931Y824699D01*
X649543Y822954D01*
X652314Y821473D01*
X655216Y820271D01*
X658222Y819359D01*
X661303Y818746D01*
X663968Y818483D01*
X663968Y848378D01*
X668032Y848378D01*
X668032Y818483D01*
X670697Y818746D01*
X673778Y819359D01*
X676784Y820271D01*
X679686Y821473D01*
X682457Y822954D01*
X685069Y824699D01*
X687497Y826692D01*
X689718Y828913D01*
X691711Y831341D01*
X693456Y833953D01*
X694937Y836724D01*
X696139Y839626D01*
X697051Y842632D01*
X697664Y845713D01*
X697927Y848378D01*
X668032Y848378D01*
X668032Y852442D01*
X697927Y852442D01*
X697664Y855107D01*
X697051Y858188D01*
X696139Y861194D01*
X694937Y864096D01*
X693456Y866867D01*
X691711Y869479D01*
X690698Y870713D01*
X751368Y870713D01*
X751368Y868808D01*
X757966Y862210D01*
X751368Y855612D01*
X751368Y843408D01*
X759998Y834778D01*
X772202Y834778D01*
X778800Y841376D01*
X785398Y834778D01*
X797602Y834778D01*
X804200Y841376D01*
X807756Y837820D01*
X807756Y827955D01*
X704783Y827955D01*
X481583Y898443D02*
X481583Y906538D01*
X481583Y898443D02*
X481582Y898443D01*
X481582Y906538D01*
X480785Y906538D01*
X479221Y906227D01*
X477748Y905617D01*
X476422Y904731D01*
X475294Y903603D01*
X474408Y902277D01*
X473798Y900804D01*
X473487Y899240D01*
X473487Y898443D01*
X481582Y898443D01*
X481582Y898442D01*
X473487Y898442D01*
X473487Y897645D01*
X473798Y896081D01*
X474408Y894608D01*
X475294Y893282D01*
X476422Y892154D01*
X477748Y891268D01*
X479221Y890658D01*
X480785Y890347D01*
X481582Y890347D01*
X481582Y898442D01*
X481583Y898442D01*
X481583Y890347D01*
X482380Y890347D01*
X483944Y890658D01*
X485417Y891268D01*
X486743Y892154D01*
X487871Y893282D01*
X488757Y894608D01*
X489367Y896081D01*
X489678Y897645D01*
X489678Y898442D01*
X481583Y898442D01*
X481583Y898443D01*
X489678Y898443D01*
X489678Y899240D01*
X489367Y900804D01*
X488757Y902277D01*
X487871Y903603D01*
X486743Y904731D01*
X485417Y905617D01*
X483944Y906227D01*
X482380Y906538D01*
X481583Y906538D01*
X418042Y882337D02*
X418042Y852442D01*
X413978Y852442D01*
X413978Y882337D01*
X411313Y882074D01*
X408232Y881461D01*
X405226Y880549D01*
X402324Y879347D01*
X399553Y877866D01*
X396941Y876121D01*
X394513Y874128D01*
X392292Y871907D01*
X390299Y869479D01*
X388554Y866867D01*
X387073Y864096D01*
X385871Y861194D01*
X384959Y858188D01*
X384346Y855107D01*
X384083Y852442D01*
X413978Y852442D01*
X413978Y848378D01*
X384083Y848378D01*
X384346Y845713D01*
X384959Y842632D01*
X385871Y839626D01*
X387073Y836724D01*
X388554Y833953D01*
X390299Y831341D01*
X392292Y828913D01*
X394513Y826692D01*
X396941Y824699D01*
X399553Y822954D01*
X402324Y821473D01*
X405226Y820271D01*
X408232Y819359D01*
X411313Y818746D01*
X413978Y818483D01*
X413978Y848378D01*
X418042Y848378D01*
X418042Y818483D01*
X420707Y818746D01*
X423788Y819359D01*
X426794Y820271D01*
X429696Y821473D01*
X432467Y822954D01*
X435079Y824699D01*
X437507Y826692D01*
X439728Y828913D01*
X441721Y831341D01*
X443466Y833953D01*
X444947Y836724D01*
X446149Y839626D01*
X447061Y842632D01*
X447674Y845713D01*
X447937Y848378D01*
X418042Y848378D01*
X418042Y852442D01*
X447937Y852442D01*
X447674Y855107D01*
X447061Y858188D01*
X446149Y861194D01*
X444947Y864096D01*
X443466Y866867D01*
X441721Y869479D01*
X439728Y871907D01*
X437507Y874128D01*
X435079Y876121D01*
X432467Y877866D01*
X429696Y879347D01*
X426794Y880549D01*
X423788Y881461D01*
X420707Y882074D01*
X418042Y882337D01*
X556368Y672119D02*
X556368Y672119D01*
X558220Y685000D01*
X556368Y697881D01*
X556368Y697881D01*
X550962Y709718D01*
X550962Y709718D01*
X542440Y719553D01*
X542440Y719553D01*
X531493Y726588D01*
X531493Y726588D01*
X519007Y730255D01*
X505993Y730255D01*
X493507Y726588D01*
X493507Y726588D01*
X482560Y719553D01*
X482560Y719553D01*
X482560Y719553D01*
X474038Y709718D01*
X474038Y709718D01*
X468632Y697881D01*
X468632Y697881D01*
X466780Y685000D01*
X466780Y685000D01*
X468632Y672119D01*
X468632Y672119D01*
X474038Y660282D01*
X474038Y660282D01*
X482560Y650447D01*
X482560Y650447D01*
X493507Y643412D01*
X493507Y643412D01*
X505993Y639745D01*
X519007Y639745D01*
X531493Y643412D01*
X531493Y643412D01*
X542440Y650447D01*
X542440Y650447D01*
X542440Y650447D01*
X550962Y660282D01*
X550962Y660282D01*
X556368Y672119D01*
X452690Y972738D02*
X452690Y979817D01*
X452690Y972738D02*
X452690Y972738D01*
X452690Y979817D01*
X451993Y979817D01*
X450625Y979545D01*
X449336Y979012D01*
X448177Y978237D01*
X447191Y977251D01*
X446416Y976091D01*
X445882Y974803D01*
X445610Y973435D01*
X445610Y972738D01*
X452690Y972738D01*
X452690Y972737D01*
X445610Y972737D01*
X445610Y972040D01*
X445882Y970672D01*
X446416Y969384D01*
X447191Y968224D01*
X448177Y967238D01*
X449336Y966463D01*
X450625Y965930D01*
X451993Y965658D01*
X452690Y965658D01*
X452690Y972737D01*
X452690Y972737D01*
X452690Y965658D01*
X453387Y965658D01*
X454755Y965930D01*
X456044Y966463D01*
X457203Y967238D01*
X458189Y968224D01*
X458964Y969384D01*
X459498Y970672D01*
X459770Y972040D01*
X459770Y972737D01*
X452690Y972737D01*
X452690Y972738D01*
X459770Y972738D01*
X459770Y973435D01*
X459498Y974803D01*
X458964Y976091D01*
X458189Y977251D01*
X457203Y978237D01*
X456044Y979012D01*
X454755Y979545D01*
X453387Y979817D01*
X452690Y979817D01*
X331532Y1039978D02*
X324934Y1033380D01*
X331532Y1039978D02*
X331532Y1052182D01*
X322902Y1060812D01*
X310698Y1060812D01*
X303359Y1053473D01*
X297068Y1059764D01*
X291908Y1059764D01*
X291908Y1046588D01*
X290892Y1046588D01*
X290892Y1059764D01*
X285732Y1059764D01*
X279144Y1053176D01*
X279144Y1065445D01*
X360380Y1065445D01*
X327441Y1032507D01*
X326624Y1031690D01*
X324934Y1033380D01*
X534986Y1069062D02*
X534986Y1071993D01*
X533865Y1074700D01*
X531793Y1076772D01*
X529085Y1077893D01*
X526155Y1077893D01*
X523447Y1076772D01*
X521375Y1074700D01*
X520254Y1071993D01*
X520254Y1069062D01*
X521375Y1066355D01*
X521524Y1066206D01*
X521524Y1052733D01*
X517475Y1048683D01*
X517336Y1048683D01*
X517188Y1048832D01*
X514480Y1049953D01*
X511550Y1049953D01*
X508842Y1048832D01*
X506770Y1046760D01*
X505649Y1044053D01*
X505649Y1041122D01*
X506770Y1038415D01*
X508842Y1036343D01*
X511550Y1035222D01*
X513269Y1035222D01*
X513269Y1020108D01*
X512185Y1020108D01*
X509477Y1018987D01*
X507405Y1016915D01*
X506539Y1014822D01*
X505143Y1016218D01*
X505143Y1096528D01*
X508456Y1099865D01*
X509552Y1099865D01*
X510094Y1100089D01*
X510094Y1098469D01*
X509299Y1097674D01*
X508062Y1094687D01*
X508062Y1091453D01*
X509299Y1088466D01*
X511586Y1086179D01*
X514573Y1084942D01*
X517807Y1084942D01*
X520794Y1086179D01*
X523081Y1088466D01*
X524318Y1091453D01*
X524318Y1094687D01*
X523081Y1097674D01*
X522286Y1098469D01*
X522286Y1099489D01*
X523113Y1099325D01*
X523810Y1099325D01*
X523810Y1106405D01*
X523810Y1106405D01*
X523810Y1099325D01*
X524507Y1099325D01*
X525875Y1099597D01*
X527164Y1100131D01*
X528323Y1100906D01*
X529309Y1101892D01*
X530084Y1103051D01*
X530618Y1104340D01*
X530890Y1105708D01*
X530890Y1106405D01*
X523810Y1106405D01*
X523810Y1106405D01*
X530890Y1106405D01*
X530890Y1107102D01*
X530618Y1108470D01*
X530084Y1109759D01*
X529309Y1110918D01*
X528323Y1111904D01*
X527164Y1112679D01*
X525875Y1113213D01*
X524507Y1113485D01*
X523810Y1113485D01*
X523810Y1106405D01*
X523810Y1106405D01*
X523810Y1113485D01*
X523113Y1113485D01*
X522286Y1113321D01*
X522286Y1131185D01*
X527923Y1136822D01*
X560956Y1136822D01*
X561751Y1136027D01*
X564738Y1134790D01*
X567972Y1134790D01*
X570959Y1136027D01*
X573246Y1138313D01*
X573957Y1140030D01*
X574229Y1139757D01*
X574229Y1123925D01*
X575157Y1121684D01*
X576872Y1119970D01*
X577722Y1119120D01*
X577722Y1060885D01*
X554866Y1083740D01*
X552626Y1084668D01*
X549273Y1084668D01*
X549273Y1119864D01*
X549422Y1120012D01*
X550543Y1122720D01*
X550543Y1125650D01*
X549422Y1128358D01*
X547350Y1130430D01*
X544643Y1131551D01*
X541712Y1131551D01*
X539005Y1130430D01*
X536933Y1128358D01*
X535812Y1125650D01*
X535812Y1122720D01*
X536933Y1120012D01*
X537082Y1119864D01*
X537082Y1077359D01*
X538010Y1075119D01*
X539724Y1073404D01*
X541965Y1072476D01*
X542194Y1072476D01*
X542797Y1071022D01*
X542797Y1051463D01*
X535572Y1044238D01*
X530272Y1044238D01*
X531073Y1045040D01*
X532788Y1046754D01*
X533716Y1048995D01*
X533716Y1066206D01*
X533865Y1066355D01*
X534986Y1069062D01*
X555400Y1057370D02*
X556768Y1057098D01*
X557465Y1057098D01*
X557465Y1063899D01*
X557465Y1063899D01*
X557465Y1057098D01*
X558162Y1057098D01*
X559530Y1057370D01*
X560819Y1057903D01*
X561978Y1058678D01*
X562332Y1059032D01*
X567137Y1054227D01*
X567137Y1040428D01*
X566160Y1040428D01*
X563452Y1039307D01*
X563049Y1038903D01*
X562483Y1039138D01*
X561262Y1039380D01*
X560640Y1039380D01*
X560640Y1035448D01*
X560640Y1035447D01*
X560640Y1039380D01*
X560018Y1039380D01*
X558797Y1039138D01*
X557647Y1038661D01*
X556613Y1037970D01*
X555732Y1037090D01*
X555041Y1036055D01*
X554565Y1034905D01*
X554322Y1033685D01*
X554322Y1033063D01*
X559361Y1033063D01*
X559361Y1033062D01*
X554322Y1033062D01*
X554322Y1032440D01*
X554565Y1031220D01*
X555041Y1030070D01*
X555732Y1029035D01*
X556613Y1028155D01*
X557647Y1027464D01*
X558797Y1026987D01*
X559504Y1026847D01*
X559504Y1021287D01*
X559885Y1020368D01*
X559885Y1015917D01*
X533508Y1015917D01*
X530160Y1012570D01*
X530160Y968107D01*
X529965Y967911D01*
X518860Y967911D01*
X518401Y968102D01*
X518793Y969050D01*
X518793Y971980D01*
X517672Y974688D01*
X515600Y976760D01*
X512893Y977881D01*
X512289Y977881D01*
X511640Y979450D01*
X511580Y979509D01*
X522818Y990747D01*
X522818Y990747D01*
X524533Y992462D01*
X525461Y994702D01*
X525461Y1032047D01*
X539310Y1032047D01*
X541551Y1032975D01*
X552346Y1043770D01*
X554060Y1045484D01*
X554988Y1047725D01*
X554988Y1057540D01*
X555400Y1057370D01*
X190319Y361568D02*
X189294Y361843D01*
X190319Y361568D02*
X195632Y361568D01*
X195632Y369882D01*
X196068Y369882D01*
X196068Y361568D01*
X201381Y361568D01*
X202406Y361843D01*
X203326Y362374D01*
X204076Y363124D01*
X204607Y364044D01*
X204882Y365069D01*
X204882Y369882D01*
X196068Y369882D01*
X196068Y370318D01*
X204882Y370318D01*
X204882Y375131D01*
X204607Y376156D01*
X204076Y377076D01*
X203326Y377826D01*
X202406Y378357D01*
X201381Y378632D01*
X196068Y378632D01*
X196068Y370318D01*
X195632Y370318D01*
X195632Y378632D01*
X190319Y378632D01*
X189294Y378357D01*
X188649Y377985D01*
X186954Y379680D01*
X172746Y379680D01*
X169770Y376704D01*
X169770Y363496D01*
X172738Y360528D01*
X172738Y338672D01*
X170278Y336212D01*
X170185Y336212D01*
X167571Y335129D01*
X155800Y323358D01*
X155800Y589428D01*
X156132Y587119D01*
X156132Y587119D01*
X161538Y575282D01*
X161538Y575282D01*
X170060Y565447D01*
X170060Y565447D01*
X181007Y558412D01*
X181007Y558412D01*
X193493Y554745D01*
X206507Y554745D01*
X218993Y558412D01*
X218993Y558412D01*
X229940Y565447D01*
X229940Y565447D01*
X229940Y565447D01*
X238462Y575282D01*
X238462Y575282D01*
X243868Y587119D01*
X243868Y587119D01*
X245720Y600000D01*
X243868Y612881D01*
X243868Y612881D01*
X238462Y624718D01*
X238462Y624718D01*
X229940Y634553D01*
X229940Y634553D01*
X218993Y641588D01*
X218993Y641588D01*
X206507Y645255D01*
X193493Y645255D01*
X181007Y641588D01*
X181007Y641588D01*
X170060Y634553D01*
X170060Y634553D01*
X170060Y634553D01*
X161538Y624718D01*
X161538Y624718D01*
X156132Y612881D01*
X156132Y612881D01*
X155800Y610572D01*
X155800Y989428D01*
X156132Y987119D01*
X156132Y987119D01*
X161538Y975282D01*
X161538Y975282D01*
X170060Y965447D01*
X170060Y965447D01*
X181007Y958412D01*
X181007Y958412D01*
X193493Y954745D01*
X206507Y954745D01*
X218993Y958412D01*
X218993Y958412D01*
X229940Y965447D01*
X229940Y965447D01*
X229940Y965447D01*
X238462Y975282D01*
X238462Y975282D01*
X243868Y987119D01*
X243868Y987119D01*
X245720Y1000000D01*
X243868Y1012881D01*
X243868Y1012881D01*
X238462Y1024718D01*
X238462Y1024718D01*
X229940Y1034553D01*
X229940Y1034553D01*
X218993Y1041588D01*
X218993Y1041588D01*
X206507Y1045255D01*
X193493Y1045255D01*
X181007Y1041588D01*
X181007Y1041588D01*
X170060Y1034553D01*
X170060Y1034553D01*
X170060Y1034553D01*
X161538Y1024718D01*
X161538Y1024718D01*
X156132Y1012881D01*
X156132Y1012881D01*
X155800Y1010572D01*
X155800Y1339920D01*
X327987Y1339920D01*
X327987Y1325878D01*
X343322Y1325878D01*
X343322Y1321814D01*
X327987Y1321814D01*
X327987Y1302360D01*
X328262Y1301335D01*
X328793Y1300415D01*
X329543Y1299665D01*
X330463Y1299134D01*
X331488Y1298859D01*
X343322Y1298859D01*
X343322Y1321814D01*
X347386Y1321814D01*
X347386Y1298859D01*
X359220Y1298859D01*
X360245Y1299134D01*
X361165Y1299665D01*
X361915Y1300415D01*
X362446Y1301335D01*
X362721Y1302360D01*
X362721Y1321814D01*
X347386Y1321814D01*
X347386Y1325878D01*
X362721Y1325878D01*
X362721Y1339920D01*
X397879Y1339920D01*
X397879Y1325878D01*
X413214Y1325878D01*
X413214Y1321814D01*
X397879Y1321814D01*
X397879Y1302360D01*
X398154Y1301335D01*
X398685Y1300415D01*
X399435Y1299665D01*
X400355Y1299134D01*
X401380Y1298859D01*
X413214Y1298859D01*
X413214Y1321814D01*
X417278Y1321814D01*
X417278Y1298859D01*
X429112Y1298859D01*
X430137Y1299134D01*
X431057Y1299665D01*
X431807Y1300415D01*
X432338Y1301335D01*
X432613Y1302360D01*
X432613Y1321814D01*
X417278Y1321814D01*
X417278Y1325878D01*
X432613Y1325878D01*
X432613Y1339920D01*
X472966Y1339920D01*
X467168Y1334122D01*
X467168Y1321918D01*
X475798Y1313288D01*
X488002Y1313288D01*
X494600Y1319886D01*
X501198Y1313288D01*
X513402Y1313288D01*
X520000Y1319886D01*
X526598Y1313288D01*
X534048Y1313288D01*
X530974Y1312015D01*
X527435Y1308476D01*
X525520Y1303852D01*
X525520Y1298848D01*
X527435Y1294224D01*
X530974Y1290685D01*
X535598Y1288770D01*
X540602Y1288770D01*
X545226Y1290685D01*
X548765Y1294224D01*
X550680Y1298848D01*
X550680Y1303852D01*
X548765Y1308476D01*
X545226Y1312015D01*
X540602Y1313930D01*
X539444Y1313930D01*
X545400Y1319886D01*
X551998Y1313288D01*
X559448Y1313288D01*
X556374Y1312015D01*
X552835Y1308476D01*
X550920Y1303852D01*
X550920Y1298848D01*
X552835Y1294224D01*
X556374Y1290685D01*
X560998Y1288770D01*
X566002Y1288770D01*
X570626Y1290685D01*
X574165Y1294224D01*
X576080Y1298848D01*
X576080Y1303852D01*
X574165Y1308476D01*
X570626Y1312015D01*
X566002Y1313930D01*
X564844Y1313930D01*
X570800Y1319886D01*
X577398Y1313288D01*
X584848Y1313288D01*
X581774Y1312015D01*
X578235Y1308476D01*
X576320Y1303852D01*
X576320Y1298848D01*
X578235Y1294224D01*
X581774Y1290685D01*
X586398Y1288770D01*
X591402Y1288770D01*
X596026Y1290685D01*
X599565Y1294224D01*
X601480Y1298848D01*
X601480Y1303852D01*
X599565Y1308476D01*
X596026Y1312015D01*
X591402Y1313930D01*
X590244Y1313930D01*
X596200Y1319886D01*
X602798Y1313288D01*
X615002Y1313288D01*
X623632Y1321918D01*
X623632Y1334122D01*
X617834Y1339920D01*
X641158Y1339920D01*
X641158Y1255485D01*
X642241Y1252871D01*
X644241Y1250871D01*
X646855Y1249788D01*
X758905Y1249788D01*
X761519Y1250871D01*
X763519Y1252871D01*
X764602Y1255485D01*
X764602Y1339920D01*
X923864Y1339920D01*
X923864Y1262890D01*
X918462Y1274718D01*
X918462Y1274718D01*
X909940Y1284553D01*
X909940Y1284553D01*
X898993Y1291588D01*
X898993Y1291588D01*
X886507Y1295255D01*
X873493Y1295255D01*
X861007Y1291588D01*
X861007Y1291588D01*
X850060Y1284553D01*
X850060Y1284553D01*
X850060Y1284553D01*
X841538Y1274718D01*
X836132Y1262881D01*
X834280Y1250000D01*
X836132Y1237119D01*
X841538Y1225282D01*
X841538Y1225282D01*
X850060Y1215447D01*
X850060Y1215447D01*
X861007Y1208412D01*
X861007Y1208412D01*
X873493Y1204745D01*
X886507Y1204745D01*
X898993Y1208412D01*
X898993Y1208412D01*
X909940Y1215447D01*
X909940Y1215447D01*
X909940Y1215447D01*
X918462Y1225282D01*
X918462Y1225282D01*
X923864Y1237110D01*
X923864Y612890D01*
X918462Y624718D01*
X909940Y634553D01*
X909940Y634553D01*
X898993Y641588D01*
X898993Y641588D01*
X886507Y645255D01*
X873493Y645255D01*
X861007Y641588D01*
X861007Y641588D01*
X850060Y634553D01*
X850060Y634553D01*
X850060Y634553D01*
X841538Y624718D01*
X841538Y624718D01*
X836132Y612881D01*
X836132Y612881D01*
X834280Y600000D01*
X834280Y600000D01*
X836132Y587119D01*
X836132Y587119D01*
X841538Y575282D01*
X841538Y575282D01*
X850060Y565447D01*
X850060Y565447D01*
X861007Y558412D01*
X861007Y558412D01*
X873493Y554745D01*
X886507Y554745D01*
X898993Y558412D01*
X898993Y558412D01*
X909940Y565447D01*
X909940Y565447D01*
X909940Y565447D01*
X918462Y575282D01*
X918462Y575282D01*
X923864Y587110D01*
X923864Y212890D01*
X918462Y224718D01*
X918462Y224718D01*
X909940Y234553D01*
X909940Y234553D01*
X898993Y241588D01*
X898993Y241588D01*
X886507Y245255D01*
X873493Y245255D01*
X861007Y241588D01*
X861007Y241588D01*
X850060Y234553D01*
X850060Y234553D01*
X850060Y234553D01*
X841538Y224718D01*
X841538Y224718D01*
X836132Y212881D01*
X836132Y212881D01*
X834280Y200000D01*
X834280Y200000D01*
X836132Y187119D01*
X836132Y187119D01*
X841538Y175282D01*
X841538Y175282D01*
X850060Y165447D01*
X850060Y165447D01*
X861007Y158412D01*
X861007Y158412D01*
X873493Y154745D01*
X886507Y154745D01*
X898993Y158412D01*
X898993Y158412D01*
X909940Y165447D01*
X909940Y165447D01*
X909940Y165447D01*
X918462Y175282D01*
X918462Y175282D01*
X923864Y187110D01*
X923864Y142000D01*
X618960Y142000D01*
X619022Y142156D01*
X619022Y142157D01*
X619301Y143714D01*
X619301Y143714D01*
X619287Y144460D01*
X619287Y152189D01*
X608956Y152189D01*
X608956Y152190D01*
X619287Y152190D01*
X619287Y161848D01*
X620568Y161848D01*
X621755Y162166D01*
X622820Y162780D01*
X623689Y163649D01*
X624303Y164714D01*
X624621Y165901D01*
X624621Y172781D01*
X624303Y173968D01*
X624259Y174044D01*
X624377Y174249D01*
X624695Y175436D01*
X624695Y182872D01*
X605857Y182872D01*
X605857Y182873D01*
X624695Y182873D01*
X624695Y189994D01*
X624377Y191181D01*
X623763Y192246D01*
X622894Y193115D01*
X621830Y193729D01*
X620643Y194047D01*
X605857Y194047D01*
X605857Y182873D01*
X605857Y182873D01*
X605857Y194047D01*
X600621Y194047D01*
X599434Y193729D01*
X598369Y193115D01*
X597500Y192246D01*
X596886Y191181D01*
X596568Y189994D01*
X596568Y182873D01*
X605857Y182873D01*
X605857Y182872D01*
X596568Y182872D01*
X596568Y175436D01*
X596886Y174249D01*
X597500Y173184D01*
X598269Y172416D01*
X598269Y152190D01*
X608955Y152190D01*
X608955Y152189D01*
X598269Y152189D01*
X598269Y144469D01*
X598236Y144291D01*
X598269Y143857D01*
X598269Y143422D01*
X598316Y143246D01*
X598343Y142895D01*
X598594Y142000D01*
X564606Y142000D01*
X564662Y142199D01*
X564857Y142894D01*
X564857Y142895D01*
X564884Y143246D01*
X564884Y143246D01*
X564931Y143422D01*
X564931Y143857D01*
X564964Y144291D01*
X564931Y144469D01*
X564931Y152189D01*
X554245Y152189D01*
X554245Y152190D01*
X564931Y152190D01*
X564931Y172401D01*
X565700Y173169D01*
X566314Y174234D01*
X566632Y175421D01*
X566632Y182872D01*
X557343Y182872D01*
X557343Y182873D01*
X566632Y182873D01*
X566632Y189979D01*
X566314Y191166D01*
X565700Y192231D01*
X564831Y193100D01*
X563766Y193714D01*
X562579Y194032D01*
X557343Y194032D01*
X557343Y182873D01*
X557343Y182873D01*
X557343Y194032D01*
X542621Y194032D01*
X541434Y193714D01*
X540369Y193100D01*
X539500Y192231D01*
X538886Y191166D01*
X538568Y189979D01*
X538568Y182873D01*
X557343Y182873D01*
X557343Y182872D01*
X538568Y182872D01*
X538568Y175421D01*
X538886Y174234D01*
X538968Y174091D01*
X538897Y173968D01*
X538579Y172781D01*
X538579Y165901D01*
X538897Y164714D01*
X539511Y163649D01*
X540380Y162780D01*
X541445Y162166D01*
X542632Y161848D01*
X543913Y161848D01*
X543913Y152190D01*
X554244Y152190D01*
X554244Y152189D01*
X543913Y152189D01*
X543913Y144460D01*
X543899Y143714D01*
X543899Y143714D01*
X544178Y142156D01*
X544178Y142156D01*
X544240Y142000D01*
X439828Y142000D01*
X442660Y144832D01*
X444997Y145800D01*
X447270Y148073D01*
X448500Y151043D01*
X448500Y154257D01*
X447270Y157227D01*
X444997Y159500D01*
X442027Y160730D01*
X438813Y160730D01*
X435843Y159500D01*
X433570Y157227D01*
X432602Y154890D01*
X427324Y149612D01*
X180446Y149612D01*
X162112Y167946D01*
X162112Y174619D01*
X170060Y165447D01*
X181007Y158412D01*
X181007Y158412D01*
X193493Y154745D01*
X206507Y154745D01*
X218993Y158412D01*
X218993Y158412D01*
X229940Y165447D01*
X229940Y165447D01*
X229940Y165447D01*
X238462Y175282D01*
X238462Y175282D01*
X243868Y187119D01*
X243868Y187119D01*
X245720Y200000D01*
X243868Y212881D01*
X243868Y212881D01*
X238462Y224718D01*
X238462Y224718D01*
X229940Y234553D01*
X229940Y234553D01*
X218993Y241588D01*
X218993Y241588D01*
X206507Y245255D01*
X193493Y245255D01*
X181007Y241588D01*
X181007Y241588D01*
X170060Y234553D01*
X170060Y234553D01*
X170060Y234553D01*
X162112Y225381D01*
X162112Y309554D01*
X172412Y319854D01*
X172746Y319520D01*
X186954Y319520D01*
X188649Y321215D01*
X189294Y320843D01*
X190319Y320568D01*
X195632Y320568D01*
X195632Y328882D01*
X196068Y328882D01*
X196068Y320568D01*
X201381Y320568D01*
X202406Y320843D01*
X203326Y321374D01*
X204076Y322124D01*
X204607Y323044D01*
X204882Y324069D01*
X204882Y328882D01*
X196068Y328882D01*
X196068Y329318D01*
X204882Y329318D01*
X204882Y334131D01*
X204607Y335156D01*
X204076Y336076D01*
X203326Y336826D01*
X202406Y337357D01*
X201381Y337632D01*
X196068Y337632D01*
X196068Y329318D01*
X195632Y329318D01*
X195632Y337632D01*
X190319Y337632D01*
X189294Y337357D01*
X188649Y336985D01*
X186962Y338672D01*
X186962Y360528D01*
X188649Y362215D01*
X189294Y361843D01*
X342200Y1231500D02*
X342200Y1239596D01*
X342200Y1231500D02*
X342200Y1231500D01*
X342200Y1239596D01*
X341403Y1239596D01*
X339838Y1239285D01*
X338365Y1238675D01*
X337039Y1237789D01*
X335911Y1236661D01*
X335025Y1235335D01*
X334415Y1233862D01*
X334104Y1232297D01*
X334104Y1231500D01*
X342200Y1231500D01*
X342200Y1231500D01*
X334104Y1231500D01*
X334104Y1230703D01*
X334415Y1229138D01*
X335025Y1227665D01*
X335911Y1226339D01*
X337039Y1225211D01*
X338365Y1224325D01*
X339838Y1223715D01*
X341403Y1223404D01*
X342200Y1223404D01*
X342200Y1231500D01*
X342200Y1231500D01*
X342200Y1223404D01*
X342997Y1223404D01*
X344562Y1223715D01*
X346035Y1224325D01*
X347361Y1225211D01*
X348489Y1226339D01*
X349375Y1227665D01*
X349985Y1229138D01*
X350296Y1230703D01*
X350296Y1231500D01*
X342200Y1231500D01*
X342200Y1231500D01*
X350296Y1231500D01*
X350296Y1232297D01*
X349985Y1233862D01*
X349375Y1235335D01*
X348489Y1236661D01*
X347361Y1237789D01*
X346035Y1238675D01*
X344562Y1239285D01*
X342997Y1239596D01*
X342200Y1239596D01*
X663510Y1011631D02*
X663510Y1003535D01*
X663510Y1003535D01*
X663510Y1011631D01*
X662713Y1011631D01*
X661148Y1011320D01*
X659675Y1010710D01*
X658349Y1009824D01*
X657221Y1008696D01*
X656335Y1007370D01*
X655725Y1005897D01*
X655414Y1004332D01*
X655414Y1003535D01*
X663510Y1003535D01*
X663510Y1003535D01*
X655414Y1003535D01*
X655414Y1002738D01*
X655725Y1001173D01*
X656335Y999700D01*
X657221Y998374D01*
X658349Y997246D01*
X659675Y996360D01*
X661148Y995750D01*
X662713Y995439D01*
X663510Y995439D01*
X663510Y1003535D01*
X663510Y1003535D01*
X663510Y995439D01*
X664307Y995439D01*
X665872Y995750D01*
X667345Y996360D01*
X668671Y997246D01*
X669799Y998374D01*
X670685Y999700D01*
X671295Y1001173D01*
X671606Y1002738D01*
X671606Y1003535D01*
X663510Y1003535D01*
X663510Y1003535D01*
X671606Y1003535D01*
X671606Y1004332D01*
X671295Y1005897D01*
X670685Y1007370D01*
X669799Y1008696D01*
X668671Y1009824D01*
X667345Y1010710D01*
X665872Y1011320D01*
X664307Y1011631D01*
X663510Y1011631D01*
X199532Y1192032D02*
X199532Y1207826D01*
X199532Y1192032D02*
X195468Y1192032D01*
X195468Y1207826D01*
X193993Y1207632D01*
X191721Y1207023D01*
X189549Y1206123D01*
X187513Y1204947D01*
X185647Y1203516D01*
X183984Y1201853D01*
X182553Y1199987D01*
X181377Y1197951D01*
X180477Y1195779D01*
X179868Y1193507D01*
X179674Y1192032D01*
X195468Y1192032D01*
X195468Y1187968D01*
X179674Y1187968D01*
X179868Y1186493D01*
X180477Y1184221D01*
X181377Y1182049D01*
X182553Y1180013D01*
X183984Y1178147D01*
X185647Y1176484D01*
X187513Y1175053D01*
X189549Y1173877D01*
X191721Y1172977D01*
X193993Y1172368D01*
X195468Y1172174D01*
X195468Y1187968D01*
X199532Y1187968D01*
X199532Y1172174D01*
X201007Y1172368D01*
X203279Y1172977D01*
X205451Y1173877D01*
X207487Y1175053D01*
X209353Y1176484D01*
X211016Y1178147D01*
X212447Y1180013D01*
X213623Y1182049D01*
X214523Y1184221D01*
X215132Y1186493D01*
X215326Y1187968D01*
X199532Y1187968D01*
X199532Y1192032D01*
X215326Y1192032D01*
X215132Y1193507D01*
X214523Y1195779D01*
X213623Y1197951D01*
X212447Y1199987D01*
X211016Y1201853D01*
X209353Y1203516D01*
X207487Y1204947D01*
X205451Y1206123D01*
X203279Y1207023D01*
X201007Y1207632D01*
X199532Y1207826D01*
X487768Y1301818D02*
X487768Y1312882D01*
X487768Y1301818D02*
X486832Y1301818D01*
X486832Y1312882D01*
X486392Y1312882D01*
X484600Y1312598D01*
X482873Y1312037D01*
X481256Y1311213D01*
X479787Y1310146D01*
X478504Y1308863D01*
X477437Y1307394D01*
X476613Y1305777D01*
X476052Y1304050D01*
X475768Y1302258D01*
X475768Y1301818D01*
X486832Y1301818D01*
X486832Y1300882D01*
X475768Y1300882D01*
X475768Y1300442D01*
X476052Y1298650D01*
X476613Y1296923D01*
X477437Y1295306D01*
X478504Y1293837D01*
X479787Y1292554D01*
X481256Y1291487D01*
X482873Y1290663D01*
X484600Y1290102D01*
X486392Y1289818D01*
X486832Y1289818D01*
X486832Y1300882D01*
X487768Y1300882D01*
X487768Y1289818D01*
X488208Y1289818D01*
X490000Y1290102D01*
X491727Y1290663D01*
X493344Y1291487D01*
X494813Y1292554D01*
X496096Y1293837D01*
X497163Y1295306D01*
X497987Y1296923D01*
X498548Y1298650D01*
X498832Y1300442D01*
X498832Y1300882D01*
X487768Y1300882D01*
X487768Y1301818D01*
X498832Y1301818D01*
X498832Y1302258D01*
X498548Y1304050D01*
X497987Y1305777D01*
X497163Y1307394D01*
X496096Y1308863D01*
X494813Y1310146D01*
X493344Y1311213D01*
X491727Y1312037D01*
X490000Y1312598D01*
X488208Y1312882D01*
X487768Y1312882D01*
X328935Y193917D02*
X332357Y190495D01*
X328935Y193917D02*
X319774Y193917D01*
X318957Y193100D01*
X318140Y193917D01*
X310419Y193917D01*
X310322Y193820D01*
X310225Y193917D01*
X290268Y193917D01*
X290171Y193820D01*
X290074Y193917D01*
X282353Y193917D01*
X282256Y193820D01*
X282159Y193917D01*
X277320Y193917D01*
X276858Y193456D01*
X276397Y193917D01*
X271557Y193917D01*
X268135Y190495D01*
X268135Y177012D01*
X271557Y173590D01*
X276397Y173590D01*
X276858Y174051D01*
X277320Y173590D01*
X282159Y173590D01*
X282256Y173687D01*
X282353Y173590D01*
X290074Y173590D01*
X291612Y175128D01*
X293149Y173590D01*
X297989Y173590D01*
X300246Y175848D01*
X302504Y173590D01*
X307344Y173590D01*
X308881Y175128D01*
X308978Y175031D01*
X310419Y173590D01*
X318140Y173590D01*
X318957Y174407D01*
X319774Y173590D01*
X328935Y173590D01*
X332357Y177012D01*
X332357Y186174D01*
X332357Y190495D01*
X809732Y1053898D02*
X809732Y1065445D01*
X826703Y1065445D01*
X829037Y1066412D01*
X830823Y1068198D01*
X831790Y1070532D01*
X831790Y1170848D01*
X830823Y1173182D01*
X829037Y1174968D01*
X826703Y1175935D01*
X702257Y1175935D01*
X699923Y1174968D01*
X698137Y1173182D01*
X697170Y1170848D01*
X697170Y1138637D01*
X696730Y1138455D01*
X690835Y1132560D01*
X687645Y1124858D01*
X687645Y1116522D01*
X690835Y1108820D01*
X696730Y1102925D01*
X697170Y1102743D01*
X697170Y1070532D01*
X698137Y1068198D01*
X699456Y1066879D01*
X699456Y1000511D01*
X698137Y999192D01*
X697170Y996858D01*
X697170Y964647D01*
X696730Y964465D01*
X690835Y958570D01*
X687645Y950868D01*
X687645Y942532D01*
X690835Y934830D01*
X696730Y928935D01*
X697170Y928753D01*
X697170Y896542D01*
X698137Y894208D01*
X699923Y892422D01*
X702257Y891455D01*
X733861Y891455D01*
X730625Y888219D01*
X694820Y888219D01*
X694184Y888855D01*
X694837Y889507D01*
X695958Y892215D01*
X695958Y895145D01*
X694837Y897853D01*
X692765Y899925D01*
X690058Y901046D01*
X687127Y901046D01*
X685288Y900284D01*
X680452Y900284D01*
X680496Y900503D01*
X680496Y901300D01*
X672400Y901300D01*
X672400Y901300D01*
X680496Y901300D01*
X680496Y902097D01*
X680185Y903662D01*
X679575Y905135D01*
X678689Y906461D01*
X677561Y907589D01*
X676235Y908475D01*
X674762Y909085D01*
X673197Y909396D01*
X672400Y909396D01*
X672400Y901300D01*
X672400Y901300D01*
X672400Y909396D01*
X671603Y909396D01*
X670038Y909085D01*
X668565Y908475D01*
X667239Y907589D01*
X666111Y906461D01*
X665225Y905135D01*
X664615Y903662D01*
X664304Y902097D01*
X664304Y901300D01*
X672400Y901300D01*
X672400Y901300D01*
X664304Y901300D01*
X664304Y900503D01*
X664348Y900284D01*
X640357Y900284D01*
X641539Y903137D01*
X641539Y994350D01*
X681739Y1034550D01*
X683131Y1037911D01*
X683131Y1086634D01*
X681739Y1089995D01*
X679167Y1092567D01*
X665351Y1106383D01*
X665351Y1109028D01*
X665890Y1108805D01*
X667258Y1108533D01*
X667955Y1108533D01*
X667955Y1115612D01*
X667955Y1115612D01*
X667955Y1108533D01*
X668652Y1108533D01*
X670020Y1108805D01*
X671309Y1109338D01*
X672468Y1110113D01*
X673454Y1111099D01*
X674229Y1112259D01*
X674763Y1113547D01*
X675035Y1114915D01*
X675035Y1115612D01*
X667955Y1115612D01*
X667955Y1115613D01*
X675035Y1115613D01*
X675035Y1116310D01*
X674763Y1117678D01*
X674229Y1118966D01*
X673454Y1120126D01*
X672468Y1121112D01*
X671309Y1121887D01*
X670020Y1122420D01*
X669096Y1122604D01*
X671607Y1123644D01*
X673893Y1125931D01*
X675130Y1128918D01*
X675130Y1132152D01*
X674114Y1134605D01*
X674114Y1135527D01*
X683759Y1145171D01*
X686212Y1146187D01*
X688498Y1148473D01*
X689735Y1151461D01*
X689735Y1154694D01*
X688498Y1157682D01*
X686212Y1159968D01*
X683224Y1161205D01*
X681861Y1161205D01*
X681861Y1182646D01*
X682729Y1182016D01*
X684648Y1181039D01*
X686696Y1180373D01*
X688824Y1180036D01*
X689900Y1180036D01*
X689900Y1193720D01*
X689901Y1193720D01*
X689901Y1180036D01*
X690978Y1180036D01*
X693105Y1180373D01*
X695153Y1181039D01*
X697073Y1182016D01*
X698815Y1183282D01*
X700338Y1184805D01*
X701604Y1186548D01*
X702582Y1188467D01*
X703248Y1190516D01*
X703585Y1192643D01*
X703585Y1193720D01*
X689901Y1193720D01*
X689901Y1193720D01*
X703585Y1193720D01*
X703585Y1194797D01*
X703248Y1196924D01*
X702582Y1198973D01*
X701604Y1200892D01*
X700338Y1202635D01*
X698815Y1204158D01*
X697073Y1205424D01*
X696243Y1205846D01*
X727876Y1205846D01*
X731237Y1207238D01*
X754447Y1230448D01*
X755839Y1233809D01*
X755839Y1237446D01*
X754447Y1240807D01*
X751875Y1243379D01*
X748514Y1244771D01*
X744876Y1244771D01*
X741515Y1243379D01*
X722270Y1224134D01*
X650373Y1224134D01*
X650835Y1224325D01*
X652161Y1225211D01*
X653289Y1226339D01*
X654175Y1227665D01*
X654785Y1229138D01*
X655096Y1230703D01*
X655096Y1231500D01*
X647000Y1231500D01*
X647000Y1231500D01*
X655096Y1231500D01*
X655096Y1232297D01*
X654785Y1233862D01*
X654175Y1235335D01*
X653289Y1236661D01*
X652161Y1237789D01*
X650835Y1238675D01*
X649362Y1239285D01*
X647797Y1239596D01*
X647000Y1239596D01*
X647000Y1231500D01*
X647000Y1231500D01*
X647000Y1239596D01*
X646203Y1239596D01*
X644638Y1239285D01*
X643165Y1238675D01*
X641839Y1237789D01*
X640711Y1236661D01*
X639825Y1235335D01*
X639215Y1233862D01*
X638904Y1232297D01*
X638904Y1231500D01*
X647000Y1231500D01*
X647000Y1231500D01*
X638904Y1231500D01*
X638904Y1230703D01*
X639215Y1229138D01*
X639825Y1227665D01*
X640711Y1226339D01*
X641839Y1225211D01*
X643165Y1224325D01*
X643627Y1224134D01*
X521991Y1224134D01*
X518630Y1222742D01*
X494818Y1198929D01*
X494818Y1198929D01*
X492246Y1196357D01*
X490854Y1192996D01*
X490854Y1189359D01*
X492246Y1185998D01*
X493029Y1185214D01*
X490881Y1184324D01*
X475450Y1168893D01*
X472878Y1166321D01*
X471486Y1162960D01*
X471486Y1124121D01*
X448313Y1124121D01*
X454161Y1129969D01*
X455166Y1132396D01*
X455166Y1199009D01*
X456162Y1201413D01*
X456162Y1204437D01*
X455005Y1207230D01*
X452868Y1209368D01*
X450074Y1210525D01*
X447051Y1210525D01*
X444257Y1209368D01*
X442120Y1207230D01*
X440963Y1204437D01*
X440963Y1201413D01*
X441959Y1199009D01*
X441959Y1136445D01*
X435985Y1130471D01*
X430104Y1130471D01*
X427677Y1129466D01*
X421056Y1122846D01*
X420051Y1120419D01*
X420051Y1109536D01*
X421056Y1107109D01*
X422914Y1105251D01*
X426724Y1101441D01*
X429151Y1100436D01*
X449955Y1100436D01*
X453389Y1097002D01*
X453389Y1080474D01*
X454394Y1078047D01*
X456252Y1076189D01*
X460121Y1072320D01*
X460121Y1071387D01*
X458133Y1071387D01*
X455796Y1070419D01*
X384703Y1070419D01*
X384750Y1070532D01*
X384750Y1102743D01*
X385190Y1102925D01*
X391085Y1108820D01*
X392215Y1111548D01*
X402516Y1111549D01*
X404344Y1111549D01*
X404344Y1111549D01*
X404345Y1111549D01*
X406030Y1112247D01*
X407705Y1112941D01*
X407705Y1112941D01*
X407705Y1112941D01*
X408903Y1114139D01*
X423580Y1128816D01*
X426152Y1131388D01*
X427544Y1134749D01*
X427544Y1177230D01*
X433422Y1183108D01*
X435994Y1185680D01*
X437386Y1189041D01*
X437386Y1192679D01*
X435994Y1196040D01*
X433422Y1198612D01*
X430061Y1200004D01*
X426424Y1200004D01*
X423063Y1198612D01*
X420491Y1196040D01*
X410648Y1186197D01*
X409256Y1182836D01*
X409256Y1169045D01*
X406566Y1170159D01*
X402929Y1170159D01*
X399568Y1168767D01*
X396996Y1166195D01*
X395604Y1162834D01*
X395604Y1159196D01*
X396996Y1155835D01*
X397636Y1155195D01*
X397636Y1143489D01*
X397214Y1143489D01*
X393853Y1142097D01*
X391281Y1139525D01*
X389889Y1136164D01*
X389889Y1133756D01*
X385190Y1138455D01*
X384750Y1138637D01*
X384750Y1170848D01*
X383783Y1173182D01*
X381997Y1174968D01*
X379663Y1175935D01*
X255217Y1175935D01*
X252883Y1174968D01*
X251097Y1173182D01*
X250130Y1170848D01*
X250130Y1161044D01*
X214263Y1161044D01*
X213596Y1162655D01*
X208255Y1167996D01*
X201277Y1170886D01*
X193723Y1170886D01*
X186745Y1167996D01*
X181404Y1162655D01*
X178514Y1155677D01*
X178514Y1148123D01*
X181404Y1141145D01*
X186745Y1135804D01*
X193723Y1132914D01*
X201277Y1132914D01*
X208255Y1135804D01*
X213596Y1141145D01*
X214263Y1142756D01*
X248356Y1142756D01*
X248356Y510681D01*
X249748Y507320D01*
X252320Y504748D01*
X255681Y503356D01*
X674319Y503356D01*
X677680Y504748D01*
X680252Y507320D01*
X681644Y510681D01*
X681644Y763566D01*
X689706Y763566D01*
X690835Y760840D01*
X696730Y754945D01*
X697170Y754763D01*
X697170Y722552D01*
X698137Y720218D01*
X699923Y718432D01*
X702257Y717465D01*
X813356Y717465D01*
X813356Y653965D01*
X702257Y653965D01*
X699923Y652998D01*
X698137Y651212D01*
X697170Y648878D01*
X697170Y616667D01*
X696730Y616485D01*
X690835Y610590D01*
X687645Y602888D01*
X687645Y594552D01*
X690835Y586850D01*
X696730Y580955D01*
X697170Y580773D01*
X697170Y548562D01*
X698137Y546228D01*
X699923Y544442D01*
X702257Y543475D01*
X775656Y543475D01*
X775656Y479975D01*
X702257Y479975D01*
X699923Y479008D01*
X698137Y477222D01*
X697170Y474888D01*
X697170Y442677D01*
X696730Y442495D01*
X690835Y436600D01*
X687645Y428898D01*
X687645Y420562D01*
X690835Y412860D01*
X696730Y406965D01*
X697170Y406783D01*
X697170Y374572D01*
X698137Y372238D01*
X699923Y370452D01*
X702257Y369485D01*
X813356Y369485D01*
X813356Y305985D01*
X702257Y305985D01*
X699923Y305018D01*
X698137Y303232D01*
X697170Y300898D01*
X697170Y268687D01*
X696730Y268505D01*
X690835Y262610D01*
X687645Y254908D01*
X687645Y246572D01*
X690835Y238870D01*
X696730Y232975D01*
X697170Y232793D01*
X697170Y200582D01*
X698137Y198248D01*
X699923Y196462D01*
X702257Y195495D01*
X826703Y195495D01*
X829037Y196462D01*
X830823Y198248D01*
X831790Y200582D01*
X831790Y300898D01*
X831644Y301251D01*
X831644Y374219D01*
X831790Y374572D01*
X831790Y474888D01*
X831644Y475241D01*
X831644Y548209D01*
X831790Y548562D01*
X831790Y648878D01*
X831644Y649231D01*
X831644Y722199D01*
X831790Y722552D01*
X831790Y822868D01*
X830823Y825202D01*
X829037Y826988D01*
X826703Y827955D01*
X826044Y827955D01*
X826044Y837820D01*
X831632Y843408D01*
X831632Y855612D01*
X824293Y862951D01*
X830584Y869242D01*
X830584Y874402D01*
X817408Y874402D01*
X817408Y875418D01*
X830584Y875418D01*
X830584Y880578D01*
X822568Y888594D01*
X817408Y888594D01*
X817408Y875418D01*
X816392Y875418D01*
X816392Y888594D01*
X811232Y888594D01*
X804941Y882303D01*
X797602Y889642D01*
X786105Y889642D01*
X784291Y891455D01*
X826703Y891455D01*
X829037Y892422D01*
X830823Y894208D01*
X831790Y896542D01*
X831790Y996858D01*
X830823Y999192D01*
X829037Y1000978D01*
X826703Y1001945D01*
X782779Y1001945D01*
X784732Y1003898D01*
X784732Y1016102D01*
X776102Y1024732D01*
X763898Y1024732D01*
X755268Y1016102D01*
X755268Y1003898D01*
X757221Y1001945D01*
X717744Y1001945D01*
X717744Y1065445D01*
X755268Y1065445D01*
X755268Y1053898D01*
X763898Y1045268D01*
X776102Y1045268D01*
X782500Y1051666D01*
X788898Y1045268D01*
X801102Y1045268D01*
X809732Y1053898D01*
X499880Y1248048D02*
X499880Y1253052D01*
X497965Y1257676D01*
X494426Y1261215D01*
X489802Y1263130D01*
X484798Y1263130D01*
X480174Y1261215D01*
X476635Y1257676D01*
X474720Y1253052D01*
X474720Y1248048D01*
X476635Y1243424D01*
X480174Y1239885D01*
X484798Y1237970D01*
X489802Y1237970D01*
X494426Y1239885D01*
X497965Y1243424D01*
X499880Y1248048D01*
X550680Y1248048D02*
X550680Y1253052D01*
X548765Y1257676D01*
X545226Y1261215D01*
X540602Y1263130D01*
X535598Y1263130D01*
X530974Y1261215D01*
X527435Y1257676D01*
X525520Y1253052D01*
X525520Y1248048D01*
X527435Y1243424D01*
X530974Y1239885D01*
X535598Y1237970D01*
X540602Y1237970D01*
X545226Y1239885D01*
X548765Y1243424D01*
X550680Y1248048D01*
X576080Y1248048D02*
X576080Y1253052D01*
X574165Y1257676D01*
X570626Y1261215D01*
X566002Y1263130D01*
X560998Y1263130D01*
X556374Y1261215D01*
X552835Y1257676D01*
X550920Y1253052D01*
X550920Y1248048D01*
X552835Y1243424D01*
X556374Y1239885D01*
X560998Y1237970D01*
X566002Y1237970D01*
X570626Y1239885D01*
X574165Y1243424D01*
X576080Y1248048D01*
X601480Y1248048D02*
X601480Y1253052D01*
X599565Y1257676D01*
X596026Y1261215D01*
X591402Y1263130D01*
X586398Y1263130D01*
X581774Y1261215D01*
X578235Y1257676D01*
X576320Y1253052D01*
X576320Y1248048D01*
X578235Y1243424D01*
X581774Y1239885D01*
X586398Y1237970D01*
X591402Y1237970D01*
X596026Y1239885D01*
X599565Y1243424D01*
X601480Y1248048D01*
X626880Y1248048D02*
X626880Y1253052D01*
X624965Y1257676D01*
X621426Y1261215D01*
X616802Y1263130D01*
X611798Y1263130D01*
X607174Y1261215D01*
X603635Y1257676D01*
X601720Y1253052D01*
X601720Y1248048D01*
X603635Y1243424D01*
X607174Y1239885D01*
X611798Y1237970D01*
X616802Y1237970D01*
X621426Y1239885D01*
X624965Y1243424D01*
X626880Y1248048D01*
X614768Y1301818D02*
X614768Y1312882D01*
X614768Y1301818D02*
X613832Y1301818D01*
X613832Y1312882D01*
X613392Y1312882D01*
X611600Y1312598D01*
X609873Y1312037D01*
X608256Y1311213D01*
X606787Y1310146D01*
X605504Y1308863D01*
X604437Y1307394D01*
X603613Y1305777D01*
X603052Y1304050D01*
X602768Y1302258D01*
X602768Y1301818D01*
X613832Y1301818D01*
X613832Y1300882D01*
X602768Y1300882D01*
X602768Y1300442D01*
X603052Y1298650D01*
X603613Y1296923D01*
X604437Y1295306D01*
X605504Y1293837D01*
X606787Y1292554D01*
X608256Y1291487D01*
X609873Y1290663D01*
X611600Y1290102D01*
X613392Y1289818D01*
X613832Y1289818D01*
X613832Y1300882D01*
X614768Y1300882D01*
X614768Y1289818D01*
X615208Y1289818D01*
X617000Y1290102D01*
X618727Y1290663D01*
X620344Y1291487D01*
X621813Y1292554D01*
X623096Y1293837D01*
X624163Y1295306D01*
X624987Y1296923D01*
X625548Y1298650D01*
X625832Y1300442D01*
X625832Y1300882D01*
X614768Y1300882D01*
X614768Y1301818D01*
X625832Y1301818D01*
X625832Y1302258D01*
X625548Y1304050D01*
X624987Y1305777D01*
X624163Y1307394D01*
X623096Y1308863D01*
X621813Y1310146D01*
X620344Y1311213D01*
X618727Y1312037D01*
X617000Y1312598D01*
X615208Y1312882D01*
X614768Y1312882D01*
X257743Y305985D02*
X255217Y305985D01*
X252883Y305018D01*
X251097Y303232D01*
X250130Y300898D01*
X250130Y200582D01*
X251097Y198248D01*
X252883Y196462D01*
X255217Y195495D01*
X379663Y195495D01*
X381997Y196462D01*
X383783Y198248D01*
X384750Y200582D01*
X384750Y232793D01*
X385190Y232975D01*
X391085Y238870D01*
X394275Y246572D01*
X394275Y254908D01*
X391085Y262610D01*
X385190Y268505D01*
X384750Y268687D01*
X384750Y300898D01*
X383783Y303232D01*
X382464Y304551D01*
X382464Y370919D01*
X383783Y372238D01*
X384750Y374572D01*
X384750Y406783D01*
X385190Y406965D01*
X391085Y412860D01*
X394275Y420562D01*
X394275Y428898D01*
X391085Y436600D01*
X385190Y442495D01*
X384750Y442677D01*
X384750Y474888D01*
X383783Y477222D01*
X381997Y479008D01*
X379663Y479975D01*
X255217Y479975D01*
X252883Y479008D01*
X251097Y477222D01*
X250130Y474888D01*
X250130Y374572D01*
X251097Y372238D01*
X252883Y370452D01*
X255217Y369485D01*
X364176Y369485D01*
X364176Y305985D01*
X257743Y305985D01*
X216486Y1110023D02*
X216486Y1117577D01*
X213596Y1124555D01*
X208255Y1129896D01*
X201277Y1132786D01*
X193723Y1132786D01*
X186745Y1129896D01*
X181404Y1124555D01*
X178514Y1117577D01*
X178514Y1110023D01*
X181404Y1103045D01*
X186745Y1097704D01*
X193723Y1094814D01*
X201277Y1094814D01*
X208255Y1097704D01*
X213596Y1103045D01*
X216486Y1110023D01*
X237251Y1314145D02*
X237251Y1319855D01*
X235066Y1325129D01*
X231029Y1329166D01*
X225755Y1331351D01*
X220045Y1331351D01*
X214771Y1329166D01*
X210734Y1325129D01*
X208549Y1319855D01*
X208549Y1314145D01*
X210734Y1308871D01*
X214771Y1304834D01*
X220045Y1302649D01*
X225755Y1302649D01*
X231029Y1304834D01*
X235066Y1308871D01*
X237251Y1314145D01*
X186451Y1314145D02*
X186451Y1319855D01*
X184266Y1325129D01*
X180229Y1329166D01*
X174955Y1331351D01*
X169245Y1331351D01*
X163971Y1329166D01*
X159934Y1325129D01*
X157749Y1319855D01*
X157749Y1314145D01*
X159934Y1308871D01*
X163971Y1304834D01*
X169245Y1302649D01*
X174955Y1302649D01*
X180229Y1304834D01*
X184266Y1308871D01*
X186451Y1314145D01*
X214732Y886102D02*
X214732Y873898D01*
X214732Y886102D02*
X206102Y894732D01*
X193898Y894732D01*
X185268Y886102D01*
X185268Y873898D01*
X191666Y867500D01*
X185268Y861102D01*
X185268Y854080D01*
X184297Y854080D01*
X180040Y852317D01*
X176783Y849060D01*
X175020Y844803D01*
X175020Y840197D01*
X176783Y835940D01*
X180040Y832683D01*
X184297Y830920D01*
X186316Y830920D01*
X186316Y830508D01*
X199492Y830508D01*
X199492Y829492D01*
X186316Y829492D01*
X186316Y824332D01*
X193148Y817500D01*
X186316Y810668D01*
X186316Y805508D01*
X199492Y805508D01*
X199492Y804492D01*
X186316Y804492D01*
X186316Y799332D01*
X194332Y791316D01*
X199492Y791316D01*
X199492Y804492D01*
X200508Y804492D01*
X200508Y791316D01*
X205668Y791316D01*
X213684Y799332D01*
X213684Y804492D01*
X200508Y804492D01*
X200508Y805508D01*
X213684Y805508D01*
X213684Y810668D01*
X206852Y817500D01*
X213684Y824332D01*
X213684Y829492D01*
X200508Y829492D01*
X200508Y830508D01*
X213684Y830508D01*
X213684Y835668D01*
X207593Y841759D01*
X214732Y848898D01*
X214732Y861102D01*
X208334Y867500D01*
X214732Y873898D01*
X860508Y1070508D02*
X860508Y1083684D01*
X860508Y1070508D02*
X859492Y1070508D01*
X859492Y1083684D01*
X854332Y1083684D01*
X846316Y1075668D01*
X846316Y1070508D01*
X859492Y1070508D01*
X859492Y1069492D01*
X846316Y1069492D01*
X846316Y1064332D01*
X853148Y1057500D01*
X846316Y1050668D01*
X846316Y1045508D01*
X859492Y1045508D01*
X859492Y1044492D01*
X846316Y1044492D01*
X846316Y1039332D01*
X852407Y1033241D01*
X845268Y1026102D01*
X845268Y1013898D01*
X851666Y1007500D01*
X845268Y1001102D01*
X845268Y988898D01*
X853898Y980268D01*
X866102Y980268D01*
X874732Y988898D01*
X874732Y1001102D01*
X868334Y1007500D01*
X874732Y1013898D01*
X874732Y1020920D01*
X875703Y1020920D01*
X879960Y1022683D01*
X883217Y1025940D01*
X884980Y1030197D01*
X884980Y1034803D01*
X883217Y1039060D01*
X879960Y1042317D01*
X875703Y1044080D01*
X873684Y1044080D01*
X873684Y1044492D01*
X860508Y1044492D01*
X860508Y1045508D01*
X873684Y1045508D01*
X873684Y1050668D01*
X866852Y1057500D01*
X873684Y1064332D01*
X873684Y1069492D01*
X860508Y1069492D01*
X860508Y1070508D01*
X873684Y1070508D01*
X873684Y1075668D01*
X865668Y1083684D01*
X860508Y1083684D01*
X405700Y1231500D02*
X405700Y1239596D01*
X405700Y1231500D02*
X405700Y1231500D01*
X405700Y1239596D01*
X404903Y1239596D01*
X403338Y1239285D01*
X401865Y1238675D01*
X400539Y1237789D01*
X399411Y1236661D01*
X398525Y1235335D01*
X397915Y1233862D01*
X397604Y1232297D01*
X397604Y1231500D01*
X405700Y1231500D01*
X405700Y1231500D01*
X397604Y1231500D01*
X397604Y1230703D01*
X397915Y1229138D01*
X398525Y1227665D01*
X399411Y1226339D01*
X400539Y1225211D01*
X401865Y1224325D01*
X403338Y1223715D01*
X404903Y1223404D01*
X405700Y1223404D01*
X405700Y1231500D01*
X405700Y1231500D01*
X405700Y1223404D01*
X406497Y1223404D01*
X408062Y1223715D01*
X409535Y1224325D01*
X410861Y1225211D01*
X411989Y1226339D01*
X412875Y1227665D01*
X413485Y1229138D01*
X413796Y1230703D01*
X413796Y1231500D01*
X405700Y1231500D01*
X405700Y1231500D01*
X413796Y1231500D01*
X413796Y1232297D01*
X413485Y1233862D01*
X412875Y1235335D01*
X411989Y1236661D01*
X410861Y1237789D01*
X409535Y1238675D01*
X408062Y1239285D01*
X406497Y1239596D01*
X405700Y1239596D01*
X608956Y152190D02*
X608956Y152190D01*
X608956Y171383D01*
X608956Y171383D01*
X608956Y152190D01*
X543913Y146304D02*
X445501Y146304D01*
X564931Y146304D02*
X598269Y146304D01*
X619287Y146304D02*
X923864Y146304D01*
X432144Y154432D02*
X175626Y154432D01*
X448428Y154432D02*
X543913Y154432D01*
X554244Y154432D02*
X554244Y154432D01*
X564931Y154432D02*
X598269Y154432D01*
X608956Y154432D02*
X608956Y154432D01*
X619287Y154432D02*
X923864Y154432D01*
X174552Y162560D02*
X167498Y162560D01*
X225448Y162560D02*
X540762Y162560D01*
X554244Y162560D02*
X554244Y162560D01*
X564931Y162560D02*
X598269Y162560D01*
X608956Y162560D02*
X608956Y162560D01*
X622438Y162560D02*
X854552Y162560D01*
X905448Y162560D02*
X923864Y162560D01*
X165519Y170688D02*
X162112Y170688D01*
X234481Y170688D02*
X538579Y170688D01*
X554244Y170688D02*
X554244Y170688D01*
X564931Y170688D02*
X598269Y170688D01*
X608956Y170688D02*
X608956Y170688D01*
X624621Y170688D02*
X845518Y170688D01*
X914481Y170688D02*
X923864Y170688D01*
X268135Y178816D02*
X240076Y178816D01*
X332357Y178816D02*
X538568Y178816D01*
X566632Y178816D02*
X596568Y178816D01*
X624695Y178816D02*
X839924Y178816D01*
X920076Y178816D02*
X923864Y178816D01*
X268135Y186944D02*
X243788Y186944D01*
X332357Y186944D02*
X538568Y186944D01*
X557343Y186944D02*
X557343Y186944D01*
X566632Y186944D02*
X596568Y186944D01*
X605857Y186944D02*
X605857Y186944D01*
X624695Y186944D02*
X836212Y186944D01*
X923788Y186944D02*
X923864Y186944D01*
X834989Y195072D02*
X245011Y195072D01*
X245260Y203200D02*
X250130Y203200D01*
X384750Y203200D02*
X697170Y203200D01*
X831790Y203200D02*
X834740Y203200D01*
X250130Y211328D02*
X244091Y211328D01*
X384750Y211328D02*
X697170Y211328D01*
X831790Y211328D02*
X835909Y211328D01*
X250130Y219456D02*
X240865Y219456D01*
X384750Y219456D02*
X697170Y219456D01*
X831790Y219456D02*
X839135Y219456D01*
X920865Y219456D02*
X923864Y219456D01*
X164021Y227584D02*
X162112Y227584D01*
X235979Y227584D02*
X250130Y227584D01*
X384750Y227584D02*
X697170Y227584D01*
X831790Y227584D02*
X844021Y227584D01*
X915979Y227584D02*
X923864Y227584D01*
X171863Y235712D02*
X162112Y235712D01*
X228137Y235712D02*
X250130Y235712D01*
X387927Y235712D02*
X693993Y235712D01*
X831790Y235712D02*
X851863Y235712D01*
X908137Y235712D02*
X923864Y235712D01*
X188676Y243840D02*
X162112Y243840D01*
X211324Y243840D02*
X250130Y243840D01*
X393143Y243840D02*
X688777Y243840D01*
X831790Y243840D02*
X868676Y243840D01*
X891324Y243840D02*
X923864Y243840D01*
X250130Y251968D02*
X162112Y251968D01*
X394275Y251968D02*
X687645Y251968D01*
X831790Y251968D02*
X923864Y251968D01*
X250130Y260096D02*
X162112Y260096D01*
X392126Y260096D02*
X689794Y260096D01*
X831790Y260096D02*
X923864Y260096D01*
X250130Y268224D02*
X162112Y268224D01*
X385471Y268224D02*
X696449Y268224D01*
X831790Y268224D02*
X923864Y268224D01*
X250130Y276352D02*
X162112Y276352D01*
X384750Y276352D02*
X697170Y276352D01*
X831790Y276352D02*
X923864Y276352D01*
X250130Y284480D02*
X162112Y284480D01*
X384750Y284480D02*
X697170Y284480D01*
X831790Y284480D02*
X923864Y284480D01*
X250130Y292608D02*
X162112Y292608D01*
X384750Y292608D02*
X697170Y292608D01*
X831790Y292608D02*
X923864Y292608D01*
X250130Y300736D02*
X162112Y300736D01*
X384750Y300736D02*
X697170Y300736D01*
X831790Y300736D02*
X923864Y300736D01*
X364176Y308864D02*
X162112Y308864D01*
X382464Y308864D02*
X813356Y308864D01*
X831644Y308864D02*
X923864Y308864D01*
X364176Y316992D02*
X169550Y316992D01*
X382464Y316992D02*
X813356Y316992D01*
X831644Y316992D02*
X923864Y316992D01*
X157562Y325120D02*
X155800Y325120D01*
X195632Y325120D02*
X196068Y325120D01*
X204882Y325120D02*
X364176Y325120D01*
X382464Y325120D02*
X813356Y325120D01*
X831644Y325120D02*
X923864Y325120D01*
X165690Y333248D02*
X155800Y333248D01*
X195632Y333248D02*
X196068Y333248D01*
X204882Y333248D02*
X364176Y333248D01*
X382464Y333248D02*
X813356Y333248D01*
X831644Y333248D02*
X923864Y333248D01*
X172738Y341376D02*
X155800Y341376D01*
X186962Y341376D02*
X364176Y341376D01*
X382464Y341376D02*
X813356Y341376D01*
X831644Y341376D02*
X923864Y341376D01*
X172738Y349504D02*
X155800Y349504D01*
X186962Y349504D02*
X364176Y349504D01*
X382464Y349504D02*
X813356Y349504D01*
X831644Y349504D02*
X923864Y349504D01*
X172738Y357632D02*
X155800Y357632D01*
X186962Y357632D02*
X364176Y357632D01*
X382464Y357632D02*
X813356Y357632D01*
X831644Y357632D02*
X923864Y357632D01*
X169770Y365760D02*
X155800Y365760D01*
X195632Y365760D02*
X196068Y365760D01*
X204882Y365760D02*
X364176Y365760D01*
X382464Y365760D02*
X813356Y365760D01*
X831644Y365760D02*
X923864Y365760D01*
X169770Y373888D02*
X155800Y373888D01*
X195632Y373888D02*
X196068Y373888D01*
X204882Y373888D02*
X250413Y373888D01*
X384467Y373888D02*
X697453Y373888D01*
X831644Y373888D02*
X923864Y373888D01*
X250130Y382016D02*
X155800Y382016D01*
X384750Y382016D02*
X697170Y382016D01*
X831790Y382016D02*
X923864Y382016D01*
X250130Y390144D02*
X155800Y390144D01*
X384750Y390144D02*
X697170Y390144D01*
X831790Y390144D02*
X923864Y390144D01*
X250130Y398272D02*
X155800Y398272D01*
X384750Y398272D02*
X697170Y398272D01*
X831790Y398272D02*
X923864Y398272D01*
X250130Y406400D02*
X155800Y406400D01*
X384750Y406400D02*
X697170Y406400D01*
X831790Y406400D02*
X923864Y406400D01*
X250130Y414528D02*
X155800Y414528D01*
X391776Y414528D02*
X690144Y414528D01*
X831790Y414528D02*
X923864Y414528D01*
X250130Y422656D02*
X155800Y422656D01*
X394275Y422656D02*
X687645Y422656D01*
X831790Y422656D02*
X923864Y422656D01*
X250130Y430784D02*
X155800Y430784D01*
X393494Y430784D02*
X688426Y430784D01*
X831790Y430784D02*
X923864Y430784D01*
X250130Y438912D02*
X155800Y438912D01*
X388773Y438912D02*
X693147Y438912D01*
X831790Y438912D02*
X923864Y438912D01*
X250130Y447040D02*
X155800Y447040D01*
X384750Y447040D02*
X697170Y447040D01*
X831790Y447040D02*
X923864Y447040D01*
X250130Y455168D02*
X155800Y455168D01*
X384750Y455168D02*
X697170Y455168D01*
X831790Y455168D02*
X923864Y455168D01*
X250130Y463296D02*
X155800Y463296D01*
X384750Y463296D02*
X697170Y463296D01*
X831790Y463296D02*
X923864Y463296D01*
X250130Y471424D02*
X155800Y471424D01*
X384750Y471424D02*
X697170Y471424D01*
X831790Y471424D02*
X923864Y471424D01*
X254196Y479552D02*
X155800Y479552D01*
X380684Y479552D02*
X701236Y479552D01*
X831644Y479552D02*
X923864Y479552D01*
X775656Y487680D02*
X155800Y487680D01*
X831644Y487680D02*
X923864Y487680D01*
X775656Y495808D02*
X155800Y495808D01*
X831644Y495808D02*
X923864Y495808D01*
X254281Y503936D02*
X155800Y503936D01*
X675719Y503936D02*
X775656Y503936D01*
X831644Y503936D02*
X923864Y503936D01*
X248356Y512064D02*
X155800Y512064D01*
X681644Y512064D02*
X775656Y512064D01*
X831644Y512064D02*
X923864Y512064D01*
X248356Y520192D02*
X155800Y520192D01*
X681644Y520192D02*
X775656Y520192D01*
X831644Y520192D02*
X923864Y520192D01*
X248356Y528320D02*
X155800Y528320D01*
X266644Y528320D02*
X663356Y528320D01*
X681644Y528320D02*
X775656Y528320D01*
X831644Y528320D02*
X923864Y528320D01*
X248356Y536448D02*
X155800Y536448D01*
X266644Y536448D02*
X663356Y536448D01*
X681644Y536448D02*
X775656Y536448D01*
X831644Y536448D02*
X923864Y536448D01*
X248356Y544576D02*
X155800Y544576D01*
X382131Y544576D02*
X663356Y544576D01*
X681644Y544576D02*
X699789Y544576D01*
X831644Y544576D02*
X923864Y544576D01*
X248356Y552704D02*
X155800Y552704D01*
X384750Y552704D02*
X663356Y552704D01*
X681644Y552704D02*
X697170Y552704D01*
X831790Y552704D02*
X923864Y552704D01*
X177241Y560832D02*
X155800Y560832D01*
X222759Y560832D02*
X248356Y560832D01*
X384750Y560832D02*
X663356Y560832D01*
X681644Y560832D02*
X697170Y560832D01*
X831790Y560832D02*
X857241Y560832D01*
X902759Y560832D02*
X923864Y560832D01*
X167016Y568960D02*
X155800Y568960D01*
X232984Y568960D02*
X248356Y568960D01*
X384750Y568960D02*
X663356Y568960D01*
X681644Y568960D02*
X697170Y568960D01*
X831790Y568960D02*
X847016Y568960D01*
X912984Y568960D02*
X923864Y568960D01*
X160713Y577088D02*
X155800Y577088D01*
X239287Y577088D02*
X248356Y577088D01*
X384750Y577088D02*
X663356Y577088D01*
X681644Y577088D02*
X697170Y577088D01*
X831790Y577088D02*
X840713Y577088D01*
X919287Y577088D02*
X923864Y577088D01*
X157001Y585216D02*
X155800Y585216D01*
X242999Y585216D02*
X248356Y585216D01*
X389451Y585216D02*
X663356Y585216D01*
X681644Y585216D02*
X692469Y585216D01*
X831790Y585216D02*
X837001Y585216D01*
X922999Y585216D02*
X923864Y585216D01*
X248356Y593344D02*
X244763Y593344D01*
X393775Y593344D02*
X663356Y593344D01*
X681644Y593344D02*
X688145Y593344D01*
X831790Y593344D02*
X835237Y593344D01*
X248356Y601472D02*
X245508Y601472D01*
X394275Y601472D02*
X663356Y601472D01*
X681644Y601472D02*
X687645Y601472D01*
X831790Y601472D02*
X834492Y601472D01*
X248356Y609600D02*
X244340Y609600D01*
X391495Y609600D02*
X663356Y609600D01*
X681644Y609600D02*
X690425Y609600D01*
X831790Y609600D02*
X835660Y609600D01*
X158346Y617728D02*
X155800Y617728D01*
X241654Y617728D02*
X248356Y617728D01*
X384750Y617728D02*
X663356Y617728D01*
X681644Y617728D02*
X697170Y617728D01*
X831790Y617728D02*
X838346Y617728D01*
X921654Y617728D02*
X923864Y617728D01*
X162524Y625856D02*
X155800Y625856D01*
X237476Y625856D02*
X248356Y625856D01*
X384750Y625856D02*
X663356Y625856D01*
X681644Y625856D02*
X697170Y625856D01*
X831790Y625856D02*
X842524Y625856D01*
X917476Y625856D02*
X923864Y625856D01*
X169567Y633984D02*
X155800Y633984D01*
X230433Y633984D02*
X248356Y633984D01*
X384750Y633984D02*
X663356Y633984D01*
X681644Y633984D02*
X697170Y633984D01*
X831790Y633984D02*
X849567Y633984D01*
X910433Y633984D02*
X923864Y633984D01*
X182791Y642112D02*
X155800Y642112D01*
X217209Y642112D02*
X248356Y642112D01*
X384750Y642112D02*
X497933Y642112D01*
X527067Y642112D02*
X663356Y642112D01*
X681644Y642112D02*
X697170Y642112D01*
X831790Y642112D02*
X862791Y642112D01*
X897209Y642112D02*
X923864Y642112D01*
X248356Y650240D02*
X155800Y650240D01*
X384186Y650240D02*
X482882Y650240D01*
X542118Y650240D02*
X663356Y650240D01*
X681644Y650240D02*
X697734Y650240D01*
X831644Y650240D02*
X923864Y650240D01*
X248356Y658368D02*
X155800Y658368D01*
X279144Y658368D02*
X475696Y658368D01*
X549304Y658368D02*
X663356Y658368D01*
X681644Y658368D02*
X813356Y658368D01*
X831644Y658368D02*
X923864Y658368D01*
X248356Y666496D02*
X155800Y666496D01*
X279144Y666496D02*
X471200Y666496D01*
X553800Y666496D02*
X663356Y666496D01*
X681644Y666496D02*
X813356Y666496D01*
X831644Y666496D02*
X923864Y666496D01*
X248356Y674624D02*
X155800Y674624D01*
X279144Y674624D02*
X468272Y674624D01*
X556728Y674624D02*
X663356Y674624D01*
X681644Y674624D02*
X813356Y674624D01*
X831644Y674624D02*
X923864Y674624D01*
X248356Y682752D02*
X155800Y682752D01*
X279144Y682752D02*
X467103Y682752D01*
X557897Y682752D02*
X663356Y682752D01*
X681644Y682752D02*
X813356Y682752D01*
X831644Y682752D02*
X923864Y682752D01*
X248356Y690880D02*
X155800Y690880D01*
X279144Y690880D02*
X467625Y690880D01*
X557375Y690880D02*
X663356Y690880D01*
X681644Y690880D02*
X813356Y690880D01*
X831644Y690880D02*
X923864Y690880D01*
X248356Y699008D02*
X155800Y699008D01*
X279144Y699008D02*
X469147Y699008D01*
X555853Y699008D02*
X663356Y699008D01*
X681644Y699008D02*
X813356Y699008D01*
X831644Y699008D02*
X923864Y699008D01*
X248356Y707136D02*
X155800Y707136D01*
X279144Y707136D02*
X472859Y707136D01*
X552141Y707136D02*
X663356Y707136D01*
X681644Y707136D02*
X813356Y707136D01*
X831644Y707136D02*
X923864Y707136D01*
X248356Y715264D02*
X155800Y715264D01*
X279144Y715264D02*
X478843Y715264D01*
X546157Y715264D02*
X663356Y715264D01*
X681644Y715264D02*
X813356Y715264D01*
X831644Y715264D02*
X923864Y715264D01*
X248356Y723392D02*
X155800Y723392D01*
X384750Y723392D02*
X488534Y723392D01*
X536466Y723392D02*
X663356Y723392D01*
X681644Y723392D02*
X697170Y723392D01*
X831790Y723392D02*
X923864Y723392D01*
X248356Y731520D02*
X155800Y731520D01*
X384750Y731520D02*
X663356Y731520D01*
X681644Y731520D02*
X697170Y731520D01*
X831790Y731520D02*
X923864Y731520D01*
X248356Y739648D02*
X155800Y739648D01*
X384750Y739648D02*
X663356Y739648D01*
X681644Y739648D02*
X697170Y739648D01*
X831790Y739648D02*
X923864Y739648D01*
X248356Y747776D02*
X155800Y747776D01*
X384750Y747776D02*
X544261Y747776D01*
X560049Y747776D02*
X663356Y747776D01*
X681644Y747776D02*
X697170Y747776D01*
X831790Y747776D02*
X923864Y747776D01*
X248356Y755904D02*
X155800Y755904D01*
X386149Y755904D02*
X546307Y755904D01*
X567294Y755904D02*
X663356Y755904D01*
X681644Y755904D02*
X695771Y755904D01*
X831790Y755904D02*
X923864Y755904D01*
X248356Y764032D02*
X155800Y764032D01*
X392407Y764032D02*
X553528Y764032D01*
X567752Y764032D02*
X663356Y764032D01*
X831790Y764032D02*
X923864Y764032D01*
X248356Y772160D02*
X155800Y772160D01*
X394275Y772160D02*
X553528Y772160D01*
X567752Y772160D02*
X663356Y772160D01*
X831790Y772160D02*
X923864Y772160D01*
X248356Y780288D02*
X155800Y780288D01*
X392863Y780288D02*
X553528Y780288D01*
X567752Y780288D02*
X667146Y780288D01*
X831790Y780288D02*
X923864Y780288D01*
X248356Y788416D02*
X155800Y788416D01*
X387249Y788416D02*
X553528Y788416D01*
X567752Y788416D02*
X694671Y788416D01*
X831790Y788416D02*
X923864Y788416D01*
X189104Y796544D02*
X155800Y796544D01*
X199492Y796544D02*
X200508Y796544D01*
X210896Y796544D02*
X248356Y796544D01*
X384750Y796544D02*
X553528Y796544D01*
X653919Y796544D02*
X697170Y796544D01*
X831790Y796544D02*
X923864Y796544D01*
X199492Y804672D02*
X155800Y804672D01*
X200508Y804672D02*
X248356Y804672D01*
X384750Y804672D02*
X553528Y804672D01*
X660928Y804672D02*
X697170Y804672D01*
X831790Y804672D02*
X923864Y804672D01*
X188448Y812800D02*
X155800Y812800D01*
X199492Y812800D02*
X200508Y812800D01*
X211552Y812800D02*
X248356Y812800D01*
X384750Y812800D02*
X553528Y812800D01*
X658618Y812800D02*
X697170Y812800D01*
X831790Y812800D02*
X923864Y812800D01*
X189720Y820928D02*
X155800Y820928D01*
X199492Y820928D02*
X200508Y820928D01*
X210280Y820928D02*
X248356Y820928D01*
X384750Y820928D02*
X403639Y820928D01*
X413978Y820928D02*
X418042Y820928D01*
X428381Y820928D02*
X556686Y820928D01*
X581956Y820928D02*
X653629Y820928D01*
X663968Y820928D02*
X668032Y820928D01*
X678371Y820928D02*
X697170Y820928D01*
X831790Y820928D02*
X923864Y820928D01*
X186316Y829056D02*
X155800Y829056D01*
X199492Y829056D02*
X200508Y829056D01*
X213684Y829056D02*
X248356Y829056D01*
X306264Y829056D02*
X392174Y829056D01*
X413978Y829056D02*
X418042Y829056D01*
X439846Y829056D02*
X465068Y829056D01*
X609539Y829056D02*
X642164Y829056D01*
X663968Y829056D02*
X668032Y829056D01*
X689836Y829056D02*
X807756Y829056D01*
X826044Y829056D02*
X923864Y829056D01*
X176268Y837184D02*
X155800Y837184D01*
X212168Y837184D02*
X248356Y837184D01*
X306264Y837184D02*
X386882Y837184D01*
X413978Y837184D02*
X418042Y837184D01*
X445138Y837184D02*
X456884Y837184D01*
X613599Y837184D02*
X636872Y837184D01*
X663968Y837184D02*
X668032Y837184D01*
X695128Y837184D02*
X757592Y837184D01*
X774608Y837184D02*
X782992Y837184D01*
X800008Y837184D02*
X807756Y837184D01*
X826044Y837184D02*
X923864Y837184D01*
X175231Y845312D02*
X155800Y845312D01*
X211146Y845312D02*
X248356Y845312D01*
X306264Y845312D02*
X384426Y845312D01*
X413978Y845312D02*
X418042Y845312D01*
X447594Y845312D02*
X450053Y845312D01*
X613599Y845312D02*
X634416Y845312D01*
X663968Y845312D02*
X668032Y845312D01*
X697584Y845312D02*
X751368Y845312D01*
X831632Y845312D02*
X923864Y845312D01*
X182752Y853440D02*
X155800Y853440D01*
X214732Y853440D02*
X248356Y853440D01*
X306264Y853440D02*
X384182Y853440D01*
X413978Y853440D02*
X418042Y853440D01*
X447838Y853440D02*
X449579Y853440D01*
X467866Y853440D02*
X512483Y853440D01*
X549040Y853440D02*
X577533Y853440D01*
X590737Y853440D02*
X595311Y853440D01*
X613599Y853440D02*
X634172Y853440D01*
X697828Y853440D02*
X751368Y853440D01*
X831632Y853440D02*
X923864Y853440D01*
X185734Y861568D02*
X155800Y861568D01*
X214266Y861568D02*
X248356Y861568D01*
X306264Y861568D02*
X386026Y861568D01*
X413978Y861568D02*
X418042Y861568D01*
X445994Y861568D02*
X449579Y861568D01*
X467866Y861568D02*
X505404Y861568D01*
X552258Y861568D02*
X595311Y861568D01*
X613599Y861568D02*
X636016Y861568D01*
X695984Y861568D02*
X757324Y861568D01*
X825676Y861568D02*
X923864Y861568D01*
X189470Y869696D02*
X155800Y869696D01*
X210530Y869696D02*
X248356Y869696D01*
X306264Y869696D02*
X390477Y869696D01*
X413978Y869696D02*
X418042Y869696D01*
X441543Y869696D02*
X449579Y869696D01*
X467866Y869696D02*
X505141Y869696D01*
X543798Y869696D02*
X595311Y869696D01*
X613599Y869696D02*
X640467Y869696D01*
X691533Y869696D02*
X751368Y869696D01*
X830584Y869696D02*
X923864Y869696D01*
X185268Y877824D02*
X155800Y877824D01*
X214732Y877824D02*
X248356Y877824D01*
X306264Y877824D02*
X399490Y877824D01*
X413978Y877824D02*
X418042Y877824D01*
X432530Y877824D02*
X449579Y877824D01*
X467866Y877824D02*
X505141Y877824D01*
X535670Y877824D02*
X595343Y877824D01*
X613567Y877824D02*
X623297Y877824D01*
X816392Y877824D02*
X817408Y877824D01*
X830584Y877824D02*
X923864Y877824D01*
X185268Y885952D02*
X155800Y885952D01*
X214732Y885952D02*
X248356Y885952D01*
X306264Y885952D02*
X449579Y885952D01*
X467866Y885952D02*
X496315Y885952D01*
X538255Y885952D02*
X613956Y885952D01*
X801292Y885952D02*
X808590Y885952D01*
X816392Y885952D02*
X817408Y885952D01*
X825210Y885952D02*
X923864Y885952D01*
X193246Y894080D02*
X155800Y894080D01*
X206754Y894080D02*
X248356Y894080D01*
X383655Y894080D02*
X449579Y894080D01*
X467866Y894080D02*
X474760Y894080D01*
X481582Y894080D02*
X481583Y894080D01*
X488405Y894080D02*
X497839Y894080D01*
X536764Y894080D02*
X605828Y894080D01*
X695958Y894080D02*
X698265Y894080D01*
X830695Y894080D02*
X923864Y894080D01*
X248356Y902208D02*
X155800Y902208D01*
X384750Y902208D02*
X449579Y902208D01*
X467866Y902208D02*
X474379Y902208D01*
X481582Y902208D02*
X481583Y902208D01*
X488786Y902208D02*
X497839Y902208D01*
X536764Y902208D02*
X597700Y902208D01*
X641154Y902208D02*
X664326Y902208D01*
X672400Y902208D02*
X672400Y902208D01*
X680474Y902208D02*
X697170Y902208D01*
X831790Y902208D02*
X923864Y902208D01*
X248356Y910336D02*
X155800Y910336D01*
X384750Y910336D02*
X449579Y910336D01*
X467866Y910336D02*
X497839Y910336D01*
X540637Y910336D02*
X540638Y910336D01*
X548733Y910336D02*
X589572Y910336D01*
X641539Y910336D02*
X697170Y910336D01*
X831790Y910336D02*
X923864Y910336D01*
X248356Y918464D02*
X155800Y918464D01*
X384750Y918464D02*
X449579Y918464D01*
X467866Y918464D02*
X497839Y918464D01*
X536764Y918464D02*
X539139Y918464D01*
X540637Y918464D02*
X540638Y918464D01*
X542136Y918464D02*
X581444Y918464D01*
X641539Y918464D02*
X697170Y918464D01*
X831790Y918464D02*
X923864Y918464D01*
X248356Y926592D02*
X155800Y926592D01*
X384750Y926592D02*
X449579Y926592D01*
X467866Y926592D02*
X497839Y926592D01*
X536905Y926592D02*
X573316Y926592D01*
X641539Y926592D02*
X697170Y926592D01*
X831790Y926592D02*
X923864Y926592D01*
X248356Y934720D02*
X155800Y934720D01*
X390975Y934720D02*
X449579Y934720D01*
X467866Y934720D02*
X497839Y934720D01*
X535415Y934720D02*
X564371Y934720D01*
X641539Y934720D02*
X690945Y934720D01*
X831790Y934720D02*
X923864Y934720D01*
X248356Y942848D02*
X155800Y942848D01*
X394275Y942848D02*
X443613Y942848D01*
X467718Y942848D02*
X496501Y942848D01*
X529906Y942848D02*
X558555Y942848D01*
X641539Y942848D02*
X687645Y942848D01*
X831790Y942848D02*
X923864Y942848D01*
X248356Y950976D02*
X155800Y950976D01*
X394230Y950976D02*
X405640Y950976D01*
X461348Y950976D02*
X488373Y950976D01*
X527523Y950976D02*
X559116Y950976D01*
X641539Y950976D02*
X687690Y950976D01*
X831790Y950976D02*
X923864Y950976D01*
X179930Y959104D02*
X155800Y959104D01*
X220070Y959104D02*
X248356Y959104D01*
X390551Y959104D02*
X402271Y959104D01*
X453220Y959104D02*
X487234Y959104D01*
X641539Y959104D02*
X691369Y959104D01*
X831790Y959104D02*
X923864Y959104D01*
X168513Y967232D02*
X155800Y967232D01*
X231487Y967232D02*
X248356Y967232D01*
X384750Y967232D02*
X409489Y967232D01*
X443186Y967232D02*
X448186Y967232D01*
X452690Y967232D02*
X452690Y967232D01*
X457194Y967232D02*
X477072Y967232D01*
X484122Y967232D02*
X484123Y967232D01*
X641539Y967232D02*
X697170Y967232D01*
X831790Y967232D02*
X923864Y967232D01*
X161502Y975360D02*
X155800Y975360D01*
X238498Y975360D02*
X248356Y975360D01*
X384750Y975360D02*
X446113Y975360D01*
X452690Y975360D02*
X452690Y975360D01*
X459267Y975360D02*
X487234Y975360D01*
X517000Y975360D02*
X530160Y975360D01*
X641539Y975360D02*
X697170Y975360D01*
X831790Y975360D02*
X923864Y975360D01*
X157790Y983488D02*
X155800Y983488D01*
X242210Y983488D02*
X248356Y983488D01*
X384750Y983488D02*
X396155Y983488D01*
X475570Y983488D02*
X483400Y983488D01*
X515559Y983488D02*
X530160Y983488D01*
X641539Y983488D02*
X697170Y983488D01*
X831790Y983488D02*
X850678Y983488D01*
X869322Y983488D02*
X923864Y983488D01*
X248356Y991616D02*
X244515Y991616D01*
X384750Y991616D02*
X394971Y991616D01*
X523687Y991616D02*
X530160Y991616D01*
X641539Y991616D02*
X697170Y991616D01*
X831790Y991616D02*
X845268Y991616D01*
X874732Y991616D02*
X923864Y991616D01*
X248356Y999744D02*
X245683Y999744D01*
X383231Y999744D02*
X392247Y999744D01*
X525461Y999744D02*
X530160Y999744D01*
X646933Y999744D02*
X656317Y999744D01*
X663510Y999744D02*
X663510Y999744D01*
X670703Y999744D02*
X698689Y999744D01*
X830271Y999744D02*
X845268Y999744D01*
X874732Y999744D02*
X923864Y999744D01*
X248356Y1007872D02*
X244588Y1007872D01*
X345602Y1007872D02*
X392225Y1007872D01*
X525461Y1007872D02*
X530160Y1007872D01*
X655061Y1007872D02*
X656671Y1007872D01*
X663510Y1007872D02*
X663510Y1007872D01*
X670349Y1007872D02*
X699456Y1007872D01*
X717744Y1007872D02*
X755268Y1007872D01*
X784732Y1007872D02*
X851294Y1007872D01*
X868706Y1007872D02*
X923864Y1007872D01*
X157556Y1016000D02*
X155800Y1016000D01*
X242444Y1016000D02*
X248356Y1016000D01*
X505361Y1016000D02*
X507026Y1016000D01*
X525461Y1016000D02*
X559885Y1016000D01*
X663189Y1016000D02*
X699456Y1016000D01*
X717744Y1016000D02*
X755268Y1016000D01*
X784732Y1016000D02*
X845268Y1016000D01*
X874732Y1016000D02*
X923864Y1016000D01*
X161268Y1024128D02*
X155800Y1024128D01*
X238732Y1024128D02*
X248356Y1024128D01*
X351479Y1024128D02*
X442459Y1024128D01*
X445776Y1024128D02*
X466573Y1024128D01*
X505143Y1024128D02*
X513269Y1024128D01*
X525461Y1024128D02*
X559504Y1024128D01*
X671317Y1024128D02*
X699456Y1024128D01*
X717744Y1024128D02*
X763294Y1024128D01*
X776706Y1024128D02*
X845268Y1024128D01*
X881405Y1024128D02*
X923864Y1024128D01*
X168070Y1032256D02*
X155800Y1032256D01*
X231930Y1032256D02*
X248356Y1032256D01*
X326058Y1032256D02*
X327191Y1032256D01*
X357149Y1032256D02*
X459171Y1032256D01*
X505143Y1032256D02*
X513269Y1032256D01*
X539816Y1032256D02*
X554359Y1032256D01*
X679445Y1032256D02*
X699456Y1032256D01*
X717744Y1032256D02*
X851422Y1032256D01*
X884980Y1032256D02*
X923864Y1032256D01*
X179133Y1040384D02*
X155800Y1040384D01*
X220867Y1040384D02*
X248356Y1040384D01*
X331532Y1040384D02*
X335319Y1040384D01*
X365277Y1040384D02*
X458679Y1040384D01*
X505143Y1040384D02*
X505955Y1040384D01*
X548960Y1040384D02*
X566052Y1040384D01*
X683131Y1040384D02*
X699456Y1040384D01*
X717744Y1040384D02*
X846316Y1040384D01*
X881893Y1040384D02*
X923864Y1040384D01*
X248356Y1048512D02*
X155800Y1048512D01*
X290892Y1048512D02*
X291908Y1048512D01*
X331532Y1048512D02*
X343447Y1048512D01*
X373405Y1048512D02*
X432847Y1048512D01*
X440942Y1048512D02*
X440943Y1048512D01*
X505143Y1048512D02*
X508522Y1048512D01*
X533516Y1048512D02*
X539846Y1048512D01*
X554988Y1048512D02*
X567137Y1048512D01*
X683131Y1048512D02*
X699456Y1048512D01*
X717744Y1048512D02*
X760654Y1048512D01*
X779346Y1048512D02*
X785654Y1048512D01*
X804346Y1048512D02*
X846316Y1048512D01*
X859492Y1048512D02*
X860508Y1048512D01*
X873684Y1048512D02*
X923864Y1048512D01*
X248356Y1056640D02*
X155800Y1056640D01*
X279144Y1056640D02*
X282608Y1056640D01*
X290892Y1056640D02*
X291908Y1056640D01*
X300192Y1056640D02*
X306526Y1056640D01*
X327074Y1056640D02*
X351575Y1056640D01*
X505143Y1056640D02*
X521524Y1056640D01*
X533716Y1056640D02*
X542797Y1056640D01*
X554988Y1056640D02*
X564724Y1056640D01*
X683131Y1056640D02*
X699456Y1056640D01*
X717744Y1056640D02*
X755268Y1056640D01*
X809732Y1056640D02*
X852288Y1056640D01*
X859492Y1056640D02*
X860508Y1056640D01*
X867712Y1056640D02*
X923864Y1056640D01*
X248356Y1064768D02*
X155800Y1064768D01*
X279144Y1064768D02*
X359703Y1064768D01*
X505143Y1064768D02*
X521524Y1064768D01*
X533716Y1064768D02*
X542797Y1064768D01*
X573838Y1064768D02*
X577722Y1064768D01*
X683131Y1064768D02*
X699456Y1064768D01*
X717744Y1064768D02*
X755268Y1064768D01*
X809732Y1064768D02*
X846316Y1064768D01*
X859492Y1064768D02*
X860508Y1064768D01*
X873684Y1064768D02*
X923864Y1064768D01*
X248356Y1072896D02*
X155800Y1072896D01*
X384750Y1072896D02*
X459545Y1072896D01*
X505143Y1072896D02*
X520628Y1072896D01*
X534612Y1072896D02*
X540951Y1072896D01*
X565710Y1072896D02*
X577722Y1072896D01*
X683131Y1072896D02*
X697170Y1072896D01*
X831790Y1072896D02*
X846316Y1072896D01*
X859492Y1072896D02*
X860508Y1072896D01*
X873684Y1072896D02*
X923864Y1072896D01*
X248356Y1081024D02*
X155800Y1081024D01*
X384750Y1081024D02*
X453389Y1081024D01*
X505143Y1081024D02*
X537082Y1081024D01*
X557582Y1081024D02*
X577722Y1081024D01*
X614234Y1081024D02*
X639253Y1081024D01*
X683131Y1081024D02*
X697170Y1081024D01*
X831790Y1081024D02*
X851672Y1081024D01*
X859492Y1081024D02*
X860508Y1081024D01*
X868328Y1081024D02*
X923864Y1081024D01*
X248356Y1089152D02*
X155800Y1089152D01*
X384750Y1089152D02*
X453389Y1089152D01*
X505143Y1089152D02*
X509015Y1089152D01*
X523365Y1089152D02*
X537082Y1089152D01*
X549273Y1089152D02*
X577722Y1089152D01*
X614234Y1089152D02*
X639253Y1089152D01*
X682088Y1089152D02*
X697170Y1089152D01*
X831790Y1089152D02*
X923864Y1089152D01*
X187769Y1097280D02*
X155800Y1097280D01*
X207231Y1097280D02*
X248356Y1097280D01*
X384750Y1097280D02*
X453111Y1097280D01*
X505890Y1097280D02*
X509136Y1097280D01*
X523244Y1097280D02*
X537082Y1097280D01*
X549273Y1097280D02*
X577722Y1097280D01*
X614234Y1097280D02*
X639253Y1097280D01*
X674454Y1097280D02*
X697170Y1097280D01*
X831790Y1097280D02*
X923864Y1097280D01*
X180425Y1105408D02*
X155800Y1105408D01*
X214575Y1105408D02*
X248356Y1105408D01*
X387673Y1105408D02*
X422758Y1105408D01*
X523810Y1105408D02*
X523810Y1105408D01*
X530830Y1105408D02*
X537082Y1105408D01*
X549273Y1105408D02*
X577722Y1105408D01*
X614234Y1105408D02*
X639253Y1105408D01*
X666326Y1105408D02*
X694247Y1105408D01*
X831790Y1105408D02*
X923864Y1105408D01*
X178514Y1113536D02*
X155800Y1113536D01*
X216486Y1113536D02*
X248356Y1113536D01*
X408300Y1113536D02*
X420051Y1113536D01*
X522286Y1113536D02*
X537082Y1113536D01*
X549273Y1113536D02*
X577722Y1113536D01*
X617155Y1113536D02*
X617155Y1113536D01*
X624087Y1113536D02*
X639253Y1113536D01*
X667955Y1113536D02*
X667955Y1113536D01*
X674758Y1113536D02*
X688882Y1113536D01*
X831790Y1113536D02*
X923864Y1113536D01*
X180207Y1121664D02*
X155800Y1121664D01*
X214793Y1121664D02*
X248356Y1121664D01*
X416428Y1121664D02*
X420567Y1121664D01*
X522286Y1121664D02*
X536249Y1121664D01*
X550106Y1121664D02*
X575177Y1121664D01*
X614234Y1121664D02*
X614797Y1121664D01*
X617155Y1121664D02*
X617155Y1121664D01*
X619513Y1121664D02*
X639253Y1121664D01*
X671642Y1121664D02*
X687645Y1121664D01*
X831790Y1121664D02*
X923864Y1121664D01*
X186641Y1129792D02*
X155800Y1129792D01*
X208359Y1129792D02*
X248356Y1129792D01*
X424556Y1129792D02*
X428464Y1129792D01*
X453984Y1129792D02*
X471486Y1129792D01*
X522286Y1129792D02*
X538367Y1129792D01*
X547988Y1129792D02*
X574229Y1129792D01*
X614234Y1129792D02*
X624969Y1129792D01*
X637281Y1129792D02*
X639253Y1129792D01*
X675130Y1129792D02*
X689689Y1129792D01*
X831790Y1129792D02*
X923864Y1129792D01*
X184629Y1137920D02*
X155800Y1137920D01*
X210371Y1137920D02*
X248356Y1137920D01*
X385725Y1137920D02*
X390616Y1137920D01*
X427544Y1137920D02*
X441959Y1137920D01*
X455166Y1137920D02*
X471486Y1137920D01*
X572852Y1137920D02*
X574229Y1137920D01*
X614234Y1137920D02*
X621981Y1137920D01*
X676508Y1137920D02*
X696195Y1137920D01*
X831790Y1137920D02*
X923864Y1137920D01*
X179373Y1146048D02*
X155800Y1146048D01*
X384750Y1146048D02*
X397636Y1146048D01*
X427544Y1146048D02*
X441959Y1146048D01*
X455166Y1146048D02*
X471486Y1146048D01*
X614234Y1146048D02*
X621981Y1146048D01*
X685876Y1146048D02*
X697170Y1146048D01*
X831790Y1146048D02*
X923864Y1146048D01*
X178514Y1154176D02*
X155800Y1154176D01*
X384750Y1154176D02*
X397636Y1154176D01*
X427544Y1154176D02*
X441959Y1154176D01*
X455166Y1154176D02*
X471486Y1154176D01*
X611526Y1154176D02*
X621981Y1154176D01*
X689735Y1154176D02*
X697170Y1154176D01*
X831790Y1154176D02*
X923864Y1154176D01*
X181259Y1162304D02*
X155800Y1162304D01*
X213741Y1162304D02*
X250130Y1162304D01*
X384750Y1162304D02*
X395604Y1162304D01*
X427544Y1162304D02*
X441959Y1162304D01*
X455166Y1162304D02*
X471486Y1162304D01*
X603398Y1162304D02*
X621981Y1162304D01*
X681861Y1162304D02*
X697170Y1162304D01*
X831790Y1162304D02*
X923864Y1162304D01*
X192626Y1170432D02*
X155800Y1170432D01*
X202374Y1170432D02*
X250130Y1170432D01*
X384750Y1170432D02*
X409256Y1170432D01*
X427544Y1170432D02*
X441959Y1170432D01*
X455166Y1170432D02*
X476989Y1170432D01*
X595270Y1170432D02*
X611388Y1170432D01*
X614297Y1170432D02*
X614298Y1170432D01*
X617207Y1170432D02*
X621981Y1170432D01*
X681861Y1170432D02*
X697170Y1170432D01*
X831790Y1170432D02*
X923864Y1170432D01*
X183667Y1178560D02*
X155800Y1178560D01*
X195468Y1178560D02*
X199532Y1178560D01*
X211333Y1178560D02*
X409256Y1178560D01*
X428874Y1178560D02*
X441959Y1178560D01*
X455166Y1178560D02*
X485117Y1178560D01*
X587142Y1178560D02*
X607411Y1178560D01*
X614297Y1178560D02*
X614298Y1178560D01*
X621184Y1178560D02*
X621981Y1178560D01*
X681861Y1178560D02*
X923864Y1178560D01*
X179843Y1186688D02*
X155800Y1186688D01*
X195468Y1186688D02*
X199532Y1186688D01*
X215157Y1186688D02*
X411139Y1186688D01*
X436412Y1186688D02*
X441959Y1186688D01*
X455166Y1186688D02*
X491960Y1186688D01*
X601334Y1186688D02*
X621981Y1186688D01*
X689900Y1186688D02*
X689901Y1186688D01*
X701676Y1186688D02*
X923864Y1186688D01*
X180219Y1194816D02*
X155800Y1194816D01*
X195468Y1194816D02*
X199532Y1194816D01*
X214781Y1194816D02*
X419267Y1194816D01*
X436501Y1194816D02*
X441959Y1194816D01*
X455166Y1194816D02*
X491607Y1194816D01*
X603033Y1194816D02*
X621981Y1194816D01*
X703582Y1194816D02*
X923864Y1194816D01*
X185075Y1202944D02*
X155800Y1202944D01*
X195468Y1202944D02*
X199532Y1202944D01*
X209925Y1202944D02*
X440963Y1202944D01*
X456162Y1202944D02*
X498832Y1202944D01*
X599911Y1202944D02*
X621981Y1202944D01*
X700029Y1202944D02*
X923864Y1202944D01*
X506960Y1211072D02*
X155800Y1211072D01*
X735071Y1211072D02*
X856868Y1211072D01*
X903132Y1211072D02*
X923864Y1211072D01*
X515088Y1219200D02*
X155800Y1219200D01*
X743199Y1219200D02*
X846808Y1219200D01*
X913192Y1219200D02*
X923864Y1219200D01*
X335251Y1227328D02*
X155800Y1227328D01*
X342200Y1227328D02*
X342200Y1227328D01*
X349149Y1227328D02*
X398751Y1227328D01*
X405700Y1227328D02*
X405700Y1227328D01*
X412649Y1227328D02*
X640051Y1227328D01*
X653949Y1227328D02*
X725464Y1227328D01*
X751327Y1227328D02*
X840603Y1227328D01*
X919397Y1227328D02*
X923864Y1227328D01*
X335106Y1235456D02*
X155800Y1235456D01*
X342200Y1235456D02*
X342200Y1235456D01*
X349294Y1235456D02*
X398606Y1235456D01*
X405700Y1235456D02*
X405700Y1235456D01*
X412794Y1235456D02*
X639906Y1235456D01*
X647000Y1235456D02*
X647000Y1235456D01*
X654094Y1235456D02*
X733592Y1235456D01*
X755839Y1235456D02*
X836892Y1235456D01*
X923108Y1235456D02*
X923864Y1235456D01*
X476569Y1243584D02*
X155800Y1243584D01*
X498031Y1243584D02*
X527369Y1243584D01*
X548831Y1243584D02*
X552769Y1243584D01*
X574231Y1243584D02*
X578169Y1243584D01*
X599631Y1243584D02*
X603569Y1243584D01*
X625031Y1243584D02*
X742009Y1243584D01*
X751381Y1243584D02*
X835202Y1243584D01*
X474720Y1251712D02*
X155800Y1251712D01*
X499880Y1251712D02*
X525520Y1251712D01*
X550680Y1251712D02*
X550920Y1251712D01*
X576080Y1251712D02*
X576320Y1251712D01*
X601480Y1251712D02*
X601720Y1251712D01*
X626880Y1251712D02*
X643400Y1251712D01*
X762360Y1251712D02*
X834526Y1251712D01*
X478799Y1259840D02*
X155800Y1259840D01*
X495801Y1259840D02*
X529599Y1259840D01*
X546601Y1259840D02*
X554999Y1259840D01*
X572001Y1259840D02*
X580399Y1259840D01*
X597401Y1259840D02*
X605799Y1259840D01*
X622801Y1259840D02*
X641158Y1259840D01*
X764602Y1259840D02*
X835695Y1259840D01*
X641158Y1267968D02*
X155800Y1267968D01*
X764602Y1267968D02*
X838455Y1267968D01*
X921545Y1267968D02*
X923864Y1267968D01*
X641158Y1276096D02*
X155800Y1276096D01*
X764602Y1276096D02*
X842732Y1276096D01*
X917268Y1276096D02*
X923864Y1276096D01*
X641158Y1284224D02*
X155800Y1284224D01*
X764602Y1284224D02*
X849775Y1284224D01*
X910225Y1284224D02*
X923864Y1284224D01*
X480065Y1292352D02*
X155800Y1292352D01*
X486832Y1292352D02*
X487768Y1292352D01*
X494535Y1292352D02*
X529307Y1292352D01*
X546893Y1292352D02*
X554707Y1292352D01*
X572293Y1292352D02*
X580107Y1292352D01*
X597693Y1292352D02*
X607065Y1292352D01*
X613832Y1292352D02*
X614768Y1292352D01*
X621535Y1292352D02*
X641158Y1292352D01*
X764602Y1292352D02*
X863608Y1292352D01*
X896392Y1292352D02*
X923864Y1292352D01*
X328755Y1300480D02*
X155800Y1300480D01*
X343322Y1300480D02*
X347386Y1300480D01*
X361953Y1300480D02*
X398647Y1300480D01*
X413214Y1300480D02*
X417278Y1300480D01*
X431845Y1300480D02*
X475768Y1300480D01*
X486832Y1300480D02*
X487768Y1300480D01*
X498832Y1300480D02*
X525520Y1300480D01*
X550680Y1300480D02*
X550920Y1300480D01*
X576080Y1300480D02*
X576320Y1300480D01*
X601480Y1300480D02*
X602768Y1300480D01*
X613832Y1300480D02*
X614768Y1300480D01*
X625832Y1300480D02*
X641158Y1300480D01*
X764602Y1300480D02*
X923864Y1300480D01*
X160197Y1308608D02*
X155800Y1308608D01*
X184003Y1308608D02*
X210997Y1308608D01*
X234803Y1308608D02*
X327987Y1308608D01*
X343322Y1308608D02*
X347386Y1308608D01*
X362721Y1308608D02*
X397879Y1308608D01*
X413214Y1308608D02*
X417278Y1308608D01*
X432613Y1308608D02*
X478319Y1308608D01*
X486832Y1308608D02*
X487768Y1308608D01*
X496281Y1308608D02*
X527567Y1308608D01*
X548633Y1308608D02*
X552967Y1308608D01*
X574033Y1308608D02*
X578367Y1308608D01*
X599433Y1308608D02*
X605319Y1308608D01*
X613832Y1308608D02*
X614768Y1308608D01*
X623281Y1308608D02*
X641158Y1308608D01*
X764602Y1308608D02*
X923864Y1308608D01*
X157749Y1316736D02*
X155800Y1316736D01*
X186451Y1316736D02*
X208549Y1316736D01*
X237251Y1316736D02*
X327987Y1316736D01*
X343322Y1316736D02*
X347386Y1316736D01*
X362721Y1316736D02*
X397879Y1316736D01*
X413214Y1316736D02*
X417278Y1316736D01*
X432613Y1316736D02*
X472350Y1316736D01*
X491450Y1316736D02*
X497750Y1316736D01*
X516850Y1316736D02*
X523150Y1316736D01*
X542250Y1316736D02*
X548550Y1316736D01*
X567650Y1316736D02*
X573950Y1316736D01*
X593050Y1316736D02*
X599350Y1316736D01*
X618450Y1316736D02*
X641158Y1316736D01*
X764602Y1316736D02*
X923864Y1316736D01*
X159824Y1324864D02*
X155800Y1324864D01*
X184376Y1324864D02*
X210624Y1324864D01*
X235176Y1324864D02*
X343322Y1324864D01*
X347386Y1324864D02*
X413214Y1324864D01*
X417278Y1324864D02*
X467168Y1324864D01*
X623632Y1324864D02*
X641158Y1324864D01*
X764602Y1324864D02*
X923864Y1324864D01*
X327987Y1332992D02*
X155800Y1332992D01*
X362721Y1332992D02*
X397879Y1332992D01*
X432613Y1332992D02*
X467168Y1332992D01*
X623632Y1332992D02*
X641158Y1332992D01*
X764602Y1332992D02*
X923864Y1332992D01*
X162560Y174102D02*
X162560Y167498D01*
X162560Y225898D02*
X162560Y310002D01*
X162560Y330118D02*
X162560Y574102D01*
X162560Y625898D02*
X162560Y974102D01*
X162560Y1025898D02*
X162560Y1306245D01*
X162560Y1327755D02*
X162560Y1339920D01*
X170688Y165043D02*
X170688Y159370D01*
X170688Y234957D02*
X170688Y318130D01*
X170688Y336622D02*
X170688Y362578D01*
X170688Y377622D02*
X170688Y565043D01*
X170688Y634957D02*
X170688Y965043D01*
X170688Y1034957D02*
X170688Y1302649D01*
X170688Y1331351D02*
X170688Y1339920D01*
X178816Y159820D02*
X178816Y151242D01*
X178816Y240180D02*
X178816Y319520D01*
X178816Y379680D02*
X178816Y559820D01*
X178816Y640180D02*
X178816Y833907D01*
X178816Y851093D02*
X178816Y959820D01*
X178816Y1040180D02*
X178816Y1109293D01*
X178816Y1118307D02*
X178816Y1147393D01*
X178816Y1156407D02*
X178816Y1304248D01*
X178816Y1329752D02*
X178816Y1339920D01*
X186944Y156668D02*
X186944Y149612D01*
X186944Y243332D02*
X186944Y319520D01*
X186944Y379680D02*
X186944Y556668D01*
X186944Y643332D02*
X186944Y798704D01*
X186944Y804492D02*
X186944Y805508D01*
X186944Y811296D02*
X186944Y823704D01*
X186944Y829492D02*
X186944Y830508D01*
X186944Y862778D02*
X186944Y872222D01*
X186944Y887778D02*
X186944Y956668D01*
X186944Y1043332D02*
X186944Y1097622D01*
X186944Y1129978D02*
X186944Y1135722D01*
X186944Y1168078D02*
X186944Y1175489D01*
X186944Y1187968D02*
X186944Y1192032D01*
X186944Y1204511D02*
X186944Y1339920D01*
X195072Y154745D02*
X195072Y149612D01*
X195072Y245255D02*
X195072Y320568D01*
X195072Y337632D02*
X195072Y361568D01*
X195072Y378632D02*
X195072Y554745D01*
X195072Y645255D02*
X195072Y791316D01*
X195072Y804492D02*
X195072Y805508D01*
X195072Y829492D02*
X195072Y830508D01*
X195072Y894732D02*
X195072Y954745D01*
X195072Y1045255D02*
X195072Y1094814D01*
X195072Y1132786D02*
X195072Y1132914D01*
X195072Y1170886D02*
X195072Y1172226D01*
X195072Y1187968D02*
X195072Y1192032D01*
X195072Y1207774D02*
X195072Y1339920D01*
X203200Y154745D02*
X203200Y149612D01*
X203200Y245255D02*
X203200Y321301D01*
X203200Y328882D02*
X203200Y329318D01*
X203200Y336899D02*
X203200Y362301D01*
X203200Y369882D02*
X203200Y370318D01*
X203200Y377899D02*
X203200Y554745D01*
X203200Y645255D02*
X203200Y791316D01*
X203200Y804492D02*
X203200Y805508D01*
X203200Y829492D02*
X203200Y830508D01*
X203200Y894732D02*
X203200Y954745D01*
X203200Y1045255D02*
X203200Y1095610D01*
X203200Y1131990D02*
X203200Y1133710D01*
X203200Y1170090D02*
X203200Y1172956D01*
X203200Y1187968D02*
X203200Y1192032D01*
X203200Y1207044D02*
X203200Y1339920D01*
X211328Y156161D02*
X211328Y149612D01*
X211328Y243839D02*
X211328Y556161D01*
X211328Y643839D02*
X211328Y796976D01*
X211328Y804492D02*
X211328Y805508D01*
X211328Y813024D02*
X211328Y821976D01*
X211328Y829492D02*
X211328Y830508D01*
X211328Y838024D02*
X211328Y845494D01*
X211328Y864506D02*
X211328Y870494D01*
X211328Y889506D02*
X211328Y956161D01*
X211328Y1043839D02*
X211328Y1100777D01*
X211328Y1126823D02*
X211328Y1138877D01*
X211328Y1164923D02*
X211328Y1178554D01*
X211328Y1187968D02*
X211328Y1192032D01*
X211328Y1201446D02*
X211328Y1308277D01*
X211328Y1325723D02*
X211328Y1339920D01*
X219456Y158709D02*
X219456Y149612D01*
X219456Y241291D02*
X219456Y558709D01*
X219456Y641291D02*
X219456Y958709D01*
X219456Y1041291D02*
X219456Y1142756D01*
X219456Y1161044D02*
X219456Y1302893D01*
X219456Y1331107D02*
X219456Y1339920D01*
X227584Y163933D02*
X227584Y149612D01*
X227584Y236067D02*
X227584Y563933D01*
X227584Y636067D02*
X227584Y963933D01*
X227584Y1036067D02*
X227584Y1142756D01*
X227584Y1161044D02*
X227584Y1303407D01*
X227584Y1330593D02*
X227584Y1339920D01*
X235712Y172108D02*
X235712Y149612D01*
X235712Y227892D02*
X235712Y572108D01*
X235712Y627892D02*
X235712Y972108D01*
X235712Y1027892D02*
X235712Y1142756D01*
X235712Y1161044D02*
X235712Y1310430D01*
X235712Y1323570D02*
X235712Y1339920D01*
X243840Y187058D02*
X243840Y149612D01*
X243840Y212942D02*
X243840Y587058D01*
X243840Y612942D02*
X243840Y987058D01*
X243840Y1012942D02*
X243840Y1142756D01*
X243840Y1161044D02*
X243840Y1339920D01*
X251968Y197377D02*
X251968Y149612D01*
X251968Y304103D02*
X251968Y371367D01*
X251968Y478093D02*
X251968Y505100D01*
X251968Y1174053D02*
X251968Y1339920D01*
X260096Y195495D02*
X260096Y149612D01*
X260096Y305985D02*
X260096Y369485D01*
X260096Y479975D02*
X260096Y503356D01*
X260096Y1175935D02*
X260096Y1339920D01*
X268224Y176923D02*
X268224Y149612D01*
X268224Y190584D02*
X268224Y195495D01*
X268224Y305985D02*
X268224Y369485D01*
X268224Y479975D02*
X268224Y503356D01*
X268224Y521644D02*
X268224Y543475D01*
X268224Y1175935D02*
X268224Y1339920D01*
X276352Y173590D02*
X276352Y149612D01*
X276352Y193917D02*
X276352Y195495D01*
X276352Y305985D02*
X276352Y369485D01*
X276352Y479975D02*
X276352Y503356D01*
X276352Y521644D02*
X276352Y543475D01*
X276352Y1175935D02*
X276352Y1339920D01*
X284480Y173590D02*
X284480Y149612D01*
X284480Y193917D02*
X284480Y195495D01*
X284480Y305985D02*
X284480Y369485D01*
X284480Y479975D02*
X284480Y503356D01*
X284480Y521644D02*
X284480Y543475D01*
X284480Y653965D02*
X284480Y717465D01*
X284480Y1058512D02*
X284480Y1065445D01*
X284480Y1175935D02*
X284480Y1339920D01*
X292608Y174131D02*
X292608Y149612D01*
X292608Y193917D02*
X292608Y195495D01*
X292608Y305985D02*
X292608Y369485D01*
X292608Y479975D02*
X292608Y503356D01*
X292608Y521644D02*
X292608Y543475D01*
X292608Y653965D02*
X292608Y717465D01*
X292608Y1059764D02*
X292608Y1065445D01*
X292608Y1175935D02*
X292608Y1339920D01*
X300736Y175358D02*
X300736Y149612D01*
X300736Y193917D02*
X300736Y195495D01*
X300736Y305985D02*
X300736Y369485D01*
X300736Y479975D02*
X300736Y503356D01*
X300736Y521644D02*
X300736Y543475D01*
X300736Y653965D02*
X300736Y717465D01*
X300736Y1056096D02*
X300736Y1065445D01*
X300736Y1175935D02*
X300736Y1339920D01*
X308864Y175110D02*
X308864Y149612D01*
X308864Y193917D02*
X308864Y195495D01*
X308864Y305985D02*
X308864Y369485D01*
X308864Y479975D02*
X308864Y503356D01*
X308864Y521644D02*
X308864Y543475D01*
X308864Y653965D02*
X308864Y717465D01*
X308864Y827955D02*
X308864Y891455D01*
X308864Y1058978D02*
X308864Y1065445D01*
X308864Y1175935D02*
X308864Y1339920D01*
X316992Y173590D02*
X316992Y149612D01*
X316992Y193917D02*
X316992Y195495D01*
X316992Y305985D02*
X316992Y369485D01*
X316992Y479975D02*
X316992Y503356D01*
X316992Y521644D02*
X316992Y543475D01*
X316992Y653965D02*
X316992Y717465D01*
X316992Y827955D02*
X316992Y891455D01*
X316992Y1060812D02*
X316992Y1065445D01*
X316992Y1175935D02*
X316992Y1339920D01*
X325120Y173590D02*
X325120Y149612D01*
X325120Y193917D02*
X325120Y195495D01*
X325120Y305985D02*
X325120Y369485D01*
X325120Y479975D02*
X325120Y503356D01*
X325120Y521644D02*
X325120Y543475D01*
X325120Y653965D02*
X325120Y717465D01*
X325120Y827955D02*
X325120Y891455D01*
X325120Y1033194D02*
X325120Y1033566D01*
X325120Y1058594D02*
X325120Y1065445D01*
X325120Y1175935D02*
X325120Y1339920D01*
X333248Y195495D02*
X333248Y149612D01*
X333248Y305985D02*
X333248Y369485D01*
X333248Y479975D02*
X333248Y503356D01*
X333248Y521644D02*
X333248Y543475D01*
X333248Y653965D02*
X333248Y717465D01*
X333248Y827955D02*
X333248Y891455D01*
X333248Y1038313D02*
X333248Y1065445D01*
X333248Y1175935D02*
X333248Y1298859D01*
X333248Y1321814D02*
X333248Y1325878D01*
X341376Y195495D02*
X341376Y149612D01*
X341376Y305985D02*
X341376Y369485D01*
X341376Y479975D02*
X341376Y503356D01*
X341376Y521644D02*
X341376Y543475D01*
X341376Y653965D02*
X341376Y717465D01*
X341376Y827955D02*
X341376Y891455D01*
X341376Y1001945D02*
X341376Y1002513D01*
X341376Y1046441D02*
X341376Y1065445D01*
X341376Y1175935D02*
X341376Y1223409D01*
X341376Y1231500D02*
X341376Y1231500D01*
X341376Y1239591D02*
X341376Y1298859D01*
X341376Y1321814D02*
X341376Y1325878D01*
X349504Y195495D02*
X349504Y149612D01*
X349504Y305985D02*
X349504Y369485D01*
X349504Y479975D02*
X349504Y503356D01*
X349504Y521644D02*
X349504Y543475D01*
X349504Y653965D02*
X349504Y717465D01*
X349504Y827955D02*
X349504Y891455D01*
X349504Y1001945D02*
X349504Y1007890D01*
X349504Y1024145D02*
X349504Y1024611D01*
X349504Y1054569D02*
X349504Y1065445D01*
X349504Y1175935D02*
X349504Y1227978D01*
X349504Y1231500D02*
X349504Y1231500D01*
X349504Y1235022D02*
X349504Y1298859D01*
X349504Y1321814D02*
X349504Y1325878D01*
X357632Y195495D02*
X357632Y149612D01*
X357632Y305985D02*
X357632Y369485D01*
X357632Y479975D02*
X357632Y503356D01*
X357632Y521644D02*
X357632Y543475D01*
X357632Y653965D02*
X357632Y717465D01*
X357632Y827955D02*
X357632Y891455D01*
X357632Y1001945D02*
X357632Y1009414D01*
X357632Y1022621D02*
X357632Y1032739D01*
X357632Y1062697D02*
X357632Y1065445D01*
X357632Y1175935D02*
X357632Y1298859D01*
X357632Y1321814D02*
X357632Y1325878D01*
X365760Y195495D02*
X365760Y149612D01*
X365760Y479975D02*
X365760Y503356D01*
X365760Y521644D02*
X365760Y543475D01*
X365760Y653965D02*
X365760Y717465D01*
X365760Y827955D02*
X365760Y891455D01*
X365760Y1001945D02*
X365760Y1009414D01*
X365760Y1022621D02*
X365760Y1040867D01*
X365760Y1175935D02*
X365760Y1339920D01*
X373888Y195495D02*
X373888Y149612D01*
X373888Y479975D02*
X373888Y503356D01*
X373888Y521644D02*
X373888Y543475D01*
X373888Y653965D02*
X373888Y717465D01*
X373888Y827955D02*
X373888Y891455D01*
X373888Y1001945D02*
X373888Y1009414D01*
X373888Y1022621D02*
X373888Y1048995D01*
X373888Y1175935D02*
X373888Y1339920D01*
X382016Y196481D02*
X382016Y149612D01*
X382016Y478989D02*
X382016Y503356D01*
X382016Y521644D02*
X382016Y544461D01*
X382016Y652979D02*
X382016Y718451D01*
X382016Y826969D02*
X382016Y892441D01*
X382016Y1000959D02*
X382016Y1009414D01*
X382016Y1022621D02*
X382016Y1049616D01*
X382016Y1174949D02*
X382016Y1339920D01*
X390144Y237929D02*
X390144Y149612D01*
X390144Y263551D02*
X390144Y411919D01*
X390144Y437541D02*
X390144Y503356D01*
X390144Y521644D02*
X390144Y585909D01*
X390144Y611531D02*
X390144Y759899D01*
X390144Y785521D02*
X390144Y831573D01*
X390144Y848378D02*
X390144Y852442D01*
X390144Y869247D02*
X390144Y933889D01*
X390144Y959511D02*
X390144Y1009414D01*
X390144Y1022621D02*
X390144Y1049616D01*
X390144Y1070419D02*
X390144Y1107879D01*
X390144Y1136781D02*
X390144Y1339920D01*
X398272Y503356D02*
X398272Y149612D01*
X398272Y521644D02*
X398272Y823810D01*
X398272Y848378D02*
X398272Y852442D01*
X398272Y877010D02*
X398272Y981576D01*
X398272Y995649D02*
X398272Y995707D01*
X398272Y1022621D02*
X398272Y1049616D01*
X398272Y1070419D02*
X398272Y1111548D01*
X398272Y1167471D02*
X398272Y1228277D01*
X398272Y1231500D02*
X398272Y1231500D01*
X398272Y1234723D02*
X398272Y1301130D01*
X398272Y1321814D02*
X398272Y1325878D01*
X406400Y503356D02*
X406400Y149612D01*
X406400Y521644D02*
X406400Y819915D01*
X406400Y848378D02*
X406400Y852442D01*
X406400Y880905D02*
X406400Y950312D01*
X406400Y965953D02*
X406400Y981420D01*
X406400Y1022621D02*
X406400Y1049616D01*
X406400Y1070419D02*
X406400Y1112400D01*
X406400Y1170159D02*
X406400Y1223404D01*
X406400Y1231500D02*
X406400Y1231500D01*
X406400Y1239596D02*
X406400Y1298859D01*
X406400Y1321814D02*
X406400Y1325878D01*
X414528Y503356D02*
X414528Y149612D01*
X414528Y521644D02*
X414528Y848378D01*
X414528Y852442D02*
X414528Y948989D01*
X414528Y967276D02*
X414528Y981501D01*
X414528Y1022621D02*
X414528Y1049616D01*
X414528Y1070419D02*
X414528Y1119764D01*
X414528Y1190077D02*
X414528Y1321814D01*
X422656Y503356D02*
X422656Y149612D01*
X422656Y521644D02*
X422656Y819134D01*
X422656Y848378D02*
X422656Y852442D01*
X422656Y881686D02*
X422656Y948989D01*
X422656Y967276D02*
X422656Y981501D01*
X422656Y1022621D02*
X422656Y1049616D01*
X422656Y1070419D02*
X422656Y1105510D01*
X422656Y1124445D02*
X422656Y1127892D01*
X422656Y1198205D02*
X422656Y1298859D01*
X422656Y1321814D02*
X422656Y1325878D01*
X430784Y503356D02*
X430784Y153072D01*
X430784Y521644D02*
X430784Y822054D01*
X430784Y848378D02*
X430784Y852442D01*
X430784Y878766D02*
X430784Y948989D01*
X430784Y967276D02*
X430784Y981501D01*
X430784Y1022621D02*
X430784Y1049616D01*
X430784Y1070419D02*
X430784Y1100436D01*
X430784Y1130471D02*
X430784Y1180470D01*
X430784Y1199705D02*
X430784Y1299507D01*
X430784Y1321814D02*
X430784Y1325878D01*
X438912Y503356D02*
X438912Y160730D01*
X438912Y521644D02*
X438912Y828097D01*
X438912Y848378D02*
X438912Y852442D01*
X438912Y872723D02*
X438912Y947549D01*
X438912Y967276D02*
X438912Y981501D01*
X438912Y1022621D02*
X438912Y1040769D01*
X438912Y1048620D02*
X438912Y1048620D01*
X438912Y1070419D02*
X438912Y1100436D01*
X438912Y1133399D02*
X438912Y1339920D01*
X447040Y147843D02*
X447040Y142000D01*
X447040Y157457D02*
X447040Y503356D01*
X447040Y521644D02*
X447040Y842562D01*
X447040Y848378D02*
X447040Y852442D01*
X447040Y858258D02*
X447040Y939421D01*
X447040Y965284D02*
X447040Y968450D01*
X447040Y972737D02*
X447040Y972738D01*
X447040Y977025D02*
X447040Y981501D01*
X447040Y1023605D02*
X447040Y1043268D01*
X447040Y1070419D02*
X447040Y1100436D01*
X447040Y1210521D02*
X447040Y1339920D01*
X455168Y503356D02*
X455168Y142000D01*
X455168Y521644D02*
X455168Y838900D01*
X455168Y957156D02*
X455168Y966101D01*
X455168Y972737D02*
X455168Y972738D01*
X455168Y979374D02*
X455168Y981501D01*
X455168Y1022621D02*
X455168Y1046985D01*
X455168Y1070419D02*
X455168Y1077273D01*
X455168Y1124121D02*
X455168Y1199012D01*
X455168Y1206838D02*
X455168Y1339920D01*
X463296Y503356D02*
X463296Y142000D01*
X463296Y521644D02*
X463296Y830772D01*
X463296Y949028D02*
X463296Y981501D01*
X463296Y1022621D02*
X463296Y1027405D01*
X463296Y1124121D02*
X463296Y1339920D01*
X471424Y503356D02*
X471424Y142000D01*
X471424Y521644D02*
X471424Y666006D01*
X471424Y703995D02*
X471424Y827704D01*
X471424Y848508D02*
X471424Y980736D01*
X471424Y1124121D02*
X471424Y1317662D01*
X471424Y1338378D02*
X471424Y1339920D01*
X479552Y503356D02*
X479552Y142000D01*
X479552Y521644D02*
X479552Y653918D01*
X479552Y716082D02*
X479552Y827704D01*
X479552Y845991D02*
X479552Y890592D01*
X479552Y898442D02*
X479552Y898443D01*
X479552Y906293D02*
X479552Y960945D01*
X479552Y966387D02*
X479552Y966388D01*
X479552Y971830D02*
X479552Y987336D01*
X479552Y1172995D02*
X479552Y1240507D01*
X479552Y1260593D02*
X479552Y1292789D01*
X479552Y1300882D02*
X479552Y1301818D01*
X479552Y1309911D02*
X479552Y1313288D01*
X487680Y503356D02*
X487680Y142000D01*
X487680Y521644D02*
X487680Y647157D01*
X487680Y722843D02*
X487680Y827704D01*
X487680Y845991D02*
X487680Y893091D01*
X487680Y898442D02*
X487680Y898443D01*
X487680Y903794D02*
X487680Y952351D01*
X487680Y976932D02*
X487680Y978188D01*
X487680Y1181123D02*
X487680Y1237970D01*
X487680Y1263130D02*
X487680Y1300882D01*
X487680Y1301818D02*
X487680Y1313288D01*
X495808Y503356D02*
X495808Y142000D01*
X495808Y521644D02*
X495808Y642736D01*
X495808Y727264D02*
X495808Y827704D01*
X495808Y845991D02*
X495808Y943541D01*
X495808Y1199920D02*
X495808Y1241267D01*
X495808Y1259833D02*
X495808Y1293549D01*
X495808Y1300882D02*
X495808Y1301818D01*
X495808Y1309151D02*
X495808Y1318678D01*
X503936Y503356D02*
X503936Y142000D01*
X503936Y521644D02*
X503936Y640349D01*
X503936Y729651D02*
X503936Y827704D01*
X503936Y845991D02*
X503936Y878250D01*
X503936Y1208048D02*
X503936Y1313288D01*
X512064Y503356D02*
X512064Y142000D01*
X512064Y521644D02*
X512064Y639745D01*
X512064Y730255D02*
X512064Y827704D01*
X512064Y845991D02*
X512064Y853859D01*
X512064Y978425D02*
X512064Y979993D01*
X512064Y1020058D02*
X512064Y1035222D01*
X512064Y1049953D02*
X512064Y1085981D01*
X512064Y1216176D02*
X512064Y1313288D01*
X520192Y503356D02*
X520192Y142000D01*
X520192Y521644D02*
X520192Y640093D01*
X520192Y729907D02*
X520192Y827704D01*
X520192Y967911D02*
X520192Y988121D01*
X520192Y1051401D02*
X520192Y1085930D01*
X520192Y1223389D02*
X520192Y1319694D01*
X528320Y503356D02*
X528320Y142000D01*
X528320Y521644D02*
X528320Y642480D01*
X528320Y727520D02*
X528320Y827704D01*
X528320Y950178D02*
X528320Y954704D01*
X528320Y967911D02*
X528320Y1032047D01*
X528320Y1077893D02*
X528320Y1100903D01*
X528320Y1106405D02*
X528320Y1106405D01*
X528320Y1111907D02*
X528320Y1136822D01*
X528320Y1224134D02*
X528320Y1242539D01*
X528320Y1258561D02*
X528320Y1293339D01*
X528320Y1309361D02*
X528320Y1313288D01*
X536448Y503356D02*
X536448Y142000D01*
X536448Y521644D02*
X536448Y646596D01*
X536448Y723404D02*
X536448Y827704D01*
X536448Y877046D02*
X536448Y882441D01*
X536448Y933625D02*
X536448Y955716D01*
X536448Y1015917D02*
X536448Y1032047D01*
X536448Y1045114D02*
X536448Y1121183D01*
X536448Y1127187D02*
X536448Y1136822D01*
X536448Y1224134D02*
X536448Y1237970D01*
X536448Y1263130D02*
X536448Y1288770D01*
X544576Y152190D02*
X544576Y152189D01*
X544576Y182872D02*
X544576Y182873D01*
X544576Y194032D02*
X544576Y503356D01*
X544576Y521644D02*
X544576Y652912D01*
X544576Y717088D02*
X544576Y747017D01*
X544576Y753323D02*
X544576Y827704D01*
X544576Y868918D02*
X544576Y903402D01*
X544576Y910507D02*
X544576Y910508D01*
X544576Y917613D02*
X544576Y958768D01*
X544576Y1015917D02*
X544576Y1036000D01*
X544576Y1131551D02*
X544576Y1136822D01*
X544576Y1224134D02*
X544576Y1239616D01*
X544576Y1261484D02*
X544576Y1290416D01*
X544576Y1312284D02*
X544576Y1319062D01*
X552704Y152190D02*
X552704Y152189D01*
X552704Y182872D02*
X552704Y182873D01*
X552704Y194032D02*
X552704Y503356D01*
X552704Y521644D02*
X552704Y664096D01*
X552704Y705904D02*
X552704Y742042D01*
X552704Y760547D02*
X552704Y827704D01*
X552704Y852024D02*
X552704Y958768D01*
X552704Y1015917D02*
X552704Y1044128D01*
X552704Y1084636D02*
X552704Y1136822D01*
X552704Y1224134D02*
X552704Y1243741D01*
X552704Y1257359D02*
X552704Y1294541D01*
X552704Y1308159D02*
X552704Y1313288D01*
X560832Y152190D02*
X560832Y152189D01*
X560832Y182872D02*
X560832Y182873D01*
X560832Y194032D02*
X560832Y503356D01*
X560832Y521644D02*
X560832Y748559D01*
X560832Y825732D02*
X560832Y827704D01*
X560832Y852024D02*
X560832Y939268D01*
X560832Y1039380D02*
X560832Y1057912D01*
X560832Y1077774D02*
X560832Y1136822D01*
X560832Y1224134D02*
X560832Y1238039D01*
X560832Y1263061D02*
X560832Y1288839D01*
X568960Y503356D02*
X568960Y142000D01*
X568960Y521644D02*
X568960Y792588D01*
X568960Y852024D02*
X568960Y930948D01*
X568960Y1069646D02*
X568960Y1135199D01*
X568960Y1224134D02*
X568960Y1239195D01*
X568960Y1261905D02*
X568960Y1289995D01*
X568960Y1312705D02*
X568960Y1318046D01*
X577088Y503356D02*
X577088Y142000D01*
X577088Y521644D02*
X577088Y792588D01*
X577088Y852475D02*
X577088Y922820D01*
X577088Y1061518D02*
X577088Y1119753D01*
X577088Y1224134D02*
X577088Y1246194D01*
X577088Y1254906D02*
X577088Y1296994D01*
X577088Y1305706D02*
X577088Y1313598D01*
X585216Y503356D02*
X585216Y142000D01*
X585216Y521644D02*
X585216Y792588D01*
X585216Y814114D02*
X585216Y827704D01*
X585216Y857528D02*
X585216Y914692D01*
X585216Y1224134D02*
X585216Y1238459D01*
X585216Y1262641D02*
X585216Y1289259D01*
X593344Y503356D02*
X593344Y142000D01*
X593344Y521644D02*
X593344Y792588D01*
X593344Y814114D02*
X593344Y827704D01*
X593344Y845991D02*
X593344Y906564D01*
X593344Y1172358D02*
X593344Y1179863D01*
X593344Y1224134D02*
X593344Y1238774D01*
X593344Y1262326D02*
X593344Y1289574D01*
X593344Y1313126D02*
X593344Y1317030D01*
X601472Y152190D02*
X601472Y152189D01*
X601472Y182872D02*
X601472Y182873D01*
X601472Y194047D02*
X601472Y503356D01*
X601472Y521644D02*
X601472Y792588D01*
X601472Y814114D02*
X601472Y827704D01*
X601472Y884589D02*
X601472Y898436D01*
X601472Y1164230D02*
X601472Y1187022D01*
X601472Y1200418D02*
X601472Y1205846D01*
X601472Y1224134D02*
X601472Y1248028D01*
X601472Y1253072D02*
X601472Y1298828D01*
X601472Y1303872D02*
X601472Y1314614D01*
X609600Y152190D02*
X609600Y152189D01*
X609600Y182872D02*
X609600Y182873D01*
X609600Y194047D02*
X609600Y503356D01*
X609600Y521644D02*
X609600Y792588D01*
X609600Y814114D02*
X609600Y829081D01*
X609600Y883693D02*
X609600Y890308D01*
X609600Y1156102D02*
X609600Y1171575D01*
X609600Y1176890D02*
X609600Y1176890D01*
X609600Y1182205D02*
X609600Y1205846D01*
X609600Y1224134D02*
X609600Y1238880D01*
X609600Y1262220D02*
X609600Y1290802D01*
X609600Y1300882D02*
X609600Y1301818D01*
X609600Y1311898D02*
X609600Y1313288D01*
X617728Y152190D02*
X617728Y152189D01*
X617728Y182872D02*
X617728Y182873D01*
X617728Y194047D02*
X617728Y503356D01*
X617728Y521644D02*
X617728Y792588D01*
X617728Y814114D02*
X617728Y882180D01*
X617728Y1075584D02*
X617728Y1107898D01*
X617728Y1114977D02*
X617728Y1114978D01*
X617728Y1122057D02*
X617728Y1170667D01*
X617728Y1176890D02*
X617728Y1176890D01*
X617728Y1183113D02*
X617728Y1205846D01*
X617728Y1224134D02*
X617728Y1238353D01*
X617728Y1262747D02*
X617728Y1290338D01*
X617728Y1300882D02*
X617728Y1301818D01*
X617728Y1312362D02*
X617728Y1316014D01*
X625856Y503356D02*
X625856Y142000D01*
X625856Y521644D02*
X625856Y792588D01*
X625856Y814114D02*
X625856Y877676D01*
X625856Y1073956D02*
X625856Y1128905D01*
X625856Y1224134D02*
X625856Y1245576D01*
X625856Y1255524D02*
X625856Y1339920D01*
X633984Y503356D02*
X633984Y142000D01*
X633984Y521644D02*
X633984Y792588D01*
X633984Y814114D02*
X633984Y877676D01*
X633984Y1073956D02*
X633984Y1127854D01*
X633984Y1224134D02*
X633984Y1339920D01*
X642112Y503356D02*
X642112Y142000D01*
X642112Y521644D02*
X642112Y792588D01*
X642112Y814114D02*
X642112Y829120D01*
X642112Y848378D02*
X642112Y852442D01*
X642112Y871700D02*
X642112Y877676D01*
X642112Y900284D02*
X642112Y994923D01*
X642112Y1224134D02*
X642112Y1225029D01*
X642112Y1231500D02*
X642112Y1231500D01*
X642112Y1237971D02*
X642112Y1253182D01*
X650240Y503356D02*
X650240Y142000D01*
X650240Y521644D02*
X650240Y792816D01*
X650240Y814114D02*
X650240Y822581D01*
X650240Y848378D02*
X650240Y852442D01*
X650240Y900284D02*
X650240Y1003051D01*
X650240Y1231500D02*
X650240Y1231500D01*
X650240Y1238921D02*
X650240Y1249788D01*
X658368Y503356D02*
X658368Y142000D01*
X658368Y521644D02*
X658368Y800955D01*
X658368Y813050D02*
X658368Y819330D01*
X658368Y848378D02*
X658368Y852442D01*
X658368Y900284D02*
X658368Y997234D01*
X658368Y1003535D02*
X658368Y1003535D01*
X658368Y1009836D02*
X658368Y1011179D01*
X658368Y1224134D02*
X658368Y1249788D01*
X666496Y503356D02*
X666496Y142000D01*
X666496Y779638D02*
X666496Y848378D01*
X666496Y901300D02*
X666496Y901300D01*
X666496Y906845D02*
X666496Y996009D01*
X666496Y1003535D02*
X666496Y1003535D01*
X666496Y1011061D02*
X666496Y1019307D01*
X666496Y1105238D02*
X666496Y1108684D01*
X666496Y1224134D02*
X666496Y1249788D01*
X674624Y503482D02*
X674624Y142000D01*
X674624Y781854D02*
X674624Y819615D01*
X674624Y848378D02*
X674624Y852442D01*
X674624Y901300D02*
X674624Y901300D01*
X674624Y909112D02*
X674624Y1027435D01*
X674624Y1097110D02*
X674624Y1113212D01*
X674624Y1115612D02*
X674624Y1115613D01*
X674624Y1118013D02*
X674624Y1127695D01*
X674624Y1133374D02*
X674624Y1136036D01*
X674624Y1224134D02*
X674624Y1249788D01*
X682752Y763566D02*
X682752Y142000D01*
X682752Y781854D02*
X682752Y823151D01*
X682752Y848378D02*
X682752Y852442D01*
X682752Y900284D02*
X682752Y1036995D01*
X682752Y1087550D02*
X682752Y1144164D01*
X682752Y1161205D02*
X682752Y1182004D01*
X682752Y1224134D02*
X682752Y1249788D01*
X690880Y238825D02*
X690880Y142000D01*
X690880Y262655D02*
X690880Y412815D01*
X690880Y436645D02*
X690880Y586805D01*
X690880Y610635D02*
X690880Y760795D01*
X690880Y784625D02*
X690880Y830329D01*
X690880Y848378D02*
X690880Y852442D01*
X690880Y870491D02*
X690880Y870713D01*
X690880Y900705D02*
X690880Y934785D01*
X690880Y958615D02*
X690880Y1108775D01*
X690880Y1132605D02*
X690880Y1180036D01*
X690880Y1193720D02*
X690880Y1193720D01*
X690880Y1224134D02*
X690880Y1249788D01*
X699008Y197377D02*
X699008Y142000D01*
X699008Y304103D02*
X699008Y371367D01*
X699008Y478093D02*
X699008Y545357D01*
X699008Y652083D02*
X699008Y719347D01*
X699008Y826073D02*
X699008Y870713D01*
X699008Y888219D02*
X699008Y893337D01*
X699008Y1000063D02*
X699008Y1067327D01*
X699008Y1174053D02*
X699008Y1183475D01*
X699008Y1193720D02*
X699008Y1193720D01*
X699008Y1203965D02*
X699008Y1205846D01*
X699008Y1224134D02*
X699008Y1249788D01*
X707136Y195495D02*
X707136Y142000D01*
X707136Y305985D02*
X707136Y369485D01*
X707136Y479975D02*
X707136Y543475D01*
X707136Y653965D02*
X707136Y717465D01*
X707136Y827955D02*
X707136Y870713D01*
X707136Y888219D02*
X707136Y891455D01*
X707136Y1175935D02*
X707136Y1205846D01*
X707136Y1224134D02*
X707136Y1249788D01*
X715264Y195495D02*
X715264Y142000D01*
X715264Y305985D02*
X715264Y369485D01*
X715264Y479975D02*
X715264Y543475D01*
X715264Y653965D02*
X715264Y717465D01*
X715264Y827955D02*
X715264Y870713D01*
X715264Y888219D02*
X715264Y891455D01*
X715264Y1175935D02*
X715264Y1205846D01*
X715264Y1224134D02*
X715264Y1249788D01*
X723392Y195495D02*
X723392Y142000D01*
X723392Y305985D02*
X723392Y369485D01*
X723392Y479975D02*
X723392Y543475D01*
X723392Y653965D02*
X723392Y717465D01*
X723392Y827955D02*
X723392Y870713D01*
X723392Y888219D02*
X723392Y891455D01*
X723392Y1001945D02*
X723392Y1065445D01*
X723392Y1175935D02*
X723392Y1205846D01*
X723392Y1225256D02*
X723392Y1249788D01*
X731520Y195495D02*
X731520Y142000D01*
X731520Y305985D02*
X731520Y369485D01*
X731520Y479975D02*
X731520Y543475D01*
X731520Y653965D02*
X731520Y717465D01*
X731520Y827955D02*
X731520Y870713D01*
X731520Y889114D02*
X731520Y891455D01*
X731520Y1001945D02*
X731520Y1065445D01*
X731520Y1175935D02*
X731520Y1207521D01*
X731520Y1233384D02*
X731520Y1249788D01*
X739648Y195495D02*
X739648Y142000D01*
X739648Y305985D02*
X739648Y369485D01*
X739648Y479975D02*
X739648Y543475D01*
X739648Y653965D02*
X739648Y717465D01*
X739648Y827955D02*
X739648Y870713D01*
X739648Y1001945D02*
X739648Y1065445D01*
X739648Y1175935D02*
X739648Y1215649D01*
X739648Y1241512D02*
X739648Y1249788D01*
X747776Y195495D02*
X747776Y142000D01*
X747776Y305985D02*
X747776Y369485D01*
X747776Y479975D02*
X747776Y543475D01*
X747776Y653965D02*
X747776Y717465D01*
X747776Y827955D02*
X747776Y870713D01*
X747776Y1001945D02*
X747776Y1065445D01*
X747776Y1175935D02*
X747776Y1223777D01*
X747776Y1244771D02*
X747776Y1249788D01*
X755904Y195495D02*
X755904Y142000D01*
X755904Y305985D02*
X755904Y369485D01*
X755904Y479975D02*
X755904Y543475D01*
X755904Y653965D02*
X755904Y717465D01*
X755904Y827955D02*
X755904Y838872D01*
X755904Y860148D02*
X755904Y864272D01*
X755904Y1001945D02*
X755904Y1003262D01*
X755904Y1016738D02*
X755904Y1053262D01*
X755904Y1175935D02*
X755904Y1249788D01*
X764032Y195495D02*
X764032Y142000D01*
X764032Y305985D02*
X764032Y369485D01*
X764032Y479975D02*
X764032Y543475D01*
X764032Y653965D02*
X764032Y717465D01*
X764032Y827955D02*
X764032Y834778D01*
X764032Y1024732D02*
X764032Y1045268D01*
X764032Y1175935D02*
X764032Y1254109D01*
X772160Y195495D02*
X772160Y142000D01*
X772160Y305985D02*
X772160Y369485D01*
X772160Y479975D02*
X772160Y543475D01*
X772160Y653965D02*
X772160Y717465D01*
X772160Y827955D02*
X772160Y834778D01*
X772160Y1024732D02*
X772160Y1045268D01*
X772160Y1175935D02*
X772160Y1339920D01*
X780288Y195495D02*
X780288Y142000D01*
X780288Y305985D02*
X780288Y369485D01*
X780288Y653965D02*
X780288Y717465D01*
X780288Y827955D02*
X780288Y839888D01*
X780288Y1020546D02*
X780288Y1049454D01*
X780288Y1175935D02*
X780288Y1339920D01*
X788416Y195495D02*
X788416Y142000D01*
X788416Y305985D02*
X788416Y369485D01*
X788416Y653965D02*
X788416Y717465D01*
X788416Y827955D02*
X788416Y834778D01*
X788416Y889642D02*
X788416Y891455D01*
X788416Y1001945D02*
X788416Y1045750D01*
X788416Y1175935D02*
X788416Y1339920D01*
X796544Y195495D02*
X796544Y142000D01*
X796544Y305985D02*
X796544Y369485D01*
X796544Y653965D02*
X796544Y717465D01*
X796544Y827955D02*
X796544Y834778D01*
X796544Y889642D02*
X796544Y891455D01*
X796544Y1001945D02*
X796544Y1045268D01*
X796544Y1175935D02*
X796544Y1339920D01*
X804672Y195495D02*
X804672Y142000D01*
X804672Y305985D02*
X804672Y369485D01*
X804672Y653965D02*
X804672Y717465D01*
X804672Y827955D02*
X804672Y840904D01*
X804672Y882572D02*
X804672Y891455D01*
X804672Y1001945D02*
X804672Y1048838D01*
X804672Y1175935D02*
X804672Y1339920D01*
X812800Y195495D02*
X812800Y142000D01*
X812800Y305985D02*
X812800Y369485D01*
X812800Y653965D02*
X812800Y717465D01*
X812800Y888594D02*
X812800Y891455D01*
X812800Y1001945D02*
X812800Y1065445D01*
X812800Y1175935D02*
X812800Y1339920D01*
X820928Y195495D02*
X820928Y142000D01*
X820928Y874402D02*
X820928Y875418D01*
X820928Y888594D02*
X820928Y891455D01*
X820928Y1001945D02*
X820928Y1065445D01*
X820928Y1175935D02*
X820928Y1339920D01*
X829056Y196481D02*
X829056Y142000D01*
X829056Y826969D02*
X829056Y840832D01*
X829056Y858188D02*
X829056Y867714D01*
X829056Y874402D02*
X829056Y875418D01*
X829056Y882106D02*
X829056Y892441D01*
X829056Y1000959D02*
X829056Y1066431D01*
X829056Y1174949D02*
X829056Y1339920D01*
X837184Y184816D02*
X837184Y142000D01*
X837184Y215184D02*
X837184Y584816D01*
X837184Y615184D02*
X837184Y1234816D01*
X837184Y1265184D02*
X837184Y1339920D01*
X845312Y170926D02*
X845312Y142000D01*
X845312Y229074D02*
X845312Y570926D01*
X845312Y629074D02*
X845312Y988854D01*
X845312Y1001146D02*
X845312Y1013854D01*
X845312Y1026146D02*
X845312Y1220926D01*
X845312Y1279074D02*
X845312Y1339920D01*
X853440Y163275D02*
X853440Y142000D01*
X853440Y236725D02*
X853440Y563275D01*
X853440Y636725D02*
X853440Y980726D01*
X853440Y1044492D02*
X853440Y1045508D01*
X853440Y1069492D02*
X853440Y1070508D01*
X853440Y1082792D02*
X853440Y1213275D01*
X853440Y1286725D02*
X853440Y1339920D01*
X861568Y158247D02*
X861568Y142000D01*
X861568Y241753D02*
X861568Y558247D01*
X861568Y641753D02*
X861568Y980268D01*
X861568Y1044492D02*
X861568Y1045508D01*
X861568Y1069492D02*
X861568Y1070508D01*
X861568Y1083684D02*
X861568Y1208247D01*
X861568Y1291753D02*
X861568Y1339920D01*
X869696Y155860D02*
X869696Y142000D01*
X869696Y244140D02*
X869696Y555860D01*
X869696Y644140D02*
X869696Y983862D01*
X869696Y1006138D02*
X869696Y1008862D01*
X869696Y1044492D02*
X869696Y1045508D01*
X869696Y1054656D02*
X869696Y1060344D01*
X869696Y1069492D02*
X869696Y1070508D01*
X869696Y1079656D02*
X869696Y1205860D01*
X869696Y1294140D02*
X869696Y1339920D01*
X877824Y154745D02*
X877824Y142000D01*
X877824Y245255D02*
X877824Y554745D01*
X877824Y645255D02*
X877824Y1021798D01*
X877824Y1043202D02*
X877824Y1204745D01*
X877824Y1295255D02*
X877824Y1339920D01*
X885952Y154745D02*
X885952Y142000D01*
X885952Y245255D02*
X885952Y554745D01*
X885952Y645255D02*
X885952Y1204745D01*
X885952Y1295255D02*
X885952Y1339920D01*
X894080Y156969D02*
X894080Y142000D01*
X894080Y243031D02*
X894080Y556969D01*
X894080Y643031D02*
X894080Y1206969D01*
X894080Y1293031D02*
X894080Y1339920D01*
X902208Y160478D02*
X902208Y142000D01*
X902208Y239522D02*
X902208Y560478D01*
X902208Y639522D02*
X902208Y1210478D01*
X902208Y1289522D02*
X902208Y1339920D01*
X910336Y165904D02*
X910336Y142000D01*
X910336Y234096D02*
X910336Y565904D01*
X910336Y634096D02*
X910336Y1215904D01*
X910336Y1284096D02*
X910336Y1339920D01*
X918464Y175286D02*
X918464Y142000D01*
X918464Y224714D02*
X918464Y575286D01*
X918464Y624714D02*
X918464Y1225286D01*
X918464Y1274714D02*
X918464Y1339920D01*
D25*
X523810Y1106405D03*
D26*
X481583Y898443D03*
X440943Y1048620D03*
X663510Y1003535D03*
X540638Y910508D03*
X342200Y1231500D03*
X405700Y1231500D03*
X672400Y901300D03*
X647000Y1231500D03*
D25*
X452690Y972738D03*
D30*
X415246Y1323846D02*
X345354Y1323846D01*
X415246Y1323846D02*
X462732Y1324646D01*
X486028Y1301350D02*
X487300Y1301350D01*
X486028Y1301350D02*
X462732Y1324646D01*
X487300Y1301350D02*
X506348Y1282300D01*
X595248Y1282300D02*
X614300Y1301350D01*
X595248Y1282300D02*
X506348Y1282300D01*
X342200Y1321492D02*
X342200Y1231500D01*
X342200Y1321492D02*
X345354Y1323846D01*
X405700Y1315100D02*
X405700Y1231500D01*
X405700Y1315100D02*
X415246Y1323846D01*
D25*
X614298Y1176890D03*
X484123Y966388D03*
D28*
X197500Y1190000D02*
X180000Y1190000D01*
X176708Y1186708D01*
X176708Y1070793D01*
X180000Y1067500D01*
X227500Y1067500D01*
X245000Y1050000D01*
X245000Y350000D01*
X221650Y326650D02*
X198300Y326650D01*
X221650Y326650D02*
X245000Y350000D01*
X198300Y326650D02*
X195850Y329100D01*
D24*
X373320Y1120690D02*
X402525Y1120693D01*
X418400Y1136568D01*
X418400Y1181018D01*
X428243Y1190860D01*
D26*
X428243Y1190860D03*
D24*
X373320Y1120690D02*
X297120Y1120690D01*
X270000Y1120690D01*
X270000Y598720D01*
X297120Y598720D01*
X373320Y598720D01*
D29*
X607630Y1037508D03*
D31*
X636840Y1037508D01*
D29*
X636840Y1037508D03*
X609853Y1049255D03*
D31*
X649540Y1049255D01*
D29*
X649540Y1049255D03*
X615568Y1043223D03*
X643190Y1043223D03*
D31*
X615568Y1043223D01*
D25*
X516190Y1093070D03*
X566355Y1142918D03*
X593025Y1134028D03*
D29*
X609630Y1026078D03*
D31*
X566355Y1142918D02*
X525398Y1142918D01*
X516190Y1133710D02*
X516190Y1093070D01*
X516190Y1133710D02*
X525398Y1142918D01*
X609630Y1028523D02*
X609630Y1026078D01*
X594930Y1132123D02*
X593025Y1134028D01*
X594930Y1043223D02*
X609630Y1028523D01*
X594930Y1043223D02*
X594930Y1132123D01*
D29*
X619345Y1031793D03*
D31*
X647000Y1031793D01*
X662875Y1047668D01*
X662875Y1061320D01*
D29*
X662875Y1061320D03*
D25*
X471105Y1051160D03*
D32*
X473010Y1078148D02*
X466025Y1085133D01*
X473010Y1078148D02*
X473010Y1053065D01*
X471105Y1051160D01*
D25*
X466025Y1085133D03*
X495235Y1107993D03*
D31*
X495235Y1010520D01*
X502538Y1003218D01*
X502855Y1003218D01*
D29*
X502855Y1003218D03*
X515555Y961308D03*
D33*
X535875Y964483D02*
X565720Y964483D01*
X580325Y964483D01*
D34*
X606043Y987978D03*
D32*
X603820Y985438D02*
X580325Y985438D01*
D33*
X580325Y964483D01*
D29*
X567625Y1033063D03*
D33*
X565600Y1010203D02*
X580325Y1010203D01*
X580325Y985438D01*
D29*
X565720Y944798D03*
D32*
X565720Y964483D01*
X535875Y964483D02*
X532700Y961308D01*
X515555Y961308D01*
D25*
X480760Y1037673D03*
X433640Y1114978D03*
D32*
X565720Y1031158D02*
X567625Y1033063D01*
D33*
X535875Y1010203D02*
X535875Y964483D01*
X535875Y1010203D02*
X565600Y1010203D01*
X565600Y1022500D01*
D24*
X576198Y1176573D02*
X496061Y1176573D01*
X576198Y1176573D02*
X605090Y1147680D01*
X605090Y1075290D01*
X615568Y1064813D01*
D27*
X636523Y1064178D03*
D25*
X402525Y988613D03*
X469200Y988613D03*
D26*
X496061Y1176573D03*
D28*
X469200Y988613D02*
X402525Y988613D01*
D24*
X480630Y1161142D02*
X496061Y1176573D01*
X480630Y1161142D02*
X480630Y1115613D01*
X480760Y1037673D01*
X479995Y1114978D02*
X480630Y1115613D01*
X479995Y1114978D02*
X433640Y1114978D01*
D32*
X603820Y985438D02*
X606043Y987660D01*
X606043Y987978D01*
D31*
X565600Y1022500D02*
X565600Y1031038D01*
X565720Y1031158D01*
D24*
X615568Y1064813D02*
X635888Y1064813D01*
X636523Y1064178D01*
D25*
X504443Y886378D03*
D32*
X504443Y934638D01*
D29*
X513650Y1012743D03*
D31*
X504443Y943528D02*
X504443Y934638D01*
X504443Y943528D02*
X493330Y954640D01*
X493330Y974643D01*
X509733Y991046D01*
X509821Y991046D01*
X513650Y994875D01*
X513650Y1012743D01*
D29*
X613028Y972738D03*
D32*
X613028Y913365D01*
X632713Y893680D01*
X688593Y893680D01*
D29*
X688593Y893680D03*
X493965Y982263D03*
D32*
X472710Y1003518D01*
X399350Y1003835D01*
D25*
X399350Y1003835D03*
D29*
X500950Y989248D03*
D32*
X474180Y1016018D01*
X444118Y1016018D01*
D25*
X349820Y1016018D03*
D32*
X444118Y1016018D01*
D25*
X444118Y1016018D03*
D29*
X601550Y1014378D03*
D25*
X623505Y931780D03*
D32*
X623505Y992755D01*
X601550Y1014378D01*
D29*
X652715Y1071163D03*
X616010Y1054113D03*
D31*
X652715Y1060685D02*
X652715Y1071163D01*
X652715Y1060685D02*
X646048Y1054018D01*
D29*
X658430Y1089578D03*
D31*
X652715Y1083863D01*
X652715Y1071163D01*
X616105Y1054018D02*
X616010Y1054113D01*
X616105Y1054018D02*
X646048Y1054018D01*
D29*
X489262Y1016870D03*
D32*
X483170Y1016870D01*
D27*
X448563Y1202925D03*
D32*
X438720Y1123868D02*
X431418Y1123868D01*
X459993Y1081788D02*
X466725Y1075055D01*
X459993Y1081788D02*
X459993Y1099738D01*
X452690Y1107040D01*
X430465Y1107040D01*
X426655Y1110850D01*
X426655Y1119105D01*
X431418Y1123868D01*
X448563Y1133710D02*
X448563Y1202925D01*
X448563Y1133710D02*
X438720Y1123868D01*
X466725Y1075055D02*
X466725Y1055014D01*
X465283Y1053572D01*
X465283Y1034757D01*
X483170Y1016870D01*
D25*
X507935Y1107993D03*
D31*
X499048Y1099041D01*
X499048Y1013693D01*
D29*
X507935Y996550D03*
D31*
X507935Y1004805D02*
X499048Y1013693D01*
X507935Y1004805D02*
X507935Y996550D01*
D35*
X459105Y1054100D03*
X291465Y993458D03*
D28*
X447355Y1054100D02*
X459105Y1054100D01*
X447355Y1054100D02*
X444727Y1056728D01*
X371563Y1056728D01*
X338773Y1023938D01*
X322263Y993458D02*
X291465Y993458D01*
X322263Y993458D02*
X338773Y1009968D01*
X338773Y1023938D01*
D29*
X598105Y1033380D03*
D25*
X513015Y1161968D03*
D31*
X572070Y1161968D01*
X585088Y1130853D02*
X588898Y1127043D01*
X588898Y1042588D02*
X598105Y1033380D01*
X588898Y1042588D02*
X588898Y1127043D01*
X585088Y1130853D02*
X585088Y1148950D01*
X572070Y1161968D01*
D29*
X577785Y1035603D03*
D25*
X493330Y1151173D03*
D31*
X571435Y1151173D01*
X580325Y1125138D02*
X583818Y1121645D01*
X580325Y1125138D02*
X580325Y1142283D01*
X571435Y1151173D01*
X583818Y1041635D02*
X577785Y1035603D01*
X583818Y1041635D02*
X583818Y1121645D01*
D29*
X513015Y1042588D03*
D31*
X520000Y1042588D01*
X527620Y1050208D01*
D29*
X527620Y1070528D03*
D31*
X527620Y1050208D01*
D29*
X511428Y970515D03*
D32*
X523810Y880345D02*
X544130Y860025D01*
D25*
X544130Y860025D03*
D32*
X523810Y880345D02*
X523810Y925748D01*
D31*
X523810Y946068D01*
X510475Y959403D01*
X510475Y969563D01*
X511428Y970515D01*
D29*
X505395Y975278D03*
D32*
X517460Y929558D02*
X517460Y874313D01*
X539685Y852088D01*
D25*
X539685Y852088D03*
D31*
X517460Y929558D02*
X517460Y944798D01*
X505713Y956545D01*
X505713Y974960D02*
X505395Y975278D01*
X505713Y974960D02*
X505713Y956545D01*
D25*
X530160Y887648D03*
D32*
X530160Y929558D01*
D29*
X530160Y929558D03*
D28*
X179850Y370100D02*
X179850Y329100D01*
D25*
X564450Y818433D03*
X552068Y750170D03*
D28*
X560640Y814623D02*
X564450Y818433D01*
X560640Y814623D02*
X560640Y799700D01*
X560640Y758425D01*
X552385Y750170D01*
X552068Y750170D01*
X560640Y799700D02*
X647000Y799700D01*
D27*
X647000Y799700D03*
D35*
X440420Y152650D03*
D28*
X430270Y142500D01*
X177500Y142500D02*
X155000Y165000D01*
X171600Y329100D02*
X179850Y329100D01*
X177500Y142500D02*
X430270Y142500D01*
X155000Y165000D02*
X155000Y312500D01*
X171600Y329100D01*
D29*
X570800Y938448D03*
D32*
X690305Y877317D02*
X763691Y877317D01*
X690305Y877317D02*
X683341Y884280D01*
X763691Y877317D02*
X766100Y874910D01*
X624967Y884280D02*
X570800Y938448D01*
X624967Y884280D02*
X683341Y884280D01*
D29*
X578420Y938448D03*
D32*
X685100Y888600D02*
X692085Y881615D01*
X733360Y881615D01*
X774072Y892334D02*
X791500Y874910D01*
X774072Y892334D02*
X744079Y892334D01*
X733360Y881615D01*
X628268Y888600D02*
X578420Y938448D01*
X628268Y888600D02*
X685100Y888600D01*
D29*
X589215Y1031793D03*
X543178Y1124185D03*
D25*
X516508Y1193718D03*
D32*
X535875Y1193718D01*
X536193Y1193400D01*
D25*
X536193Y1193400D03*
D31*
X543178Y1124185D02*
X543178Y1078572D01*
X575899Y1031051D02*
X579671Y1031051D01*
X575899Y1031051D02*
X573233Y1033717D01*
X551413Y1078572D02*
X543178Y1078572D01*
X580413Y1031793D02*
X589215Y1031793D01*
X580413Y1031793D02*
X579671Y1031051D01*
X573233Y1033717D02*
X573233Y1056752D01*
X551413Y1078572D01*
D35*
X459740Y1063308D03*
X279083Y993458D03*
D28*
X368300Y1063308D02*
X459740Y1063308D01*
X368300Y1063308D02*
X331470Y1026478D01*
X324168Y1003300D02*
X288925Y1003300D01*
X279083Y993458D01*
X331470Y1010603D02*
X331470Y1026478D01*
X331470Y1010603D02*
X324168Y1003300D01*
D29*
X600550Y1020998D03*
D31*
X631760Y1020998D01*
D29*
X631760Y1020998D03*
D26*
X399033Y1134345D03*
X404748Y1161015D03*
D28*
X404748Y1140060D01*
X399033Y1134345D01*
D29*
X646365Y1071163D03*
D28*
X646365Y1178478D01*
X654899Y1187012D01*
X654899Y1193720D01*
D25*
X667003Y1130535D03*
D28*
X667003Y1138473D01*
X681608Y1153078D01*
D25*
X681608Y1153078D03*
D24*
X708600Y1120690D02*
X708600Y946700D01*
X708600Y1120690D02*
X784800Y1120690D01*
X784800Y946700D02*
X708600Y946700D01*
D27*
X659700Y1269600D03*
X748600Y1269600D03*
D29*
X549528Y1074020D03*
D31*
X511745Y943210D02*
X511745Y932415D01*
D32*
X511745Y863518D01*
X579373Y845420D02*
X584135Y850183D01*
D36*
X584135Y850183D03*
D31*
X499045Y975595D02*
X519365Y995915D01*
X499045Y975595D02*
X499045Y955910D01*
X511745Y943210D01*
D32*
X511745Y863518D02*
X529843Y845420D01*
X579373Y845420D01*
D31*
X538098Y1038143D02*
X522540Y1038143D01*
X519365Y1034968D01*
X519365Y995915D01*
X548893Y1073385D02*
X549528Y1074020D01*
X548893Y1048938D02*
X538098Y1038143D01*
X548893Y1048938D02*
X548893Y1073385D01*
D24*
X373320Y946700D02*
X297120Y946700D01*
X297120Y772710D02*
X373320Y772710D01*
X297120Y772710D02*
X297120Y946700D01*
X708600Y772710D02*
X784800Y772710D01*
X784800Y250740D02*
X708600Y250740D01*
X784800Y772710D02*
X822500Y772710D01*
X822500Y250740D02*
X784800Y250740D01*
X822500Y250740D02*
X822500Y772710D01*
X708600Y772710D02*
X672500Y772710D01*
X672500Y512500D01*
X257500Y1151900D02*
X197500Y1151900D01*
X257500Y512500D02*
X672500Y512500D01*
X257500Y512500D02*
X257500Y1151900D01*
X816900Y849510D02*
X816900Y804810D01*
X784800Y772710D01*
X784800Y424730D02*
X708600Y424730D01*
X784800Y424730D02*
X784800Y598720D01*
X708600Y598720D01*
X373320Y424730D02*
X297120Y424730D01*
X373320Y424730D02*
X373320Y250740D01*
X297120Y250740D01*
M02*
