G04 EAGLE Gerber RS-274X export*
G75*
%MOMM*%
%FSLAX34Y34*%
%LPD*%
%IN*%
%IPPOS*%
%AMOC8*
5,1,8,0,0,1.08239X$1,22.5*%
G01*
%ADD10C,0.254000*%


D10*
X150000Y135000D02*
X930000Y135000D01*
X930000Y1345000D01*
X150000Y1345000D01*
X150000Y135000D01*
X879900Y1032181D02*
X879837Y1031545D01*
X879713Y1030919D01*
X879527Y1030308D01*
X879283Y1029718D01*
X878982Y1029154D01*
X878627Y1028623D01*
X878222Y1028130D01*
X877770Y1027678D01*
X877277Y1027273D01*
X876746Y1026918D01*
X876182Y1026617D01*
X875592Y1026373D01*
X874981Y1026187D01*
X874355Y1026063D01*
X873719Y1026000D01*
X873081Y1026000D01*
X872445Y1026063D01*
X871819Y1026187D01*
X871208Y1026373D01*
X870618Y1026617D01*
X870054Y1026918D01*
X869523Y1027273D01*
X869030Y1027678D01*
X868578Y1028130D01*
X868173Y1028623D01*
X867818Y1029154D01*
X867517Y1029718D01*
X867273Y1030308D01*
X867087Y1030919D01*
X866963Y1031545D01*
X866900Y1032181D01*
X866900Y1032819D01*
X866963Y1033455D01*
X867087Y1034081D01*
X867273Y1034692D01*
X867517Y1035282D01*
X867818Y1035846D01*
X868173Y1036377D01*
X868578Y1036870D01*
X869030Y1037322D01*
X869523Y1037727D01*
X870054Y1038082D01*
X870618Y1038383D01*
X871208Y1038627D01*
X871819Y1038813D01*
X872445Y1038937D01*
X873081Y1039000D01*
X873719Y1039000D01*
X874355Y1038937D01*
X874981Y1038813D01*
X875592Y1038627D01*
X876182Y1038383D01*
X876746Y1038082D01*
X877277Y1037727D01*
X877770Y1037322D01*
X878222Y1036870D01*
X878627Y1036377D01*
X878982Y1035846D01*
X879283Y1035282D01*
X879527Y1034692D01*
X879713Y1034081D01*
X879837Y1033455D01*
X879900Y1032819D01*
X879900Y1032181D01*
X193100Y842181D02*
X193037Y841545D01*
X192913Y840919D01*
X192727Y840308D01*
X192483Y839718D01*
X192182Y839154D01*
X191827Y838623D01*
X191422Y838130D01*
X190970Y837678D01*
X190477Y837273D01*
X189946Y836918D01*
X189382Y836617D01*
X188792Y836373D01*
X188181Y836187D01*
X187555Y836063D01*
X186919Y836000D01*
X186281Y836000D01*
X185645Y836063D01*
X185019Y836187D01*
X184408Y836373D01*
X183818Y836617D01*
X183254Y836918D01*
X182723Y837273D01*
X182230Y837678D01*
X181778Y838130D01*
X181373Y838623D01*
X181018Y839154D01*
X180717Y839718D01*
X180473Y840308D01*
X180287Y840919D01*
X180163Y841545D01*
X180100Y842181D01*
X180100Y842819D01*
X180163Y843455D01*
X180287Y844081D01*
X180473Y844692D01*
X180717Y845282D01*
X181018Y845846D01*
X181373Y846377D01*
X181778Y846870D01*
X182230Y847322D01*
X182723Y847727D01*
X183254Y848082D01*
X183818Y848383D01*
X184408Y848627D01*
X185019Y848813D01*
X185645Y848937D01*
X186281Y849000D01*
X186919Y849000D01*
X187555Y848937D01*
X188181Y848813D01*
X188792Y848627D01*
X189382Y848383D01*
X189946Y848082D01*
X190477Y847727D01*
X190970Y847322D01*
X191422Y846870D01*
X191827Y846377D01*
X192182Y845846D01*
X192483Y845282D01*
X192727Y844692D01*
X192913Y844081D01*
X193037Y843455D01*
X193100Y842819D01*
X193100Y842181D01*
X896000Y199476D02*
X895932Y198431D01*
X895795Y197392D01*
X895590Y196365D01*
X895319Y195353D01*
X894983Y194361D01*
X894582Y193393D01*
X894118Y192454D01*
X893595Y191546D01*
X893013Y190675D01*
X892375Y189844D01*
X891684Y189057D01*
X890943Y188316D01*
X890156Y187625D01*
X889325Y186988D01*
X888454Y186406D01*
X887546Y185882D01*
X886607Y185418D01*
X885639Y185017D01*
X884647Y184681D01*
X883635Y184410D01*
X882608Y184205D01*
X881569Y184069D01*
X880524Y184000D01*
X879476Y184000D01*
X878431Y184069D01*
X877392Y184205D01*
X876365Y184410D01*
X875353Y184681D01*
X874361Y185017D01*
X873393Y185418D01*
X872454Y185882D01*
X871546Y186406D01*
X870675Y186988D01*
X869844Y187625D01*
X869057Y188316D01*
X868316Y189057D01*
X867625Y189844D01*
X866988Y190675D01*
X866406Y191546D01*
X865882Y192454D01*
X865418Y193393D01*
X865017Y194361D01*
X864681Y195353D01*
X864410Y196365D01*
X864205Y197392D01*
X864069Y198431D01*
X864000Y199476D01*
X864000Y200524D01*
X864069Y201569D01*
X864205Y202608D01*
X864410Y203635D01*
X864681Y204647D01*
X865017Y205639D01*
X865418Y206607D01*
X865882Y207546D01*
X866406Y208454D01*
X866988Y209325D01*
X867625Y210156D01*
X868316Y210943D01*
X869057Y211684D01*
X869844Y212375D01*
X870675Y213013D01*
X871546Y213595D01*
X872454Y214118D01*
X873393Y214582D01*
X874361Y214983D01*
X875353Y215319D01*
X876365Y215590D01*
X877392Y215795D01*
X878431Y215932D01*
X879476Y216000D01*
X880524Y216000D01*
X881569Y215932D01*
X882608Y215795D01*
X883635Y215590D01*
X884647Y215319D01*
X885639Y214983D01*
X886607Y214582D01*
X887546Y214118D01*
X888454Y213595D01*
X889325Y213013D01*
X890156Y212375D01*
X890943Y211684D01*
X891684Y210943D01*
X892375Y210156D01*
X893013Y209325D01*
X893595Y208454D01*
X894118Y207546D01*
X894582Y206607D01*
X894983Y205639D01*
X895319Y204647D01*
X895590Y203635D01*
X895795Y202608D01*
X895932Y201569D01*
X896000Y200524D01*
X896000Y199476D01*
X216000Y199476D02*
X215932Y198431D01*
X215795Y197392D01*
X215590Y196365D01*
X215319Y195353D01*
X214983Y194361D01*
X214582Y193393D01*
X214118Y192454D01*
X213595Y191546D01*
X213013Y190675D01*
X212375Y189844D01*
X211684Y189057D01*
X210943Y188316D01*
X210156Y187625D01*
X209325Y186988D01*
X208454Y186406D01*
X207546Y185882D01*
X206607Y185418D01*
X205639Y185017D01*
X204647Y184681D01*
X203635Y184410D01*
X202608Y184205D01*
X201569Y184069D01*
X200524Y184000D01*
X199476Y184000D01*
X198431Y184069D01*
X197392Y184205D01*
X196365Y184410D01*
X195353Y184681D01*
X194361Y185017D01*
X193393Y185418D01*
X192454Y185882D01*
X191546Y186406D01*
X190675Y186988D01*
X189844Y187625D01*
X189057Y188316D01*
X188316Y189057D01*
X187625Y189844D01*
X186988Y190675D01*
X186406Y191546D01*
X185882Y192454D01*
X185418Y193393D01*
X185017Y194361D01*
X184681Y195353D01*
X184410Y196365D01*
X184205Y197392D01*
X184069Y198431D01*
X184000Y199476D01*
X184000Y200524D01*
X184069Y201569D01*
X184205Y202608D01*
X184410Y203635D01*
X184681Y204647D01*
X185017Y205639D01*
X185418Y206607D01*
X185882Y207546D01*
X186406Y208454D01*
X186988Y209325D01*
X187625Y210156D01*
X188316Y210943D01*
X189057Y211684D01*
X189844Y212375D01*
X190675Y213013D01*
X191546Y213595D01*
X192454Y214118D01*
X193393Y214582D01*
X194361Y214983D01*
X195353Y215319D01*
X196365Y215590D01*
X197392Y215795D01*
X198431Y215932D01*
X199476Y216000D01*
X200524Y216000D01*
X201569Y215932D01*
X202608Y215795D01*
X203635Y215590D01*
X204647Y215319D01*
X205639Y214983D01*
X206607Y214582D01*
X207546Y214118D01*
X208454Y213595D01*
X209325Y213013D01*
X210156Y212375D01*
X210943Y211684D01*
X211684Y210943D01*
X212375Y210156D01*
X213013Y209325D01*
X213595Y208454D01*
X214118Y207546D01*
X214582Y206607D01*
X214983Y205639D01*
X215319Y204647D01*
X215590Y203635D01*
X215795Y202608D01*
X215932Y201569D01*
X216000Y200524D01*
X216000Y199476D01*
X896000Y599476D02*
X895932Y598431D01*
X895795Y597392D01*
X895590Y596365D01*
X895319Y595353D01*
X894983Y594361D01*
X894582Y593393D01*
X894118Y592454D01*
X893595Y591546D01*
X893013Y590675D01*
X892375Y589844D01*
X891684Y589057D01*
X890943Y588316D01*
X890156Y587625D01*
X889325Y586988D01*
X888454Y586406D01*
X887546Y585882D01*
X886607Y585418D01*
X885639Y585017D01*
X884647Y584681D01*
X883635Y584410D01*
X882608Y584205D01*
X881569Y584069D01*
X880524Y584000D01*
X879476Y584000D01*
X878431Y584069D01*
X877392Y584205D01*
X876365Y584410D01*
X875353Y584681D01*
X874361Y585017D01*
X873393Y585418D01*
X872454Y585882D01*
X871546Y586406D01*
X870675Y586988D01*
X869844Y587625D01*
X869057Y588316D01*
X868316Y589057D01*
X867625Y589844D01*
X866988Y590675D01*
X866406Y591546D01*
X865882Y592454D01*
X865418Y593393D01*
X865017Y594361D01*
X864681Y595353D01*
X864410Y596365D01*
X864205Y597392D01*
X864069Y598431D01*
X864000Y599476D01*
X864000Y600524D01*
X864069Y601569D01*
X864205Y602608D01*
X864410Y603635D01*
X864681Y604647D01*
X865017Y605639D01*
X865418Y606607D01*
X865882Y607546D01*
X866406Y608454D01*
X866988Y609325D01*
X867625Y610156D01*
X868316Y610943D01*
X869057Y611684D01*
X869844Y612375D01*
X870675Y613013D01*
X871546Y613595D01*
X872454Y614118D01*
X873393Y614582D01*
X874361Y614983D01*
X875353Y615319D01*
X876365Y615590D01*
X877392Y615795D01*
X878431Y615932D01*
X879476Y616000D01*
X880524Y616000D01*
X881569Y615932D01*
X882608Y615795D01*
X883635Y615590D01*
X884647Y615319D01*
X885639Y614983D01*
X886607Y614582D01*
X887546Y614118D01*
X888454Y613595D01*
X889325Y613013D01*
X890156Y612375D01*
X890943Y611684D01*
X891684Y610943D01*
X892375Y610156D01*
X893013Y609325D01*
X893595Y608454D01*
X894118Y607546D01*
X894582Y606607D01*
X894983Y605639D01*
X895319Y604647D01*
X895590Y603635D01*
X895795Y602608D01*
X895932Y601569D01*
X896000Y600524D01*
X896000Y599476D01*
X216000Y599476D02*
X215932Y598431D01*
X215795Y597392D01*
X215590Y596365D01*
X215319Y595353D01*
X214983Y594361D01*
X214582Y593393D01*
X214118Y592454D01*
X213595Y591546D01*
X213013Y590675D01*
X212375Y589844D01*
X211684Y589057D01*
X210943Y588316D01*
X210156Y587625D01*
X209325Y586988D01*
X208454Y586406D01*
X207546Y585882D01*
X206607Y585418D01*
X205639Y585017D01*
X204647Y584681D01*
X203635Y584410D01*
X202608Y584205D01*
X201569Y584069D01*
X200524Y584000D01*
X199476Y584000D01*
X198431Y584069D01*
X197392Y584205D01*
X196365Y584410D01*
X195353Y584681D01*
X194361Y585017D01*
X193393Y585418D01*
X192454Y585882D01*
X191546Y586406D01*
X190675Y586988D01*
X189844Y587625D01*
X189057Y588316D01*
X188316Y589057D01*
X187625Y589844D01*
X186988Y590675D01*
X186406Y591546D01*
X185882Y592454D01*
X185418Y593393D01*
X185017Y594361D01*
X184681Y595353D01*
X184410Y596365D01*
X184205Y597392D01*
X184069Y598431D01*
X184000Y599476D01*
X184000Y600524D01*
X184069Y601569D01*
X184205Y602608D01*
X184410Y603635D01*
X184681Y604647D01*
X185017Y605639D01*
X185418Y606607D01*
X185882Y607546D01*
X186406Y608454D01*
X186988Y609325D01*
X187625Y610156D01*
X188316Y610943D01*
X189057Y611684D01*
X189844Y612375D01*
X190675Y613013D01*
X191546Y613595D01*
X192454Y614118D01*
X193393Y614582D01*
X194361Y614983D01*
X195353Y615319D01*
X196365Y615590D01*
X197392Y615795D01*
X198431Y615932D01*
X199476Y616000D01*
X200524Y616000D01*
X201569Y615932D01*
X202608Y615795D01*
X203635Y615590D01*
X204647Y615319D01*
X205639Y614983D01*
X206607Y614582D01*
X207546Y614118D01*
X208454Y613595D01*
X209325Y613013D01*
X210156Y612375D01*
X210943Y611684D01*
X211684Y610943D01*
X212375Y610156D01*
X213013Y609325D01*
X213595Y608454D01*
X214118Y607546D01*
X214582Y606607D01*
X214983Y605639D01*
X215319Y604647D01*
X215590Y603635D01*
X215795Y602608D01*
X215932Y601569D01*
X216000Y600524D01*
X216000Y599476D01*
X896000Y1249476D02*
X895932Y1248431D01*
X895795Y1247392D01*
X895590Y1246365D01*
X895319Y1245353D01*
X894983Y1244361D01*
X894582Y1243393D01*
X894118Y1242454D01*
X893595Y1241546D01*
X893013Y1240675D01*
X892375Y1239844D01*
X891684Y1239057D01*
X890943Y1238316D01*
X890156Y1237625D01*
X889325Y1236988D01*
X888454Y1236406D01*
X887546Y1235882D01*
X886607Y1235418D01*
X885639Y1235017D01*
X884647Y1234681D01*
X883635Y1234410D01*
X882608Y1234205D01*
X881569Y1234069D01*
X880524Y1234000D01*
X879476Y1234000D01*
X878431Y1234069D01*
X877392Y1234205D01*
X876365Y1234410D01*
X875353Y1234681D01*
X874361Y1235017D01*
X873393Y1235418D01*
X872454Y1235882D01*
X871546Y1236406D01*
X870675Y1236988D01*
X869844Y1237625D01*
X869057Y1238316D01*
X868316Y1239057D01*
X867625Y1239844D01*
X866988Y1240675D01*
X866406Y1241546D01*
X865882Y1242454D01*
X865418Y1243393D01*
X865017Y1244361D01*
X864681Y1245353D01*
X864410Y1246365D01*
X864205Y1247392D01*
X864069Y1248431D01*
X864000Y1249476D01*
X864000Y1250524D01*
X864069Y1251569D01*
X864205Y1252608D01*
X864410Y1253635D01*
X864681Y1254647D01*
X865017Y1255639D01*
X865418Y1256607D01*
X865882Y1257546D01*
X866406Y1258454D01*
X866988Y1259325D01*
X867625Y1260156D01*
X868316Y1260943D01*
X869057Y1261684D01*
X869844Y1262375D01*
X870675Y1263013D01*
X871546Y1263595D01*
X872454Y1264118D01*
X873393Y1264582D01*
X874361Y1264983D01*
X875353Y1265319D01*
X876365Y1265590D01*
X877392Y1265795D01*
X878431Y1265932D01*
X879476Y1266000D01*
X880524Y1266000D01*
X881569Y1265932D01*
X882608Y1265795D01*
X883635Y1265590D01*
X884647Y1265319D01*
X885639Y1264983D01*
X886607Y1264582D01*
X887546Y1264118D01*
X888454Y1263595D01*
X889325Y1263013D01*
X890156Y1262375D01*
X890943Y1261684D01*
X891684Y1260943D01*
X892375Y1260156D01*
X893013Y1259325D01*
X893595Y1258454D01*
X894118Y1257546D01*
X894582Y1256607D01*
X894983Y1255639D01*
X895319Y1254647D01*
X895590Y1253635D01*
X895795Y1252608D01*
X895932Y1251569D01*
X896000Y1250524D01*
X896000Y1249476D01*
X216000Y999476D02*
X215932Y998431D01*
X215795Y997392D01*
X215590Y996365D01*
X215319Y995353D01*
X214983Y994361D01*
X214582Y993393D01*
X214118Y992454D01*
X213595Y991546D01*
X213013Y990675D01*
X212375Y989844D01*
X211684Y989057D01*
X210943Y988316D01*
X210156Y987625D01*
X209325Y986988D01*
X208454Y986406D01*
X207546Y985882D01*
X206607Y985418D01*
X205639Y985017D01*
X204647Y984681D01*
X203635Y984410D01*
X202608Y984205D01*
X201569Y984069D01*
X200524Y984000D01*
X199476Y984000D01*
X198431Y984069D01*
X197392Y984205D01*
X196365Y984410D01*
X195353Y984681D01*
X194361Y985017D01*
X193393Y985418D01*
X192454Y985882D01*
X191546Y986406D01*
X190675Y986988D01*
X189844Y987625D01*
X189057Y988316D01*
X188316Y989057D01*
X187625Y989844D01*
X186988Y990675D01*
X186406Y991546D01*
X185882Y992454D01*
X185418Y993393D01*
X185017Y994361D01*
X184681Y995353D01*
X184410Y996365D01*
X184205Y997392D01*
X184069Y998431D01*
X184000Y999476D01*
X184000Y1000524D01*
X184069Y1001569D01*
X184205Y1002608D01*
X184410Y1003635D01*
X184681Y1004647D01*
X185017Y1005639D01*
X185418Y1006607D01*
X185882Y1007546D01*
X186406Y1008454D01*
X186988Y1009325D01*
X187625Y1010156D01*
X188316Y1010943D01*
X189057Y1011684D01*
X189844Y1012375D01*
X190675Y1013013D01*
X191546Y1013595D01*
X192454Y1014118D01*
X193393Y1014582D01*
X194361Y1014983D01*
X195353Y1015319D01*
X196365Y1015590D01*
X197392Y1015795D01*
X198431Y1015932D01*
X199476Y1016000D01*
X200524Y1016000D01*
X201569Y1015932D01*
X202608Y1015795D01*
X203635Y1015590D01*
X204647Y1015319D01*
X205639Y1014983D01*
X206607Y1014582D01*
X207546Y1014118D01*
X208454Y1013595D01*
X209325Y1013013D01*
X210156Y1012375D01*
X210943Y1011684D01*
X211684Y1010943D01*
X212375Y1010156D01*
X213013Y1009325D01*
X213595Y1008454D01*
X214118Y1007546D01*
X214582Y1006607D01*
X214983Y1005639D01*
X215319Y1004647D01*
X215590Y1003635D01*
X215795Y1002608D01*
X215932Y1001569D01*
X216000Y1000524D01*
X216000Y999476D01*
X213629Y1317405D02*
X213700Y1318211D01*
X213840Y1319009D01*
X214050Y1319791D01*
X214327Y1320551D01*
X214669Y1321285D01*
X215073Y1321986D01*
X215538Y1322649D01*
X216058Y1323269D01*
X216631Y1323842D01*
X217251Y1324362D01*
X217914Y1324827D01*
X218615Y1325231D01*
X219349Y1325573D01*
X220110Y1325850D01*
X220891Y1326060D01*
X221689Y1326200D01*
X222495Y1326271D01*
X223305Y1326271D01*
X224111Y1326200D01*
X224909Y1326060D01*
X225691Y1325850D01*
X226451Y1325573D01*
X227185Y1325231D01*
X227886Y1324827D01*
X228549Y1324362D01*
X229169Y1323842D01*
X229742Y1323269D01*
X230262Y1322649D01*
X230727Y1321986D01*
X231131Y1321285D01*
X231473Y1320551D01*
X231750Y1319791D01*
X231960Y1319009D01*
X232100Y1318211D01*
X232171Y1317405D01*
X232171Y1316595D01*
X232100Y1315789D01*
X231960Y1314991D01*
X231750Y1314210D01*
X231473Y1313449D01*
X231131Y1312715D01*
X230727Y1312014D01*
X230262Y1311351D01*
X229742Y1310731D01*
X229169Y1310158D01*
X228549Y1309638D01*
X227886Y1309173D01*
X227185Y1308769D01*
X226451Y1308427D01*
X225691Y1308150D01*
X224909Y1307940D01*
X224111Y1307800D01*
X223305Y1307729D01*
X222495Y1307729D01*
X221689Y1307800D01*
X220891Y1307940D01*
X220110Y1308150D01*
X219349Y1308427D01*
X218615Y1308769D01*
X217914Y1309173D01*
X217251Y1309638D01*
X216631Y1310158D01*
X216058Y1310731D01*
X215538Y1311351D01*
X215073Y1312014D01*
X214669Y1312715D01*
X214327Y1313449D01*
X214050Y1314210D01*
X213840Y1314991D01*
X213700Y1315789D01*
X213629Y1316595D01*
X213629Y1317405D01*
X162829Y1317405D02*
X162900Y1318211D01*
X163040Y1319009D01*
X163250Y1319791D01*
X163527Y1320551D01*
X163869Y1321285D01*
X164273Y1321986D01*
X164738Y1322649D01*
X165258Y1323269D01*
X165831Y1323842D01*
X166451Y1324362D01*
X167114Y1324827D01*
X167815Y1325231D01*
X168549Y1325573D01*
X169310Y1325850D01*
X170091Y1326060D01*
X170889Y1326200D01*
X171695Y1326271D01*
X172505Y1326271D01*
X173311Y1326200D01*
X174109Y1326060D01*
X174891Y1325850D01*
X175651Y1325573D01*
X176385Y1325231D01*
X177086Y1324827D01*
X177749Y1324362D01*
X178369Y1323842D01*
X178942Y1323269D01*
X179462Y1322649D01*
X179927Y1321986D01*
X180331Y1321285D01*
X180673Y1320551D01*
X180950Y1319791D01*
X181160Y1319009D01*
X181300Y1318211D01*
X181371Y1317405D01*
X181371Y1316595D01*
X181300Y1315789D01*
X181160Y1314991D01*
X180950Y1314210D01*
X180673Y1313449D01*
X180331Y1312715D01*
X179927Y1312014D01*
X179462Y1311351D01*
X178942Y1310731D01*
X178369Y1310158D01*
X177749Y1309638D01*
X177086Y1309173D01*
X176385Y1308769D01*
X175651Y1308427D01*
X174891Y1308150D01*
X174109Y1307940D01*
X173311Y1307800D01*
X172505Y1307729D01*
X171695Y1307729D01*
X170889Y1307800D01*
X170091Y1307940D01*
X169310Y1308150D01*
X168549Y1308427D01*
X167815Y1308769D01*
X167114Y1309173D01*
X166451Y1309638D01*
X165831Y1310158D01*
X165258Y1310731D01*
X164738Y1311351D01*
X164273Y1312014D01*
X163869Y1312715D01*
X163527Y1313449D01*
X163250Y1314210D01*
X163040Y1314991D01*
X162900Y1315789D01*
X162829Y1316595D01*
X162829Y1317405D01*
X528500Y684476D02*
X528432Y683431D01*
X528295Y682392D01*
X528090Y681365D01*
X527819Y680353D01*
X527483Y679361D01*
X527082Y678393D01*
X526618Y677454D01*
X526095Y676546D01*
X525513Y675675D01*
X524875Y674844D01*
X524184Y674057D01*
X523443Y673316D01*
X522656Y672625D01*
X521825Y671988D01*
X520954Y671406D01*
X520046Y670882D01*
X519107Y670418D01*
X518139Y670017D01*
X517147Y669681D01*
X516135Y669410D01*
X515108Y669205D01*
X514069Y669069D01*
X513024Y669000D01*
X511976Y669000D01*
X510931Y669069D01*
X509892Y669205D01*
X508865Y669410D01*
X507853Y669681D01*
X506861Y670017D01*
X505893Y670418D01*
X504954Y670882D01*
X504046Y671406D01*
X503175Y671988D01*
X502344Y672625D01*
X501557Y673316D01*
X500816Y674057D01*
X500125Y674844D01*
X499488Y675675D01*
X498906Y676546D01*
X498382Y677454D01*
X497918Y678393D01*
X497517Y679361D01*
X497181Y680353D01*
X496910Y681365D01*
X496705Y682392D01*
X496569Y683431D01*
X496500Y684476D01*
X496500Y685524D01*
X496569Y686569D01*
X496705Y687608D01*
X496910Y688635D01*
X497181Y689647D01*
X497517Y690639D01*
X497918Y691607D01*
X498382Y692546D01*
X498906Y693454D01*
X499488Y694325D01*
X500125Y695156D01*
X500816Y695943D01*
X501557Y696684D01*
X502344Y697375D01*
X503175Y698013D01*
X504046Y698595D01*
X504954Y699118D01*
X505893Y699582D01*
X506861Y699983D01*
X507853Y700319D01*
X508865Y700590D01*
X509892Y700795D01*
X510931Y700932D01*
X511976Y701000D01*
X513024Y701000D01*
X514069Y700932D01*
X515108Y700795D01*
X516135Y700590D01*
X517147Y700319D01*
X518139Y699983D01*
X519107Y699582D01*
X520046Y699118D01*
X520954Y698595D01*
X521825Y698013D01*
X522656Y697375D01*
X523443Y696684D01*
X524184Y695943D01*
X524875Y695156D01*
X525513Y694325D01*
X526095Y693454D01*
X526618Y692546D01*
X527082Y691607D01*
X527483Y690639D01*
X527819Y689647D01*
X528090Y688635D01*
X528295Y687608D01*
X528432Y686569D01*
X528500Y685524D01*
X528500Y684476D01*
M02*
