G04 EAGLE Gerber RS-274X export*
G75*
%MOMM*%
%FSLAX34Y34*%
%LPD*%
%INSilkscreen Top*%
%IPPOS*%
%AMOC8*
5,1,8,0,0,1.08239X$1,22.5*%
G01*
%ADD10C,0.254000*%
%ADD11C,0.635000*%
%ADD12C,0.152400*%
%ADD13C,0.177800*%
%ADD14C,0.330200*%
%ADD15C,0.304800*%
%ADD16C,0.203200*%
%ADD17R,0.200000X1.000000*%
%ADD18C,0.406400*%
%ADD19C,0.127000*%
%ADD20C,0.150000*%
%ADD21C,0.050800*%
%ADD22C,0.101600*%
%ADD23C,0.100000*%
%ADD24C,1.200000*%
%ADD25C,0.279400*%
%ADD26C,0.400000*%
%ADD27R,0.889000X0.190500*%
%ADD28R,1.000000X0.200000*%
%ADD29C,0.200000*%
%ADD30C,0.200000*%

G36*
X549249Y772270D02*
X549249Y772270D01*
X549254Y772270D01*
X549370Y772296D01*
X549486Y772321D01*
X549490Y772323D01*
X549494Y772324D01*
X549596Y772385D01*
X549698Y772446D01*
X549701Y772449D01*
X549704Y772451D01*
X549819Y772573D01*
X553629Y777653D01*
X553637Y777669D01*
X553650Y777682D01*
X553694Y777778D01*
X553743Y777871D01*
X553746Y777889D01*
X553753Y777905D01*
X553765Y778010D01*
X553781Y778114D01*
X553778Y778132D01*
X553780Y778149D01*
X553758Y778252D01*
X553740Y778357D01*
X553732Y778372D01*
X553728Y778390D01*
X553674Y778480D01*
X553624Y778574D01*
X553611Y778586D01*
X553602Y778601D01*
X553522Y778670D01*
X553445Y778742D01*
X553428Y778749D01*
X553415Y778761D01*
X553317Y778800D01*
X553221Y778844D01*
X553203Y778846D01*
X553187Y778853D01*
X553020Y778871D01*
X545400Y778871D01*
X545382Y778868D01*
X545365Y778870D01*
X545261Y778849D01*
X545157Y778832D01*
X545142Y778823D01*
X545124Y778820D01*
X545033Y778766D01*
X544940Y778716D01*
X544928Y778704D01*
X544912Y778695D01*
X544843Y778615D01*
X544771Y778538D01*
X544763Y778522D01*
X544751Y778508D01*
X544711Y778411D01*
X544667Y778315D01*
X544665Y778297D01*
X544658Y778281D01*
X544651Y778175D01*
X544640Y778071D01*
X544644Y778053D01*
X544642Y778035D01*
X544670Y777933D01*
X544692Y777830D01*
X544701Y777815D01*
X544706Y777798D01*
X544791Y777653D01*
X548601Y772573D01*
X548604Y772570D01*
X548606Y772567D01*
X548693Y772485D01*
X548778Y772403D01*
X548782Y772401D01*
X548785Y772398D01*
X548894Y772348D01*
X549001Y772298D01*
X549005Y772298D01*
X549009Y772296D01*
X549127Y772283D01*
X549245Y772270D01*
X549249Y772270D01*
G37*
G36*
X635686Y1281245D02*
X635686Y1281245D01*
X635713Y1281245D01*
X635824Y1281277D01*
X635937Y1281303D01*
X635960Y1281316D01*
X635986Y1281324D01*
X636084Y1281386D01*
X636185Y1281442D01*
X636201Y1281460D01*
X636226Y1281475D01*
X636411Y1281683D01*
X636415Y1281687D01*
X638415Y1284687D01*
X638446Y1284751D01*
X638486Y1284811D01*
X638507Y1284879D01*
X638538Y1284943D01*
X638550Y1285014D01*
X638571Y1285082D01*
X638573Y1285153D01*
X638585Y1285224D01*
X638577Y1285295D01*
X638579Y1285366D01*
X638561Y1285435D01*
X638552Y1285506D01*
X638525Y1285572D01*
X638507Y1285641D01*
X638470Y1285702D01*
X638443Y1285768D01*
X638398Y1285824D01*
X638362Y1285886D01*
X638310Y1285935D01*
X638265Y1285990D01*
X638207Y1286031D01*
X638154Y1286080D01*
X638091Y1286113D01*
X638033Y1286154D01*
X637965Y1286177D01*
X637901Y1286210D01*
X637842Y1286220D01*
X637764Y1286247D01*
X637645Y1286253D01*
X637570Y1286265D01*
X633570Y1286265D01*
X633499Y1286255D01*
X633427Y1286255D01*
X633359Y1286235D01*
X633289Y1286225D01*
X633223Y1286196D01*
X633154Y1286176D01*
X633094Y1286138D01*
X633029Y1286109D01*
X632974Y1286063D01*
X632914Y1286025D01*
X632866Y1285972D01*
X632812Y1285926D01*
X632772Y1285866D01*
X632725Y1285812D01*
X632694Y1285748D01*
X632655Y1285689D01*
X632633Y1285621D01*
X632602Y1285556D01*
X632590Y1285486D01*
X632569Y1285418D01*
X632567Y1285346D01*
X632555Y1285276D01*
X632563Y1285205D01*
X632561Y1285134D01*
X632580Y1285064D01*
X632588Y1284993D01*
X632613Y1284938D01*
X632633Y1284859D01*
X632694Y1284756D01*
X632725Y1284687D01*
X634725Y1281687D01*
X634802Y1281600D01*
X634875Y1281510D01*
X634897Y1281495D01*
X634915Y1281475D01*
X635012Y1281413D01*
X635107Y1281346D01*
X635133Y1281338D01*
X635155Y1281323D01*
X635266Y1281291D01*
X635376Y1281253D01*
X635403Y1281252D01*
X635428Y1281245D01*
X635544Y1281245D01*
X635660Y1281239D01*
X635686Y1281245D01*
G37*
G36*
X465186Y1280935D02*
X465186Y1280935D01*
X465213Y1280935D01*
X465324Y1280967D01*
X465437Y1280993D01*
X465460Y1281006D01*
X465486Y1281014D01*
X465584Y1281076D01*
X465685Y1281132D01*
X465701Y1281150D01*
X465726Y1281165D01*
X465911Y1281373D01*
X465915Y1281377D01*
X467915Y1284377D01*
X467946Y1284441D01*
X467986Y1284501D01*
X468007Y1284569D01*
X468038Y1284633D01*
X468050Y1284704D01*
X468071Y1284772D01*
X468073Y1284843D01*
X468085Y1284914D01*
X468077Y1284985D01*
X468079Y1285056D01*
X468061Y1285125D01*
X468052Y1285196D01*
X468025Y1285262D01*
X468007Y1285331D01*
X467970Y1285392D01*
X467943Y1285458D01*
X467898Y1285514D01*
X467862Y1285576D01*
X467810Y1285625D01*
X467765Y1285680D01*
X467707Y1285721D01*
X467654Y1285770D01*
X467591Y1285803D01*
X467533Y1285844D01*
X467465Y1285867D01*
X467401Y1285900D01*
X467342Y1285910D01*
X467264Y1285937D01*
X467145Y1285943D01*
X467070Y1285955D01*
X463070Y1285955D01*
X462999Y1285945D01*
X462927Y1285945D01*
X462859Y1285925D01*
X462789Y1285915D01*
X462723Y1285886D01*
X462654Y1285866D01*
X462594Y1285828D01*
X462529Y1285799D01*
X462474Y1285753D01*
X462414Y1285715D01*
X462366Y1285662D01*
X462312Y1285616D01*
X462272Y1285556D01*
X462225Y1285502D01*
X462194Y1285438D01*
X462155Y1285379D01*
X462133Y1285311D01*
X462102Y1285246D01*
X462090Y1285176D01*
X462069Y1285108D01*
X462067Y1285036D01*
X462055Y1284966D01*
X462063Y1284895D01*
X462061Y1284824D01*
X462080Y1284754D01*
X462088Y1284683D01*
X462113Y1284628D01*
X462133Y1284549D01*
X462194Y1284446D01*
X462225Y1284377D01*
X464225Y1281377D01*
X464302Y1281290D01*
X464375Y1281200D01*
X464397Y1281185D01*
X464415Y1281165D01*
X464512Y1281103D01*
X464607Y1281036D01*
X464633Y1281028D01*
X464655Y1281013D01*
X464766Y1280981D01*
X464876Y1280943D01*
X464903Y1280942D01*
X464928Y1280935D01*
X465044Y1280935D01*
X465160Y1280929D01*
X465186Y1280935D01*
G37*
G36*
X461215Y1188173D02*
X461215Y1188173D01*
X461286Y1188171D01*
X461356Y1188190D01*
X461427Y1188198D01*
X461482Y1188223D01*
X461561Y1188243D01*
X461664Y1188304D01*
X461733Y1188335D01*
X464733Y1190335D01*
X464820Y1190412D01*
X464910Y1190485D01*
X464925Y1190507D01*
X464945Y1190525D01*
X465007Y1190622D01*
X465074Y1190717D01*
X465082Y1190743D01*
X465097Y1190765D01*
X465129Y1190876D01*
X465167Y1190986D01*
X465168Y1191013D01*
X465175Y1191038D01*
X465175Y1191154D01*
X465181Y1191270D01*
X465175Y1191296D01*
X465175Y1191323D01*
X465143Y1191434D01*
X465117Y1191547D01*
X465104Y1191570D01*
X465096Y1191596D01*
X465034Y1191694D01*
X464978Y1191795D01*
X464960Y1191811D01*
X464945Y1191836D01*
X464737Y1192021D01*
X464733Y1192025D01*
X461733Y1194025D01*
X461669Y1194056D01*
X461609Y1194096D01*
X461541Y1194117D01*
X461477Y1194148D01*
X461406Y1194160D01*
X461338Y1194181D01*
X461267Y1194183D01*
X461197Y1194195D01*
X461125Y1194187D01*
X461054Y1194189D01*
X460985Y1194171D01*
X460914Y1194162D01*
X460848Y1194135D01*
X460779Y1194117D01*
X460718Y1194080D01*
X460652Y1194053D01*
X460596Y1194008D01*
X460534Y1193972D01*
X460485Y1193920D01*
X460430Y1193875D01*
X460389Y1193817D01*
X460340Y1193764D01*
X460307Y1193701D01*
X460266Y1193643D01*
X460243Y1193575D01*
X460210Y1193511D01*
X460200Y1193452D01*
X460173Y1193374D01*
X460167Y1193255D01*
X460155Y1193180D01*
X460155Y1189180D01*
X460165Y1189109D01*
X460165Y1189037D01*
X460185Y1188969D01*
X460195Y1188899D01*
X460224Y1188833D01*
X460244Y1188764D01*
X460282Y1188704D01*
X460311Y1188639D01*
X460357Y1188584D01*
X460395Y1188524D01*
X460449Y1188476D01*
X460495Y1188422D01*
X460554Y1188382D01*
X460608Y1188335D01*
X460672Y1188304D01*
X460731Y1188265D01*
X460800Y1188243D01*
X460864Y1188212D01*
X460934Y1188200D01*
X461002Y1188179D01*
X461074Y1188177D01*
X461145Y1188165D01*
X461215Y1188173D01*
G37*
G36*
X570331Y774475D02*
X570331Y774475D01*
X570403Y774475D01*
X570471Y774495D01*
X570542Y774505D01*
X570607Y774534D01*
X570676Y774554D01*
X570736Y774592D01*
X570801Y774621D01*
X570856Y774667D01*
X570916Y774705D01*
X570964Y774759D01*
X571018Y774805D01*
X571058Y774864D01*
X571105Y774918D01*
X571136Y774982D01*
X571176Y775041D01*
X571197Y775110D01*
X571228Y775174D01*
X571240Y775244D01*
X571261Y775312D01*
X571263Y775384D01*
X571275Y775455D01*
X571267Y775525D01*
X571269Y775596D01*
X571250Y775666D01*
X571242Y775737D01*
X571217Y775792D01*
X571197Y775871D01*
X571136Y775974D01*
X571105Y776043D01*
X569105Y779043D01*
X569028Y779130D01*
X568955Y779220D01*
X568933Y779235D01*
X568915Y779255D01*
X568818Y779317D01*
X568723Y779384D01*
X568697Y779392D01*
X568675Y779407D01*
X568564Y779439D01*
X568454Y779477D01*
X568427Y779478D01*
X568402Y779485D01*
X568286Y779485D01*
X568170Y779491D01*
X568144Y779485D01*
X568117Y779485D01*
X568006Y779453D01*
X567893Y779427D01*
X567870Y779414D01*
X567844Y779406D01*
X567746Y779344D01*
X567645Y779288D01*
X567629Y779270D01*
X567604Y779255D01*
X567419Y779047D01*
X567415Y779043D01*
X565415Y776043D01*
X565384Y775979D01*
X565345Y775919D01*
X565323Y775851D01*
X565292Y775787D01*
X565280Y775716D01*
X565259Y775648D01*
X565257Y775577D01*
X565245Y775507D01*
X565253Y775435D01*
X565251Y775364D01*
X565269Y775295D01*
X565278Y775224D01*
X565305Y775158D01*
X565323Y775089D01*
X565360Y775028D01*
X565387Y774962D01*
X565432Y774906D01*
X565469Y774844D01*
X565520Y774795D01*
X565565Y774740D01*
X565624Y774699D01*
X565676Y774650D01*
X565739Y774617D01*
X565797Y774576D01*
X565865Y774553D01*
X565929Y774520D01*
X565988Y774510D01*
X566066Y774483D01*
X566185Y774477D01*
X566260Y774465D01*
X570260Y774465D01*
X570331Y774475D01*
G37*
D10*
X474258Y358756D02*
X478156Y358756D01*
X476207Y358756D02*
X476207Y370450D01*
X474258Y370450D02*
X478156Y370450D01*
X482989Y366552D02*
X482989Y358756D01*
X482989Y362654D02*
X486887Y366552D01*
X488836Y366552D01*
X493904Y366552D02*
X495853Y366552D01*
X495853Y358756D01*
X493904Y358756D02*
X497802Y358756D01*
X495853Y370450D02*
X495853Y372399D01*
X510431Y370450D02*
X510431Y358756D01*
X504584Y358756D01*
X502635Y360705D01*
X502635Y364603D01*
X504584Y366552D01*
X510431Y366552D01*
X515732Y366552D02*
X517681Y366552D01*
X517681Y358756D01*
X515732Y358756D02*
X519630Y358756D01*
X517681Y370450D02*
X517681Y372399D01*
X524464Y366552D02*
X524464Y360705D01*
X526413Y358756D01*
X532260Y358756D01*
X532260Y366552D01*
X537561Y366552D02*
X537561Y358756D01*
X537561Y366552D02*
X539510Y366552D01*
X541459Y364603D01*
X541459Y358756D01*
X541459Y364603D02*
X543408Y366552D01*
X545357Y364603D01*
X545357Y358756D01*
X563756Y360705D02*
X565705Y358756D01*
X569603Y358756D01*
X571552Y360705D01*
X571552Y368501D01*
X569603Y370450D01*
X565705Y370450D01*
X563756Y368501D01*
X563756Y366552D01*
X565705Y364603D01*
X571552Y364603D01*
X580751Y368501D02*
X584649Y370450D01*
X580751Y368501D02*
X576853Y364603D01*
X576853Y360705D01*
X578802Y358756D01*
X582700Y358756D01*
X584649Y360705D01*
X584649Y362654D01*
X582700Y364603D01*
X576853Y364603D01*
X589950Y360705D02*
X589950Y368501D01*
X591899Y370450D01*
X595797Y370450D01*
X597746Y368501D01*
X597746Y360705D01*
X595797Y358756D01*
X591899Y358756D01*
X589950Y360705D01*
X597746Y368501D01*
X603047Y368501D02*
X604996Y370450D01*
X608894Y370450D01*
X610843Y368501D01*
X610843Y366552D01*
X608894Y364603D01*
X606945Y364603D01*
X608894Y364603D02*
X610843Y362654D01*
X610843Y360705D01*
X608894Y358756D01*
X604996Y358756D01*
X603047Y360705D01*
X616145Y358756D02*
X616145Y370450D01*
X623941Y358756D01*
X623941Y370450D01*
X486264Y349114D02*
X486264Y337420D01*
X486264Y349114D02*
X492111Y349114D01*
X494060Y347165D01*
X494060Y345216D01*
X492111Y343267D01*
X494060Y341318D01*
X494060Y339369D01*
X492111Y337420D01*
X486264Y337420D01*
X486264Y343267D02*
X492111Y343267D01*
X501310Y337420D02*
X505208Y337420D01*
X501310Y337420D02*
X499361Y339369D01*
X499361Y343267D01*
X501310Y345216D01*
X505208Y345216D01*
X507157Y343267D01*
X507157Y341318D01*
X499361Y341318D01*
X514407Y345216D02*
X518305Y345216D01*
X520254Y343267D01*
X520254Y337420D01*
X514407Y337420D01*
X512458Y339369D01*
X514407Y341318D01*
X520254Y341318D01*
X527504Y345216D02*
X533351Y345216D01*
X527504Y345216D02*
X525555Y343267D01*
X525555Y339369D01*
X527504Y337420D01*
X533351Y337420D01*
X540602Y337420D02*
X544500Y337420D01*
X546449Y339369D01*
X546449Y343267D01*
X544500Y345216D01*
X540602Y345216D01*
X538653Y343267D01*
X538653Y339369D01*
X540602Y337420D01*
X551750Y337420D02*
X551750Y345216D01*
X557597Y345216D01*
X559546Y343267D01*
X559546Y337420D01*
X577944Y341318D02*
X577944Y349114D01*
X577944Y341318D02*
X581842Y337420D01*
X585740Y341318D01*
X585740Y349114D01*
X591042Y349114D02*
X598838Y349114D01*
X591042Y349114D02*
X591042Y343267D01*
X594940Y345216D01*
X596889Y345216D01*
X598838Y343267D01*
X598838Y339369D01*
X596889Y337420D01*
X592991Y337420D01*
X591042Y339369D01*
X604139Y337420D02*
X604139Y349114D01*
X608037Y345216D01*
X611935Y349114D01*
X611935Y337420D01*
D11*
X285050Y1174668D02*
X285052Y1174780D01*
X285058Y1174892D01*
X285068Y1175004D01*
X285082Y1175115D01*
X285099Y1175225D01*
X285121Y1175335D01*
X285146Y1175445D01*
X285176Y1175553D01*
X285209Y1175660D01*
X285246Y1175766D01*
X285286Y1175870D01*
X285331Y1175973D01*
X285378Y1176074D01*
X285430Y1176174D01*
X285485Y1176272D01*
X285543Y1176367D01*
X285605Y1176461D01*
X285670Y1176552D01*
X285738Y1176641D01*
X285809Y1176728D01*
X285883Y1176812D01*
X285960Y1176893D01*
X286040Y1176972D01*
X286123Y1177047D01*
X286208Y1177120D01*
X286296Y1177190D01*
X286386Y1177256D01*
X286479Y1177320D01*
X286573Y1177380D01*
X286670Y1177436D01*
X286769Y1177489D01*
X286869Y1177539D01*
X286971Y1177585D01*
X287075Y1177627D01*
X287180Y1177666D01*
X287287Y1177701D01*
X287394Y1177732D01*
X287503Y1177760D01*
X287612Y1177783D01*
X287723Y1177803D01*
X287834Y1177819D01*
X287945Y1177831D01*
X288057Y1177839D01*
X288169Y1177843D01*
X288281Y1177843D01*
X288393Y1177839D01*
X288505Y1177831D01*
X288616Y1177819D01*
X288727Y1177803D01*
X288838Y1177783D01*
X288947Y1177760D01*
X289056Y1177732D01*
X289163Y1177701D01*
X289270Y1177666D01*
X289375Y1177627D01*
X289479Y1177585D01*
X289581Y1177539D01*
X289681Y1177489D01*
X289780Y1177436D01*
X289877Y1177380D01*
X289971Y1177320D01*
X290064Y1177256D01*
X290154Y1177190D01*
X290242Y1177120D01*
X290327Y1177047D01*
X290410Y1176972D01*
X290490Y1176893D01*
X290567Y1176812D01*
X290641Y1176728D01*
X290712Y1176641D01*
X290780Y1176552D01*
X290845Y1176461D01*
X290907Y1176367D01*
X290965Y1176272D01*
X291020Y1176174D01*
X291072Y1176074D01*
X291119Y1175973D01*
X291164Y1175870D01*
X291204Y1175766D01*
X291241Y1175660D01*
X291274Y1175553D01*
X291304Y1175445D01*
X291329Y1175335D01*
X291351Y1175225D01*
X291368Y1175115D01*
X291382Y1175004D01*
X291392Y1174892D01*
X291398Y1174780D01*
X291400Y1174668D01*
X291398Y1174556D01*
X291392Y1174444D01*
X291382Y1174332D01*
X291368Y1174221D01*
X291351Y1174111D01*
X291329Y1174001D01*
X291304Y1173891D01*
X291274Y1173783D01*
X291241Y1173676D01*
X291204Y1173570D01*
X291164Y1173466D01*
X291119Y1173363D01*
X291072Y1173262D01*
X291020Y1173162D01*
X290965Y1173064D01*
X290907Y1172969D01*
X290845Y1172875D01*
X290780Y1172784D01*
X290712Y1172695D01*
X290641Y1172608D01*
X290567Y1172524D01*
X290490Y1172443D01*
X290410Y1172364D01*
X290327Y1172289D01*
X290242Y1172216D01*
X290154Y1172146D01*
X290064Y1172080D01*
X289971Y1172016D01*
X289877Y1171956D01*
X289780Y1171900D01*
X289681Y1171847D01*
X289581Y1171797D01*
X289479Y1171751D01*
X289375Y1171709D01*
X289270Y1171670D01*
X289163Y1171635D01*
X289056Y1171604D01*
X288947Y1171576D01*
X288838Y1171553D01*
X288727Y1171533D01*
X288616Y1171517D01*
X288505Y1171505D01*
X288393Y1171497D01*
X288281Y1171493D01*
X288169Y1171493D01*
X288057Y1171497D01*
X287945Y1171505D01*
X287834Y1171517D01*
X287723Y1171533D01*
X287612Y1171553D01*
X287503Y1171576D01*
X287394Y1171604D01*
X287287Y1171635D01*
X287180Y1171670D01*
X287075Y1171709D01*
X286971Y1171751D01*
X286869Y1171797D01*
X286769Y1171847D01*
X286670Y1171900D01*
X286573Y1171956D01*
X286479Y1172016D01*
X286386Y1172080D01*
X286296Y1172146D01*
X286208Y1172216D01*
X286123Y1172289D01*
X286040Y1172364D01*
X285960Y1172443D01*
X285883Y1172524D01*
X285809Y1172608D01*
X285738Y1172695D01*
X285670Y1172784D01*
X285605Y1172875D01*
X285543Y1172969D01*
X285485Y1173064D01*
X285430Y1173162D01*
X285378Y1173262D01*
X285331Y1173363D01*
X285286Y1173466D01*
X285246Y1173570D01*
X285209Y1173676D01*
X285176Y1173783D01*
X285146Y1173891D01*
X285121Y1174001D01*
X285099Y1174111D01*
X285082Y1174221D01*
X285068Y1174332D01*
X285058Y1174444D01*
X285052Y1174556D01*
X285050Y1174668D01*
D12*
X271525Y1187983D02*
X271525Y1195185D01*
X271525Y1187983D02*
X272965Y1186542D01*
X275846Y1186542D01*
X277287Y1187983D01*
X277287Y1195185D01*
X283761Y1193745D02*
X286642Y1195185D01*
X283761Y1193745D02*
X280880Y1190864D01*
X280880Y1187983D01*
X282320Y1186542D01*
X285201Y1186542D01*
X286642Y1187983D01*
X286642Y1189423D01*
X285201Y1190864D01*
X280880Y1190864D01*
D13*
X714935Y1222998D02*
X720528Y1222998D01*
X714935Y1222998D02*
X714935Y1218804D01*
X717731Y1220202D01*
X719130Y1220202D01*
X720528Y1218804D01*
X720528Y1216007D01*
X719130Y1214609D01*
X716333Y1214609D01*
X714935Y1216007D01*
X724290Y1216007D02*
X724290Y1214609D01*
X724290Y1216007D02*
X725688Y1216007D01*
X725688Y1214609D01*
X724290Y1214609D01*
X728968Y1221600D02*
X730366Y1222998D01*
X733162Y1222998D01*
X734561Y1221600D01*
X734561Y1220202D01*
X733162Y1218804D01*
X731764Y1218804D01*
X733162Y1218804D02*
X734561Y1217405D01*
X734561Y1216007D01*
X733162Y1214609D01*
X730366Y1214609D01*
X728968Y1216007D01*
X721951Y1207758D02*
X721951Y1202165D01*
X724748Y1199369D01*
X727544Y1202165D01*
X727544Y1207758D01*
X793827Y1207624D02*
X793827Y1216013D01*
X789632Y1211819D01*
X795225Y1211819D01*
X798988Y1209022D02*
X798988Y1207624D01*
X798988Y1209022D02*
X800386Y1209022D01*
X800386Y1207624D01*
X798988Y1207624D01*
X803665Y1214615D02*
X805063Y1216013D01*
X807860Y1216013D01*
X809258Y1214615D01*
X809258Y1213217D01*
X807860Y1211819D01*
X809258Y1210420D01*
X809258Y1209022D01*
X807860Y1207624D01*
X805063Y1207624D01*
X803665Y1209022D01*
X803665Y1210420D01*
X805063Y1211819D01*
X803665Y1213217D01*
X803665Y1214615D01*
X805063Y1211819D02*
X807860Y1211819D01*
X813020Y1210420D02*
X813020Y1216013D01*
X813020Y1210420D02*
X815817Y1207624D01*
X818613Y1210420D01*
X818613Y1216013D01*
X716943Y1183119D02*
X716943Y1179164D01*
X716943Y1183119D02*
X722875Y1177187D01*
X724852Y1179164D02*
X720897Y1175210D01*
X721580Y1187757D02*
X725535Y1191711D01*
X721580Y1187757D02*
X724546Y1184791D01*
X725535Y1187757D01*
X726524Y1188745D01*
X728501Y1188745D01*
X730478Y1186768D01*
X730478Y1184791D01*
X728501Y1182813D01*
X726524Y1182813D01*
X733139Y1189428D02*
X729184Y1193383D01*
X729184Y1195360D01*
X731161Y1197338D01*
X733139Y1197338D01*
X737093Y1193383D01*
X737093Y1191406D01*
X735116Y1189428D01*
X733139Y1189428D01*
X733139Y1197338D01*
X791995Y1180642D02*
X794791Y1182041D01*
X791995Y1180642D02*
X789199Y1177846D01*
X789199Y1175050D01*
X790597Y1173652D01*
X793393Y1173652D01*
X794791Y1175050D01*
X794791Y1176448D01*
X793393Y1177846D01*
X789199Y1177846D01*
X798554Y1175050D02*
X798554Y1180642D01*
X799952Y1182041D01*
X802748Y1182041D01*
X804147Y1180642D01*
X804147Y1175050D01*
X802748Y1173652D01*
X799952Y1173652D01*
X798554Y1175050D01*
X804147Y1180642D01*
X807909Y1179244D02*
X807909Y1173652D01*
X807909Y1179244D02*
X809307Y1179244D01*
X810705Y1177846D01*
X810705Y1173652D01*
X810705Y1177846D02*
X812104Y1179244D01*
X813502Y1177846D01*
X813502Y1173652D01*
X817264Y1173652D02*
X817264Y1179244D01*
X820061Y1182041D01*
X822857Y1179244D01*
X822857Y1173652D01*
X822857Y1177846D02*
X817264Y1177846D01*
D14*
X558368Y1175626D02*
X548708Y1175626D01*
X553538Y1180456D02*
X553538Y1170796D01*
X650625Y1174991D02*
X660285Y1174991D01*
X655455Y1179821D02*
X655455Y1170161D01*
D15*
X623505Y1101325D02*
X623507Y1101404D01*
X623513Y1101483D01*
X623523Y1101562D01*
X623536Y1101640D01*
X623554Y1101717D01*
X623576Y1101793D01*
X623601Y1101868D01*
X623630Y1101942D01*
X623662Y1102014D01*
X623698Y1102084D01*
X623738Y1102153D01*
X623781Y1102220D01*
X623827Y1102284D01*
X623877Y1102346D01*
X623929Y1102405D01*
X623984Y1102462D01*
X624042Y1102516D01*
X624103Y1102567D01*
X624166Y1102614D01*
X624231Y1102659D01*
X624299Y1102700D01*
X624369Y1102738D01*
X624440Y1102772D01*
X624513Y1102803D01*
X624587Y1102830D01*
X624663Y1102854D01*
X624740Y1102873D01*
X624817Y1102889D01*
X624896Y1102901D01*
X624974Y1102909D01*
X625053Y1102913D01*
X625133Y1102913D01*
X625212Y1102909D01*
X625290Y1102901D01*
X625369Y1102889D01*
X625446Y1102873D01*
X625523Y1102854D01*
X625599Y1102830D01*
X625673Y1102803D01*
X625746Y1102772D01*
X625817Y1102738D01*
X625887Y1102700D01*
X625955Y1102659D01*
X626020Y1102614D01*
X626083Y1102567D01*
X626144Y1102516D01*
X626202Y1102462D01*
X626257Y1102405D01*
X626309Y1102346D01*
X626359Y1102284D01*
X626405Y1102220D01*
X626448Y1102153D01*
X626488Y1102084D01*
X626524Y1102014D01*
X626556Y1101942D01*
X626585Y1101868D01*
X626610Y1101793D01*
X626632Y1101717D01*
X626650Y1101640D01*
X626663Y1101562D01*
X626673Y1101483D01*
X626679Y1101404D01*
X626681Y1101325D01*
X626679Y1101246D01*
X626673Y1101167D01*
X626663Y1101088D01*
X626650Y1101010D01*
X626632Y1100933D01*
X626610Y1100857D01*
X626585Y1100782D01*
X626556Y1100708D01*
X626524Y1100636D01*
X626488Y1100566D01*
X626448Y1100497D01*
X626405Y1100430D01*
X626359Y1100366D01*
X626309Y1100304D01*
X626257Y1100245D01*
X626202Y1100188D01*
X626144Y1100134D01*
X626083Y1100083D01*
X626020Y1100036D01*
X625955Y1099991D01*
X625887Y1099950D01*
X625817Y1099912D01*
X625746Y1099878D01*
X625673Y1099847D01*
X625599Y1099820D01*
X625523Y1099796D01*
X625446Y1099777D01*
X625369Y1099761D01*
X625290Y1099749D01*
X625212Y1099741D01*
X625133Y1099737D01*
X625053Y1099737D01*
X624974Y1099741D01*
X624896Y1099749D01*
X624817Y1099761D01*
X624740Y1099777D01*
X624663Y1099796D01*
X624587Y1099820D01*
X624513Y1099847D01*
X624440Y1099878D01*
X624369Y1099912D01*
X624299Y1099950D01*
X624231Y1099991D01*
X624166Y1100036D01*
X624103Y1100083D01*
X624042Y1100134D01*
X623984Y1100188D01*
X623929Y1100245D01*
X623877Y1100304D01*
X623827Y1100366D01*
X623781Y1100430D01*
X623738Y1100497D01*
X623698Y1100566D01*
X623662Y1100636D01*
X623630Y1100708D01*
X623601Y1100782D01*
X623576Y1100857D01*
X623554Y1100933D01*
X623536Y1101010D01*
X623523Y1101088D01*
X623513Y1101167D01*
X623507Y1101246D01*
X623505Y1101325D01*
X588897Y762235D02*
X588899Y762314D01*
X588905Y762393D01*
X588915Y762472D01*
X588928Y762550D01*
X588946Y762627D01*
X588968Y762703D01*
X588993Y762778D01*
X589022Y762852D01*
X589054Y762924D01*
X589090Y762994D01*
X589130Y763063D01*
X589173Y763130D01*
X589219Y763194D01*
X589269Y763256D01*
X589321Y763315D01*
X589376Y763372D01*
X589434Y763426D01*
X589495Y763477D01*
X589558Y763524D01*
X589623Y763569D01*
X589691Y763610D01*
X589761Y763648D01*
X589832Y763682D01*
X589905Y763713D01*
X589979Y763740D01*
X590055Y763764D01*
X590132Y763783D01*
X590209Y763799D01*
X590288Y763811D01*
X590366Y763819D01*
X590445Y763823D01*
X590525Y763823D01*
X590604Y763819D01*
X590682Y763811D01*
X590761Y763799D01*
X590838Y763783D01*
X590915Y763764D01*
X590991Y763740D01*
X591065Y763713D01*
X591138Y763682D01*
X591209Y763648D01*
X591279Y763610D01*
X591347Y763569D01*
X591412Y763524D01*
X591475Y763477D01*
X591536Y763426D01*
X591594Y763372D01*
X591649Y763315D01*
X591701Y763256D01*
X591751Y763194D01*
X591797Y763130D01*
X591840Y763063D01*
X591880Y762994D01*
X591916Y762924D01*
X591948Y762852D01*
X591977Y762778D01*
X592002Y762703D01*
X592024Y762627D01*
X592042Y762550D01*
X592055Y762472D01*
X592065Y762393D01*
X592071Y762314D01*
X592073Y762235D01*
X592071Y762156D01*
X592065Y762077D01*
X592055Y761998D01*
X592042Y761920D01*
X592024Y761843D01*
X592002Y761767D01*
X591977Y761692D01*
X591948Y761618D01*
X591916Y761546D01*
X591880Y761476D01*
X591840Y761407D01*
X591797Y761340D01*
X591751Y761276D01*
X591701Y761214D01*
X591649Y761155D01*
X591594Y761098D01*
X591536Y761044D01*
X591475Y760993D01*
X591412Y760946D01*
X591347Y760901D01*
X591279Y760860D01*
X591209Y760822D01*
X591138Y760788D01*
X591065Y760757D01*
X590991Y760730D01*
X590915Y760706D01*
X590838Y760687D01*
X590761Y760671D01*
X590682Y760659D01*
X590604Y760651D01*
X590525Y760647D01*
X590445Y760647D01*
X590366Y760651D01*
X590288Y760659D01*
X590209Y760671D01*
X590132Y760687D01*
X590055Y760706D01*
X589979Y760730D01*
X589905Y760757D01*
X589832Y760788D01*
X589761Y760822D01*
X589691Y760860D01*
X589623Y760901D01*
X589558Y760946D01*
X589495Y760993D01*
X589434Y761044D01*
X589376Y761098D01*
X589321Y761155D01*
X589269Y761214D01*
X589219Y761276D01*
X589173Y761340D01*
X589130Y761407D01*
X589090Y761476D01*
X589054Y761546D01*
X589022Y761618D01*
X588993Y761692D01*
X588968Y761767D01*
X588946Y761843D01*
X588928Y761920D01*
X588915Y761998D01*
X588905Y762077D01*
X588899Y762156D01*
X588897Y762235D01*
X532700Y740963D02*
X525398Y740963D01*
X532700Y740963D02*
X547623Y755885D01*
X393317Y997503D02*
X393319Y997582D01*
X393325Y997661D01*
X393335Y997740D01*
X393348Y997818D01*
X393366Y997895D01*
X393388Y997971D01*
X393413Y998046D01*
X393442Y998120D01*
X393474Y998192D01*
X393510Y998262D01*
X393550Y998331D01*
X393593Y998398D01*
X393639Y998462D01*
X393689Y998524D01*
X393741Y998583D01*
X393796Y998640D01*
X393854Y998694D01*
X393915Y998745D01*
X393978Y998792D01*
X394043Y998837D01*
X394111Y998878D01*
X394181Y998916D01*
X394252Y998950D01*
X394325Y998981D01*
X394399Y999008D01*
X394475Y999032D01*
X394552Y999051D01*
X394629Y999067D01*
X394708Y999079D01*
X394786Y999087D01*
X394865Y999091D01*
X394945Y999091D01*
X395024Y999087D01*
X395102Y999079D01*
X395181Y999067D01*
X395258Y999051D01*
X395335Y999032D01*
X395411Y999008D01*
X395485Y998981D01*
X395558Y998950D01*
X395629Y998916D01*
X395699Y998878D01*
X395767Y998837D01*
X395832Y998792D01*
X395895Y998745D01*
X395956Y998694D01*
X396014Y998640D01*
X396069Y998583D01*
X396121Y998524D01*
X396171Y998462D01*
X396217Y998398D01*
X396260Y998331D01*
X396300Y998262D01*
X396336Y998192D01*
X396368Y998120D01*
X396397Y998046D01*
X396422Y997971D01*
X396444Y997895D01*
X396462Y997818D01*
X396475Y997740D01*
X396485Y997661D01*
X396491Y997582D01*
X396493Y997503D01*
X396491Y997424D01*
X396485Y997345D01*
X396475Y997266D01*
X396462Y997188D01*
X396444Y997111D01*
X396422Y997035D01*
X396397Y996960D01*
X396368Y996886D01*
X396336Y996814D01*
X396300Y996744D01*
X396260Y996675D01*
X396217Y996608D01*
X396171Y996544D01*
X396121Y996482D01*
X396069Y996423D01*
X396014Y996366D01*
X395956Y996312D01*
X395895Y996261D01*
X395832Y996214D01*
X395767Y996169D01*
X395699Y996128D01*
X395629Y996090D01*
X395558Y996056D01*
X395485Y996025D01*
X395411Y995998D01*
X395335Y995974D01*
X395258Y995955D01*
X395181Y995939D01*
X395102Y995927D01*
X395024Y995919D01*
X394945Y995915D01*
X394865Y995915D01*
X394786Y995919D01*
X394708Y995927D01*
X394629Y995939D01*
X394552Y995955D01*
X394475Y995974D01*
X394399Y995998D01*
X394325Y996025D01*
X394252Y996056D01*
X394181Y996090D01*
X394111Y996128D01*
X394043Y996169D01*
X393978Y996214D01*
X393915Y996261D01*
X393854Y996312D01*
X393796Y996366D01*
X393741Y996423D01*
X393689Y996482D01*
X393639Y996544D01*
X393593Y996608D01*
X393550Y996675D01*
X393510Y996744D01*
X393474Y996814D01*
X393442Y996886D01*
X393413Y996960D01*
X393388Y997035D01*
X393366Y997111D01*
X393348Y997188D01*
X393335Y997266D01*
X393325Y997345D01*
X393319Y997424D01*
X393317Y997503D01*
D13*
X720885Y1167549D02*
X724840Y1163595D01*
X720885Y1167549D02*
X721874Y1168538D01*
X723851Y1168538D01*
X726817Y1165572D01*
X723851Y1168538D02*
X723851Y1170515D01*
X725829Y1170515D01*
X728795Y1167549D01*
X731455Y1170210D02*
X727500Y1174164D01*
X727500Y1178119D01*
X731455Y1178119D01*
X735410Y1174164D01*
X732444Y1177130D02*
X728489Y1173176D01*
D15*
X605725Y906380D02*
X615250Y896855D01*
D10*
X369569Y1034968D02*
X369571Y1035095D01*
X369577Y1035222D01*
X369587Y1035349D01*
X369601Y1035475D01*
X369619Y1035601D01*
X369640Y1035726D01*
X369666Y1035850D01*
X369695Y1035974D01*
X369729Y1036096D01*
X369766Y1036218D01*
X369807Y1036338D01*
X369852Y1036457D01*
X369900Y1036574D01*
X369952Y1036690D01*
X370008Y1036805D01*
X370067Y1036917D01*
X370129Y1037027D01*
X370196Y1037136D01*
X370265Y1037242D01*
X370338Y1037346D01*
X370414Y1037448D01*
X370493Y1037548D01*
X370575Y1037645D01*
X370660Y1037739D01*
X370748Y1037830D01*
X370839Y1037919D01*
X370933Y1038005D01*
X371029Y1038088D01*
X371128Y1038168D01*
X371229Y1038245D01*
X371332Y1038318D01*
X371438Y1038388D01*
X371546Y1038455D01*
X371656Y1038519D01*
X371768Y1038579D01*
X371882Y1038635D01*
X371997Y1038688D01*
X372115Y1038738D01*
X372233Y1038783D01*
X372353Y1038825D01*
X372474Y1038863D01*
X372597Y1038898D01*
X372720Y1038928D01*
X372844Y1038955D01*
X372969Y1038977D01*
X373095Y1038996D01*
X373221Y1039011D01*
X373347Y1039022D01*
X373474Y1039029D01*
X373601Y1039032D01*
X373728Y1039031D01*
X373855Y1039026D01*
X373982Y1039017D01*
X374108Y1039004D01*
X374234Y1038987D01*
X374360Y1038967D01*
X374484Y1038942D01*
X374608Y1038913D01*
X374731Y1038881D01*
X374853Y1038845D01*
X374973Y1038805D01*
X375092Y1038761D01*
X375210Y1038713D01*
X375326Y1038662D01*
X375441Y1038608D01*
X375554Y1038549D01*
X375665Y1038488D01*
X375774Y1038422D01*
X375881Y1038354D01*
X375986Y1038282D01*
X376088Y1038207D01*
X376188Y1038128D01*
X376286Y1038047D01*
X376381Y1037963D01*
X376473Y1037875D01*
X376562Y1037785D01*
X376649Y1037692D01*
X376733Y1037596D01*
X376813Y1037498D01*
X376891Y1037398D01*
X376965Y1037295D01*
X377036Y1037189D01*
X377104Y1037082D01*
X377168Y1036972D01*
X377229Y1036861D01*
X377287Y1036748D01*
X377340Y1036633D01*
X377391Y1036516D01*
X377437Y1036398D01*
X377480Y1036278D01*
X377519Y1036157D01*
X377554Y1036035D01*
X377586Y1035912D01*
X377613Y1035788D01*
X377637Y1035663D01*
X377657Y1035538D01*
X377673Y1035412D01*
X377685Y1035285D01*
X377693Y1035158D01*
X377697Y1035032D01*
X377697Y1034904D01*
X377693Y1034778D01*
X377685Y1034651D01*
X377673Y1034524D01*
X377657Y1034398D01*
X377637Y1034273D01*
X377613Y1034148D01*
X377586Y1034024D01*
X377554Y1033901D01*
X377519Y1033779D01*
X377480Y1033658D01*
X377437Y1033538D01*
X377391Y1033420D01*
X377340Y1033303D01*
X377287Y1033188D01*
X377229Y1033075D01*
X377168Y1032964D01*
X377104Y1032854D01*
X377036Y1032747D01*
X376965Y1032641D01*
X376891Y1032538D01*
X376813Y1032438D01*
X376733Y1032340D01*
X376649Y1032244D01*
X376562Y1032151D01*
X376473Y1032061D01*
X376381Y1031973D01*
X376286Y1031889D01*
X376188Y1031808D01*
X376088Y1031729D01*
X375986Y1031654D01*
X375881Y1031582D01*
X375774Y1031514D01*
X375665Y1031448D01*
X375554Y1031387D01*
X375441Y1031328D01*
X375326Y1031274D01*
X375210Y1031223D01*
X375092Y1031175D01*
X374973Y1031131D01*
X374853Y1031091D01*
X374731Y1031055D01*
X374608Y1031023D01*
X374484Y1030994D01*
X374360Y1030969D01*
X374234Y1030949D01*
X374108Y1030932D01*
X373982Y1030919D01*
X373855Y1030910D01*
X373728Y1030905D01*
X373601Y1030904D01*
X373474Y1030907D01*
X373347Y1030914D01*
X373221Y1030925D01*
X373095Y1030940D01*
X372969Y1030959D01*
X372844Y1030981D01*
X372720Y1031008D01*
X372597Y1031038D01*
X372474Y1031073D01*
X372353Y1031111D01*
X372233Y1031153D01*
X372115Y1031198D01*
X371997Y1031248D01*
X371882Y1031301D01*
X371768Y1031357D01*
X371656Y1031417D01*
X371546Y1031481D01*
X371438Y1031548D01*
X371332Y1031618D01*
X371229Y1031691D01*
X371128Y1031768D01*
X371029Y1031848D01*
X370933Y1031931D01*
X370839Y1032017D01*
X370748Y1032106D01*
X370660Y1032197D01*
X370575Y1032291D01*
X370493Y1032388D01*
X370414Y1032488D01*
X370338Y1032590D01*
X370265Y1032694D01*
X370196Y1032800D01*
X370129Y1032909D01*
X370067Y1033019D01*
X370008Y1033131D01*
X369952Y1033246D01*
X369900Y1033362D01*
X369852Y1033479D01*
X369807Y1033598D01*
X369766Y1033718D01*
X369729Y1033840D01*
X369695Y1033962D01*
X369666Y1034086D01*
X369640Y1034210D01*
X369619Y1034335D01*
X369601Y1034461D01*
X369587Y1034587D01*
X369577Y1034714D01*
X369571Y1034841D01*
X369569Y1034968D01*
D12*
X288198Y1068162D02*
X286757Y1066721D01*
X286757Y1063840D01*
X288198Y1062400D01*
X293960Y1062400D01*
X295401Y1063840D01*
X295401Y1066721D01*
X293960Y1068162D01*
X291079Y1068162D01*
X291079Y1065281D01*
X295401Y1071755D02*
X286757Y1071755D01*
X295401Y1077517D01*
X286757Y1077517D01*
X286757Y1081110D02*
X295401Y1081110D01*
X295401Y1085432D01*
X293960Y1086872D01*
X288198Y1086872D01*
X286757Y1085432D01*
X286757Y1081110D01*
D15*
X434910Y963530D02*
X434910Y953370D01*
D12*
X434363Y973293D02*
X433262Y974394D01*
X431059Y974394D01*
X429957Y973293D01*
X429957Y968886D01*
X431059Y967785D01*
X433262Y967785D01*
X434363Y968886D01*
X439644Y973293D02*
X441848Y974394D01*
X439644Y973293D02*
X437441Y971089D01*
X437441Y968886D01*
X438543Y967785D01*
X440746Y967785D01*
X441848Y968886D01*
X441848Y969988D01*
X440746Y971089D01*
X437441Y971089D01*
X499479Y924374D02*
X500580Y925475D01*
X499479Y924374D02*
X499479Y922170D01*
X500580Y921069D01*
X504987Y921069D01*
X506089Y922170D01*
X506089Y924374D01*
X504987Y925475D01*
X499479Y928553D02*
X499479Y932959D01*
X500580Y932959D01*
X504987Y928553D01*
X506089Y928553D01*
D15*
X474280Y927020D02*
X464120Y927020D01*
D12*
X453913Y924840D02*
X452811Y923739D01*
X452811Y921535D01*
X453913Y920434D01*
X458319Y920434D01*
X459421Y921535D01*
X459421Y923739D01*
X458319Y924840D01*
X453913Y927918D02*
X452811Y929019D01*
X452811Y931223D01*
X453913Y932324D01*
X455015Y932324D01*
X456116Y931223D01*
X457218Y932324D01*
X458319Y932324D01*
X459421Y931223D01*
X459421Y929019D01*
X458319Y927918D01*
X457218Y927918D01*
X456116Y929019D01*
X455015Y927918D01*
X453913Y927918D01*
X456116Y929019D02*
X456116Y931223D01*
X634557Y991537D02*
X635658Y990435D01*
X634557Y991537D02*
X632354Y991537D01*
X631252Y990435D01*
X631252Y986029D01*
X632354Y984927D01*
X634557Y984927D01*
X635658Y986029D01*
X638736Y989333D02*
X640939Y991537D01*
X640939Y984927D01*
X638736Y984927D02*
X643143Y984927D01*
X649525Y984927D02*
X649525Y991537D01*
X646220Y988232D01*
X650627Y988232D01*
D16*
X439100Y943520D02*
X423100Y943520D01*
X423100Y910520D02*
X439100Y910520D01*
X441600Y923020D02*
X441600Y931020D01*
D12*
X437364Y893034D02*
X431856Y893034D01*
X437364Y893034D02*
X438466Y894135D01*
X438466Y896339D01*
X437364Y897440D01*
X431856Y897440D01*
X438466Y900518D02*
X438466Y904924D01*
X438466Y900518D02*
X434060Y904924D01*
X432958Y904924D01*
X431856Y903823D01*
X431856Y901619D01*
X432958Y900518D01*
D16*
X454440Y1184180D02*
X471900Y1184180D01*
X471900Y1198180D02*
X454440Y1198180D01*
X460170Y1187180D02*
X466170Y1191180D01*
X460170Y1187180D02*
X460170Y1195180D01*
X466170Y1191180D01*
D17*
X467170Y1191180D03*
D12*
X457582Y1180137D02*
X457582Y1173527D01*
X460887Y1173527D01*
X461988Y1174629D01*
X461988Y1179035D01*
X460887Y1180137D01*
X457582Y1180137D01*
X465066Y1177933D02*
X467269Y1180137D01*
X467269Y1173527D01*
X465066Y1173527D02*
X469473Y1173527D01*
D18*
X596150Y949200D02*
X596152Y949271D01*
X596158Y949342D01*
X596168Y949413D01*
X596182Y949483D01*
X596200Y949552D01*
X596221Y949619D01*
X596247Y949686D01*
X596276Y949751D01*
X596308Y949814D01*
X596345Y949876D01*
X596384Y949935D01*
X596427Y949992D01*
X596473Y950046D01*
X596522Y950098D01*
X596574Y950147D01*
X596628Y950193D01*
X596685Y950236D01*
X596744Y950275D01*
X596806Y950312D01*
X596869Y950344D01*
X596934Y950373D01*
X597001Y950399D01*
X597068Y950420D01*
X597137Y950438D01*
X597207Y950452D01*
X597278Y950462D01*
X597349Y950468D01*
X597420Y950470D01*
X597491Y950468D01*
X597562Y950462D01*
X597633Y950452D01*
X597703Y950438D01*
X597772Y950420D01*
X597839Y950399D01*
X597906Y950373D01*
X597971Y950344D01*
X598034Y950312D01*
X598096Y950275D01*
X598155Y950236D01*
X598212Y950193D01*
X598266Y950147D01*
X598318Y950098D01*
X598367Y950046D01*
X598413Y949992D01*
X598456Y949935D01*
X598495Y949876D01*
X598532Y949814D01*
X598564Y949751D01*
X598593Y949686D01*
X598619Y949619D01*
X598640Y949552D01*
X598658Y949483D01*
X598672Y949413D01*
X598682Y949342D01*
X598688Y949271D01*
X598690Y949200D01*
X598688Y949129D01*
X598682Y949058D01*
X598672Y948987D01*
X598658Y948917D01*
X598640Y948848D01*
X598619Y948781D01*
X598593Y948714D01*
X598564Y948649D01*
X598532Y948586D01*
X598495Y948524D01*
X598456Y948465D01*
X598413Y948408D01*
X598367Y948354D01*
X598318Y948302D01*
X598266Y948253D01*
X598212Y948207D01*
X598155Y948164D01*
X598096Y948125D01*
X598034Y948088D01*
X597971Y948056D01*
X597906Y948027D01*
X597839Y948001D01*
X597772Y947980D01*
X597703Y947962D01*
X597633Y947948D01*
X597562Y947938D01*
X597491Y947932D01*
X597420Y947930D01*
X597349Y947932D01*
X597278Y947938D01*
X597207Y947948D01*
X597137Y947962D01*
X597068Y947980D01*
X597001Y948001D01*
X596934Y948027D01*
X596869Y948056D01*
X596806Y948088D01*
X596744Y948125D01*
X596685Y948164D01*
X596628Y948207D01*
X596574Y948253D01*
X596522Y948302D01*
X596473Y948354D01*
X596427Y948408D01*
X596384Y948465D01*
X596345Y948524D01*
X596308Y948586D01*
X596276Y948649D01*
X596247Y948714D01*
X596221Y948781D01*
X596200Y948848D01*
X596182Y948917D01*
X596168Y948987D01*
X596158Y949058D01*
X596152Y949129D01*
X596150Y949200D01*
D19*
X522100Y951980D02*
X522100Y957480D01*
X522100Y951980D02*
X527600Y951980D01*
X522100Y1018480D02*
X522100Y1023980D01*
X527600Y1023980D01*
X588600Y951980D02*
X594100Y951980D01*
X594100Y957480D01*
X594100Y1023980D02*
X588600Y1023980D01*
X594100Y1023980D02*
X594100Y1018480D01*
D12*
X590699Y944674D02*
X590699Y939166D01*
X591800Y938064D01*
X594004Y938064D01*
X595105Y939166D01*
X595105Y944674D01*
X598183Y944674D02*
X602589Y944674D01*
X598183Y944674D02*
X598183Y941369D01*
X600386Y942470D01*
X601488Y942470D01*
X602589Y941369D01*
X602589Y939166D01*
X601488Y938064D01*
X599284Y938064D01*
X598183Y939166D01*
X557508Y939132D02*
X556406Y940234D01*
X554203Y940234D01*
X553101Y939132D01*
X553101Y934726D01*
X554203Y933624D01*
X556406Y933624D01*
X557508Y934726D01*
X560585Y938030D02*
X562789Y940234D01*
X562789Y933624D01*
X564992Y933624D02*
X560585Y933624D01*
X660597Y939472D02*
X661698Y938370D01*
X660597Y939472D02*
X658394Y939472D01*
X657292Y938370D01*
X657292Y933964D01*
X658394Y932862D01*
X660597Y932862D01*
X661698Y933964D01*
X664776Y932862D02*
X669183Y932862D01*
X669183Y937268D02*
X664776Y932862D01*
X669183Y937268D02*
X669183Y938370D01*
X668081Y939472D01*
X665878Y939472D01*
X664776Y938370D01*
X661698Y990435D02*
X660597Y991537D01*
X658394Y991537D01*
X657292Y990435D01*
X657292Y986029D01*
X658394Y984927D01*
X660597Y984927D01*
X661698Y986029D01*
X668081Y984927D02*
X668081Y991537D01*
X664776Y988232D01*
X669183Y988232D01*
D13*
X617773Y968181D02*
X609384Y962588D01*
X609384Y968181D02*
X617773Y962588D01*
X614977Y958826D02*
X617773Y956029D01*
X609384Y956029D01*
X609384Y953233D02*
X609384Y958826D01*
D15*
X615250Y1059100D02*
X615250Y1069260D01*
D12*
X617049Y1053899D02*
X618150Y1052797D01*
X617049Y1053899D02*
X614845Y1053899D01*
X613744Y1052797D01*
X613744Y1048391D01*
X614845Y1047289D01*
X617049Y1047289D01*
X618150Y1048391D01*
X621228Y1053899D02*
X625634Y1053899D01*
X621228Y1053899D02*
X621228Y1050594D01*
X623431Y1051695D01*
X624533Y1051695D01*
X625634Y1050594D01*
X625634Y1048391D01*
X624533Y1047289D01*
X622329Y1047289D01*
X621228Y1048391D01*
D15*
X405700Y1061640D02*
X405700Y1071800D01*
D12*
X376896Y1068545D02*
X375794Y1069647D01*
X373591Y1069647D01*
X372490Y1068545D01*
X372490Y1064139D01*
X373591Y1063037D01*
X375794Y1063037D01*
X376896Y1064139D01*
X379974Y1064139D02*
X381075Y1063037D01*
X383278Y1063037D01*
X384380Y1064139D01*
X384380Y1068545D01*
X383278Y1069647D01*
X381075Y1069647D01*
X379974Y1068545D01*
X379974Y1067443D01*
X381075Y1066342D01*
X384380Y1066342D01*
D15*
X443800Y1125140D02*
X443800Y1135300D01*
D12*
X439443Y1146015D02*
X438342Y1147117D01*
X436139Y1147117D01*
X435037Y1146015D01*
X435037Y1141609D01*
X436139Y1140507D01*
X438342Y1140507D01*
X439443Y1141609D01*
X442521Y1144913D02*
X444724Y1147117D01*
X444724Y1140507D01*
X442521Y1140507D02*
X446928Y1140507D01*
X450005Y1141609D02*
X450005Y1146015D01*
X451107Y1147117D01*
X453310Y1147117D01*
X454412Y1146015D01*
X454412Y1141609D01*
X453310Y1140507D01*
X451107Y1140507D01*
X450005Y1141609D01*
X454412Y1146015D01*
D16*
X415404Y1079206D02*
X402276Y1079206D01*
X402276Y1088794D01*
X402276Y1112654D02*
X415404Y1112654D01*
X402276Y1112654D02*
X402276Y1103066D01*
X415484Y1098154D02*
X415484Y1093566D01*
D12*
X415310Y1115742D02*
X419716Y1115742D01*
X415310Y1115742D02*
X414208Y1116844D01*
X414208Y1119047D01*
X415310Y1120148D01*
X419716Y1120148D01*
X420818Y1119047D01*
X420818Y1116844D01*
X419716Y1115742D01*
X418615Y1117945D02*
X420818Y1120148D01*
X416412Y1123226D02*
X414208Y1125429D01*
X420818Y1125429D01*
X420818Y1123226D02*
X420818Y1127633D01*
D15*
X441900Y1094660D02*
X452060Y1094660D01*
D12*
X434661Y1088074D02*
X428051Y1088074D01*
X428051Y1091379D01*
X429153Y1092480D01*
X431356Y1092480D01*
X432458Y1091379D01*
X432458Y1088074D01*
X432458Y1090277D02*
X434661Y1092480D01*
X430255Y1095558D02*
X428051Y1097761D01*
X434661Y1097761D01*
X434661Y1095558D02*
X434661Y1099964D01*
D16*
X388630Y1047270D02*
X358630Y1047270D01*
X358630Y997270D02*
X388630Y997270D01*
X388630Y1008270D02*
X388630Y1011270D01*
X388630Y998270D02*
X388630Y997270D01*
X358630Y997270D02*
X358630Y998270D01*
X358630Y1008270D02*
X358630Y1011270D01*
X388630Y1021270D02*
X388630Y1023270D01*
X388630Y1033270D02*
X388630Y1036270D01*
X388630Y1046270D02*
X388630Y1047270D01*
X358630Y1023270D02*
X358630Y1021270D01*
X358630Y1033270D02*
X358630Y1036270D01*
X358630Y1046270D02*
X358630Y1047270D01*
D19*
X392598Y997886D02*
X392600Y997966D01*
X392606Y998046D01*
X392616Y998125D01*
X392630Y998204D01*
X392648Y998282D01*
X392669Y998359D01*
X392695Y998435D01*
X392724Y998510D01*
X392757Y998583D01*
X392794Y998654D01*
X392834Y998723D01*
X392877Y998791D01*
X392924Y998856D01*
X392974Y998918D01*
X393027Y998978D01*
X393083Y999036D01*
X393141Y999090D01*
X393203Y999142D01*
X393267Y999190D01*
X393333Y999235D01*
X393401Y999277D01*
X393471Y999315D01*
X393543Y999350D01*
X393617Y999381D01*
X393693Y999408D01*
X393769Y999432D01*
X393847Y999452D01*
X393925Y999468D01*
X394004Y999480D01*
X394084Y999488D01*
X394164Y999492D01*
X394244Y999492D01*
X394324Y999488D01*
X394404Y999480D01*
X394483Y999468D01*
X394561Y999452D01*
X394639Y999432D01*
X394715Y999408D01*
X394791Y999381D01*
X394865Y999350D01*
X394937Y999315D01*
X395007Y999277D01*
X395075Y999235D01*
X395141Y999190D01*
X395205Y999142D01*
X395267Y999090D01*
X395325Y999036D01*
X395381Y998978D01*
X395434Y998918D01*
X395484Y998856D01*
X395531Y998791D01*
X395574Y998723D01*
X395614Y998654D01*
X395651Y998583D01*
X395684Y998510D01*
X395713Y998435D01*
X395739Y998359D01*
X395760Y998282D01*
X395778Y998204D01*
X395792Y998125D01*
X395802Y998046D01*
X395808Y997966D01*
X395810Y997886D01*
X395808Y997806D01*
X395802Y997726D01*
X395792Y997647D01*
X395778Y997568D01*
X395760Y997490D01*
X395739Y997413D01*
X395713Y997337D01*
X395684Y997262D01*
X395651Y997189D01*
X395614Y997118D01*
X395574Y997049D01*
X395531Y996981D01*
X395484Y996916D01*
X395434Y996854D01*
X395381Y996794D01*
X395325Y996736D01*
X395267Y996682D01*
X395205Y996630D01*
X395141Y996582D01*
X395075Y996537D01*
X395007Y996495D01*
X394937Y996457D01*
X394865Y996422D01*
X394791Y996391D01*
X394715Y996364D01*
X394639Y996340D01*
X394561Y996320D01*
X394483Y996304D01*
X394404Y996292D01*
X394324Y996284D01*
X394244Y996280D01*
X394164Y996280D01*
X394084Y996284D01*
X394004Y996292D01*
X393925Y996304D01*
X393847Y996320D01*
X393769Y996340D01*
X393693Y996364D01*
X393617Y996391D01*
X393543Y996422D01*
X393471Y996457D01*
X393401Y996495D01*
X393333Y996537D01*
X393267Y996582D01*
X393203Y996630D01*
X393141Y996682D01*
X393083Y996736D01*
X393027Y996794D01*
X392974Y996854D01*
X392924Y996916D01*
X392877Y996981D01*
X392834Y997049D01*
X392794Y997118D01*
X392757Y997189D01*
X392724Y997262D01*
X392695Y997337D01*
X392669Y997413D01*
X392648Y997490D01*
X392630Y997568D01*
X392616Y997647D01*
X392606Y997726D01*
X392600Y997806D01*
X392598Y997886D01*
X367552Y1051481D02*
X367552Y1057201D01*
X367552Y1051481D02*
X368696Y1050337D01*
X370984Y1050337D01*
X372128Y1051481D01*
X372128Y1057201D01*
X378468Y1057201D02*
X378468Y1050337D01*
X375036Y1053769D02*
X378468Y1057201D01*
X379612Y1053769D02*
X375036Y1053769D01*
D20*
X477410Y1136920D02*
X546310Y1136920D01*
X546310Y1120920D01*
X546312Y1120844D01*
X546318Y1120768D01*
X546327Y1120693D01*
X546341Y1120618D01*
X546358Y1120544D01*
X546379Y1120471D01*
X546403Y1120399D01*
X546432Y1120328D01*
X546463Y1120259D01*
X546498Y1120192D01*
X546537Y1120127D01*
X546579Y1120063D01*
X546624Y1120002D01*
X546672Y1119943D01*
X546723Y1119887D01*
X546777Y1119833D01*
X546833Y1119782D01*
X546892Y1119734D01*
X546953Y1119689D01*
X547017Y1119647D01*
X547082Y1119608D01*
X547149Y1119573D01*
X547218Y1119542D01*
X547289Y1119513D01*
X547361Y1119489D01*
X547434Y1119468D01*
X547508Y1119451D01*
X547583Y1119437D01*
X547658Y1119428D01*
X547734Y1119422D01*
X547810Y1119420D01*
X550310Y1119420D01*
X550370Y1119418D01*
X550431Y1119413D01*
X550490Y1119404D01*
X550549Y1119391D01*
X550608Y1119375D01*
X550665Y1119355D01*
X550720Y1119332D01*
X550775Y1119305D01*
X550827Y1119276D01*
X550878Y1119243D01*
X550927Y1119207D01*
X550973Y1119169D01*
X551017Y1119127D01*
X551059Y1119083D01*
X551097Y1119037D01*
X551133Y1118988D01*
X551166Y1118937D01*
X551195Y1118885D01*
X551222Y1118830D01*
X551245Y1118775D01*
X551265Y1118718D01*
X551281Y1118659D01*
X551294Y1118600D01*
X551303Y1118541D01*
X551308Y1118480D01*
X551310Y1118420D01*
X551310Y1115920D01*
X551312Y1115844D01*
X551318Y1115768D01*
X551327Y1115693D01*
X551341Y1115618D01*
X551358Y1115544D01*
X551379Y1115471D01*
X551403Y1115399D01*
X551432Y1115328D01*
X551463Y1115259D01*
X551498Y1115192D01*
X551537Y1115127D01*
X551579Y1115063D01*
X551624Y1115002D01*
X551672Y1114943D01*
X551723Y1114887D01*
X551777Y1114833D01*
X551833Y1114782D01*
X551892Y1114734D01*
X551953Y1114689D01*
X552017Y1114647D01*
X552082Y1114608D01*
X552149Y1114573D01*
X552218Y1114542D01*
X552289Y1114513D01*
X552361Y1114489D01*
X552434Y1114468D01*
X552508Y1114451D01*
X552583Y1114437D01*
X552658Y1114428D01*
X552734Y1114422D01*
X552810Y1114420D01*
X556810Y1114420D01*
X556897Y1114418D01*
X556984Y1114412D01*
X557071Y1114403D01*
X557157Y1114390D01*
X557243Y1114373D01*
X557328Y1114352D01*
X557411Y1114327D01*
X557494Y1114299D01*
X557575Y1114268D01*
X557655Y1114233D01*
X557733Y1114194D01*
X557810Y1114152D01*
X557885Y1114107D01*
X557957Y1114058D01*
X558028Y1114007D01*
X558096Y1113952D01*
X558161Y1113895D01*
X558224Y1113834D01*
X558285Y1113771D01*
X558342Y1113706D01*
X558397Y1113638D01*
X558448Y1113567D01*
X558497Y1113495D01*
X558542Y1113420D01*
X558584Y1113343D01*
X558623Y1113265D01*
X558658Y1113185D01*
X558689Y1113104D01*
X558717Y1113021D01*
X558742Y1112938D01*
X558763Y1112853D01*
X558780Y1112767D01*
X558793Y1112681D01*
X558802Y1112594D01*
X558808Y1112507D01*
X558810Y1112420D01*
X558810Y1100420D01*
X558808Y1100333D01*
X558802Y1100246D01*
X558793Y1100159D01*
X558780Y1100073D01*
X558763Y1099987D01*
X558742Y1099902D01*
X558717Y1099819D01*
X558689Y1099736D01*
X558658Y1099655D01*
X558623Y1099575D01*
X558584Y1099497D01*
X558542Y1099420D01*
X558497Y1099345D01*
X558448Y1099273D01*
X558397Y1099202D01*
X558342Y1099134D01*
X558285Y1099069D01*
X558224Y1099006D01*
X558161Y1098945D01*
X558096Y1098888D01*
X558028Y1098833D01*
X557957Y1098782D01*
X557885Y1098733D01*
X557810Y1098688D01*
X557733Y1098646D01*
X557655Y1098607D01*
X557575Y1098572D01*
X557494Y1098541D01*
X557411Y1098513D01*
X557328Y1098488D01*
X557243Y1098467D01*
X557157Y1098450D01*
X557071Y1098437D01*
X556984Y1098428D01*
X556897Y1098422D01*
X556810Y1098420D01*
X552310Y1098420D01*
X552250Y1098418D01*
X552189Y1098413D01*
X552130Y1098404D01*
X552071Y1098391D01*
X552012Y1098375D01*
X551955Y1098355D01*
X551900Y1098332D01*
X551845Y1098305D01*
X551793Y1098276D01*
X551742Y1098243D01*
X551693Y1098207D01*
X551647Y1098169D01*
X551603Y1098127D01*
X551561Y1098083D01*
X551523Y1098037D01*
X551487Y1097988D01*
X551454Y1097937D01*
X551425Y1097885D01*
X551398Y1097830D01*
X551375Y1097775D01*
X551355Y1097718D01*
X551339Y1097659D01*
X551326Y1097600D01*
X551317Y1097541D01*
X551312Y1097480D01*
X551310Y1097420D01*
X551310Y1094420D01*
X551308Y1094360D01*
X551303Y1094299D01*
X551294Y1094240D01*
X551281Y1094181D01*
X551265Y1094122D01*
X551245Y1094065D01*
X551222Y1094010D01*
X551195Y1093955D01*
X551166Y1093903D01*
X551133Y1093852D01*
X551097Y1093803D01*
X551059Y1093757D01*
X551017Y1093713D01*
X550973Y1093671D01*
X550927Y1093633D01*
X550878Y1093597D01*
X550827Y1093564D01*
X550775Y1093535D01*
X550720Y1093508D01*
X550665Y1093485D01*
X550608Y1093465D01*
X550549Y1093449D01*
X550490Y1093436D01*
X550431Y1093427D01*
X550370Y1093422D01*
X550310Y1093420D01*
X547810Y1093420D01*
X547734Y1093418D01*
X547658Y1093412D01*
X547583Y1093403D01*
X547508Y1093389D01*
X547434Y1093372D01*
X547361Y1093351D01*
X547289Y1093327D01*
X547218Y1093298D01*
X547149Y1093267D01*
X547082Y1093232D01*
X547017Y1093193D01*
X546953Y1093151D01*
X546892Y1093106D01*
X546833Y1093058D01*
X546777Y1093007D01*
X546723Y1092953D01*
X546672Y1092897D01*
X546624Y1092838D01*
X546579Y1092777D01*
X546537Y1092713D01*
X546498Y1092648D01*
X546463Y1092581D01*
X546432Y1092512D01*
X546403Y1092441D01*
X546379Y1092369D01*
X546358Y1092296D01*
X546341Y1092222D01*
X546327Y1092147D01*
X546318Y1092072D01*
X546312Y1091996D01*
X546310Y1091920D01*
X546310Y1075920D01*
X477410Y1075920D01*
X477410Y1103420D01*
X479010Y1103420D01*
X479010Y1109420D01*
X477410Y1109420D01*
X477410Y1136920D01*
D21*
X534264Y1144006D02*
X536430Y1146172D01*
X536430Y1139674D01*
X534264Y1139674D02*
X538596Y1139674D01*
X538596Y1066674D02*
X534264Y1066674D01*
X538596Y1071006D01*
X538596Y1072089D01*
X537513Y1073172D01*
X535347Y1073172D01*
X534264Y1072089D01*
D22*
X463237Y1101511D02*
X462051Y1102697D01*
X463237Y1101511D02*
X464423Y1101511D01*
X465610Y1102697D01*
X465610Y1108629D01*
X466796Y1108629D02*
X464423Y1108629D01*
X469535Y1106256D02*
X471907Y1108629D01*
X471907Y1101511D01*
X469535Y1101511D02*
X474280Y1101511D01*
D12*
X304100Y1052430D02*
X304100Y1039730D01*
X304100Y1052430D02*
X310450Y1058780D01*
X323150Y1058780D01*
X329500Y1052430D01*
X323150Y1033380D02*
X310450Y1033380D01*
X304100Y1039730D01*
X323150Y1033380D02*
X329500Y1039730D01*
X329500Y1052430D01*
D19*
X313535Y1061828D02*
X312221Y1063141D01*
X312221Y1065768D01*
X313535Y1067082D01*
X314848Y1067082D01*
X316162Y1065768D01*
X316162Y1064455D01*
X316162Y1065768D02*
X317475Y1067082D01*
X318789Y1067082D01*
X320102Y1065768D01*
X320102Y1063141D01*
X318789Y1061828D01*
X317475Y1070248D02*
X312221Y1070248D01*
X317475Y1070248D02*
X320102Y1072875D01*
X317475Y1075501D01*
X312221Y1075501D01*
X313535Y1078667D02*
X312221Y1079981D01*
X312221Y1082608D01*
X313535Y1083921D01*
X314848Y1083921D01*
X316162Y1082608D01*
X316162Y1081294D01*
X316162Y1082608D02*
X317475Y1083921D01*
X318789Y1083921D01*
X320102Y1082608D01*
X320102Y1079981D01*
X318789Y1078667D01*
X312221Y1091027D02*
X313535Y1092341D01*
X312221Y1091027D02*
X312221Y1088400D01*
X313535Y1087087D01*
X314848Y1087087D01*
X316162Y1088400D01*
X316162Y1091027D01*
X317475Y1092341D01*
X318789Y1092341D01*
X320102Y1091027D01*
X320102Y1088400D01*
X318789Y1087087D01*
X320102Y1095507D02*
X312221Y1095507D01*
X317475Y1098134D02*
X320102Y1095507D01*
X317475Y1098134D02*
X320102Y1100760D01*
X312221Y1100760D01*
D12*
X278700Y1052430D02*
X278700Y1039730D01*
X278700Y1052430D02*
X285050Y1058780D01*
X297750Y1058780D01*
X304100Y1052430D01*
X297750Y1033380D02*
X285050Y1033380D01*
X278700Y1039730D01*
X297750Y1033380D02*
X304100Y1039730D01*
X304100Y1052430D01*
X304100Y1027030D02*
X304100Y1014330D01*
X297750Y1007980D01*
X285050Y1007980D01*
X278700Y1014330D01*
X285050Y1033380D02*
X297750Y1033380D01*
X304100Y1027030D01*
X285050Y1033380D02*
X278700Y1027030D01*
X278700Y1014330D01*
X289658Y984026D02*
X288218Y982585D01*
X288218Y979704D01*
X289658Y978263D01*
X291099Y978263D01*
X292539Y979704D01*
X292539Y982585D01*
X293980Y984026D01*
X295420Y984026D01*
X296861Y982585D01*
X296861Y979704D01*
X295420Y978263D01*
X288218Y991940D02*
X289658Y993381D01*
X288218Y991940D02*
X288218Y989059D01*
X289658Y987619D01*
X295420Y987619D01*
X296861Y989059D01*
X296861Y991940D01*
X295420Y993381D01*
X296861Y996974D02*
X288218Y996974D01*
X296861Y996974D02*
X296861Y1002736D01*
X329500Y1014330D02*
X329500Y1027030D01*
X329500Y1014330D02*
X323150Y1007980D01*
X310450Y1007980D01*
X304100Y1014330D01*
X310450Y1033380D02*
X323150Y1033380D01*
X329500Y1027030D01*
X310450Y1033380D02*
X304100Y1027030D01*
X304100Y1014330D01*
X315058Y984026D02*
X313618Y982585D01*
X313618Y979704D01*
X315058Y978263D01*
X316499Y978263D01*
X317939Y979704D01*
X317939Y982585D01*
X319380Y984026D01*
X320820Y984026D01*
X322261Y982585D01*
X322261Y979704D01*
X320820Y978263D01*
X322261Y987619D02*
X313618Y987619D01*
X322261Y987619D02*
X322261Y991940D01*
X320820Y993381D01*
X315058Y993381D01*
X313618Y991940D01*
X313618Y987619D01*
X316499Y996974D02*
X322261Y996974D01*
X316499Y996974D02*
X313618Y999855D01*
X316499Y1002736D01*
X322261Y1002736D01*
X317939Y1002736D02*
X317939Y996974D01*
D15*
X410780Y1037510D02*
X420940Y1037510D01*
D12*
X428046Y1034864D02*
X429148Y1035965D01*
X428046Y1034864D02*
X428046Y1032660D01*
X429148Y1031559D01*
X433554Y1031559D01*
X434656Y1032660D01*
X434656Y1034864D01*
X433554Y1035965D01*
X429148Y1039043D02*
X428046Y1040144D01*
X428046Y1042348D01*
X429148Y1043449D01*
X430250Y1043449D01*
X431351Y1042348D01*
X431351Y1041246D01*
X431351Y1042348D02*
X432453Y1043449D01*
X433554Y1043449D01*
X434656Y1042348D01*
X434656Y1040144D01*
X433554Y1039043D01*
X753400Y881260D02*
X753400Y868560D01*
X753400Y881260D02*
X759750Y887610D01*
X772450Y887610D01*
X778800Y881260D01*
X772450Y862210D02*
X759750Y862210D01*
X753400Y868560D01*
X772450Y862210D02*
X778800Y868560D01*
X778800Y881260D01*
X762072Y895912D02*
X760632Y894472D01*
X760632Y891591D01*
X762072Y890150D01*
X763513Y890150D01*
X764953Y891591D01*
X764953Y894472D01*
X766394Y895912D01*
X767834Y895912D01*
X769275Y894472D01*
X769275Y891591D01*
X767834Y890150D01*
X769275Y899505D02*
X760632Y899505D01*
X766394Y902386D02*
X769275Y899505D01*
X766394Y902386D02*
X769275Y905267D01*
X760632Y905267D01*
X760632Y913182D02*
X762072Y914623D01*
X760632Y913182D02*
X760632Y910301D01*
X762072Y908860D01*
X767834Y908860D01*
X769275Y910301D01*
X769275Y913182D01*
X767834Y914623D01*
X769275Y918216D02*
X760632Y918216D01*
X769275Y918216D02*
X769275Y923978D01*
X769275Y927571D02*
X760632Y927571D01*
X766394Y927571D02*
X760632Y933333D01*
X764953Y929011D02*
X769275Y933333D01*
X778800Y881260D02*
X778800Y868560D01*
X778800Y881260D02*
X785150Y887610D01*
X797850Y887610D01*
X804200Y881260D01*
X797850Y862210D02*
X785150Y862210D01*
X778800Y868560D01*
X797850Y862210D02*
X804200Y868560D01*
X804200Y881260D01*
X789207Y895107D02*
X790647Y896547D01*
X789207Y895107D02*
X789207Y892226D01*
X790647Y890785D01*
X792088Y890785D01*
X793528Y892226D01*
X793528Y895107D01*
X794969Y896547D01*
X796409Y896547D01*
X797850Y895107D01*
X797850Y892226D01*
X796409Y890785D01*
X797850Y900140D02*
X789207Y900140D01*
X794969Y903021D02*
X797850Y900140D01*
X794969Y903021D02*
X797850Y905902D01*
X789207Y905902D01*
X789207Y909495D02*
X797850Y909495D01*
X797850Y913817D01*
X796409Y915258D01*
X790647Y915258D01*
X789207Y913817D01*
X789207Y909495D01*
X797850Y918851D02*
X797850Y921732D01*
X797850Y920291D02*
X789207Y920291D01*
X789207Y918851D02*
X789207Y921732D01*
X789207Y926528D02*
X789207Y929409D01*
X789207Y926528D02*
X790647Y925087D01*
X796409Y925087D01*
X797850Y926528D01*
X797850Y929409D01*
X796409Y930850D01*
X790647Y930850D01*
X789207Y929409D01*
D16*
X596200Y1181020D02*
X583500Y1181020D01*
X528255Y1193720D02*
X528268Y1194764D01*
X528306Y1195808D01*
X528370Y1196850D01*
X528460Y1197890D01*
X528575Y1198928D01*
X528715Y1199963D01*
X528881Y1200994D01*
X529072Y1202020D01*
X529289Y1203042D01*
X529530Y1204058D01*
X529796Y1205067D01*
X530087Y1206070D01*
X530402Y1207066D01*
X530742Y1208053D01*
X531106Y1209032D01*
X531494Y1210001D01*
X531905Y1210961D01*
X532340Y1211910D01*
X532798Y1212849D01*
X533279Y1213776D01*
X533782Y1214690D01*
X534308Y1215593D01*
X534856Y1216481D01*
X535425Y1217357D01*
X536016Y1218218D01*
X536628Y1219064D01*
X537260Y1219895D01*
X537912Y1220710D01*
X538585Y1221509D01*
X539276Y1222291D01*
X539987Y1223057D01*
X540716Y1223804D01*
X541463Y1224533D01*
X542229Y1225244D01*
X543011Y1225935D01*
X543810Y1226608D01*
X544625Y1227260D01*
X545456Y1227892D01*
X546302Y1228504D01*
X547163Y1229095D01*
X548039Y1229664D01*
X548927Y1230212D01*
X549830Y1230738D01*
X550744Y1231241D01*
X551671Y1231722D01*
X552610Y1232180D01*
X553559Y1232615D01*
X554519Y1233026D01*
X555488Y1233414D01*
X556467Y1233778D01*
X557454Y1234118D01*
X558450Y1234433D01*
X559453Y1234724D01*
X560462Y1234990D01*
X561478Y1235231D01*
X562500Y1235448D01*
X563526Y1235639D01*
X564557Y1235805D01*
X565592Y1235945D01*
X566630Y1236060D01*
X567670Y1236150D01*
X568712Y1236214D01*
X569756Y1236252D01*
X570800Y1236265D01*
X571844Y1236252D01*
X572888Y1236214D01*
X573930Y1236150D01*
X574970Y1236060D01*
X576008Y1235945D01*
X577043Y1235805D01*
X578074Y1235639D01*
X579100Y1235448D01*
X580122Y1235231D01*
X581138Y1234990D01*
X582147Y1234724D01*
X583150Y1234433D01*
X584146Y1234118D01*
X585133Y1233778D01*
X586112Y1233414D01*
X587081Y1233026D01*
X588041Y1232615D01*
X588990Y1232180D01*
X589929Y1231722D01*
X590856Y1231241D01*
X591770Y1230738D01*
X592673Y1230212D01*
X593561Y1229664D01*
X594437Y1229095D01*
X595298Y1228504D01*
X596144Y1227892D01*
X596975Y1227260D01*
X597790Y1226608D01*
X598589Y1225935D01*
X599371Y1225244D01*
X600137Y1224533D01*
X600884Y1223804D01*
X601613Y1223057D01*
X602324Y1222291D01*
X603015Y1221509D01*
X603688Y1220710D01*
X604340Y1219895D01*
X604972Y1219064D01*
X605584Y1218218D01*
X606175Y1217357D01*
X606744Y1216481D01*
X607292Y1215593D01*
X607818Y1214690D01*
X608321Y1213776D01*
X608802Y1212849D01*
X609260Y1211910D01*
X609695Y1210961D01*
X610106Y1210001D01*
X610494Y1209032D01*
X610858Y1208053D01*
X611198Y1207066D01*
X611513Y1206070D01*
X611804Y1205067D01*
X612070Y1204058D01*
X612311Y1203042D01*
X612528Y1202020D01*
X612719Y1200994D01*
X612885Y1199963D01*
X613025Y1198928D01*
X613140Y1197890D01*
X613230Y1196850D01*
X613294Y1195808D01*
X613332Y1194764D01*
X613345Y1193720D01*
X613332Y1192676D01*
X613294Y1191632D01*
X613230Y1190590D01*
X613140Y1189550D01*
X613025Y1188512D01*
X612885Y1187477D01*
X612719Y1186446D01*
X612528Y1185420D01*
X612311Y1184398D01*
X612070Y1183382D01*
X611804Y1182373D01*
X611513Y1181370D01*
X611198Y1180374D01*
X610858Y1179387D01*
X610494Y1178408D01*
X610106Y1177439D01*
X609695Y1176479D01*
X609260Y1175530D01*
X608802Y1174591D01*
X608321Y1173664D01*
X607818Y1172750D01*
X607292Y1171847D01*
X606744Y1170959D01*
X606175Y1170083D01*
X605584Y1169222D01*
X604972Y1168376D01*
X604340Y1167545D01*
X603688Y1166730D01*
X603015Y1165931D01*
X602324Y1165149D01*
X601613Y1164383D01*
X600884Y1163636D01*
X600137Y1162907D01*
X599371Y1162196D01*
X598589Y1161505D01*
X597790Y1160832D01*
X596975Y1160180D01*
X596144Y1159548D01*
X595298Y1158936D01*
X594437Y1158345D01*
X593561Y1157776D01*
X592673Y1157228D01*
X591770Y1156702D01*
X590856Y1156199D01*
X589929Y1155718D01*
X588990Y1155260D01*
X588041Y1154825D01*
X587081Y1154414D01*
X586112Y1154026D01*
X585133Y1153662D01*
X584146Y1153322D01*
X583150Y1153007D01*
X582147Y1152716D01*
X581138Y1152450D01*
X580122Y1152209D01*
X579100Y1151992D01*
X578074Y1151801D01*
X577043Y1151635D01*
X576008Y1151495D01*
X574970Y1151380D01*
X573930Y1151290D01*
X572888Y1151226D01*
X571844Y1151188D01*
X570800Y1151175D01*
X569756Y1151188D01*
X568712Y1151226D01*
X567670Y1151290D01*
X566630Y1151380D01*
X565592Y1151495D01*
X564557Y1151635D01*
X563526Y1151801D01*
X562500Y1151992D01*
X561478Y1152209D01*
X560462Y1152450D01*
X559453Y1152716D01*
X558450Y1153007D01*
X557454Y1153322D01*
X556467Y1153662D01*
X555488Y1154026D01*
X554519Y1154414D01*
X553559Y1154825D01*
X552610Y1155260D01*
X551671Y1155718D01*
X550744Y1156199D01*
X549830Y1156702D01*
X548927Y1157228D01*
X548039Y1157776D01*
X547163Y1158345D01*
X546302Y1158936D01*
X545456Y1159548D01*
X544625Y1160180D01*
X543810Y1160832D01*
X543011Y1161505D01*
X542229Y1162196D01*
X541463Y1162907D01*
X540716Y1163636D01*
X539987Y1164383D01*
X539276Y1165149D01*
X538585Y1165931D01*
X537912Y1166730D01*
X537260Y1167545D01*
X536628Y1168376D01*
X536016Y1169222D01*
X535425Y1170083D01*
X534856Y1170959D01*
X534308Y1171847D01*
X533782Y1172750D01*
X533279Y1173664D01*
X532798Y1174591D01*
X532340Y1175530D01*
X531905Y1176479D01*
X531494Y1177439D01*
X531106Y1178408D01*
X530742Y1179387D01*
X530402Y1180374D01*
X530087Y1181370D01*
X529796Y1182373D01*
X529530Y1183382D01*
X529289Y1184398D01*
X529072Y1185420D01*
X528881Y1186446D01*
X528715Y1187477D01*
X528575Y1188512D01*
X528460Y1189550D01*
X528370Y1190590D01*
X528306Y1191632D01*
X528268Y1192676D01*
X528255Y1193720D01*
D19*
X565598Y1171185D02*
X567081Y1169702D01*
X565598Y1171185D02*
X562632Y1171185D01*
X561149Y1169702D01*
X561149Y1163770D01*
X562632Y1162288D01*
X565598Y1162288D01*
X567081Y1163770D01*
X570505Y1168219D02*
X573470Y1171185D01*
X573470Y1162288D01*
X570505Y1162288D02*
X576436Y1162288D01*
X579860Y1168219D02*
X582826Y1171185D01*
X582826Y1162288D01*
X579860Y1162288D02*
X585792Y1162288D01*
D16*
X685100Y1181020D02*
X697800Y1181020D01*
X629855Y1193720D02*
X629868Y1194764D01*
X629906Y1195808D01*
X629970Y1196850D01*
X630060Y1197890D01*
X630175Y1198928D01*
X630315Y1199963D01*
X630481Y1200994D01*
X630672Y1202020D01*
X630889Y1203042D01*
X631130Y1204058D01*
X631396Y1205067D01*
X631687Y1206070D01*
X632002Y1207066D01*
X632342Y1208053D01*
X632706Y1209032D01*
X633094Y1210001D01*
X633505Y1210961D01*
X633940Y1211910D01*
X634398Y1212849D01*
X634879Y1213776D01*
X635382Y1214690D01*
X635908Y1215593D01*
X636456Y1216481D01*
X637025Y1217357D01*
X637616Y1218218D01*
X638228Y1219064D01*
X638860Y1219895D01*
X639512Y1220710D01*
X640185Y1221509D01*
X640876Y1222291D01*
X641587Y1223057D01*
X642316Y1223804D01*
X643063Y1224533D01*
X643829Y1225244D01*
X644611Y1225935D01*
X645410Y1226608D01*
X646225Y1227260D01*
X647056Y1227892D01*
X647902Y1228504D01*
X648763Y1229095D01*
X649639Y1229664D01*
X650527Y1230212D01*
X651430Y1230738D01*
X652344Y1231241D01*
X653271Y1231722D01*
X654210Y1232180D01*
X655159Y1232615D01*
X656119Y1233026D01*
X657088Y1233414D01*
X658067Y1233778D01*
X659054Y1234118D01*
X660050Y1234433D01*
X661053Y1234724D01*
X662062Y1234990D01*
X663078Y1235231D01*
X664100Y1235448D01*
X665126Y1235639D01*
X666157Y1235805D01*
X667192Y1235945D01*
X668230Y1236060D01*
X669270Y1236150D01*
X670312Y1236214D01*
X671356Y1236252D01*
X672400Y1236265D01*
X673444Y1236252D01*
X674488Y1236214D01*
X675530Y1236150D01*
X676570Y1236060D01*
X677608Y1235945D01*
X678643Y1235805D01*
X679674Y1235639D01*
X680700Y1235448D01*
X681722Y1235231D01*
X682738Y1234990D01*
X683747Y1234724D01*
X684750Y1234433D01*
X685746Y1234118D01*
X686733Y1233778D01*
X687712Y1233414D01*
X688681Y1233026D01*
X689641Y1232615D01*
X690590Y1232180D01*
X691529Y1231722D01*
X692456Y1231241D01*
X693370Y1230738D01*
X694273Y1230212D01*
X695161Y1229664D01*
X696037Y1229095D01*
X696898Y1228504D01*
X697744Y1227892D01*
X698575Y1227260D01*
X699390Y1226608D01*
X700189Y1225935D01*
X700971Y1225244D01*
X701737Y1224533D01*
X702484Y1223804D01*
X703213Y1223057D01*
X703924Y1222291D01*
X704615Y1221509D01*
X705288Y1220710D01*
X705940Y1219895D01*
X706572Y1219064D01*
X707184Y1218218D01*
X707775Y1217357D01*
X708344Y1216481D01*
X708892Y1215593D01*
X709418Y1214690D01*
X709921Y1213776D01*
X710402Y1212849D01*
X710860Y1211910D01*
X711295Y1210961D01*
X711706Y1210001D01*
X712094Y1209032D01*
X712458Y1208053D01*
X712798Y1207066D01*
X713113Y1206070D01*
X713404Y1205067D01*
X713670Y1204058D01*
X713911Y1203042D01*
X714128Y1202020D01*
X714319Y1200994D01*
X714485Y1199963D01*
X714625Y1198928D01*
X714740Y1197890D01*
X714830Y1196850D01*
X714894Y1195808D01*
X714932Y1194764D01*
X714945Y1193720D01*
X714932Y1192676D01*
X714894Y1191632D01*
X714830Y1190590D01*
X714740Y1189550D01*
X714625Y1188512D01*
X714485Y1187477D01*
X714319Y1186446D01*
X714128Y1185420D01*
X713911Y1184398D01*
X713670Y1183382D01*
X713404Y1182373D01*
X713113Y1181370D01*
X712798Y1180374D01*
X712458Y1179387D01*
X712094Y1178408D01*
X711706Y1177439D01*
X711295Y1176479D01*
X710860Y1175530D01*
X710402Y1174591D01*
X709921Y1173664D01*
X709418Y1172750D01*
X708892Y1171847D01*
X708344Y1170959D01*
X707775Y1170083D01*
X707184Y1169222D01*
X706572Y1168376D01*
X705940Y1167545D01*
X705288Y1166730D01*
X704615Y1165931D01*
X703924Y1165149D01*
X703213Y1164383D01*
X702484Y1163636D01*
X701737Y1162907D01*
X700971Y1162196D01*
X700189Y1161505D01*
X699390Y1160832D01*
X698575Y1160180D01*
X697744Y1159548D01*
X696898Y1158936D01*
X696037Y1158345D01*
X695161Y1157776D01*
X694273Y1157228D01*
X693370Y1156702D01*
X692456Y1156199D01*
X691529Y1155718D01*
X690590Y1155260D01*
X689641Y1154825D01*
X688681Y1154414D01*
X687712Y1154026D01*
X686733Y1153662D01*
X685746Y1153322D01*
X684750Y1153007D01*
X683747Y1152716D01*
X682738Y1152450D01*
X681722Y1152209D01*
X680700Y1151992D01*
X679674Y1151801D01*
X678643Y1151635D01*
X677608Y1151495D01*
X676570Y1151380D01*
X675530Y1151290D01*
X674488Y1151226D01*
X673444Y1151188D01*
X672400Y1151175D01*
X671356Y1151188D01*
X670312Y1151226D01*
X669270Y1151290D01*
X668230Y1151380D01*
X667192Y1151495D01*
X666157Y1151635D01*
X665126Y1151801D01*
X664100Y1151992D01*
X663078Y1152209D01*
X662062Y1152450D01*
X661053Y1152716D01*
X660050Y1153007D01*
X659054Y1153322D01*
X658067Y1153662D01*
X657088Y1154026D01*
X656119Y1154414D01*
X655159Y1154825D01*
X654210Y1155260D01*
X653271Y1155718D01*
X652344Y1156199D01*
X651430Y1156702D01*
X650527Y1157228D01*
X649639Y1157776D01*
X648763Y1158345D01*
X647902Y1158936D01*
X647056Y1159548D01*
X646225Y1160180D01*
X645410Y1160832D01*
X644611Y1161505D01*
X643829Y1162196D01*
X643063Y1162907D01*
X642316Y1163636D01*
X641587Y1164383D01*
X640876Y1165149D01*
X640185Y1165931D01*
X639512Y1166730D01*
X638860Y1167545D01*
X638228Y1168376D01*
X637616Y1169222D01*
X637025Y1170083D01*
X636456Y1170959D01*
X635908Y1171847D01*
X635382Y1172750D01*
X634879Y1173664D01*
X634398Y1174591D01*
X633940Y1175530D01*
X633505Y1176479D01*
X633094Y1177439D01*
X632706Y1178408D01*
X632342Y1179387D01*
X632002Y1180374D01*
X631687Y1181370D01*
X631396Y1182373D01*
X631130Y1183382D01*
X630889Y1184398D01*
X630672Y1185420D01*
X630481Y1186446D01*
X630315Y1187477D01*
X630175Y1188512D01*
X630060Y1189550D01*
X629970Y1190590D01*
X629906Y1191632D01*
X629868Y1192676D01*
X629855Y1193720D01*
D19*
X670691Y1172773D02*
X672174Y1171290D01*
X670691Y1172773D02*
X667725Y1172773D01*
X666242Y1171290D01*
X666242Y1165358D01*
X667725Y1163875D01*
X670691Y1163875D01*
X672174Y1165358D01*
X675597Y1169807D02*
X678563Y1172773D01*
X678563Y1163875D01*
X675597Y1163875D02*
X681529Y1163875D01*
X684952Y1163875D02*
X690884Y1163875D01*
X684952Y1163875D02*
X690884Y1169807D01*
X690884Y1171290D01*
X689401Y1172773D01*
X686435Y1172773D01*
X684952Y1171290D01*
D12*
X872700Y1051350D02*
X872700Y1038650D01*
X866350Y1032300D01*
X853650Y1032300D01*
X847300Y1038650D01*
X853650Y1057700D02*
X866350Y1057700D01*
X872700Y1051350D01*
X853650Y1057700D02*
X847300Y1051350D01*
X847300Y1038650D01*
X807700Y1053650D02*
X807700Y1066350D01*
X807700Y1053650D02*
X801350Y1047300D01*
X788650Y1047300D01*
X782300Y1053650D01*
X788650Y1072700D02*
X801350Y1072700D01*
X807700Y1066350D01*
X788650Y1072700D02*
X782300Y1066350D01*
X782300Y1053650D01*
X793258Y1078543D02*
X791818Y1079984D01*
X791818Y1082865D01*
X793258Y1084306D01*
X794699Y1084306D01*
X796139Y1082865D01*
X796139Y1081425D01*
X796139Y1082865D02*
X797580Y1084306D01*
X799020Y1084306D01*
X800461Y1082865D01*
X800461Y1079984D01*
X799020Y1078543D01*
X797580Y1087899D02*
X791818Y1087899D01*
X797580Y1087899D02*
X800461Y1090780D01*
X797580Y1093661D01*
X791818Y1093661D01*
X793258Y1097254D02*
X791818Y1098694D01*
X791818Y1101576D01*
X793258Y1103016D01*
X794699Y1103016D01*
X796139Y1101576D01*
X796139Y1100135D01*
X796139Y1101576D02*
X797580Y1103016D01*
X799020Y1103016D01*
X800461Y1101576D01*
X800461Y1098694D01*
X799020Y1097254D01*
X847300Y1026350D02*
X847300Y1013650D01*
X847300Y1026350D02*
X853650Y1032700D01*
X866350Y1032700D01*
X872700Y1026350D01*
X866350Y1007300D02*
X853650Y1007300D01*
X847300Y1013650D01*
X866350Y1007300D02*
X872700Y1013650D01*
X872700Y1026350D01*
X782700Y1053650D02*
X782700Y1066350D01*
X782700Y1053650D02*
X776350Y1047300D01*
X763650Y1047300D01*
X757300Y1053650D01*
X763650Y1072700D02*
X776350Y1072700D01*
X782700Y1066350D01*
X763650Y1072700D02*
X757300Y1066350D01*
X757300Y1053650D01*
X765230Y1078339D02*
X773874Y1078339D01*
X768111Y1081220D02*
X765230Y1078339D01*
X768111Y1081220D02*
X765230Y1084101D01*
X773874Y1084101D01*
X773874Y1087694D02*
X773874Y1090575D01*
X773874Y1089135D02*
X765230Y1089135D01*
X765230Y1090575D02*
X765230Y1087694D01*
X765230Y1098253D02*
X766671Y1099693D01*
X765230Y1098253D02*
X765230Y1095372D01*
X766671Y1093931D01*
X768111Y1093931D01*
X769552Y1095372D01*
X769552Y1098253D01*
X770992Y1099693D01*
X772433Y1099693D01*
X773874Y1098253D01*
X773874Y1095372D01*
X772433Y1093931D01*
X765230Y1104727D02*
X765230Y1107608D01*
X765230Y1104727D02*
X766671Y1103286D01*
X772433Y1103286D01*
X773874Y1104727D01*
X773874Y1107608D01*
X772433Y1109049D01*
X766671Y1109049D01*
X765230Y1107608D01*
X847300Y1001350D02*
X847300Y988650D01*
X847300Y1001350D02*
X853650Y1007700D01*
X866350Y1007700D01*
X872700Y1001350D01*
X866350Y982300D02*
X853650Y982300D01*
X847300Y988650D01*
X866350Y982300D02*
X872700Y988650D01*
X872700Y1001350D01*
X757300Y1003650D02*
X757300Y1016350D01*
X763650Y1022700D01*
X776350Y1022700D01*
X782700Y1016350D01*
X776350Y997300D02*
X763650Y997300D01*
X757300Y1003650D01*
X776350Y997300D02*
X782700Y1003650D01*
X782700Y1016350D01*
X766925Y983060D02*
X765484Y981619D01*
X765484Y978738D01*
X766925Y977298D01*
X772687Y977298D01*
X774128Y978738D01*
X774128Y981619D01*
X772687Y983060D01*
X765484Y990974D02*
X766925Y992415D01*
X765484Y990974D02*
X765484Y988093D01*
X766925Y986653D01*
X768365Y986653D01*
X769806Y988093D01*
X769806Y990974D01*
X771246Y992415D01*
X772687Y992415D01*
X774128Y990974D01*
X774128Y988093D01*
X772687Y986653D01*
X658806Y1120182D02*
X658806Y1125516D01*
X658806Y1111038D02*
X658806Y1105704D01*
X628834Y1120182D02*
X628834Y1125516D01*
X628834Y1111038D02*
X628834Y1105704D01*
D22*
X608070Y1111928D02*
X608070Y1119555D01*
X608070Y1111928D02*
X609595Y1110403D01*
X612645Y1110403D01*
X614171Y1111928D01*
X614171Y1119555D01*
X617425Y1118030D02*
X618950Y1119555D01*
X622001Y1119555D01*
X623526Y1118030D01*
X623526Y1116504D01*
X622001Y1114979D01*
X620475Y1114979D01*
X622001Y1114979D02*
X623526Y1113454D01*
X623526Y1111928D01*
X622001Y1110403D01*
X618950Y1110403D01*
X617425Y1111928D01*
D12*
X635917Y1078976D02*
X637018Y1077875D01*
X635917Y1078976D02*
X633714Y1078976D01*
X632612Y1077875D01*
X632612Y1073468D01*
X633714Y1072367D01*
X635917Y1072367D01*
X637018Y1073468D01*
X640096Y1076773D02*
X642299Y1078976D01*
X642299Y1072367D01*
X640096Y1072367D02*
X644503Y1072367D01*
X647580Y1078976D02*
X651987Y1078976D01*
X647580Y1078976D02*
X647580Y1075671D01*
X649784Y1076773D01*
X650885Y1076773D01*
X651987Y1075671D01*
X651987Y1073468D01*
X650885Y1072367D01*
X648682Y1072367D01*
X647580Y1073468D01*
D15*
X736540Y1148950D02*
X736540Y1159110D01*
D12*
X730271Y1142479D02*
X730271Y1135869D01*
X730271Y1142479D02*
X733576Y1142479D01*
X734678Y1141377D01*
X734678Y1139174D01*
X733576Y1138072D01*
X730271Y1138072D01*
X732474Y1138072D02*
X734678Y1135869D01*
X737755Y1135869D02*
X742162Y1135869D01*
X742162Y1140275D02*
X737755Y1135869D01*
X742162Y1140275D02*
X742162Y1141377D01*
X741060Y1142479D01*
X738857Y1142479D01*
X737755Y1141377D01*
X615651Y1167918D02*
X614549Y1169019D01*
X612346Y1169019D01*
X611245Y1167918D01*
X611245Y1163511D01*
X612346Y1162410D01*
X614549Y1162410D01*
X615651Y1163511D01*
X618729Y1166816D02*
X620932Y1169019D01*
X620932Y1162410D01*
X618729Y1162410D02*
X623135Y1162410D01*
X628416Y1167918D02*
X630619Y1169019D01*
X628416Y1167918D02*
X626213Y1165714D01*
X626213Y1163511D01*
X627314Y1162410D01*
X629518Y1162410D01*
X630619Y1163511D01*
X630619Y1164613D01*
X629518Y1165714D01*
X626213Y1165714D01*
D15*
X674620Y1078460D02*
X674620Y1068300D01*
D12*
X668715Y1063289D02*
X668715Y1056680D01*
X668715Y1063289D02*
X672019Y1063289D01*
X673121Y1062188D01*
X673121Y1059984D01*
X672019Y1058883D01*
X668715Y1058883D01*
X670918Y1058883D02*
X673121Y1056680D01*
X679503Y1056680D02*
X679503Y1063289D01*
X676199Y1059984D01*
X680605Y1059984D01*
D15*
X621280Y1224830D02*
X621280Y1234990D01*
D12*
X616139Y1218232D02*
X617241Y1217130D01*
X616139Y1218232D02*
X613936Y1218232D01*
X612835Y1217130D01*
X612835Y1212724D01*
X613936Y1211622D01*
X616139Y1211622D01*
X617241Y1212724D01*
X620319Y1216028D02*
X622522Y1218232D01*
X622522Y1211622D01*
X620319Y1211622D02*
X624725Y1211622D01*
X627803Y1218232D02*
X632209Y1218232D01*
X632209Y1217130D01*
X627803Y1212724D01*
X627803Y1211622D01*
D19*
X552027Y191866D02*
X544027Y191866D01*
X611173Y191866D02*
X619173Y191866D01*
X544100Y148100D02*
X544100Y135400D01*
X619100Y135400D01*
X619100Y148100D01*
D12*
X572323Y198149D02*
X571222Y199250D01*
X569019Y199250D01*
X567917Y198149D01*
X567917Y193742D01*
X569019Y192641D01*
X571222Y192641D01*
X572323Y193742D01*
X576503Y199250D02*
X578706Y199250D01*
X576503Y199250D02*
X575401Y198149D01*
X575401Y193742D01*
X576503Y192641D01*
X578706Y192641D01*
X579808Y193742D01*
X579808Y198149D01*
X578706Y199250D01*
X582885Y199250D02*
X582885Y192641D01*
X587292Y192641D02*
X582885Y199250D01*
X587292Y199250D02*
X587292Y192641D01*
X590369Y197047D02*
X592573Y199250D01*
X592573Y192641D01*
X594776Y192641D02*
X590369Y192641D01*
X375624Y969499D02*
X375624Y976109D01*
X378929Y976109D01*
X380030Y975007D01*
X380030Y972804D01*
X378929Y971702D01*
X375624Y971702D01*
X377827Y971702D02*
X380030Y969499D01*
X383108Y975007D02*
X384209Y976109D01*
X386413Y976109D01*
X387514Y975007D01*
X387514Y973905D01*
X386413Y972804D01*
X387514Y971702D01*
X387514Y970601D01*
X386413Y969499D01*
X384209Y969499D01*
X383108Y970601D01*
X383108Y971702D01*
X384209Y972804D01*
X383108Y973905D01*
X383108Y975007D01*
X384209Y972804D02*
X386413Y972804D01*
X415347Y975664D02*
X415347Y969055D01*
X415347Y975664D02*
X418652Y975664D01*
X419753Y974563D01*
X419753Y972359D01*
X418652Y971258D01*
X415347Y971258D01*
X417550Y971258D02*
X419753Y969055D01*
X422831Y975664D02*
X427238Y975664D01*
X422831Y975664D02*
X422831Y972359D01*
X425034Y973461D01*
X426136Y973461D01*
X427238Y972359D01*
X427238Y970156D01*
X426136Y969055D01*
X423933Y969055D01*
X422831Y970156D01*
X740350Y1221660D02*
X783530Y1221660D01*
X740350Y1201340D02*
X740250Y1201342D01*
X740151Y1201348D01*
X740051Y1201358D01*
X739953Y1201371D01*
X739854Y1201389D01*
X739757Y1201410D01*
X739661Y1201435D01*
X739565Y1201464D01*
X739471Y1201497D01*
X739378Y1201533D01*
X739287Y1201573D01*
X739197Y1201617D01*
X739109Y1201664D01*
X739023Y1201714D01*
X738939Y1201768D01*
X738857Y1201825D01*
X738778Y1201885D01*
X738700Y1201949D01*
X738626Y1202015D01*
X738554Y1202084D01*
X738485Y1202156D01*
X738419Y1202230D01*
X738355Y1202308D01*
X738295Y1202387D01*
X738238Y1202469D01*
X738184Y1202553D01*
X738134Y1202639D01*
X738087Y1202727D01*
X738043Y1202817D01*
X738003Y1202908D01*
X737967Y1203001D01*
X737934Y1203095D01*
X737905Y1203191D01*
X737880Y1203287D01*
X737859Y1203384D01*
X737841Y1203483D01*
X737828Y1203581D01*
X737818Y1203681D01*
X737812Y1203780D01*
X737810Y1203880D01*
X783530Y1201340D02*
X783630Y1201342D01*
X783729Y1201348D01*
X783829Y1201358D01*
X783927Y1201371D01*
X784026Y1201389D01*
X784123Y1201410D01*
X784219Y1201435D01*
X784315Y1201464D01*
X784409Y1201497D01*
X784502Y1201533D01*
X784593Y1201573D01*
X784683Y1201617D01*
X784771Y1201664D01*
X784857Y1201714D01*
X784941Y1201768D01*
X785023Y1201825D01*
X785102Y1201885D01*
X785180Y1201949D01*
X785254Y1202015D01*
X785326Y1202084D01*
X785395Y1202156D01*
X785461Y1202230D01*
X785525Y1202308D01*
X785585Y1202387D01*
X785642Y1202469D01*
X785696Y1202553D01*
X785746Y1202639D01*
X785793Y1202727D01*
X785837Y1202817D01*
X785877Y1202908D01*
X785913Y1203001D01*
X785946Y1203095D01*
X785975Y1203191D01*
X786000Y1203287D01*
X786021Y1203384D01*
X786039Y1203483D01*
X786052Y1203581D01*
X786062Y1203681D01*
X786068Y1203780D01*
X786070Y1203880D01*
X786070Y1219120D02*
X786068Y1219220D01*
X786062Y1219319D01*
X786052Y1219419D01*
X786039Y1219517D01*
X786021Y1219616D01*
X786000Y1219713D01*
X785975Y1219809D01*
X785946Y1219905D01*
X785913Y1219999D01*
X785877Y1220092D01*
X785837Y1220183D01*
X785793Y1220273D01*
X785746Y1220361D01*
X785696Y1220447D01*
X785642Y1220531D01*
X785585Y1220613D01*
X785525Y1220692D01*
X785461Y1220770D01*
X785395Y1220844D01*
X785326Y1220916D01*
X785254Y1220985D01*
X785180Y1221051D01*
X785102Y1221115D01*
X785023Y1221175D01*
X784941Y1221232D01*
X784857Y1221286D01*
X784771Y1221336D01*
X784683Y1221383D01*
X784593Y1221427D01*
X784502Y1221467D01*
X784409Y1221503D01*
X784315Y1221536D01*
X784219Y1221565D01*
X784123Y1221590D01*
X784026Y1221611D01*
X783927Y1221629D01*
X783829Y1221642D01*
X783729Y1221652D01*
X783630Y1221658D01*
X783530Y1221660D01*
X740350Y1221660D02*
X740250Y1221658D01*
X740151Y1221652D01*
X740051Y1221642D01*
X739953Y1221629D01*
X739854Y1221611D01*
X739757Y1221590D01*
X739661Y1221565D01*
X739565Y1221536D01*
X739471Y1221503D01*
X739378Y1221467D01*
X739287Y1221427D01*
X739197Y1221383D01*
X739109Y1221336D01*
X739023Y1221286D01*
X738939Y1221232D01*
X738857Y1221175D01*
X738778Y1221115D01*
X738700Y1221051D01*
X738626Y1220985D01*
X738554Y1220916D01*
X738485Y1220844D01*
X738419Y1220770D01*
X738355Y1220692D01*
X738295Y1220613D01*
X738238Y1220531D01*
X738184Y1220447D01*
X738134Y1220361D01*
X738087Y1220273D01*
X738043Y1220183D01*
X738003Y1220092D01*
X737967Y1219999D01*
X737934Y1219905D01*
X737905Y1219809D01*
X737880Y1219713D01*
X737859Y1219616D01*
X737841Y1219517D01*
X737828Y1219419D01*
X737818Y1219319D01*
X737812Y1219220D01*
X737810Y1219120D01*
X737810Y1203880D01*
X786070Y1203880D02*
X786070Y1219120D01*
X783530Y1201340D02*
X740350Y1201340D01*
X544064Y894762D02*
X534920Y894762D01*
X546858Y880538D02*
X553462Y880538D01*
X565400Y885110D02*
X565400Y894762D01*
X556256Y894762D01*
X534920Y894762D02*
X534920Y885110D01*
D19*
X531936Y899589D02*
X531936Y905309D01*
X531936Y899589D02*
X533079Y898445D01*
X535367Y898445D01*
X536511Y899589D01*
X536511Y905309D01*
X539420Y903021D02*
X541708Y905309D01*
X541708Y898445D01*
X539420Y898445D02*
X543996Y898445D01*
D16*
X681240Y1290540D02*
X695240Y1290540D01*
X681240Y1290540D02*
X681240Y1264540D01*
X723240Y1264540D02*
X723240Y1290540D01*
X709240Y1290540D01*
X695240Y1264540D02*
X681240Y1264540D01*
X709240Y1264540D02*
X723240Y1264540D01*
X695240Y1291540D02*
X682240Y1291540D01*
X709240Y1291540D02*
X722240Y1291540D01*
X695240Y1292540D02*
X681240Y1292540D01*
X709240Y1292540D02*
X723240Y1292540D01*
X681240Y1292540D02*
X681240Y1290540D01*
X695240Y1290540D02*
X695240Y1292540D01*
X709240Y1292540D02*
X709240Y1290540D01*
X723240Y1290540D02*
X723240Y1292540D01*
D12*
X670252Y1271596D02*
X669151Y1270494D01*
X669151Y1268291D01*
X670252Y1267190D01*
X674659Y1267190D01*
X675761Y1268291D01*
X675761Y1270494D01*
X674659Y1271596D01*
X669151Y1275775D02*
X669151Y1277978D01*
X669151Y1275775D02*
X670252Y1274674D01*
X674659Y1274674D01*
X675761Y1275775D01*
X675761Y1277978D01*
X674659Y1279080D01*
X670252Y1279080D01*
X669151Y1277978D01*
X669151Y1282158D02*
X675761Y1282158D01*
X675761Y1286564D02*
X669151Y1282158D01*
X669151Y1286564D02*
X675761Y1286564D01*
X675761Y1292947D02*
X669151Y1292947D01*
X672456Y1289642D01*
X672456Y1294048D01*
D23*
X298920Y1260220D02*
X296420Y1260220D01*
X296420Y1163220D01*
X298920Y1163220D01*
X397420Y1163220D02*
X397420Y1260220D01*
X397420Y1163220D02*
X395920Y1163220D01*
X395920Y1260220D02*
X397420Y1260220D01*
D19*
X317493Y1185343D02*
X317493Y1181911D01*
X318636Y1180768D01*
X322068Y1180768D01*
X322068Y1185343D01*
X324977Y1184199D02*
X329553Y1184199D01*
X332461Y1180768D02*
X332461Y1187631D01*
X332461Y1180768D02*
X335893Y1180768D01*
X337037Y1181911D01*
X337037Y1184199D01*
X335893Y1185343D01*
X332461Y1185343D01*
X339945Y1187631D02*
X341089Y1187631D01*
X341089Y1180768D01*
X339945Y1180768D02*
X342233Y1180768D01*
X346078Y1180768D02*
X348366Y1180768D01*
X349510Y1181911D01*
X349510Y1184199D01*
X348366Y1185343D01*
X346078Y1185343D01*
X344934Y1184199D01*
X344934Y1181911D01*
X346078Y1180768D01*
X352419Y1185343D02*
X356994Y1180768D01*
X352419Y1180768D02*
X356994Y1185343D01*
X367387Y1187631D02*
X367387Y1180768D01*
X369675Y1185343D02*
X367387Y1187631D01*
X369675Y1185343D02*
X371963Y1187631D01*
X371963Y1180768D01*
X374871Y1180768D02*
X374871Y1185343D01*
X377159Y1187631D01*
X379447Y1185343D01*
X379447Y1180768D01*
X379447Y1184199D02*
X374871Y1184199D01*
X382355Y1187631D02*
X386931Y1180768D01*
X382355Y1180768D02*
X386931Y1187631D01*
D24*
X308420Y1185220D03*
D15*
X333310Y1280080D02*
X333310Y1290240D01*
D12*
X303275Y1288087D02*
X303275Y1281477D01*
X303275Y1288087D02*
X306579Y1288087D01*
X307681Y1286985D01*
X307681Y1284782D01*
X306579Y1283680D01*
X303275Y1283680D01*
X305478Y1283680D02*
X307681Y1281477D01*
X310759Y1282579D02*
X311860Y1281477D01*
X314063Y1281477D01*
X315165Y1282579D01*
X315165Y1286985D01*
X314063Y1288087D01*
X311860Y1288087D01*
X310759Y1286985D01*
X310759Y1285883D01*
X311860Y1284782D01*
X315165Y1284782D01*
D15*
X371090Y1280080D02*
X371090Y1290240D01*
D12*
X390902Y1289039D02*
X390902Y1282430D01*
X395308Y1282430D01*
X398386Y1286836D02*
X400589Y1289039D01*
X400589Y1282430D01*
X398386Y1282430D02*
X402793Y1282430D01*
D15*
X282830Y1279760D02*
X282830Y1289920D01*
D12*
X274604Y1272971D02*
X275706Y1271870D01*
X274604Y1272971D02*
X272401Y1272971D01*
X271300Y1271870D01*
X271300Y1267463D01*
X272401Y1266362D01*
X274604Y1266362D01*
X275706Y1267463D01*
X278784Y1270768D02*
X280987Y1272971D01*
X280987Y1266362D01*
X278784Y1266362D02*
X283190Y1266362D01*
X286268Y1271870D02*
X287369Y1272971D01*
X289573Y1272971D01*
X290674Y1271870D01*
X290674Y1270768D01*
X289573Y1269666D01*
X290674Y1268565D01*
X290674Y1267463D01*
X289573Y1266362D01*
X287369Y1266362D01*
X286268Y1267463D01*
X286268Y1268565D01*
X287369Y1269666D01*
X286268Y1270768D01*
X286268Y1271870D01*
X287369Y1269666D02*
X289573Y1269666D01*
D16*
X333800Y1360500D02*
X360300Y1360500D01*
X360300Y1382000D01*
X352800Y1389500D01*
X352800Y1427500D01*
X361300Y1427500D01*
X361300Y1439250D01*
X399300Y1439250D01*
X399300Y1427500D01*
X407800Y1427500D01*
X407800Y1389500D01*
X400300Y1382000D01*
X400300Y1360500D01*
X426800Y1360500D01*
X418800Y1346000D02*
X341800Y1346000D01*
X426800Y1346000D02*
X426800Y1360500D01*
X333800Y1360500D02*
X333800Y1346000D01*
D25*
X275809Y1323654D02*
X273309Y1326153D01*
X268309Y1326153D01*
X265810Y1323654D01*
X265810Y1313654D01*
X268309Y1311155D01*
X273309Y1311155D01*
X275809Y1313654D01*
X275809Y1318654D01*
X270809Y1318654D01*
X282181Y1311155D02*
X282181Y1326153D01*
X292180Y1311155D01*
X292180Y1326153D01*
X306052Y1326153D02*
X308552Y1323654D01*
X306052Y1326153D02*
X301052Y1326153D01*
X298553Y1323654D01*
X298553Y1321154D01*
X301052Y1318654D01*
X306052Y1318654D01*
X308552Y1316154D01*
X308552Y1313654D01*
X306052Y1311155D01*
X301052Y1311155D01*
X298553Y1313654D01*
X322424Y1326153D02*
X324923Y1323654D01*
X322424Y1326153D02*
X317424Y1326153D01*
X314924Y1323654D01*
X314924Y1321154D01*
X317424Y1318654D01*
X322424Y1318654D01*
X324923Y1316154D01*
X324923Y1313654D01*
X322424Y1311155D01*
X317424Y1311155D01*
X314924Y1313654D01*
D16*
X478918Y799822D02*
X478918Y797282D01*
X478918Y799822D02*
X479426Y799822D01*
X479426Y799771D01*
X528931Y799771D01*
X528931Y797460D01*
X478715Y750470D02*
X478715Y747752D01*
X479223Y747752D01*
X479223Y747727D01*
X528905Y747727D01*
X528905Y749987D01*
X478410Y764770D02*
X478410Y781788D01*
X529210Y782296D02*
X529210Y773660D01*
X529210Y765024D01*
X529210Y773660D02*
X503810Y748260D01*
D12*
X463743Y757907D02*
X455100Y757907D01*
X463743Y757907D02*
X463743Y763669D01*
X455100Y767262D02*
X455100Y773024D01*
X455100Y767262D02*
X463743Y767262D01*
X463743Y773024D01*
X459421Y770143D02*
X459421Y767262D01*
X455100Y776617D02*
X463743Y776617D01*
X463743Y780939D01*
X462302Y782380D01*
X456540Y782380D01*
X455100Y780939D01*
X455100Y776617D01*
X457981Y785973D02*
X455100Y788854D01*
X463743Y788854D01*
X463743Y785973D02*
X463743Y791735D01*
D16*
X655364Y1360500D02*
X681864Y1360500D01*
X681864Y1382000D01*
X674364Y1389500D01*
X674364Y1427500D01*
X682864Y1427500D01*
X682864Y1439250D01*
X720864Y1439250D01*
X720864Y1427500D01*
X729364Y1427500D01*
X729364Y1389500D01*
X721864Y1382000D01*
X721864Y1360500D01*
X748364Y1360500D01*
X740364Y1346000D02*
X663364Y1346000D01*
X748364Y1346000D02*
X748364Y1360500D01*
X655364Y1360500D02*
X655364Y1346000D01*
D10*
X661288Y1244607D02*
X666033Y1244607D01*
X663660Y1244607D02*
X663660Y1258843D01*
X661288Y1258843D02*
X666033Y1258843D01*
X671578Y1258843D02*
X671578Y1244607D01*
X671578Y1258843D02*
X678696Y1258843D01*
X681069Y1256470D01*
X681069Y1251725D01*
X678696Y1249352D01*
X671578Y1249352D01*
X676324Y1249352D02*
X681069Y1244607D01*
X687014Y1244607D02*
X691760Y1244607D01*
X689387Y1244607D02*
X689387Y1258843D01*
X687014Y1258843D02*
X691760Y1258843D01*
X697305Y1258843D02*
X697305Y1244607D01*
X704423Y1244607D01*
X706796Y1246979D01*
X706796Y1256470D01*
X704423Y1258843D01*
X697305Y1258843D01*
X712741Y1244607D02*
X717486Y1244607D01*
X715114Y1244607D02*
X715114Y1258843D01*
X717486Y1258843D02*
X712741Y1258843D01*
X723032Y1258843D02*
X723032Y1246979D01*
X725404Y1244607D01*
X730150Y1244607D01*
X732522Y1246979D01*
X732522Y1258843D01*
X738468Y1258843D02*
X738468Y1244607D01*
X743213Y1254097D02*
X738468Y1258843D01*
X743213Y1254097D02*
X747959Y1258843D01*
X747959Y1244607D01*
D15*
X484760Y817160D02*
X484760Y807000D01*
D12*
X479223Y828320D02*
X478122Y829421D01*
X475919Y829421D01*
X474817Y828320D01*
X474817Y823913D01*
X475919Y822812D01*
X478122Y822812D01*
X479223Y823913D01*
X482301Y827218D02*
X484504Y829421D01*
X484504Y822812D01*
X482301Y822812D02*
X486708Y822812D01*
X489785Y823913D02*
X490887Y822812D01*
X493090Y822812D01*
X494192Y823913D01*
X494192Y828320D01*
X493090Y829421D01*
X490887Y829421D01*
X489785Y828320D01*
X489785Y827218D01*
X490887Y826116D01*
X494192Y826116D01*
D16*
X622950Y797870D02*
X622950Y767870D01*
X592950Y767870D02*
X592950Y797870D01*
D26*
X596450Y771370D03*
D12*
X627025Y776212D02*
X634227Y776212D01*
X635668Y777653D01*
X635668Y780534D01*
X634227Y781974D01*
X627025Y781974D01*
X627025Y785567D02*
X627025Y791329D01*
X628465Y791329D01*
X634227Y785567D01*
X635668Y785567D01*
X608397Y831895D02*
X608397Y838504D01*
X611702Y838504D01*
X612803Y837403D01*
X612803Y835199D01*
X611702Y834098D01*
X608397Y834098D01*
X610600Y834098D02*
X612803Y831895D01*
X615881Y838504D02*
X620288Y838504D01*
X620288Y837403D01*
X615881Y832996D01*
X615881Y831895D01*
X829600Y868560D02*
X829600Y881260D01*
X829600Y868560D02*
X823250Y862210D01*
X810550Y862210D01*
X804200Y868560D01*
X810550Y887610D02*
X823250Y887610D01*
X829600Y881260D01*
X810550Y887610D02*
X804200Y881260D01*
X804200Y868560D01*
X812702Y895107D02*
X814142Y896547D01*
X812702Y895107D02*
X812702Y892226D01*
X814142Y890785D01*
X819904Y890785D01*
X821345Y892226D01*
X821345Y895107D01*
X819904Y896547D01*
X817023Y896547D01*
X817023Y893666D01*
X812702Y900140D02*
X821345Y900140D01*
X821345Y905902D02*
X812702Y900140D01*
X812702Y905902D02*
X821345Y905902D01*
X821345Y909495D02*
X812702Y909495D01*
X821345Y909495D02*
X821345Y913817D01*
X819904Y915258D01*
X814142Y915258D01*
X812702Y913817D01*
X812702Y909495D01*
X753400Y855860D02*
X753400Y843160D01*
X753400Y855860D02*
X759750Y862210D01*
X772450Y862210D01*
X778800Y855860D01*
X772450Y836810D02*
X759750Y836810D01*
X753400Y843160D01*
X772450Y836810D02*
X778800Y843160D01*
X778800Y855860D01*
X767092Y797421D02*
X761330Y797421D01*
X767092Y797421D02*
X769974Y800302D01*
X767092Y803183D01*
X761330Y803183D01*
X761330Y806776D02*
X769974Y806776D01*
X761330Y806776D02*
X761330Y811098D01*
X762771Y812538D01*
X764211Y812538D01*
X765652Y811098D01*
X767092Y812538D01*
X768533Y812538D01*
X769974Y811098D01*
X769974Y806776D01*
X765652Y806776D02*
X765652Y811098D01*
X768533Y816131D02*
X761330Y816131D01*
X768533Y816131D02*
X769974Y817572D01*
X769974Y820453D01*
X768533Y821893D01*
X761330Y821893D01*
X761330Y829808D02*
X762771Y831249D01*
X761330Y829808D02*
X761330Y826927D01*
X762771Y825486D01*
X764211Y825486D01*
X765652Y826927D01*
X765652Y829808D01*
X767092Y831249D01*
X768533Y831249D01*
X769974Y829808D01*
X769974Y826927D01*
X768533Y825486D01*
D27*
X549210Y773213D03*
D12*
X494000Y744016D02*
X494000Y737407D01*
X498407Y737407D01*
X501485Y744016D02*
X505891Y744016D01*
X501485Y744016D02*
X501485Y737407D01*
X505891Y737407D01*
X503688Y740711D02*
X501485Y740711D01*
X508969Y737407D02*
X508969Y744016D01*
X508969Y737407D02*
X512274Y737407D01*
X513375Y738508D01*
X513375Y742915D01*
X512274Y744016D01*
X508969Y744016D01*
X516453Y737407D02*
X520859Y737407D01*
X516453Y737407D02*
X520859Y741813D01*
X520859Y742915D01*
X519758Y744016D01*
X517554Y744016D01*
X516453Y742915D01*
X532501Y800872D02*
X539111Y800872D01*
X532501Y800872D02*
X532501Y804177D01*
X533603Y805278D01*
X535806Y805278D01*
X536908Y804177D01*
X536908Y800872D01*
X536908Y803075D02*
X539111Y805278D01*
X534705Y808356D02*
X532501Y810559D01*
X539111Y810559D01*
X539111Y808356D02*
X539111Y812763D01*
X538009Y815840D02*
X533603Y815840D01*
X532501Y816942D01*
X532501Y819145D01*
X533603Y820247D01*
X538009Y820247D01*
X539111Y819145D01*
X539111Y816942D01*
X538009Y815840D01*
X533603Y820247D01*
D16*
X575260Y786210D02*
X575260Y768750D01*
X561260Y768750D02*
X561260Y786210D01*
X568260Y780480D02*
X572260Y774480D01*
X564260Y774480D01*
X568260Y780480D01*
D28*
X568260Y781480D03*
D12*
X578668Y771892D02*
X585278Y771892D01*
X585278Y775197D01*
X584176Y776298D01*
X579770Y776298D01*
X578668Y775197D01*
X578668Y771892D01*
X578668Y782681D02*
X585278Y782681D01*
X581973Y779376D02*
X578668Y782681D01*
X581973Y783783D02*
X581973Y779376D01*
X740350Y1188000D02*
X783530Y1188000D01*
X740350Y1167680D02*
X740250Y1167682D01*
X740151Y1167688D01*
X740051Y1167698D01*
X739953Y1167711D01*
X739854Y1167729D01*
X739757Y1167750D01*
X739661Y1167775D01*
X739565Y1167804D01*
X739471Y1167837D01*
X739378Y1167873D01*
X739287Y1167913D01*
X739197Y1167957D01*
X739109Y1168004D01*
X739023Y1168054D01*
X738939Y1168108D01*
X738857Y1168165D01*
X738778Y1168225D01*
X738700Y1168289D01*
X738626Y1168355D01*
X738554Y1168424D01*
X738485Y1168496D01*
X738419Y1168570D01*
X738355Y1168648D01*
X738295Y1168727D01*
X738238Y1168809D01*
X738184Y1168893D01*
X738134Y1168979D01*
X738087Y1169067D01*
X738043Y1169157D01*
X738003Y1169248D01*
X737967Y1169341D01*
X737934Y1169435D01*
X737905Y1169531D01*
X737880Y1169627D01*
X737859Y1169724D01*
X737841Y1169823D01*
X737828Y1169921D01*
X737818Y1170021D01*
X737812Y1170120D01*
X737810Y1170220D01*
X783530Y1167680D02*
X783630Y1167682D01*
X783729Y1167688D01*
X783829Y1167698D01*
X783927Y1167711D01*
X784026Y1167729D01*
X784123Y1167750D01*
X784219Y1167775D01*
X784315Y1167804D01*
X784409Y1167837D01*
X784502Y1167873D01*
X784593Y1167913D01*
X784683Y1167957D01*
X784771Y1168004D01*
X784857Y1168054D01*
X784941Y1168108D01*
X785023Y1168165D01*
X785102Y1168225D01*
X785180Y1168289D01*
X785254Y1168355D01*
X785326Y1168424D01*
X785395Y1168496D01*
X785461Y1168570D01*
X785525Y1168648D01*
X785585Y1168727D01*
X785642Y1168809D01*
X785696Y1168893D01*
X785746Y1168979D01*
X785793Y1169067D01*
X785837Y1169157D01*
X785877Y1169248D01*
X785913Y1169341D01*
X785946Y1169435D01*
X785975Y1169531D01*
X786000Y1169627D01*
X786021Y1169724D01*
X786039Y1169823D01*
X786052Y1169921D01*
X786062Y1170021D01*
X786068Y1170120D01*
X786070Y1170220D01*
X786070Y1185460D02*
X786068Y1185560D01*
X786062Y1185659D01*
X786052Y1185759D01*
X786039Y1185857D01*
X786021Y1185956D01*
X786000Y1186053D01*
X785975Y1186149D01*
X785946Y1186245D01*
X785913Y1186339D01*
X785877Y1186432D01*
X785837Y1186523D01*
X785793Y1186613D01*
X785746Y1186701D01*
X785696Y1186787D01*
X785642Y1186871D01*
X785585Y1186953D01*
X785525Y1187032D01*
X785461Y1187110D01*
X785395Y1187184D01*
X785326Y1187256D01*
X785254Y1187325D01*
X785180Y1187391D01*
X785102Y1187455D01*
X785023Y1187515D01*
X784941Y1187572D01*
X784857Y1187626D01*
X784771Y1187676D01*
X784683Y1187723D01*
X784593Y1187767D01*
X784502Y1187807D01*
X784409Y1187843D01*
X784315Y1187876D01*
X784219Y1187905D01*
X784123Y1187930D01*
X784026Y1187951D01*
X783927Y1187969D01*
X783829Y1187982D01*
X783729Y1187992D01*
X783630Y1187998D01*
X783530Y1188000D01*
X740350Y1188000D02*
X740250Y1187998D01*
X740151Y1187992D01*
X740051Y1187982D01*
X739953Y1187969D01*
X739854Y1187951D01*
X739757Y1187930D01*
X739661Y1187905D01*
X739565Y1187876D01*
X739471Y1187843D01*
X739378Y1187807D01*
X739287Y1187767D01*
X739197Y1187723D01*
X739109Y1187676D01*
X739023Y1187626D01*
X738939Y1187572D01*
X738857Y1187515D01*
X738778Y1187455D01*
X738700Y1187391D01*
X738626Y1187325D01*
X738554Y1187256D01*
X738485Y1187184D01*
X738419Y1187110D01*
X738355Y1187032D01*
X738295Y1186953D01*
X738238Y1186871D01*
X738184Y1186787D01*
X738134Y1186701D01*
X738087Y1186613D01*
X738043Y1186523D01*
X738003Y1186432D01*
X737967Y1186339D01*
X737934Y1186245D01*
X737905Y1186149D01*
X737880Y1186053D01*
X737859Y1185956D01*
X737841Y1185857D01*
X737828Y1185759D01*
X737818Y1185659D01*
X737812Y1185560D01*
X737810Y1185460D01*
X737810Y1170220D01*
X786070Y1170220D02*
X786070Y1185460D01*
X783530Y1167680D02*
X740350Y1167680D01*
D15*
X787340Y1159110D02*
X787340Y1148950D01*
D12*
X796130Y1142479D02*
X796130Y1135869D01*
X796130Y1142479D02*
X799434Y1142479D01*
X800536Y1141377D01*
X800536Y1139174D01*
X799434Y1138072D01*
X796130Y1138072D01*
X798333Y1138072D02*
X800536Y1135869D01*
X803614Y1140275D02*
X805817Y1142479D01*
X805817Y1135869D01*
X803614Y1135869D02*
X808020Y1135869D01*
X811098Y1140275D02*
X813301Y1142479D01*
X813301Y1135869D01*
X811098Y1135869D02*
X815504Y1135869D01*
D15*
X421890Y1010840D02*
X421890Y1000680D01*
D12*
X445324Y1008687D02*
X446426Y1007585D01*
X445324Y1008687D02*
X443121Y1008687D01*
X442020Y1007585D01*
X442020Y1003179D01*
X443121Y1002077D01*
X445324Y1002077D01*
X446426Y1003179D01*
X449504Y1006483D02*
X451707Y1008687D01*
X451707Y1002077D01*
X449504Y1002077D02*
X453910Y1002077D01*
X456988Y1007585D02*
X458089Y1008687D01*
X460293Y1008687D01*
X461394Y1007585D01*
X461394Y1006483D01*
X460293Y1005382D01*
X459191Y1005382D01*
X460293Y1005382D02*
X461394Y1004280D01*
X461394Y1003179D01*
X460293Y1002077D01*
X458089Y1002077D01*
X456988Y1003179D01*
D15*
X622870Y926380D02*
X622870Y916220D01*
D12*
X614379Y910701D02*
X614379Y904092D01*
X614379Y910701D02*
X617684Y910701D01*
X618785Y909600D01*
X618785Y907396D01*
X617684Y906295D01*
X614379Y906295D01*
X616582Y906295D02*
X618785Y904092D01*
X621863Y909600D02*
X622964Y910701D01*
X625168Y910701D01*
X626269Y909600D01*
X626269Y908498D01*
X625168Y907396D01*
X624066Y907396D01*
X625168Y907396D02*
X626269Y906295D01*
X626269Y905193D01*
X625168Y904092D01*
X622964Y904092D01*
X621863Y905193D01*
D15*
X662880Y916220D02*
X662880Y926380D01*
D12*
X655341Y910066D02*
X655341Y903457D01*
X655341Y910066D02*
X658646Y910066D01*
X659748Y908965D01*
X659748Y906761D01*
X658646Y905660D01*
X655341Y905660D01*
X657544Y905660D02*
X659748Y903457D01*
X665029Y908965D02*
X667232Y910066D01*
X665029Y908965D02*
X662825Y906761D01*
X662825Y904558D01*
X663927Y903457D01*
X666130Y903457D01*
X667232Y904558D01*
X667232Y905660D01*
X666130Y906761D01*
X662825Y906761D01*
D23*
X624800Y1312450D02*
X476800Y1312450D01*
X624800Y1312450D02*
X624800Y1239450D01*
X476800Y1239450D01*
X476800Y1312450D01*
D29*
X484800Y1233950D03*
D30*
X484802Y1234012D01*
X484808Y1234073D01*
X484817Y1234134D01*
X484830Y1234194D01*
X484847Y1234253D01*
X484868Y1234311D01*
X484892Y1234368D01*
X484919Y1234423D01*
X484950Y1234476D01*
X484984Y1234528D01*
X485021Y1234577D01*
X485061Y1234624D01*
X485104Y1234668D01*
X485149Y1234709D01*
X485197Y1234748D01*
X485248Y1234784D01*
X485300Y1234816D01*
X485354Y1234845D01*
X485410Y1234871D01*
X485468Y1234893D01*
X485526Y1234912D01*
X485586Y1234927D01*
X485647Y1234938D01*
X485708Y1234946D01*
X485769Y1234950D01*
X485831Y1234950D01*
X485892Y1234946D01*
X485953Y1234938D01*
X486014Y1234927D01*
X486074Y1234912D01*
X486132Y1234893D01*
X486190Y1234871D01*
X486246Y1234845D01*
X486300Y1234816D01*
X486352Y1234784D01*
X486403Y1234748D01*
X486451Y1234709D01*
X486496Y1234668D01*
X486539Y1234624D01*
X486579Y1234577D01*
X486616Y1234528D01*
X486650Y1234476D01*
X486681Y1234423D01*
X486708Y1234368D01*
X486732Y1234311D01*
X486753Y1234253D01*
X486770Y1234194D01*
X486783Y1234134D01*
X486792Y1234073D01*
X486798Y1234012D01*
X486800Y1233950D01*
D29*
X486800Y1233950D03*
D30*
X486798Y1233888D01*
X486792Y1233827D01*
X486783Y1233766D01*
X486770Y1233706D01*
X486753Y1233647D01*
X486732Y1233589D01*
X486708Y1233532D01*
X486681Y1233477D01*
X486650Y1233424D01*
X486616Y1233372D01*
X486579Y1233323D01*
X486539Y1233276D01*
X486496Y1233232D01*
X486451Y1233191D01*
X486403Y1233152D01*
X486352Y1233116D01*
X486300Y1233084D01*
X486246Y1233055D01*
X486190Y1233029D01*
X486132Y1233007D01*
X486074Y1232988D01*
X486014Y1232973D01*
X485953Y1232962D01*
X485892Y1232954D01*
X485831Y1232950D01*
X485769Y1232950D01*
X485708Y1232954D01*
X485647Y1232962D01*
X485586Y1232973D01*
X485526Y1232988D01*
X485468Y1233007D01*
X485410Y1233029D01*
X485354Y1233055D01*
X485300Y1233084D01*
X485248Y1233116D01*
X485197Y1233152D01*
X485149Y1233191D01*
X485104Y1233232D01*
X485061Y1233276D01*
X485021Y1233323D01*
X484984Y1233372D01*
X484950Y1233424D01*
X484919Y1233477D01*
X484892Y1233532D01*
X484868Y1233589D01*
X484847Y1233647D01*
X484830Y1233706D01*
X484817Y1233766D01*
X484808Y1233827D01*
X484802Y1233888D01*
X484800Y1233950D01*
D16*
X516734Y1267366D02*
X516734Y1278043D01*
X522073Y1278043D01*
X523852Y1276264D01*
X523852Y1272705D01*
X522073Y1270925D01*
X516734Y1270925D01*
X520293Y1270925D02*
X523852Y1267366D01*
X528428Y1278043D02*
X535546Y1278043D01*
X528428Y1278043D02*
X528428Y1267366D01*
X535546Y1267366D01*
X531987Y1272705D02*
X528428Y1272705D01*
X540122Y1278043D02*
X540122Y1267366D01*
X547240Y1267366D01*
X551816Y1267366D02*
X551816Y1274484D01*
X555375Y1278043D01*
X558934Y1274484D01*
X558934Y1267366D01*
X558934Y1272705D02*
X551816Y1272705D01*
X563510Y1276264D02*
X563510Y1278043D01*
X563510Y1276264D02*
X567069Y1272705D01*
X570628Y1276264D01*
X570628Y1278043D01*
X567069Y1272705D02*
X567069Y1267366D01*
X575204Y1274484D02*
X578763Y1278043D01*
X578763Y1267366D01*
X575204Y1267366D02*
X582322Y1267366D01*
X421356Y1260644D02*
X421356Y1247516D01*
X421356Y1260644D02*
X430944Y1260644D01*
X454804Y1260644D02*
X454804Y1247516D01*
X454804Y1260644D02*
X445216Y1260644D01*
X440304Y1247436D02*
X435716Y1247436D01*
D12*
X416889Y1268096D02*
X416889Y1272502D01*
X417990Y1273604D01*
X420194Y1273604D01*
X421295Y1272502D01*
X421295Y1268096D01*
X420194Y1266994D01*
X417990Y1266994D01*
X416889Y1268096D01*
X419092Y1269197D02*
X421295Y1266994D01*
X424373Y1266994D02*
X428779Y1266994D01*
X424373Y1266994D02*
X428779Y1271400D01*
X428779Y1272502D01*
X427678Y1273604D01*
X425474Y1273604D01*
X424373Y1272502D01*
D15*
X438080Y1230550D02*
X438080Y1220390D01*
D12*
X427820Y1214554D02*
X427820Y1207944D01*
X427820Y1214554D02*
X431124Y1214554D01*
X432226Y1213452D01*
X432226Y1211249D01*
X431124Y1210147D01*
X427820Y1210147D01*
X430023Y1210147D02*
X432226Y1207944D01*
X435304Y1212350D02*
X437507Y1214554D01*
X437507Y1207944D01*
X435304Y1207944D02*
X439710Y1207944D01*
X442788Y1207944D02*
X447194Y1207944D01*
X442788Y1207944D02*
X447194Y1212350D01*
X447194Y1213452D01*
X446093Y1214554D01*
X443889Y1214554D01*
X442788Y1213452D01*
D16*
X499506Y1234254D02*
X512634Y1234254D01*
X512634Y1224666D01*
X512634Y1200806D02*
X499506Y1200806D01*
X512634Y1200806D02*
X512634Y1210394D01*
X499426Y1215306D02*
X499426Y1219894D01*
D12*
X517905Y1228284D02*
X517905Y1232690D01*
X519006Y1233792D01*
X521209Y1233792D01*
X522311Y1232690D01*
X522311Y1228284D01*
X521209Y1227182D01*
X519006Y1227182D01*
X517905Y1228284D01*
X520108Y1229385D02*
X522311Y1227182D01*
X525389Y1232690D02*
X526490Y1233792D01*
X528693Y1233792D01*
X529795Y1232690D01*
X529795Y1231588D01*
X528693Y1230487D01*
X527592Y1230487D01*
X528693Y1230487D02*
X529795Y1229385D01*
X529795Y1228284D01*
X528693Y1227182D01*
X526490Y1227182D01*
X525389Y1228284D01*
D15*
X477140Y1217530D02*
X466980Y1217530D01*
D12*
X462726Y1207815D02*
X456116Y1207815D01*
X456116Y1211119D01*
X457217Y1212221D01*
X459421Y1212221D01*
X460522Y1211119D01*
X460522Y1207815D01*
X460522Y1210018D02*
X462726Y1212221D01*
X458319Y1215299D02*
X456116Y1217502D01*
X462726Y1217502D01*
X462726Y1215299D02*
X462726Y1219705D01*
X457217Y1222783D02*
X456116Y1223884D01*
X456116Y1226088D01*
X457217Y1227189D01*
X458319Y1227189D01*
X459421Y1226088D01*
X459421Y1224986D01*
X459421Y1226088D02*
X460522Y1227189D01*
X461624Y1227189D01*
X462726Y1226088D01*
X462726Y1223884D01*
X461624Y1222783D01*
X475550Y1340720D02*
X488250Y1340720D01*
X494600Y1334370D01*
X494600Y1321670D01*
X488250Y1315320D01*
X469200Y1321670D02*
X469200Y1334370D01*
X475550Y1340720D01*
X469200Y1321670D02*
X475550Y1315320D01*
X488250Y1315320D01*
X500950Y1340720D02*
X513650Y1340720D01*
X520000Y1334370D01*
X520000Y1321670D01*
X513650Y1315320D01*
X494600Y1321670D02*
X494600Y1334370D01*
X500950Y1340720D01*
X494600Y1321670D02*
X500950Y1315320D01*
X513650Y1315320D01*
X526350Y1340720D02*
X539050Y1340720D01*
X545400Y1334370D01*
X545400Y1321670D01*
X539050Y1315320D01*
X520000Y1321670D02*
X520000Y1334370D01*
X526350Y1340720D01*
X520000Y1321670D02*
X526350Y1315320D01*
X539050Y1315320D01*
X602550Y1340720D02*
X615250Y1340720D01*
X621600Y1334370D01*
X621600Y1321670D01*
X615250Y1315320D01*
X596200Y1321670D02*
X596200Y1334370D01*
X602550Y1340720D01*
X596200Y1321670D02*
X602550Y1315320D01*
X615250Y1315320D01*
X589850Y1340720D02*
X577150Y1340720D01*
X589850Y1340720D02*
X596200Y1334370D01*
X596200Y1321670D01*
X589850Y1315320D01*
X570800Y1321670D02*
X570800Y1334370D01*
X577150Y1340720D01*
X570800Y1321670D02*
X577150Y1315320D01*
X589850Y1315320D01*
X564450Y1340720D02*
X551750Y1340720D01*
X564450Y1340720D02*
X570800Y1334370D01*
X570800Y1321670D01*
X564450Y1315320D01*
X545400Y1321670D02*
X545400Y1334370D01*
X551750Y1340720D01*
X545400Y1321670D02*
X551750Y1315320D01*
X564450Y1315320D01*
D16*
X628570Y1291980D02*
X628570Y1274520D01*
X642570Y1274520D02*
X642570Y1291980D01*
X631570Y1286250D02*
X635570Y1280250D01*
X631570Y1286250D02*
X639570Y1286250D01*
X635570Y1280250D01*
D28*
X635570Y1279250D03*
D12*
X645343Y1277345D02*
X651953Y1277345D01*
X651953Y1280649D01*
X650851Y1281751D01*
X646445Y1281751D01*
X645343Y1280649D01*
X645343Y1277345D01*
X646445Y1284829D02*
X645343Y1285930D01*
X645343Y1288133D01*
X646445Y1289235D01*
X647547Y1289235D01*
X648648Y1288133D01*
X648648Y1287032D01*
X648648Y1288133D02*
X649750Y1289235D01*
X650851Y1289235D01*
X651953Y1288133D01*
X651953Y1285930D01*
X650851Y1284829D01*
D16*
X458070Y1291670D02*
X458070Y1274210D01*
X472070Y1274210D02*
X472070Y1291670D01*
X461070Y1285940D02*
X465070Y1279940D01*
X461070Y1285940D02*
X469070Y1285940D01*
X465070Y1279940D01*
D28*
X465070Y1278940D03*
D12*
X454148Y1276717D02*
X447538Y1276717D01*
X454148Y1276717D02*
X454148Y1280022D01*
X453046Y1281123D01*
X448640Y1281123D01*
X447538Y1280022D01*
X447538Y1276717D01*
X454148Y1284201D02*
X454148Y1288608D01*
X449742Y1288608D02*
X454148Y1284201D01*
X449742Y1288608D02*
X448640Y1288608D01*
X447538Y1287506D01*
X447538Y1285303D01*
X448640Y1284201D01*
D16*
X565506Y1108884D02*
X565506Y1095756D01*
X565506Y1108884D02*
X575094Y1108884D01*
X598954Y1108884D02*
X598954Y1095756D01*
X598954Y1108884D02*
X589366Y1108884D01*
X584454Y1095676D02*
X579866Y1095676D01*
D12*
X576325Y1122241D02*
X576325Y1126648D01*
X577426Y1127749D01*
X579629Y1127749D01*
X580731Y1126648D01*
X580731Y1122241D01*
X579629Y1121140D01*
X577426Y1121140D01*
X576325Y1122241D01*
X578528Y1123343D02*
X580731Y1121140D01*
X587113Y1121140D02*
X587113Y1127749D01*
X583809Y1124444D01*
X588215Y1124444D01*
D19*
X593934Y864917D02*
X593934Y860341D01*
X593934Y864917D02*
X595078Y866061D01*
X597366Y866061D01*
X598510Y864917D01*
X598510Y860341D01*
X597366Y859197D01*
X595078Y859197D01*
X593934Y860341D01*
X596222Y861485D02*
X598510Y859197D01*
X601418Y866061D02*
X605994Y866061D01*
X601418Y866061D02*
X601418Y862629D01*
X603706Y863773D01*
X604850Y863773D01*
X605994Y862629D01*
X605994Y860341D01*
X604850Y859197D01*
X602562Y859197D01*
X601418Y860341D01*
D12*
X617276Y873582D02*
X623886Y873582D01*
X617276Y873582D02*
X617276Y876887D01*
X618378Y877988D01*
X620581Y877988D01*
X621683Y876887D01*
X621683Y873582D01*
X621683Y875785D02*
X623886Y877988D01*
X619480Y881066D02*
X617276Y883269D01*
X623886Y883269D01*
X623886Y881066D02*
X623886Y885473D01*
X623886Y891855D02*
X617276Y891855D01*
X620581Y888550D01*
X620581Y892957D01*
X572292Y1061262D02*
X572292Y1067871D01*
X575597Y1067871D01*
X576698Y1066770D01*
X576698Y1064566D01*
X575597Y1063465D01*
X572292Y1063465D01*
X574495Y1063465D02*
X576698Y1061262D01*
X579776Y1065668D02*
X581979Y1067871D01*
X581979Y1061262D01*
X579776Y1061262D02*
X584183Y1061262D01*
X587260Y1067871D02*
X591667Y1067871D01*
X587260Y1067871D02*
X587260Y1064566D01*
X589464Y1065668D01*
X590565Y1065668D01*
X591667Y1064566D01*
X591667Y1062363D01*
X590565Y1061262D01*
X588362Y1061262D01*
X587260Y1062363D01*
X665857Y1100820D02*
X665857Y1107429D01*
X669162Y1107429D01*
X670263Y1106328D01*
X670263Y1104124D01*
X669162Y1103023D01*
X665857Y1103023D01*
X668060Y1103023D02*
X670263Y1100820D01*
X673341Y1105226D02*
X675544Y1107429D01*
X675544Y1100820D01*
X673341Y1100820D02*
X677748Y1100820D01*
X683029Y1106328D02*
X685232Y1107429D01*
X683029Y1106328D02*
X680825Y1104124D01*
X680825Y1101921D01*
X681927Y1100820D01*
X684130Y1100820D01*
X685232Y1101921D01*
X685232Y1103023D01*
X684130Y1104124D01*
X680825Y1104124D01*
X572774Y897395D02*
X566164Y897395D01*
X566164Y900699D01*
X567265Y901801D01*
X569469Y901801D01*
X570570Y900699D01*
X570570Y897395D01*
X570570Y899598D02*
X572774Y901801D01*
X568367Y904879D02*
X566164Y907082D01*
X572774Y907082D01*
X572774Y904879D02*
X572774Y909285D01*
X566164Y912363D02*
X566164Y916769D01*
X567265Y916769D01*
X571672Y912363D01*
X572774Y912363D01*
X778800Y855860D02*
X778800Y843160D01*
X778800Y855860D02*
X785150Y862210D01*
X797850Y862210D01*
X804200Y855860D01*
X797850Y836810D02*
X785150Y836810D01*
X778800Y843160D01*
X797850Y836810D02*
X804200Y843160D01*
X804200Y855860D01*
X796009Y807093D02*
X787365Y807093D01*
X787365Y811415D01*
X788806Y812856D01*
X791687Y812856D01*
X793127Y811415D01*
X793127Y807093D01*
X793127Y809975D02*
X796009Y812856D01*
X787365Y820770D02*
X788806Y822211D01*
X787365Y820770D02*
X787365Y817889D01*
X788806Y816449D01*
X790246Y816449D01*
X791687Y817889D01*
X791687Y820770D01*
X793127Y822211D01*
X794568Y822211D01*
X796009Y820770D01*
X796009Y817889D01*
X794568Y816449D01*
X796009Y828685D02*
X787365Y828685D01*
X787365Y825804D02*
X787365Y831566D01*
X810550Y862210D02*
X823250Y862210D01*
X829600Y855860D01*
X829600Y843160D01*
X823250Y836810D01*
X804200Y843160D02*
X804200Y855860D01*
X810550Y862210D01*
X804200Y843160D02*
X810550Y836810D01*
X823250Y836810D01*
X821409Y797738D02*
X812765Y797738D01*
X812765Y802060D01*
X814206Y803500D01*
X815646Y803500D01*
X817087Y802060D01*
X818527Y803500D01*
X819968Y803500D01*
X821409Y802060D01*
X821409Y797738D01*
X817087Y797738D02*
X817087Y802060D01*
X815646Y807093D02*
X821409Y807093D01*
X815646Y807093D02*
X812765Y809975D01*
X815646Y812856D01*
X821409Y812856D01*
X817087Y812856D02*
X817087Y807093D01*
X821409Y819330D02*
X812765Y819330D01*
X812765Y816449D02*
X812765Y822211D01*
X817087Y825804D02*
X817087Y831566D01*
X845710Y200000D02*
X845720Y200842D01*
X845751Y201683D01*
X845803Y202523D01*
X845875Y203361D01*
X845968Y204197D01*
X846081Y205031D01*
X846215Y205862D01*
X846369Y206690D01*
X846543Y207513D01*
X846738Y208332D01*
X846952Y209146D01*
X847187Y209954D01*
X847441Y210756D01*
X847714Y211552D01*
X848008Y212341D01*
X848320Y213122D01*
X848652Y213896D01*
X849002Y214661D01*
X849371Y215417D01*
X849759Y216164D01*
X850165Y216901D01*
X850588Y217629D01*
X851030Y218345D01*
X851489Y219051D01*
X851965Y219744D01*
X852458Y220427D01*
X852968Y221096D01*
X853493Y221753D01*
X854035Y222397D01*
X854593Y223028D01*
X855166Y223644D01*
X855753Y224247D01*
X856356Y224834D01*
X856972Y225407D01*
X857603Y225965D01*
X858247Y226507D01*
X858904Y227032D01*
X859573Y227542D01*
X860256Y228035D01*
X860949Y228511D01*
X861655Y228970D01*
X862371Y229412D01*
X863099Y229835D01*
X863836Y230241D01*
X864583Y230629D01*
X865339Y230998D01*
X866104Y231348D01*
X866878Y231680D01*
X867659Y231992D01*
X868448Y232286D01*
X869244Y232559D01*
X870046Y232813D01*
X870854Y233048D01*
X871668Y233262D01*
X872487Y233457D01*
X873310Y233631D01*
X874138Y233785D01*
X874969Y233919D01*
X875803Y234032D01*
X876639Y234125D01*
X877477Y234197D01*
X878317Y234249D01*
X879158Y234280D01*
X880000Y234290D01*
X880842Y234280D01*
X881683Y234249D01*
X882523Y234197D01*
X883361Y234125D01*
X884197Y234032D01*
X885031Y233919D01*
X885862Y233785D01*
X886690Y233631D01*
X887513Y233457D01*
X888332Y233262D01*
X889146Y233048D01*
X889954Y232813D01*
X890756Y232559D01*
X891552Y232286D01*
X892341Y231992D01*
X893122Y231680D01*
X893896Y231348D01*
X894661Y230998D01*
X895417Y230629D01*
X896164Y230241D01*
X896901Y229835D01*
X897629Y229412D01*
X898345Y228970D01*
X899051Y228511D01*
X899744Y228035D01*
X900427Y227542D01*
X901096Y227032D01*
X901753Y226507D01*
X902397Y225965D01*
X903028Y225407D01*
X903644Y224834D01*
X904247Y224247D01*
X904834Y223644D01*
X905407Y223028D01*
X905965Y222397D01*
X906507Y221753D01*
X907032Y221096D01*
X907542Y220427D01*
X908035Y219744D01*
X908511Y219051D01*
X908970Y218345D01*
X909412Y217629D01*
X909835Y216901D01*
X910241Y216164D01*
X910629Y215417D01*
X910998Y214661D01*
X911348Y213896D01*
X911680Y213122D01*
X911992Y212341D01*
X912286Y211552D01*
X912559Y210756D01*
X912813Y209954D01*
X913048Y209146D01*
X913262Y208332D01*
X913457Y207513D01*
X913631Y206690D01*
X913785Y205862D01*
X913919Y205031D01*
X914032Y204197D01*
X914125Y203361D01*
X914197Y202523D01*
X914249Y201683D01*
X914280Y200842D01*
X914290Y200000D01*
X914280Y199158D01*
X914249Y198317D01*
X914197Y197477D01*
X914125Y196639D01*
X914032Y195803D01*
X913919Y194969D01*
X913785Y194138D01*
X913631Y193310D01*
X913457Y192487D01*
X913262Y191668D01*
X913048Y190854D01*
X912813Y190046D01*
X912559Y189244D01*
X912286Y188448D01*
X911992Y187659D01*
X911680Y186878D01*
X911348Y186104D01*
X910998Y185339D01*
X910629Y184583D01*
X910241Y183836D01*
X909835Y183099D01*
X909412Y182371D01*
X908970Y181655D01*
X908511Y180949D01*
X908035Y180256D01*
X907542Y179573D01*
X907032Y178904D01*
X906507Y178247D01*
X905965Y177603D01*
X905407Y176972D01*
X904834Y176356D01*
X904247Y175753D01*
X903644Y175166D01*
X903028Y174593D01*
X902397Y174035D01*
X901753Y173493D01*
X901096Y172968D01*
X900427Y172458D01*
X899744Y171965D01*
X899051Y171489D01*
X898345Y171030D01*
X897629Y170588D01*
X896901Y170165D01*
X896164Y169759D01*
X895417Y169371D01*
X894661Y169002D01*
X893896Y168652D01*
X893122Y168320D01*
X892341Y168008D01*
X891552Y167714D01*
X890756Y167441D01*
X889954Y167187D01*
X889146Y166952D01*
X888332Y166738D01*
X887513Y166543D01*
X886690Y166369D01*
X885862Y166215D01*
X885031Y166081D01*
X884197Y165968D01*
X883361Y165875D01*
X882523Y165803D01*
X881683Y165751D01*
X880842Y165720D01*
X880000Y165710D01*
X879158Y165720D01*
X878317Y165751D01*
X877477Y165803D01*
X876639Y165875D01*
X875803Y165968D01*
X874969Y166081D01*
X874138Y166215D01*
X873310Y166369D01*
X872487Y166543D01*
X871668Y166738D01*
X870854Y166952D01*
X870046Y167187D01*
X869244Y167441D01*
X868448Y167714D01*
X867659Y168008D01*
X866878Y168320D01*
X866104Y168652D01*
X865339Y169002D01*
X864583Y169371D01*
X863836Y169759D01*
X863099Y170165D01*
X862371Y170588D01*
X861655Y171030D01*
X860949Y171489D01*
X860256Y171965D01*
X859573Y172458D01*
X858904Y172968D01*
X858247Y173493D01*
X857603Y174035D01*
X856972Y174593D01*
X856356Y175166D01*
X855753Y175753D01*
X855166Y176356D01*
X854593Y176972D01*
X854035Y177603D01*
X853493Y178247D01*
X852968Y178904D01*
X852458Y179573D01*
X851965Y180256D01*
X851489Y180949D01*
X851030Y181655D01*
X850588Y182371D01*
X850165Y183099D01*
X849759Y183836D01*
X849371Y184583D01*
X849002Y185339D01*
X848652Y186104D01*
X848320Y186878D01*
X848008Y187659D01*
X847714Y188448D01*
X847441Y189244D01*
X847187Y190046D01*
X846952Y190854D01*
X846738Y191668D01*
X846543Y192487D01*
X846369Y193310D01*
X846215Y194138D01*
X846081Y194969D01*
X845968Y195803D01*
X845875Y196639D01*
X845803Y197477D01*
X845751Y198317D01*
X845720Y199158D01*
X845710Y200000D01*
D16*
X863000Y200000D02*
X863005Y200417D01*
X863020Y200834D01*
X863046Y201251D01*
X863082Y201666D01*
X863128Y202081D01*
X863184Y202494D01*
X863250Y202906D01*
X863327Y203317D01*
X863413Y203725D01*
X863509Y204131D01*
X863616Y204534D01*
X863732Y204935D01*
X863858Y205333D01*
X863994Y205727D01*
X864139Y206118D01*
X864294Y206506D01*
X864458Y206889D01*
X864632Y207268D01*
X864815Y207643D01*
X865007Y208014D01*
X865209Y208379D01*
X865419Y208740D01*
X865637Y209095D01*
X865865Y209445D01*
X866101Y209789D01*
X866345Y210127D01*
X866598Y210459D01*
X866859Y210785D01*
X867127Y211104D01*
X867404Y211417D01*
X867688Y211722D01*
X867979Y212021D01*
X868278Y212312D01*
X868583Y212596D01*
X868896Y212873D01*
X869215Y213141D01*
X869541Y213402D01*
X869873Y213655D01*
X870211Y213899D01*
X870555Y214135D01*
X870905Y214363D01*
X871260Y214581D01*
X871621Y214791D01*
X871986Y214993D01*
X872357Y215185D01*
X872732Y215368D01*
X873111Y215542D01*
X873494Y215706D01*
X873882Y215861D01*
X874273Y216006D01*
X874667Y216142D01*
X875065Y216268D01*
X875466Y216384D01*
X875869Y216491D01*
X876275Y216587D01*
X876683Y216673D01*
X877094Y216750D01*
X877506Y216816D01*
X877919Y216872D01*
X878334Y216918D01*
X878749Y216954D01*
X879166Y216980D01*
X879583Y216995D01*
X880000Y217000D01*
X880417Y216995D01*
X880834Y216980D01*
X881251Y216954D01*
X881666Y216918D01*
X882081Y216872D01*
X882494Y216816D01*
X882906Y216750D01*
X883317Y216673D01*
X883725Y216587D01*
X884131Y216491D01*
X884534Y216384D01*
X884935Y216268D01*
X885333Y216142D01*
X885727Y216006D01*
X886118Y215861D01*
X886506Y215706D01*
X886889Y215542D01*
X887268Y215368D01*
X887643Y215185D01*
X888014Y214993D01*
X888379Y214791D01*
X888740Y214581D01*
X889095Y214363D01*
X889445Y214135D01*
X889789Y213899D01*
X890127Y213655D01*
X890459Y213402D01*
X890785Y213141D01*
X891104Y212873D01*
X891417Y212596D01*
X891722Y212312D01*
X892021Y212021D01*
X892312Y211722D01*
X892596Y211417D01*
X892873Y211104D01*
X893141Y210785D01*
X893402Y210459D01*
X893655Y210127D01*
X893899Y209789D01*
X894135Y209445D01*
X894363Y209095D01*
X894581Y208740D01*
X894791Y208379D01*
X894993Y208014D01*
X895185Y207643D01*
X895368Y207268D01*
X895542Y206889D01*
X895706Y206506D01*
X895861Y206118D01*
X896006Y205727D01*
X896142Y205333D01*
X896268Y204935D01*
X896384Y204534D01*
X896491Y204131D01*
X896587Y203725D01*
X896673Y203317D01*
X896750Y202906D01*
X896816Y202494D01*
X896872Y202081D01*
X896918Y201666D01*
X896954Y201251D01*
X896980Y200834D01*
X896995Y200417D01*
X897000Y200000D01*
X896995Y199583D01*
X896980Y199166D01*
X896954Y198749D01*
X896918Y198334D01*
X896872Y197919D01*
X896816Y197506D01*
X896750Y197094D01*
X896673Y196683D01*
X896587Y196275D01*
X896491Y195869D01*
X896384Y195466D01*
X896268Y195065D01*
X896142Y194667D01*
X896006Y194273D01*
X895861Y193882D01*
X895706Y193494D01*
X895542Y193111D01*
X895368Y192732D01*
X895185Y192357D01*
X894993Y191986D01*
X894791Y191621D01*
X894581Y191260D01*
X894363Y190905D01*
X894135Y190555D01*
X893899Y190211D01*
X893655Y189873D01*
X893402Y189541D01*
X893141Y189215D01*
X892873Y188896D01*
X892596Y188583D01*
X892312Y188278D01*
X892021Y187979D01*
X891722Y187688D01*
X891417Y187404D01*
X891104Y187127D01*
X890785Y186859D01*
X890459Y186598D01*
X890127Y186345D01*
X889789Y186101D01*
X889445Y185865D01*
X889095Y185637D01*
X888740Y185419D01*
X888379Y185209D01*
X888014Y185007D01*
X887643Y184815D01*
X887268Y184632D01*
X886889Y184458D01*
X886506Y184294D01*
X886118Y184139D01*
X885727Y183994D01*
X885333Y183858D01*
X884935Y183732D01*
X884534Y183616D01*
X884131Y183509D01*
X883725Y183413D01*
X883317Y183327D01*
X882906Y183250D01*
X882494Y183184D01*
X882081Y183128D01*
X881666Y183082D01*
X881251Y183046D01*
X880834Y183020D01*
X880417Y183005D01*
X880000Y183000D01*
X879583Y183005D01*
X879166Y183020D01*
X878749Y183046D01*
X878334Y183082D01*
X877919Y183128D01*
X877506Y183184D01*
X877094Y183250D01*
X876683Y183327D01*
X876275Y183413D01*
X875869Y183509D01*
X875466Y183616D01*
X875065Y183732D01*
X874667Y183858D01*
X874273Y183994D01*
X873882Y184139D01*
X873494Y184294D01*
X873111Y184458D01*
X872732Y184632D01*
X872357Y184815D01*
X871986Y185007D01*
X871621Y185209D01*
X871260Y185419D01*
X870905Y185637D01*
X870555Y185865D01*
X870211Y186101D01*
X869873Y186345D01*
X869541Y186598D01*
X869215Y186859D01*
X868896Y187127D01*
X868583Y187404D01*
X868278Y187688D01*
X867979Y187979D01*
X867688Y188278D01*
X867404Y188583D01*
X867127Y188896D01*
X866859Y189215D01*
X866598Y189541D01*
X866345Y189873D01*
X866101Y190211D01*
X865865Y190555D01*
X865637Y190905D01*
X865419Y191260D01*
X865209Y191621D01*
X865007Y191986D01*
X864815Y192357D01*
X864632Y192732D01*
X864458Y193111D01*
X864294Y193494D01*
X864139Y193882D01*
X863994Y194273D01*
X863858Y194667D01*
X863732Y195065D01*
X863616Y195466D01*
X863509Y195869D01*
X863413Y196275D01*
X863327Y196683D01*
X863250Y197094D01*
X863184Y197506D01*
X863128Y197919D01*
X863082Y198334D01*
X863046Y198749D01*
X863020Y199166D01*
X863005Y199583D01*
X863000Y200000D01*
D12*
X165710Y200000D02*
X165720Y200842D01*
X165751Y201683D01*
X165803Y202523D01*
X165875Y203361D01*
X165968Y204197D01*
X166081Y205031D01*
X166215Y205862D01*
X166369Y206690D01*
X166543Y207513D01*
X166738Y208332D01*
X166952Y209146D01*
X167187Y209954D01*
X167441Y210756D01*
X167714Y211552D01*
X168008Y212341D01*
X168320Y213122D01*
X168652Y213896D01*
X169002Y214661D01*
X169371Y215417D01*
X169759Y216164D01*
X170165Y216901D01*
X170588Y217629D01*
X171030Y218345D01*
X171489Y219051D01*
X171965Y219744D01*
X172458Y220427D01*
X172968Y221096D01*
X173493Y221753D01*
X174035Y222397D01*
X174593Y223028D01*
X175166Y223644D01*
X175753Y224247D01*
X176356Y224834D01*
X176972Y225407D01*
X177603Y225965D01*
X178247Y226507D01*
X178904Y227032D01*
X179573Y227542D01*
X180256Y228035D01*
X180949Y228511D01*
X181655Y228970D01*
X182371Y229412D01*
X183099Y229835D01*
X183836Y230241D01*
X184583Y230629D01*
X185339Y230998D01*
X186104Y231348D01*
X186878Y231680D01*
X187659Y231992D01*
X188448Y232286D01*
X189244Y232559D01*
X190046Y232813D01*
X190854Y233048D01*
X191668Y233262D01*
X192487Y233457D01*
X193310Y233631D01*
X194138Y233785D01*
X194969Y233919D01*
X195803Y234032D01*
X196639Y234125D01*
X197477Y234197D01*
X198317Y234249D01*
X199158Y234280D01*
X200000Y234290D01*
X200842Y234280D01*
X201683Y234249D01*
X202523Y234197D01*
X203361Y234125D01*
X204197Y234032D01*
X205031Y233919D01*
X205862Y233785D01*
X206690Y233631D01*
X207513Y233457D01*
X208332Y233262D01*
X209146Y233048D01*
X209954Y232813D01*
X210756Y232559D01*
X211552Y232286D01*
X212341Y231992D01*
X213122Y231680D01*
X213896Y231348D01*
X214661Y230998D01*
X215417Y230629D01*
X216164Y230241D01*
X216901Y229835D01*
X217629Y229412D01*
X218345Y228970D01*
X219051Y228511D01*
X219744Y228035D01*
X220427Y227542D01*
X221096Y227032D01*
X221753Y226507D01*
X222397Y225965D01*
X223028Y225407D01*
X223644Y224834D01*
X224247Y224247D01*
X224834Y223644D01*
X225407Y223028D01*
X225965Y222397D01*
X226507Y221753D01*
X227032Y221096D01*
X227542Y220427D01*
X228035Y219744D01*
X228511Y219051D01*
X228970Y218345D01*
X229412Y217629D01*
X229835Y216901D01*
X230241Y216164D01*
X230629Y215417D01*
X230998Y214661D01*
X231348Y213896D01*
X231680Y213122D01*
X231992Y212341D01*
X232286Y211552D01*
X232559Y210756D01*
X232813Y209954D01*
X233048Y209146D01*
X233262Y208332D01*
X233457Y207513D01*
X233631Y206690D01*
X233785Y205862D01*
X233919Y205031D01*
X234032Y204197D01*
X234125Y203361D01*
X234197Y202523D01*
X234249Y201683D01*
X234280Y200842D01*
X234290Y200000D01*
X234280Y199158D01*
X234249Y198317D01*
X234197Y197477D01*
X234125Y196639D01*
X234032Y195803D01*
X233919Y194969D01*
X233785Y194138D01*
X233631Y193310D01*
X233457Y192487D01*
X233262Y191668D01*
X233048Y190854D01*
X232813Y190046D01*
X232559Y189244D01*
X232286Y188448D01*
X231992Y187659D01*
X231680Y186878D01*
X231348Y186104D01*
X230998Y185339D01*
X230629Y184583D01*
X230241Y183836D01*
X229835Y183099D01*
X229412Y182371D01*
X228970Y181655D01*
X228511Y180949D01*
X228035Y180256D01*
X227542Y179573D01*
X227032Y178904D01*
X226507Y178247D01*
X225965Y177603D01*
X225407Y176972D01*
X224834Y176356D01*
X224247Y175753D01*
X223644Y175166D01*
X223028Y174593D01*
X222397Y174035D01*
X221753Y173493D01*
X221096Y172968D01*
X220427Y172458D01*
X219744Y171965D01*
X219051Y171489D01*
X218345Y171030D01*
X217629Y170588D01*
X216901Y170165D01*
X216164Y169759D01*
X215417Y169371D01*
X214661Y169002D01*
X213896Y168652D01*
X213122Y168320D01*
X212341Y168008D01*
X211552Y167714D01*
X210756Y167441D01*
X209954Y167187D01*
X209146Y166952D01*
X208332Y166738D01*
X207513Y166543D01*
X206690Y166369D01*
X205862Y166215D01*
X205031Y166081D01*
X204197Y165968D01*
X203361Y165875D01*
X202523Y165803D01*
X201683Y165751D01*
X200842Y165720D01*
X200000Y165710D01*
X199158Y165720D01*
X198317Y165751D01*
X197477Y165803D01*
X196639Y165875D01*
X195803Y165968D01*
X194969Y166081D01*
X194138Y166215D01*
X193310Y166369D01*
X192487Y166543D01*
X191668Y166738D01*
X190854Y166952D01*
X190046Y167187D01*
X189244Y167441D01*
X188448Y167714D01*
X187659Y168008D01*
X186878Y168320D01*
X186104Y168652D01*
X185339Y169002D01*
X184583Y169371D01*
X183836Y169759D01*
X183099Y170165D01*
X182371Y170588D01*
X181655Y171030D01*
X180949Y171489D01*
X180256Y171965D01*
X179573Y172458D01*
X178904Y172968D01*
X178247Y173493D01*
X177603Y174035D01*
X176972Y174593D01*
X176356Y175166D01*
X175753Y175753D01*
X175166Y176356D01*
X174593Y176972D01*
X174035Y177603D01*
X173493Y178247D01*
X172968Y178904D01*
X172458Y179573D01*
X171965Y180256D01*
X171489Y180949D01*
X171030Y181655D01*
X170588Y182371D01*
X170165Y183099D01*
X169759Y183836D01*
X169371Y184583D01*
X169002Y185339D01*
X168652Y186104D01*
X168320Y186878D01*
X168008Y187659D01*
X167714Y188448D01*
X167441Y189244D01*
X167187Y190046D01*
X166952Y190854D01*
X166738Y191668D01*
X166543Y192487D01*
X166369Y193310D01*
X166215Y194138D01*
X166081Y194969D01*
X165968Y195803D01*
X165875Y196639D01*
X165803Y197477D01*
X165751Y198317D01*
X165720Y199158D01*
X165710Y200000D01*
D16*
X183000Y200000D02*
X183005Y200417D01*
X183020Y200834D01*
X183046Y201251D01*
X183082Y201666D01*
X183128Y202081D01*
X183184Y202494D01*
X183250Y202906D01*
X183327Y203317D01*
X183413Y203725D01*
X183509Y204131D01*
X183616Y204534D01*
X183732Y204935D01*
X183858Y205333D01*
X183994Y205727D01*
X184139Y206118D01*
X184294Y206506D01*
X184458Y206889D01*
X184632Y207268D01*
X184815Y207643D01*
X185007Y208014D01*
X185209Y208379D01*
X185419Y208740D01*
X185637Y209095D01*
X185865Y209445D01*
X186101Y209789D01*
X186345Y210127D01*
X186598Y210459D01*
X186859Y210785D01*
X187127Y211104D01*
X187404Y211417D01*
X187688Y211722D01*
X187979Y212021D01*
X188278Y212312D01*
X188583Y212596D01*
X188896Y212873D01*
X189215Y213141D01*
X189541Y213402D01*
X189873Y213655D01*
X190211Y213899D01*
X190555Y214135D01*
X190905Y214363D01*
X191260Y214581D01*
X191621Y214791D01*
X191986Y214993D01*
X192357Y215185D01*
X192732Y215368D01*
X193111Y215542D01*
X193494Y215706D01*
X193882Y215861D01*
X194273Y216006D01*
X194667Y216142D01*
X195065Y216268D01*
X195466Y216384D01*
X195869Y216491D01*
X196275Y216587D01*
X196683Y216673D01*
X197094Y216750D01*
X197506Y216816D01*
X197919Y216872D01*
X198334Y216918D01*
X198749Y216954D01*
X199166Y216980D01*
X199583Y216995D01*
X200000Y217000D01*
X200417Y216995D01*
X200834Y216980D01*
X201251Y216954D01*
X201666Y216918D01*
X202081Y216872D01*
X202494Y216816D01*
X202906Y216750D01*
X203317Y216673D01*
X203725Y216587D01*
X204131Y216491D01*
X204534Y216384D01*
X204935Y216268D01*
X205333Y216142D01*
X205727Y216006D01*
X206118Y215861D01*
X206506Y215706D01*
X206889Y215542D01*
X207268Y215368D01*
X207643Y215185D01*
X208014Y214993D01*
X208379Y214791D01*
X208740Y214581D01*
X209095Y214363D01*
X209445Y214135D01*
X209789Y213899D01*
X210127Y213655D01*
X210459Y213402D01*
X210785Y213141D01*
X211104Y212873D01*
X211417Y212596D01*
X211722Y212312D01*
X212021Y212021D01*
X212312Y211722D01*
X212596Y211417D01*
X212873Y211104D01*
X213141Y210785D01*
X213402Y210459D01*
X213655Y210127D01*
X213899Y209789D01*
X214135Y209445D01*
X214363Y209095D01*
X214581Y208740D01*
X214791Y208379D01*
X214993Y208014D01*
X215185Y207643D01*
X215368Y207268D01*
X215542Y206889D01*
X215706Y206506D01*
X215861Y206118D01*
X216006Y205727D01*
X216142Y205333D01*
X216268Y204935D01*
X216384Y204534D01*
X216491Y204131D01*
X216587Y203725D01*
X216673Y203317D01*
X216750Y202906D01*
X216816Y202494D01*
X216872Y202081D01*
X216918Y201666D01*
X216954Y201251D01*
X216980Y200834D01*
X216995Y200417D01*
X217000Y200000D01*
X216995Y199583D01*
X216980Y199166D01*
X216954Y198749D01*
X216918Y198334D01*
X216872Y197919D01*
X216816Y197506D01*
X216750Y197094D01*
X216673Y196683D01*
X216587Y196275D01*
X216491Y195869D01*
X216384Y195466D01*
X216268Y195065D01*
X216142Y194667D01*
X216006Y194273D01*
X215861Y193882D01*
X215706Y193494D01*
X215542Y193111D01*
X215368Y192732D01*
X215185Y192357D01*
X214993Y191986D01*
X214791Y191621D01*
X214581Y191260D01*
X214363Y190905D01*
X214135Y190555D01*
X213899Y190211D01*
X213655Y189873D01*
X213402Y189541D01*
X213141Y189215D01*
X212873Y188896D01*
X212596Y188583D01*
X212312Y188278D01*
X212021Y187979D01*
X211722Y187688D01*
X211417Y187404D01*
X211104Y187127D01*
X210785Y186859D01*
X210459Y186598D01*
X210127Y186345D01*
X209789Y186101D01*
X209445Y185865D01*
X209095Y185637D01*
X208740Y185419D01*
X208379Y185209D01*
X208014Y185007D01*
X207643Y184815D01*
X207268Y184632D01*
X206889Y184458D01*
X206506Y184294D01*
X206118Y184139D01*
X205727Y183994D01*
X205333Y183858D01*
X204935Y183732D01*
X204534Y183616D01*
X204131Y183509D01*
X203725Y183413D01*
X203317Y183327D01*
X202906Y183250D01*
X202494Y183184D01*
X202081Y183128D01*
X201666Y183082D01*
X201251Y183046D01*
X200834Y183020D01*
X200417Y183005D01*
X200000Y183000D01*
X199583Y183005D01*
X199166Y183020D01*
X198749Y183046D01*
X198334Y183082D01*
X197919Y183128D01*
X197506Y183184D01*
X197094Y183250D01*
X196683Y183327D01*
X196275Y183413D01*
X195869Y183509D01*
X195466Y183616D01*
X195065Y183732D01*
X194667Y183858D01*
X194273Y183994D01*
X193882Y184139D01*
X193494Y184294D01*
X193111Y184458D01*
X192732Y184632D01*
X192357Y184815D01*
X191986Y185007D01*
X191621Y185209D01*
X191260Y185419D01*
X190905Y185637D01*
X190555Y185865D01*
X190211Y186101D01*
X189873Y186345D01*
X189541Y186598D01*
X189215Y186859D01*
X188896Y187127D01*
X188583Y187404D01*
X188278Y187688D01*
X187979Y187979D01*
X187688Y188278D01*
X187404Y188583D01*
X187127Y188896D01*
X186859Y189215D01*
X186598Y189541D01*
X186345Y189873D01*
X186101Y190211D01*
X185865Y190555D01*
X185637Y190905D01*
X185419Y191260D01*
X185209Y191621D01*
X185007Y191986D01*
X184815Y192357D01*
X184632Y192732D01*
X184458Y193111D01*
X184294Y193494D01*
X184139Y193882D01*
X183994Y194273D01*
X183858Y194667D01*
X183732Y195065D01*
X183616Y195466D01*
X183509Y195869D01*
X183413Y196275D01*
X183327Y196683D01*
X183250Y197094D01*
X183184Y197506D01*
X183128Y197919D01*
X183082Y198334D01*
X183046Y198749D01*
X183020Y199166D01*
X183005Y199583D01*
X183000Y200000D01*
D12*
X845710Y600000D02*
X845720Y600842D01*
X845751Y601683D01*
X845803Y602523D01*
X845875Y603361D01*
X845968Y604197D01*
X846081Y605031D01*
X846215Y605862D01*
X846369Y606690D01*
X846543Y607513D01*
X846738Y608332D01*
X846952Y609146D01*
X847187Y609954D01*
X847441Y610756D01*
X847714Y611552D01*
X848008Y612341D01*
X848320Y613122D01*
X848652Y613896D01*
X849002Y614661D01*
X849371Y615417D01*
X849759Y616164D01*
X850165Y616901D01*
X850588Y617629D01*
X851030Y618345D01*
X851489Y619051D01*
X851965Y619744D01*
X852458Y620427D01*
X852968Y621096D01*
X853493Y621753D01*
X854035Y622397D01*
X854593Y623028D01*
X855166Y623644D01*
X855753Y624247D01*
X856356Y624834D01*
X856972Y625407D01*
X857603Y625965D01*
X858247Y626507D01*
X858904Y627032D01*
X859573Y627542D01*
X860256Y628035D01*
X860949Y628511D01*
X861655Y628970D01*
X862371Y629412D01*
X863099Y629835D01*
X863836Y630241D01*
X864583Y630629D01*
X865339Y630998D01*
X866104Y631348D01*
X866878Y631680D01*
X867659Y631992D01*
X868448Y632286D01*
X869244Y632559D01*
X870046Y632813D01*
X870854Y633048D01*
X871668Y633262D01*
X872487Y633457D01*
X873310Y633631D01*
X874138Y633785D01*
X874969Y633919D01*
X875803Y634032D01*
X876639Y634125D01*
X877477Y634197D01*
X878317Y634249D01*
X879158Y634280D01*
X880000Y634290D01*
X880842Y634280D01*
X881683Y634249D01*
X882523Y634197D01*
X883361Y634125D01*
X884197Y634032D01*
X885031Y633919D01*
X885862Y633785D01*
X886690Y633631D01*
X887513Y633457D01*
X888332Y633262D01*
X889146Y633048D01*
X889954Y632813D01*
X890756Y632559D01*
X891552Y632286D01*
X892341Y631992D01*
X893122Y631680D01*
X893896Y631348D01*
X894661Y630998D01*
X895417Y630629D01*
X896164Y630241D01*
X896901Y629835D01*
X897629Y629412D01*
X898345Y628970D01*
X899051Y628511D01*
X899744Y628035D01*
X900427Y627542D01*
X901096Y627032D01*
X901753Y626507D01*
X902397Y625965D01*
X903028Y625407D01*
X903644Y624834D01*
X904247Y624247D01*
X904834Y623644D01*
X905407Y623028D01*
X905965Y622397D01*
X906507Y621753D01*
X907032Y621096D01*
X907542Y620427D01*
X908035Y619744D01*
X908511Y619051D01*
X908970Y618345D01*
X909412Y617629D01*
X909835Y616901D01*
X910241Y616164D01*
X910629Y615417D01*
X910998Y614661D01*
X911348Y613896D01*
X911680Y613122D01*
X911992Y612341D01*
X912286Y611552D01*
X912559Y610756D01*
X912813Y609954D01*
X913048Y609146D01*
X913262Y608332D01*
X913457Y607513D01*
X913631Y606690D01*
X913785Y605862D01*
X913919Y605031D01*
X914032Y604197D01*
X914125Y603361D01*
X914197Y602523D01*
X914249Y601683D01*
X914280Y600842D01*
X914290Y600000D01*
X914280Y599158D01*
X914249Y598317D01*
X914197Y597477D01*
X914125Y596639D01*
X914032Y595803D01*
X913919Y594969D01*
X913785Y594138D01*
X913631Y593310D01*
X913457Y592487D01*
X913262Y591668D01*
X913048Y590854D01*
X912813Y590046D01*
X912559Y589244D01*
X912286Y588448D01*
X911992Y587659D01*
X911680Y586878D01*
X911348Y586104D01*
X910998Y585339D01*
X910629Y584583D01*
X910241Y583836D01*
X909835Y583099D01*
X909412Y582371D01*
X908970Y581655D01*
X908511Y580949D01*
X908035Y580256D01*
X907542Y579573D01*
X907032Y578904D01*
X906507Y578247D01*
X905965Y577603D01*
X905407Y576972D01*
X904834Y576356D01*
X904247Y575753D01*
X903644Y575166D01*
X903028Y574593D01*
X902397Y574035D01*
X901753Y573493D01*
X901096Y572968D01*
X900427Y572458D01*
X899744Y571965D01*
X899051Y571489D01*
X898345Y571030D01*
X897629Y570588D01*
X896901Y570165D01*
X896164Y569759D01*
X895417Y569371D01*
X894661Y569002D01*
X893896Y568652D01*
X893122Y568320D01*
X892341Y568008D01*
X891552Y567714D01*
X890756Y567441D01*
X889954Y567187D01*
X889146Y566952D01*
X888332Y566738D01*
X887513Y566543D01*
X886690Y566369D01*
X885862Y566215D01*
X885031Y566081D01*
X884197Y565968D01*
X883361Y565875D01*
X882523Y565803D01*
X881683Y565751D01*
X880842Y565720D01*
X880000Y565710D01*
X879158Y565720D01*
X878317Y565751D01*
X877477Y565803D01*
X876639Y565875D01*
X875803Y565968D01*
X874969Y566081D01*
X874138Y566215D01*
X873310Y566369D01*
X872487Y566543D01*
X871668Y566738D01*
X870854Y566952D01*
X870046Y567187D01*
X869244Y567441D01*
X868448Y567714D01*
X867659Y568008D01*
X866878Y568320D01*
X866104Y568652D01*
X865339Y569002D01*
X864583Y569371D01*
X863836Y569759D01*
X863099Y570165D01*
X862371Y570588D01*
X861655Y571030D01*
X860949Y571489D01*
X860256Y571965D01*
X859573Y572458D01*
X858904Y572968D01*
X858247Y573493D01*
X857603Y574035D01*
X856972Y574593D01*
X856356Y575166D01*
X855753Y575753D01*
X855166Y576356D01*
X854593Y576972D01*
X854035Y577603D01*
X853493Y578247D01*
X852968Y578904D01*
X852458Y579573D01*
X851965Y580256D01*
X851489Y580949D01*
X851030Y581655D01*
X850588Y582371D01*
X850165Y583099D01*
X849759Y583836D01*
X849371Y584583D01*
X849002Y585339D01*
X848652Y586104D01*
X848320Y586878D01*
X848008Y587659D01*
X847714Y588448D01*
X847441Y589244D01*
X847187Y590046D01*
X846952Y590854D01*
X846738Y591668D01*
X846543Y592487D01*
X846369Y593310D01*
X846215Y594138D01*
X846081Y594969D01*
X845968Y595803D01*
X845875Y596639D01*
X845803Y597477D01*
X845751Y598317D01*
X845720Y599158D01*
X845710Y600000D01*
D16*
X863000Y600000D02*
X863005Y600417D01*
X863020Y600834D01*
X863046Y601251D01*
X863082Y601666D01*
X863128Y602081D01*
X863184Y602494D01*
X863250Y602906D01*
X863327Y603317D01*
X863413Y603725D01*
X863509Y604131D01*
X863616Y604534D01*
X863732Y604935D01*
X863858Y605333D01*
X863994Y605727D01*
X864139Y606118D01*
X864294Y606506D01*
X864458Y606889D01*
X864632Y607268D01*
X864815Y607643D01*
X865007Y608014D01*
X865209Y608379D01*
X865419Y608740D01*
X865637Y609095D01*
X865865Y609445D01*
X866101Y609789D01*
X866345Y610127D01*
X866598Y610459D01*
X866859Y610785D01*
X867127Y611104D01*
X867404Y611417D01*
X867688Y611722D01*
X867979Y612021D01*
X868278Y612312D01*
X868583Y612596D01*
X868896Y612873D01*
X869215Y613141D01*
X869541Y613402D01*
X869873Y613655D01*
X870211Y613899D01*
X870555Y614135D01*
X870905Y614363D01*
X871260Y614581D01*
X871621Y614791D01*
X871986Y614993D01*
X872357Y615185D01*
X872732Y615368D01*
X873111Y615542D01*
X873494Y615706D01*
X873882Y615861D01*
X874273Y616006D01*
X874667Y616142D01*
X875065Y616268D01*
X875466Y616384D01*
X875869Y616491D01*
X876275Y616587D01*
X876683Y616673D01*
X877094Y616750D01*
X877506Y616816D01*
X877919Y616872D01*
X878334Y616918D01*
X878749Y616954D01*
X879166Y616980D01*
X879583Y616995D01*
X880000Y617000D01*
X880417Y616995D01*
X880834Y616980D01*
X881251Y616954D01*
X881666Y616918D01*
X882081Y616872D01*
X882494Y616816D01*
X882906Y616750D01*
X883317Y616673D01*
X883725Y616587D01*
X884131Y616491D01*
X884534Y616384D01*
X884935Y616268D01*
X885333Y616142D01*
X885727Y616006D01*
X886118Y615861D01*
X886506Y615706D01*
X886889Y615542D01*
X887268Y615368D01*
X887643Y615185D01*
X888014Y614993D01*
X888379Y614791D01*
X888740Y614581D01*
X889095Y614363D01*
X889445Y614135D01*
X889789Y613899D01*
X890127Y613655D01*
X890459Y613402D01*
X890785Y613141D01*
X891104Y612873D01*
X891417Y612596D01*
X891722Y612312D01*
X892021Y612021D01*
X892312Y611722D01*
X892596Y611417D01*
X892873Y611104D01*
X893141Y610785D01*
X893402Y610459D01*
X893655Y610127D01*
X893899Y609789D01*
X894135Y609445D01*
X894363Y609095D01*
X894581Y608740D01*
X894791Y608379D01*
X894993Y608014D01*
X895185Y607643D01*
X895368Y607268D01*
X895542Y606889D01*
X895706Y606506D01*
X895861Y606118D01*
X896006Y605727D01*
X896142Y605333D01*
X896268Y604935D01*
X896384Y604534D01*
X896491Y604131D01*
X896587Y603725D01*
X896673Y603317D01*
X896750Y602906D01*
X896816Y602494D01*
X896872Y602081D01*
X896918Y601666D01*
X896954Y601251D01*
X896980Y600834D01*
X896995Y600417D01*
X897000Y600000D01*
X896995Y599583D01*
X896980Y599166D01*
X896954Y598749D01*
X896918Y598334D01*
X896872Y597919D01*
X896816Y597506D01*
X896750Y597094D01*
X896673Y596683D01*
X896587Y596275D01*
X896491Y595869D01*
X896384Y595466D01*
X896268Y595065D01*
X896142Y594667D01*
X896006Y594273D01*
X895861Y593882D01*
X895706Y593494D01*
X895542Y593111D01*
X895368Y592732D01*
X895185Y592357D01*
X894993Y591986D01*
X894791Y591621D01*
X894581Y591260D01*
X894363Y590905D01*
X894135Y590555D01*
X893899Y590211D01*
X893655Y589873D01*
X893402Y589541D01*
X893141Y589215D01*
X892873Y588896D01*
X892596Y588583D01*
X892312Y588278D01*
X892021Y587979D01*
X891722Y587688D01*
X891417Y587404D01*
X891104Y587127D01*
X890785Y586859D01*
X890459Y586598D01*
X890127Y586345D01*
X889789Y586101D01*
X889445Y585865D01*
X889095Y585637D01*
X888740Y585419D01*
X888379Y585209D01*
X888014Y585007D01*
X887643Y584815D01*
X887268Y584632D01*
X886889Y584458D01*
X886506Y584294D01*
X886118Y584139D01*
X885727Y583994D01*
X885333Y583858D01*
X884935Y583732D01*
X884534Y583616D01*
X884131Y583509D01*
X883725Y583413D01*
X883317Y583327D01*
X882906Y583250D01*
X882494Y583184D01*
X882081Y583128D01*
X881666Y583082D01*
X881251Y583046D01*
X880834Y583020D01*
X880417Y583005D01*
X880000Y583000D01*
X879583Y583005D01*
X879166Y583020D01*
X878749Y583046D01*
X878334Y583082D01*
X877919Y583128D01*
X877506Y583184D01*
X877094Y583250D01*
X876683Y583327D01*
X876275Y583413D01*
X875869Y583509D01*
X875466Y583616D01*
X875065Y583732D01*
X874667Y583858D01*
X874273Y583994D01*
X873882Y584139D01*
X873494Y584294D01*
X873111Y584458D01*
X872732Y584632D01*
X872357Y584815D01*
X871986Y585007D01*
X871621Y585209D01*
X871260Y585419D01*
X870905Y585637D01*
X870555Y585865D01*
X870211Y586101D01*
X869873Y586345D01*
X869541Y586598D01*
X869215Y586859D01*
X868896Y587127D01*
X868583Y587404D01*
X868278Y587688D01*
X867979Y587979D01*
X867688Y588278D01*
X867404Y588583D01*
X867127Y588896D01*
X866859Y589215D01*
X866598Y589541D01*
X866345Y589873D01*
X866101Y590211D01*
X865865Y590555D01*
X865637Y590905D01*
X865419Y591260D01*
X865209Y591621D01*
X865007Y591986D01*
X864815Y592357D01*
X864632Y592732D01*
X864458Y593111D01*
X864294Y593494D01*
X864139Y593882D01*
X863994Y594273D01*
X863858Y594667D01*
X863732Y595065D01*
X863616Y595466D01*
X863509Y595869D01*
X863413Y596275D01*
X863327Y596683D01*
X863250Y597094D01*
X863184Y597506D01*
X863128Y597919D01*
X863082Y598334D01*
X863046Y598749D01*
X863020Y599166D01*
X863005Y599583D01*
X863000Y600000D01*
D12*
X165710Y600000D02*
X165720Y600842D01*
X165751Y601683D01*
X165803Y602523D01*
X165875Y603361D01*
X165968Y604197D01*
X166081Y605031D01*
X166215Y605862D01*
X166369Y606690D01*
X166543Y607513D01*
X166738Y608332D01*
X166952Y609146D01*
X167187Y609954D01*
X167441Y610756D01*
X167714Y611552D01*
X168008Y612341D01*
X168320Y613122D01*
X168652Y613896D01*
X169002Y614661D01*
X169371Y615417D01*
X169759Y616164D01*
X170165Y616901D01*
X170588Y617629D01*
X171030Y618345D01*
X171489Y619051D01*
X171965Y619744D01*
X172458Y620427D01*
X172968Y621096D01*
X173493Y621753D01*
X174035Y622397D01*
X174593Y623028D01*
X175166Y623644D01*
X175753Y624247D01*
X176356Y624834D01*
X176972Y625407D01*
X177603Y625965D01*
X178247Y626507D01*
X178904Y627032D01*
X179573Y627542D01*
X180256Y628035D01*
X180949Y628511D01*
X181655Y628970D01*
X182371Y629412D01*
X183099Y629835D01*
X183836Y630241D01*
X184583Y630629D01*
X185339Y630998D01*
X186104Y631348D01*
X186878Y631680D01*
X187659Y631992D01*
X188448Y632286D01*
X189244Y632559D01*
X190046Y632813D01*
X190854Y633048D01*
X191668Y633262D01*
X192487Y633457D01*
X193310Y633631D01*
X194138Y633785D01*
X194969Y633919D01*
X195803Y634032D01*
X196639Y634125D01*
X197477Y634197D01*
X198317Y634249D01*
X199158Y634280D01*
X200000Y634290D01*
X200842Y634280D01*
X201683Y634249D01*
X202523Y634197D01*
X203361Y634125D01*
X204197Y634032D01*
X205031Y633919D01*
X205862Y633785D01*
X206690Y633631D01*
X207513Y633457D01*
X208332Y633262D01*
X209146Y633048D01*
X209954Y632813D01*
X210756Y632559D01*
X211552Y632286D01*
X212341Y631992D01*
X213122Y631680D01*
X213896Y631348D01*
X214661Y630998D01*
X215417Y630629D01*
X216164Y630241D01*
X216901Y629835D01*
X217629Y629412D01*
X218345Y628970D01*
X219051Y628511D01*
X219744Y628035D01*
X220427Y627542D01*
X221096Y627032D01*
X221753Y626507D01*
X222397Y625965D01*
X223028Y625407D01*
X223644Y624834D01*
X224247Y624247D01*
X224834Y623644D01*
X225407Y623028D01*
X225965Y622397D01*
X226507Y621753D01*
X227032Y621096D01*
X227542Y620427D01*
X228035Y619744D01*
X228511Y619051D01*
X228970Y618345D01*
X229412Y617629D01*
X229835Y616901D01*
X230241Y616164D01*
X230629Y615417D01*
X230998Y614661D01*
X231348Y613896D01*
X231680Y613122D01*
X231992Y612341D01*
X232286Y611552D01*
X232559Y610756D01*
X232813Y609954D01*
X233048Y609146D01*
X233262Y608332D01*
X233457Y607513D01*
X233631Y606690D01*
X233785Y605862D01*
X233919Y605031D01*
X234032Y604197D01*
X234125Y603361D01*
X234197Y602523D01*
X234249Y601683D01*
X234280Y600842D01*
X234290Y600000D01*
X234280Y599158D01*
X234249Y598317D01*
X234197Y597477D01*
X234125Y596639D01*
X234032Y595803D01*
X233919Y594969D01*
X233785Y594138D01*
X233631Y593310D01*
X233457Y592487D01*
X233262Y591668D01*
X233048Y590854D01*
X232813Y590046D01*
X232559Y589244D01*
X232286Y588448D01*
X231992Y587659D01*
X231680Y586878D01*
X231348Y586104D01*
X230998Y585339D01*
X230629Y584583D01*
X230241Y583836D01*
X229835Y583099D01*
X229412Y582371D01*
X228970Y581655D01*
X228511Y580949D01*
X228035Y580256D01*
X227542Y579573D01*
X227032Y578904D01*
X226507Y578247D01*
X225965Y577603D01*
X225407Y576972D01*
X224834Y576356D01*
X224247Y575753D01*
X223644Y575166D01*
X223028Y574593D01*
X222397Y574035D01*
X221753Y573493D01*
X221096Y572968D01*
X220427Y572458D01*
X219744Y571965D01*
X219051Y571489D01*
X218345Y571030D01*
X217629Y570588D01*
X216901Y570165D01*
X216164Y569759D01*
X215417Y569371D01*
X214661Y569002D01*
X213896Y568652D01*
X213122Y568320D01*
X212341Y568008D01*
X211552Y567714D01*
X210756Y567441D01*
X209954Y567187D01*
X209146Y566952D01*
X208332Y566738D01*
X207513Y566543D01*
X206690Y566369D01*
X205862Y566215D01*
X205031Y566081D01*
X204197Y565968D01*
X203361Y565875D01*
X202523Y565803D01*
X201683Y565751D01*
X200842Y565720D01*
X200000Y565710D01*
X199158Y565720D01*
X198317Y565751D01*
X197477Y565803D01*
X196639Y565875D01*
X195803Y565968D01*
X194969Y566081D01*
X194138Y566215D01*
X193310Y566369D01*
X192487Y566543D01*
X191668Y566738D01*
X190854Y566952D01*
X190046Y567187D01*
X189244Y567441D01*
X188448Y567714D01*
X187659Y568008D01*
X186878Y568320D01*
X186104Y568652D01*
X185339Y569002D01*
X184583Y569371D01*
X183836Y569759D01*
X183099Y570165D01*
X182371Y570588D01*
X181655Y571030D01*
X180949Y571489D01*
X180256Y571965D01*
X179573Y572458D01*
X178904Y572968D01*
X178247Y573493D01*
X177603Y574035D01*
X176972Y574593D01*
X176356Y575166D01*
X175753Y575753D01*
X175166Y576356D01*
X174593Y576972D01*
X174035Y577603D01*
X173493Y578247D01*
X172968Y578904D01*
X172458Y579573D01*
X171965Y580256D01*
X171489Y580949D01*
X171030Y581655D01*
X170588Y582371D01*
X170165Y583099D01*
X169759Y583836D01*
X169371Y584583D01*
X169002Y585339D01*
X168652Y586104D01*
X168320Y586878D01*
X168008Y587659D01*
X167714Y588448D01*
X167441Y589244D01*
X167187Y590046D01*
X166952Y590854D01*
X166738Y591668D01*
X166543Y592487D01*
X166369Y593310D01*
X166215Y594138D01*
X166081Y594969D01*
X165968Y595803D01*
X165875Y596639D01*
X165803Y597477D01*
X165751Y598317D01*
X165720Y599158D01*
X165710Y600000D01*
D16*
X183000Y600000D02*
X183005Y600417D01*
X183020Y600834D01*
X183046Y601251D01*
X183082Y601666D01*
X183128Y602081D01*
X183184Y602494D01*
X183250Y602906D01*
X183327Y603317D01*
X183413Y603725D01*
X183509Y604131D01*
X183616Y604534D01*
X183732Y604935D01*
X183858Y605333D01*
X183994Y605727D01*
X184139Y606118D01*
X184294Y606506D01*
X184458Y606889D01*
X184632Y607268D01*
X184815Y607643D01*
X185007Y608014D01*
X185209Y608379D01*
X185419Y608740D01*
X185637Y609095D01*
X185865Y609445D01*
X186101Y609789D01*
X186345Y610127D01*
X186598Y610459D01*
X186859Y610785D01*
X187127Y611104D01*
X187404Y611417D01*
X187688Y611722D01*
X187979Y612021D01*
X188278Y612312D01*
X188583Y612596D01*
X188896Y612873D01*
X189215Y613141D01*
X189541Y613402D01*
X189873Y613655D01*
X190211Y613899D01*
X190555Y614135D01*
X190905Y614363D01*
X191260Y614581D01*
X191621Y614791D01*
X191986Y614993D01*
X192357Y615185D01*
X192732Y615368D01*
X193111Y615542D01*
X193494Y615706D01*
X193882Y615861D01*
X194273Y616006D01*
X194667Y616142D01*
X195065Y616268D01*
X195466Y616384D01*
X195869Y616491D01*
X196275Y616587D01*
X196683Y616673D01*
X197094Y616750D01*
X197506Y616816D01*
X197919Y616872D01*
X198334Y616918D01*
X198749Y616954D01*
X199166Y616980D01*
X199583Y616995D01*
X200000Y617000D01*
X200417Y616995D01*
X200834Y616980D01*
X201251Y616954D01*
X201666Y616918D01*
X202081Y616872D01*
X202494Y616816D01*
X202906Y616750D01*
X203317Y616673D01*
X203725Y616587D01*
X204131Y616491D01*
X204534Y616384D01*
X204935Y616268D01*
X205333Y616142D01*
X205727Y616006D01*
X206118Y615861D01*
X206506Y615706D01*
X206889Y615542D01*
X207268Y615368D01*
X207643Y615185D01*
X208014Y614993D01*
X208379Y614791D01*
X208740Y614581D01*
X209095Y614363D01*
X209445Y614135D01*
X209789Y613899D01*
X210127Y613655D01*
X210459Y613402D01*
X210785Y613141D01*
X211104Y612873D01*
X211417Y612596D01*
X211722Y612312D01*
X212021Y612021D01*
X212312Y611722D01*
X212596Y611417D01*
X212873Y611104D01*
X213141Y610785D01*
X213402Y610459D01*
X213655Y610127D01*
X213899Y609789D01*
X214135Y609445D01*
X214363Y609095D01*
X214581Y608740D01*
X214791Y608379D01*
X214993Y608014D01*
X215185Y607643D01*
X215368Y607268D01*
X215542Y606889D01*
X215706Y606506D01*
X215861Y606118D01*
X216006Y605727D01*
X216142Y605333D01*
X216268Y604935D01*
X216384Y604534D01*
X216491Y604131D01*
X216587Y603725D01*
X216673Y603317D01*
X216750Y602906D01*
X216816Y602494D01*
X216872Y602081D01*
X216918Y601666D01*
X216954Y601251D01*
X216980Y600834D01*
X216995Y600417D01*
X217000Y600000D01*
X216995Y599583D01*
X216980Y599166D01*
X216954Y598749D01*
X216918Y598334D01*
X216872Y597919D01*
X216816Y597506D01*
X216750Y597094D01*
X216673Y596683D01*
X216587Y596275D01*
X216491Y595869D01*
X216384Y595466D01*
X216268Y595065D01*
X216142Y594667D01*
X216006Y594273D01*
X215861Y593882D01*
X215706Y593494D01*
X215542Y593111D01*
X215368Y592732D01*
X215185Y592357D01*
X214993Y591986D01*
X214791Y591621D01*
X214581Y591260D01*
X214363Y590905D01*
X214135Y590555D01*
X213899Y590211D01*
X213655Y589873D01*
X213402Y589541D01*
X213141Y589215D01*
X212873Y588896D01*
X212596Y588583D01*
X212312Y588278D01*
X212021Y587979D01*
X211722Y587688D01*
X211417Y587404D01*
X211104Y587127D01*
X210785Y586859D01*
X210459Y586598D01*
X210127Y586345D01*
X209789Y586101D01*
X209445Y585865D01*
X209095Y585637D01*
X208740Y585419D01*
X208379Y585209D01*
X208014Y585007D01*
X207643Y584815D01*
X207268Y584632D01*
X206889Y584458D01*
X206506Y584294D01*
X206118Y584139D01*
X205727Y583994D01*
X205333Y583858D01*
X204935Y583732D01*
X204534Y583616D01*
X204131Y583509D01*
X203725Y583413D01*
X203317Y583327D01*
X202906Y583250D01*
X202494Y583184D01*
X202081Y583128D01*
X201666Y583082D01*
X201251Y583046D01*
X200834Y583020D01*
X200417Y583005D01*
X200000Y583000D01*
X199583Y583005D01*
X199166Y583020D01*
X198749Y583046D01*
X198334Y583082D01*
X197919Y583128D01*
X197506Y583184D01*
X197094Y583250D01*
X196683Y583327D01*
X196275Y583413D01*
X195869Y583509D01*
X195466Y583616D01*
X195065Y583732D01*
X194667Y583858D01*
X194273Y583994D01*
X193882Y584139D01*
X193494Y584294D01*
X193111Y584458D01*
X192732Y584632D01*
X192357Y584815D01*
X191986Y585007D01*
X191621Y585209D01*
X191260Y585419D01*
X190905Y585637D01*
X190555Y585865D01*
X190211Y586101D01*
X189873Y586345D01*
X189541Y586598D01*
X189215Y586859D01*
X188896Y587127D01*
X188583Y587404D01*
X188278Y587688D01*
X187979Y587979D01*
X187688Y588278D01*
X187404Y588583D01*
X187127Y588896D01*
X186859Y589215D01*
X186598Y589541D01*
X186345Y589873D01*
X186101Y590211D01*
X185865Y590555D01*
X185637Y590905D01*
X185419Y591260D01*
X185209Y591621D01*
X185007Y591986D01*
X184815Y592357D01*
X184632Y592732D01*
X184458Y593111D01*
X184294Y593494D01*
X184139Y593882D01*
X183994Y594273D01*
X183858Y594667D01*
X183732Y595065D01*
X183616Y595466D01*
X183509Y595869D01*
X183413Y596275D01*
X183327Y596683D01*
X183250Y597094D01*
X183184Y597506D01*
X183128Y597919D01*
X183082Y598334D01*
X183046Y598749D01*
X183020Y599166D01*
X183005Y599583D01*
X183000Y600000D01*
D12*
X845710Y1250000D02*
X845720Y1250842D01*
X845751Y1251683D01*
X845803Y1252523D01*
X845875Y1253361D01*
X845968Y1254197D01*
X846081Y1255031D01*
X846215Y1255862D01*
X846369Y1256690D01*
X846543Y1257513D01*
X846738Y1258332D01*
X846952Y1259146D01*
X847187Y1259954D01*
X847441Y1260756D01*
X847714Y1261552D01*
X848008Y1262341D01*
X848320Y1263122D01*
X848652Y1263896D01*
X849002Y1264661D01*
X849371Y1265417D01*
X849759Y1266164D01*
X850165Y1266901D01*
X850588Y1267629D01*
X851030Y1268345D01*
X851489Y1269051D01*
X851965Y1269744D01*
X852458Y1270427D01*
X852968Y1271096D01*
X853493Y1271753D01*
X854035Y1272397D01*
X854593Y1273028D01*
X855166Y1273644D01*
X855753Y1274247D01*
X856356Y1274834D01*
X856972Y1275407D01*
X857603Y1275965D01*
X858247Y1276507D01*
X858904Y1277032D01*
X859573Y1277542D01*
X860256Y1278035D01*
X860949Y1278511D01*
X861655Y1278970D01*
X862371Y1279412D01*
X863099Y1279835D01*
X863836Y1280241D01*
X864583Y1280629D01*
X865339Y1280998D01*
X866104Y1281348D01*
X866878Y1281680D01*
X867659Y1281992D01*
X868448Y1282286D01*
X869244Y1282559D01*
X870046Y1282813D01*
X870854Y1283048D01*
X871668Y1283262D01*
X872487Y1283457D01*
X873310Y1283631D01*
X874138Y1283785D01*
X874969Y1283919D01*
X875803Y1284032D01*
X876639Y1284125D01*
X877477Y1284197D01*
X878317Y1284249D01*
X879158Y1284280D01*
X880000Y1284290D01*
X880842Y1284280D01*
X881683Y1284249D01*
X882523Y1284197D01*
X883361Y1284125D01*
X884197Y1284032D01*
X885031Y1283919D01*
X885862Y1283785D01*
X886690Y1283631D01*
X887513Y1283457D01*
X888332Y1283262D01*
X889146Y1283048D01*
X889954Y1282813D01*
X890756Y1282559D01*
X891552Y1282286D01*
X892341Y1281992D01*
X893122Y1281680D01*
X893896Y1281348D01*
X894661Y1280998D01*
X895417Y1280629D01*
X896164Y1280241D01*
X896901Y1279835D01*
X897629Y1279412D01*
X898345Y1278970D01*
X899051Y1278511D01*
X899744Y1278035D01*
X900427Y1277542D01*
X901096Y1277032D01*
X901753Y1276507D01*
X902397Y1275965D01*
X903028Y1275407D01*
X903644Y1274834D01*
X904247Y1274247D01*
X904834Y1273644D01*
X905407Y1273028D01*
X905965Y1272397D01*
X906507Y1271753D01*
X907032Y1271096D01*
X907542Y1270427D01*
X908035Y1269744D01*
X908511Y1269051D01*
X908970Y1268345D01*
X909412Y1267629D01*
X909835Y1266901D01*
X910241Y1266164D01*
X910629Y1265417D01*
X910998Y1264661D01*
X911348Y1263896D01*
X911680Y1263122D01*
X911992Y1262341D01*
X912286Y1261552D01*
X912559Y1260756D01*
X912813Y1259954D01*
X913048Y1259146D01*
X913262Y1258332D01*
X913457Y1257513D01*
X913631Y1256690D01*
X913785Y1255862D01*
X913919Y1255031D01*
X914032Y1254197D01*
X914125Y1253361D01*
X914197Y1252523D01*
X914249Y1251683D01*
X914280Y1250842D01*
X914290Y1250000D01*
X914280Y1249158D01*
X914249Y1248317D01*
X914197Y1247477D01*
X914125Y1246639D01*
X914032Y1245803D01*
X913919Y1244969D01*
X913785Y1244138D01*
X913631Y1243310D01*
X913457Y1242487D01*
X913262Y1241668D01*
X913048Y1240854D01*
X912813Y1240046D01*
X912559Y1239244D01*
X912286Y1238448D01*
X911992Y1237659D01*
X911680Y1236878D01*
X911348Y1236104D01*
X910998Y1235339D01*
X910629Y1234583D01*
X910241Y1233836D01*
X909835Y1233099D01*
X909412Y1232371D01*
X908970Y1231655D01*
X908511Y1230949D01*
X908035Y1230256D01*
X907542Y1229573D01*
X907032Y1228904D01*
X906507Y1228247D01*
X905965Y1227603D01*
X905407Y1226972D01*
X904834Y1226356D01*
X904247Y1225753D01*
X903644Y1225166D01*
X903028Y1224593D01*
X902397Y1224035D01*
X901753Y1223493D01*
X901096Y1222968D01*
X900427Y1222458D01*
X899744Y1221965D01*
X899051Y1221489D01*
X898345Y1221030D01*
X897629Y1220588D01*
X896901Y1220165D01*
X896164Y1219759D01*
X895417Y1219371D01*
X894661Y1219002D01*
X893896Y1218652D01*
X893122Y1218320D01*
X892341Y1218008D01*
X891552Y1217714D01*
X890756Y1217441D01*
X889954Y1217187D01*
X889146Y1216952D01*
X888332Y1216738D01*
X887513Y1216543D01*
X886690Y1216369D01*
X885862Y1216215D01*
X885031Y1216081D01*
X884197Y1215968D01*
X883361Y1215875D01*
X882523Y1215803D01*
X881683Y1215751D01*
X880842Y1215720D01*
X880000Y1215710D01*
X879158Y1215720D01*
X878317Y1215751D01*
X877477Y1215803D01*
X876639Y1215875D01*
X875803Y1215968D01*
X874969Y1216081D01*
X874138Y1216215D01*
X873310Y1216369D01*
X872487Y1216543D01*
X871668Y1216738D01*
X870854Y1216952D01*
X870046Y1217187D01*
X869244Y1217441D01*
X868448Y1217714D01*
X867659Y1218008D01*
X866878Y1218320D01*
X866104Y1218652D01*
X865339Y1219002D01*
X864583Y1219371D01*
X863836Y1219759D01*
X863099Y1220165D01*
X862371Y1220588D01*
X861655Y1221030D01*
X860949Y1221489D01*
X860256Y1221965D01*
X859573Y1222458D01*
X858904Y1222968D01*
X858247Y1223493D01*
X857603Y1224035D01*
X856972Y1224593D01*
X856356Y1225166D01*
X855753Y1225753D01*
X855166Y1226356D01*
X854593Y1226972D01*
X854035Y1227603D01*
X853493Y1228247D01*
X852968Y1228904D01*
X852458Y1229573D01*
X851965Y1230256D01*
X851489Y1230949D01*
X851030Y1231655D01*
X850588Y1232371D01*
X850165Y1233099D01*
X849759Y1233836D01*
X849371Y1234583D01*
X849002Y1235339D01*
X848652Y1236104D01*
X848320Y1236878D01*
X848008Y1237659D01*
X847714Y1238448D01*
X847441Y1239244D01*
X847187Y1240046D01*
X846952Y1240854D01*
X846738Y1241668D01*
X846543Y1242487D01*
X846369Y1243310D01*
X846215Y1244138D01*
X846081Y1244969D01*
X845968Y1245803D01*
X845875Y1246639D01*
X845803Y1247477D01*
X845751Y1248317D01*
X845720Y1249158D01*
X845710Y1250000D01*
D16*
X863000Y1250000D02*
X863005Y1250417D01*
X863020Y1250834D01*
X863046Y1251251D01*
X863082Y1251666D01*
X863128Y1252081D01*
X863184Y1252494D01*
X863250Y1252906D01*
X863327Y1253317D01*
X863413Y1253725D01*
X863509Y1254131D01*
X863616Y1254534D01*
X863732Y1254935D01*
X863858Y1255333D01*
X863994Y1255727D01*
X864139Y1256118D01*
X864294Y1256506D01*
X864458Y1256889D01*
X864632Y1257268D01*
X864815Y1257643D01*
X865007Y1258014D01*
X865209Y1258379D01*
X865419Y1258740D01*
X865637Y1259095D01*
X865865Y1259445D01*
X866101Y1259789D01*
X866345Y1260127D01*
X866598Y1260459D01*
X866859Y1260785D01*
X867127Y1261104D01*
X867404Y1261417D01*
X867688Y1261722D01*
X867979Y1262021D01*
X868278Y1262312D01*
X868583Y1262596D01*
X868896Y1262873D01*
X869215Y1263141D01*
X869541Y1263402D01*
X869873Y1263655D01*
X870211Y1263899D01*
X870555Y1264135D01*
X870905Y1264363D01*
X871260Y1264581D01*
X871621Y1264791D01*
X871986Y1264993D01*
X872357Y1265185D01*
X872732Y1265368D01*
X873111Y1265542D01*
X873494Y1265706D01*
X873882Y1265861D01*
X874273Y1266006D01*
X874667Y1266142D01*
X875065Y1266268D01*
X875466Y1266384D01*
X875869Y1266491D01*
X876275Y1266587D01*
X876683Y1266673D01*
X877094Y1266750D01*
X877506Y1266816D01*
X877919Y1266872D01*
X878334Y1266918D01*
X878749Y1266954D01*
X879166Y1266980D01*
X879583Y1266995D01*
X880000Y1267000D01*
X880417Y1266995D01*
X880834Y1266980D01*
X881251Y1266954D01*
X881666Y1266918D01*
X882081Y1266872D01*
X882494Y1266816D01*
X882906Y1266750D01*
X883317Y1266673D01*
X883725Y1266587D01*
X884131Y1266491D01*
X884534Y1266384D01*
X884935Y1266268D01*
X885333Y1266142D01*
X885727Y1266006D01*
X886118Y1265861D01*
X886506Y1265706D01*
X886889Y1265542D01*
X887268Y1265368D01*
X887643Y1265185D01*
X888014Y1264993D01*
X888379Y1264791D01*
X888740Y1264581D01*
X889095Y1264363D01*
X889445Y1264135D01*
X889789Y1263899D01*
X890127Y1263655D01*
X890459Y1263402D01*
X890785Y1263141D01*
X891104Y1262873D01*
X891417Y1262596D01*
X891722Y1262312D01*
X892021Y1262021D01*
X892312Y1261722D01*
X892596Y1261417D01*
X892873Y1261104D01*
X893141Y1260785D01*
X893402Y1260459D01*
X893655Y1260127D01*
X893899Y1259789D01*
X894135Y1259445D01*
X894363Y1259095D01*
X894581Y1258740D01*
X894791Y1258379D01*
X894993Y1258014D01*
X895185Y1257643D01*
X895368Y1257268D01*
X895542Y1256889D01*
X895706Y1256506D01*
X895861Y1256118D01*
X896006Y1255727D01*
X896142Y1255333D01*
X896268Y1254935D01*
X896384Y1254534D01*
X896491Y1254131D01*
X896587Y1253725D01*
X896673Y1253317D01*
X896750Y1252906D01*
X896816Y1252494D01*
X896872Y1252081D01*
X896918Y1251666D01*
X896954Y1251251D01*
X896980Y1250834D01*
X896995Y1250417D01*
X897000Y1250000D01*
X896995Y1249583D01*
X896980Y1249166D01*
X896954Y1248749D01*
X896918Y1248334D01*
X896872Y1247919D01*
X896816Y1247506D01*
X896750Y1247094D01*
X896673Y1246683D01*
X896587Y1246275D01*
X896491Y1245869D01*
X896384Y1245466D01*
X896268Y1245065D01*
X896142Y1244667D01*
X896006Y1244273D01*
X895861Y1243882D01*
X895706Y1243494D01*
X895542Y1243111D01*
X895368Y1242732D01*
X895185Y1242357D01*
X894993Y1241986D01*
X894791Y1241621D01*
X894581Y1241260D01*
X894363Y1240905D01*
X894135Y1240555D01*
X893899Y1240211D01*
X893655Y1239873D01*
X893402Y1239541D01*
X893141Y1239215D01*
X892873Y1238896D01*
X892596Y1238583D01*
X892312Y1238278D01*
X892021Y1237979D01*
X891722Y1237688D01*
X891417Y1237404D01*
X891104Y1237127D01*
X890785Y1236859D01*
X890459Y1236598D01*
X890127Y1236345D01*
X889789Y1236101D01*
X889445Y1235865D01*
X889095Y1235637D01*
X888740Y1235419D01*
X888379Y1235209D01*
X888014Y1235007D01*
X887643Y1234815D01*
X887268Y1234632D01*
X886889Y1234458D01*
X886506Y1234294D01*
X886118Y1234139D01*
X885727Y1233994D01*
X885333Y1233858D01*
X884935Y1233732D01*
X884534Y1233616D01*
X884131Y1233509D01*
X883725Y1233413D01*
X883317Y1233327D01*
X882906Y1233250D01*
X882494Y1233184D01*
X882081Y1233128D01*
X881666Y1233082D01*
X881251Y1233046D01*
X880834Y1233020D01*
X880417Y1233005D01*
X880000Y1233000D01*
X879583Y1233005D01*
X879166Y1233020D01*
X878749Y1233046D01*
X878334Y1233082D01*
X877919Y1233128D01*
X877506Y1233184D01*
X877094Y1233250D01*
X876683Y1233327D01*
X876275Y1233413D01*
X875869Y1233509D01*
X875466Y1233616D01*
X875065Y1233732D01*
X874667Y1233858D01*
X874273Y1233994D01*
X873882Y1234139D01*
X873494Y1234294D01*
X873111Y1234458D01*
X872732Y1234632D01*
X872357Y1234815D01*
X871986Y1235007D01*
X871621Y1235209D01*
X871260Y1235419D01*
X870905Y1235637D01*
X870555Y1235865D01*
X870211Y1236101D01*
X869873Y1236345D01*
X869541Y1236598D01*
X869215Y1236859D01*
X868896Y1237127D01*
X868583Y1237404D01*
X868278Y1237688D01*
X867979Y1237979D01*
X867688Y1238278D01*
X867404Y1238583D01*
X867127Y1238896D01*
X866859Y1239215D01*
X866598Y1239541D01*
X866345Y1239873D01*
X866101Y1240211D01*
X865865Y1240555D01*
X865637Y1240905D01*
X865419Y1241260D01*
X865209Y1241621D01*
X865007Y1241986D01*
X864815Y1242357D01*
X864632Y1242732D01*
X864458Y1243111D01*
X864294Y1243494D01*
X864139Y1243882D01*
X863994Y1244273D01*
X863858Y1244667D01*
X863732Y1245065D01*
X863616Y1245466D01*
X863509Y1245869D01*
X863413Y1246275D01*
X863327Y1246683D01*
X863250Y1247094D01*
X863184Y1247506D01*
X863128Y1247919D01*
X863082Y1248334D01*
X863046Y1248749D01*
X863020Y1249166D01*
X863005Y1249583D01*
X863000Y1250000D01*
D12*
X165710Y1000000D02*
X165720Y1000842D01*
X165751Y1001683D01*
X165803Y1002523D01*
X165875Y1003361D01*
X165968Y1004197D01*
X166081Y1005031D01*
X166215Y1005862D01*
X166369Y1006690D01*
X166543Y1007513D01*
X166738Y1008332D01*
X166952Y1009146D01*
X167187Y1009954D01*
X167441Y1010756D01*
X167714Y1011552D01*
X168008Y1012341D01*
X168320Y1013122D01*
X168652Y1013896D01*
X169002Y1014661D01*
X169371Y1015417D01*
X169759Y1016164D01*
X170165Y1016901D01*
X170588Y1017629D01*
X171030Y1018345D01*
X171489Y1019051D01*
X171965Y1019744D01*
X172458Y1020427D01*
X172968Y1021096D01*
X173493Y1021753D01*
X174035Y1022397D01*
X174593Y1023028D01*
X175166Y1023644D01*
X175753Y1024247D01*
X176356Y1024834D01*
X176972Y1025407D01*
X177603Y1025965D01*
X178247Y1026507D01*
X178904Y1027032D01*
X179573Y1027542D01*
X180256Y1028035D01*
X180949Y1028511D01*
X181655Y1028970D01*
X182371Y1029412D01*
X183099Y1029835D01*
X183836Y1030241D01*
X184583Y1030629D01*
X185339Y1030998D01*
X186104Y1031348D01*
X186878Y1031680D01*
X187659Y1031992D01*
X188448Y1032286D01*
X189244Y1032559D01*
X190046Y1032813D01*
X190854Y1033048D01*
X191668Y1033262D01*
X192487Y1033457D01*
X193310Y1033631D01*
X194138Y1033785D01*
X194969Y1033919D01*
X195803Y1034032D01*
X196639Y1034125D01*
X197477Y1034197D01*
X198317Y1034249D01*
X199158Y1034280D01*
X200000Y1034290D01*
X200842Y1034280D01*
X201683Y1034249D01*
X202523Y1034197D01*
X203361Y1034125D01*
X204197Y1034032D01*
X205031Y1033919D01*
X205862Y1033785D01*
X206690Y1033631D01*
X207513Y1033457D01*
X208332Y1033262D01*
X209146Y1033048D01*
X209954Y1032813D01*
X210756Y1032559D01*
X211552Y1032286D01*
X212341Y1031992D01*
X213122Y1031680D01*
X213896Y1031348D01*
X214661Y1030998D01*
X215417Y1030629D01*
X216164Y1030241D01*
X216901Y1029835D01*
X217629Y1029412D01*
X218345Y1028970D01*
X219051Y1028511D01*
X219744Y1028035D01*
X220427Y1027542D01*
X221096Y1027032D01*
X221753Y1026507D01*
X222397Y1025965D01*
X223028Y1025407D01*
X223644Y1024834D01*
X224247Y1024247D01*
X224834Y1023644D01*
X225407Y1023028D01*
X225965Y1022397D01*
X226507Y1021753D01*
X227032Y1021096D01*
X227542Y1020427D01*
X228035Y1019744D01*
X228511Y1019051D01*
X228970Y1018345D01*
X229412Y1017629D01*
X229835Y1016901D01*
X230241Y1016164D01*
X230629Y1015417D01*
X230998Y1014661D01*
X231348Y1013896D01*
X231680Y1013122D01*
X231992Y1012341D01*
X232286Y1011552D01*
X232559Y1010756D01*
X232813Y1009954D01*
X233048Y1009146D01*
X233262Y1008332D01*
X233457Y1007513D01*
X233631Y1006690D01*
X233785Y1005862D01*
X233919Y1005031D01*
X234032Y1004197D01*
X234125Y1003361D01*
X234197Y1002523D01*
X234249Y1001683D01*
X234280Y1000842D01*
X234290Y1000000D01*
X234280Y999158D01*
X234249Y998317D01*
X234197Y997477D01*
X234125Y996639D01*
X234032Y995803D01*
X233919Y994969D01*
X233785Y994138D01*
X233631Y993310D01*
X233457Y992487D01*
X233262Y991668D01*
X233048Y990854D01*
X232813Y990046D01*
X232559Y989244D01*
X232286Y988448D01*
X231992Y987659D01*
X231680Y986878D01*
X231348Y986104D01*
X230998Y985339D01*
X230629Y984583D01*
X230241Y983836D01*
X229835Y983099D01*
X229412Y982371D01*
X228970Y981655D01*
X228511Y980949D01*
X228035Y980256D01*
X227542Y979573D01*
X227032Y978904D01*
X226507Y978247D01*
X225965Y977603D01*
X225407Y976972D01*
X224834Y976356D01*
X224247Y975753D01*
X223644Y975166D01*
X223028Y974593D01*
X222397Y974035D01*
X221753Y973493D01*
X221096Y972968D01*
X220427Y972458D01*
X219744Y971965D01*
X219051Y971489D01*
X218345Y971030D01*
X217629Y970588D01*
X216901Y970165D01*
X216164Y969759D01*
X215417Y969371D01*
X214661Y969002D01*
X213896Y968652D01*
X213122Y968320D01*
X212341Y968008D01*
X211552Y967714D01*
X210756Y967441D01*
X209954Y967187D01*
X209146Y966952D01*
X208332Y966738D01*
X207513Y966543D01*
X206690Y966369D01*
X205862Y966215D01*
X205031Y966081D01*
X204197Y965968D01*
X203361Y965875D01*
X202523Y965803D01*
X201683Y965751D01*
X200842Y965720D01*
X200000Y965710D01*
X199158Y965720D01*
X198317Y965751D01*
X197477Y965803D01*
X196639Y965875D01*
X195803Y965968D01*
X194969Y966081D01*
X194138Y966215D01*
X193310Y966369D01*
X192487Y966543D01*
X191668Y966738D01*
X190854Y966952D01*
X190046Y967187D01*
X189244Y967441D01*
X188448Y967714D01*
X187659Y968008D01*
X186878Y968320D01*
X186104Y968652D01*
X185339Y969002D01*
X184583Y969371D01*
X183836Y969759D01*
X183099Y970165D01*
X182371Y970588D01*
X181655Y971030D01*
X180949Y971489D01*
X180256Y971965D01*
X179573Y972458D01*
X178904Y972968D01*
X178247Y973493D01*
X177603Y974035D01*
X176972Y974593D01*
X176356Y975166D01*
X175753Y975753D01*
X175166Y976356D01*
X174593Y976972D01*
X174035Y977603D01*
X173493Y978247D01*
X172968Y978904D01*
X172458Y979573D01*
X171965Y980256D01*
X171489Y980949D01*
X171030Y981655D01*
X170588Y982371D01*
X170165Y983099D01*
X169759Y983836D01*
X169371Y984583D01*
X169002Y985339D01*
X168652Y986104D01*
X168320Y986878D01*
X168008Y987659D01*
X167714Y988448D01*
X167441Y989244D01*
X167187Y990046D01*
X166952Y990854D01*
X166738Y991668D01*
X166543Y992487D01*
X166369Y993310D01*
X166215Y994138D01*
X166081Y994969D01*
X165968Y995803D01*
X165875Y996639D01*
X165803Y997477D01*
X165751Y998317D01*
X165720Y999158D01*
X165710Y1000000D01*
D16*
X183000Y1000000D02*
X183005Y1000417D01*
X183020Y1000834D01*
X183046Y1001251D01*
X183082Y1001666D01*
X183128Y1002081D01*
X183184Y1002494D01*
X183250Y1002906D01*
X183327Y1003317D01*
X183413Y1003725D01*
X183509Y1004131D01*
X183616Y1004534D01*
X183732Y1004935D01*
X183858Y1005333D01*
X183994Y1005727D01*
X184139Y1006118D01*
X184294Y1006506D01*
X184458Y1006889D01*
X184632Y1007268D01*
X184815Y1007643D01*
X185007Y1008014D01*
X185209Y1008379D01*
X185419Y1008740D01*
X185637Y1009095D01*
X185865Y1009445D01*
X186101Y1009789D01*
X186345Y1010127D01*
X186598Y1010459D01*
X186859Y1010785D01*
X187127Y1011104D01*
X187404Y1011417D01*
X187688Y1011722D01*
X187979Y1012021D01*
X188278Y1012312D01*
X188583Y1012596D01*
X188896Y1012873D01*
X189215Y1013141D01*
X189541Y1013402D01*
X189873Y1013655D01*
X190211Y1013899D01*
X190555Y1014135D01*
X190905Y1014363D01*
X191260Y1014581D01*
X191621Y1014791D01*
X191986Y1014993D01*
X192357Y1015185D01*
X192732Y1015368D01*
X193111Y1015542D01*
X193494Y1015706D01*
X193882Y1015861D01*
X194273Y1016006D01*
X194667Y1016142D01*
X195065Y1016268D01*
X195466Y1016384D01*
X195869Y1016491D01*
X196275Y1016587D01*
X196683Y1016673D01*
X197094Y1016750D01*
X197506Y1016816D01*
X197919Y1016872D01*
X198334Y1016918D01*
X198749Y1016954D01*
X199166Y1016980D01*
X199583Y1016995D01*
X200000Y1017000D01*
X200417Y1016995D01*
X200834Y1016980D01*
X201251Y1016954D01*
X201666Y1016918D01*
X202081Y1016872D01*
X202494Y1016816D01*
X202906Y1016750D01*
X203317Y1016673D01*
X203725Y1016587D01*
X204131Y1016491D01*
X204534Y1016384D01*
X204935Y1016268D01*
X205333Y1016142D01*
X205727Y1016006D01*
X206118Y1015861D01*
X206506Y1015706D01*
X206889Y1015542D01*
X207268Y1015368D01*
X207643Y1015185D01*
X208014Y1014993D01*
X208379Y1014791D01*
X208740Y1014581D01*
X209095Y1014363D01*
X209445Y1014135D01*
X209789Y1013899D01*
X210127Y1013655D01*
X210459Y1013402D01*
X210785Y1013141D01*
X211104Y1012873D01*
X211417Y1012596D01*
X211722Y1012312D01*
X212021Y1012021D01*
X212312Y1011722D01*
X212596Y1011417D01*
X212873Y1011104D01*
X213141Y1010785D01*
X213402Y1010459D01*
X213655Y1010127D01*
X213899Y1009789D01*
X214135Y1009445D01*
X214363Y1009095D01*
X214581Y1008740D01*
X214791Y1008379D01*
X214993Y1008014D01*
X215185Y1007643D01*
X215368Y1007268D01*
X215542Y1006889D01*
X215706Y1006506D01*
X215861Y1006118D01*
X216006Y1005727D01*
X216142Y1005333D01*
X216268Y1004935D01*
X216384Y1004534D01*
X216491Y1004131D01*
X216587Y1003725D01*
X216673Y1003317D01*
X216750Y1002906D01*
X216816Y1002494D01*
X216872Y1002081D01*
X216918Y1001666D01*
X216954Y1001251D01*
X216980Y1000834D01*
X216995Y1000417D01*
X217000Y1000000D01*
X216995Y999583D01*
X216980Y999166D01*
X216954Y998749D01*
X216918Y998334D01*
X216872Y997919D01*
X216816Y997506D01*
X216750Y997094D01*
X216673Y996683D01*
X216587Y996275D01*
X216491Y995869D01*
X216384Y995466D01*
X216268Y995065D01*
X216142Y994667D01*
X216006Y994273D01*
X215861Y993882D01*
X215706Y993494D01*
X215542Y993111D01*
X215368Y992732D01*
X215185Y992357D01*
X214993Y991986D01*
X214791Y991621D01*
X214581Y991260D01*
X214363Y990905D01*
X214135Y990555D01*
X213899Y990211D01*
X213655Y989873D01*
X213402Y989541D01*
X213141Y989215D01*
X212873Y988896D01*
X212596Y988583D01*
X212312Y988278D01*
X212021Y987979D01*
X211722Y987688D01*
X211417Y987404D01*
X211104Y987127D01*
X210785Y986859D01*
X210459Y986598D01*
X210127Y986345D01*
X209789Y986101D01*
X209445Y985865D01*
X209095Y985637D01*
X208740Y985419D01*
X208379Y985209D01*
X208014Y985007D01*
X207643Y984815D01*
X207268Y984632D01*
X206889Y984458D01*
X206506Y984294D01*
X206118Y984139D01*
X205727Y983994D01*
X205333Y983858D01*
X204935Y983732D01*
X204534Y983616D01*
X204131Y983509D01*
X203725Y983413D01*
X203317Y983327D01*
X202906Y983250D01*
X202494Y983184D01*
X202081Y983128D01*
X201666Y983082D01*
X201251Y983046D01*
X200834Y983020D01*
X200417Y983005D01*
X200000Y983000D01*
X199583Y983005D01*
X199166Y983020D01*
X198749Y983046D01*
X198334Y983082D01*
X197919Y983128D01*
X197506Y983184D01*
X197094Y983250D01*
X196683Y983327D01*
X196275Y983413D01*
X195869Y983509D01*
X195466Y983616D01*
X195065Y983732D01*
X194667Y983858D01*
X194273Y983994D01*
X193882Y984139D01*
X193494Y984294D01*
X193111Y984458D01*
X192732Y984632D01*
X192357Y984815D01*
X191986Y985007D01*
X191621Y985209D01*
X191260Y985419D01*
X190905Y985637D01*
X190555Y985865D01*
X190211Y986101D01*
X189873Y986345D01*
X189541Y986598D01*
X189215Y986859D01*
X188896Y987127D01*
X188583Y987404D01*
X188278Y987688D01*
X187979Y987979D01*
X187688Y988278D01*
X187404Y988583D01*
X187127Y988896D01*
X186859Y989215D01*
X186598Y989541D01*
X186345Y989873D01*
X186101Y990211D01*
X185865Y990555D01*
X185637Y990905D01*
X185419Y991260D01*
X185209Y991621D01*
X185007Y991986D01*
X184815Y992357D01*
X184632Y992732D01*
X184458Y993111D01*
X184294Y993494D01*
X184139Y993882D01*
X183994Y994273D01*
X183858Y994667D01*
X183732Y995065D01*
X183616Y995466D01*
X183509Y995869D01*
X183413Y996275D01*
X183327Y996683D01*
X183250Y997094D01*
X183184Y997506D01*
X183128Y997919D01*
X183082Y998334D01*
X183046Y998749D01*
X183020Y999166D01*
X183005Y999583D01*
X183000Y1000000D01*
D19*
X235600Y1088400D02*
X235600Y1329700D01*
X235600Y1088400D02*
X159400Y1088400D01*
X159400Y1329700D01*
X235600Y1329700D01*
D12*
X478210Y685000D02*
X478220Y685842D01*
X478251Y686683D01*
X478303Y687523D01*
X478375Y688361D01*
X478468Y689197D01*
X478581Y690031D01*
X478715Y690862D01*
X478869Y691690D01*
X479043Y692513D01*
X479238Y693332D01*
X479452Y694146D01*
X479687Y694954D01*
X479941Y695756D01*
X480214Y696552D01*
X480508Y697341D01*
X480820Y698122D01*
X481152Y698896D01*
X481502Y699661D01*
X481871Y700417D01*
X482259Y701164D01*
X482665Y701901D01*
X483088Y702629D01*
X483530Y703345D01*
X483989Y704051D01*
X484465Y704744D01*
X484958Y705427D01*
X485468Y706096D01*
X485993Y706753D01*
X486535Y707397D01*
X487093Y708028D01*
X487666Y708644D01*
X488253Y709247D01*
X488856Y709834D01*
X489472Y710407D01*
X490103Y710965D01*
X490747Y711507D01*
X491404Y712032D01*
X492073Y712542D01*
X492756Y713035D01*
X493449Y713511D01*
X494155Y713970D01*
X494871Y714412D01*
X495599Y714835D01*
X496336Y715241D01*
X497083Y715629D01*
X497839Y715998D01*
X498604Y716348D01*
X499378Y716680D01*
X500159Y716992D01*
X500948Y717286D01*
X501744Y717559D01*
X502546Y717813D01*
X503354Y718048D01*
X504168Y718262D01*
X504987Y718457D01*
X505810Y718631D01*
X506638Y718785D01*
X507469Y718919D01*
X508303Y719032D01*
X509139Y719125D01*
X509977Y719197D01*
X510817Y719249D01*
X511658Y719280D01*
X512500Y719290D01*
X513342Y719280D01*
X514183Y719249D01*
X515023Y719197D01*
X515861Y719125D01*
X516697Y719032D01*
X517531Y718919D01*
X518362Y718785D01*
X519190Y718631D01*
X520013Y718457D01*
X520832Y718262D01*
X521646Y718048D01*
X522454Y717813D01*
X523256Y717559D01*
X524052Y717286D01*
X524841Y716992D01*
X525622Y716680D01*
X526396Y716348D01*
X527161Y715998D01*
X527917Y715629D01*
X528664Y715241D01*
X529401Y714835D01*
X530129Y714412D01*
X530845Y713970D01*
X531551Y713511D01*
X532244Y713035D01*
X532927Y712542D01*
X533596Y712032D01*
X534253Y711507D01*
X534897Y710965D01*
X535528Y710407D01*
X536144Y709834D01*
X536747Y709247D01*
X537334Y708644D01*
X537907Y708028D01*
X538465Y707397D01*
X539007Y706753D01*
X539532Y706096D01*
X540042Y705427D01*
X540535Y704744D01*
X541011Y704051D01*
X541470Y703345D01*
X541912Y702629D01*
X542335Y701901D01*
X542741Y701164D01*
X543129Y700417D01*
X543498Y699661D01*
X543848Y698896D01*
X544180Y698122D01*
X544492Y697341D01*
X544786Y696552D01*
X545059Y695756D01*
X545313Y694954D01*
X545548Y694146D01*
X545762Y693332D01*
X545957Y692513D01*
X546131Y691690D01*
X546285Y690862D01*
X546419Y690031D01*
X546532Y689197D01*
X546625Y688361D01*
X546697Y687523D01*
X546749Y686683D01*
X546780Y685842D01*
X546790Y685000D01*
X546780Y684158D01*
X546749Y683317D01*
X546697Y682477D01*
X546625Y681639D01*
X546532Y680803D01*
X546419Y679969D01*
X546285Y679138D01*
X546131Y678310D01*
X545957Y677487D01*
X545762Y676668D01*
X545548Y675854D01*
X545313Y675046D01*
X545059Y674244D01*
X544786Y673448D01*
X544492Y672659D01*
X544180Y671878D01*
X543848Y671104D01*
X543498Y670339D01*
X543129Y669583D01*
X542741Y668836D01*
X542335Y668099D01*
X541912Y667371D01*
X541470Y666655D01*
X541011Y665949D01*
X540535Y665256D01*
X540042Y664573D01*
X539532Y663904D01*
X539007Y663247D01*
X538465Y662603D01*
X537907Y661972D01*
X537334Y661356D01*
X536747Y660753D01*
X536144Y660166D01*
X535528Y659593D01*
X534897Y659035D01*
X534253Y658493D01*
X533596Y657968D01*
X532927Y657458D01*
X532244Y656965D01*
X531551Y656489D01*
X530845Y656030D01*
X530129Y655588D01*
X529401Y655165D01*
X528664Y654759D01*
X527917Y654371D01*
X527161Y654002D01*
X526396Y653652D01*
X525622Y653320D01*
X524841Y653008D01*
X524052Y652714D01*
X523256Y652441D01*
X522454Y652187D01*
X521646Y651952D01*
X520832Y651738D01*
X520013Y651543D01*
X519190Y651369D01*
X518362Y651215D01*
X517531Y651081D01*
X516697Y650968D01*
X515861Y650875D01*
X515023Y650803D01*
X514183Y650751D01*
X513342Y650720D01*
X512500Y650710D01*
X511658Y650720D01*
X510817Y650751D01*
X509977Y650803D01*
X509139Y650875D01*
X508303Y650968D01*
X507469Y651081D01*
X506638Y651215D01*
X505810Y651369D01*
X504987Y651543D01*
X504168Y651738D01*
X503354Y651952D01*
X502546Y652187D01*
X501744Y652441D01*
X500948Y652714D01*
X500159Y653008D01*
X499378Y653320D01*
X498604Y653652D01*
X497839Y654002D01*
X497083Y654371D01*
X496336Y654759D01*
X495599Y655165D01*
X494871Y655588D01*
X494155Y656030D01*
X493449Y656489D01*
X492756Y656965D01*
X492073Y657458D01*
X491404Y657968D01*
X490747Y658493D01*
X490103Y659035D01*
X489472Y659593D01*
X488856Y660166D01*
X488253Y660753D01*
X487666Y661356D01*
X487093Y661972D01*
X486535Y662603D01*
X485993Y663247D01*
X485468Y663904D01*
X484958Y664573D01*
X484465Y665256D01*
X483989Y665949D01*
X483530Y666655D01*
X483088Y667371D01*
X482665Y668099D01*
X482259Y668836D01*
X481871Y669583D01*
X481502Y670339D01*
X481152Y671104D01*
X480820Y671878D01*
X480508Y672659D01*
X480214Y673448D01*
X479941Y674244D01*
X479687Y675046D01*
X479452Y675854D01*
X479238Y676668D01*
X479043Y677487D01*
X478869Y678310D01*
X478715Y679138D01*
X478581Y679969D01*
X478468Y680803D01*
X478375Y681639D01*
X478303Y682477D01*
X478251Y683317D01*
X478220Y684158D01*
X478210Y685000D01*
D16*
X495500Y685000D02*
X495505Y685417D01*
X495520Y685834D01*
X495546Y686251D01*
X495582Y686666D01*
X495628Y687081D01*
X495684Y687494D01*
X495750Y687906D01*
X495827Y688317D01*
X495913Y688725D01*
X496009Y689131D01*
X496116Y689534D01*
X496232Y689935D01*
X496358Y690333D01*
X496494Y690727D01*
X496639Y691118D01*
X496794Y691506D01*
X496958Y691889D01*
X497132Y692268D01*
X497315Y692643D01*
X497507Y693014D01*
X497709Y693379D01*
X497919Y693740D01*
X498137Y694095D01*
X498365Y694445D01*
X498601Y694789D01*
X498845Y695127D01*
X499098Y695459D01*
X499359Y695785D01*
X499627Y696104D01*
X499904Y696417D01*
X500188Y696722D01*
X500479Y697021D01*
X500778Y697312D01*
X501083Y697596D01*
X501396Y697873D01*
X501715Y698141D01*
X502041Y698402D01*
X502373Y698655D01*
X502711Y698899D01*
X503055Y699135D01*
X503405Y699363D01*
X503760Y699581D01*
X504121Y699791D01*
X504486Y699993D01*
X504857Y700185D01*
X505232Y700368D01*
X505611Y700542D01*
X505994Y700706D01*
X506382Y700861D01*
X506773Y701006D01*
X507167Y701142D01*
X507565Y701268D01*
X507966Y701384D01*
X508369Y701491D01*
X508775Y701587D01*
X509183Y701673D01*
X509594Y701750D01*
X510006Y701816D01*
X510419Y701872D01*
X510834Y701918D01*
X511249Y701954D01*
X511666Y701980D01*
X512083Y701995D01*
X512500Y702000D01*
X512917Y701995D01*
X513334Y701980D01*
X513751Y701954D01*
X514166Y701918D01*
X514581Y701872D01*
X514994Y701816D01*
X515406Y701750D01*
X515817Y701673D01*
X516225Y701587D01*
X516631Y701491D01*
X517034Y701384D01*
X517435Y701268D01*
X517833Y701142D01*
X518227Y701006D01*
X518618Y700861D01*
X519006Y700706D01*
X519389Y700542D01*
X519768Y700368D01*
X520143Y700185D01*
X520514Y699993D01*
X520879Y699791D01*
X521240Y699581D01*
X521595Y699363D01*
X521945Y699135D01*
X522289Y698899D01*
X522627Y698655D01*
X522959Y698402D01*
X523285Y698141D01*
X523604Y697873D01*
X523917Y697596D01*
X524222Y697312D01*
X524521Y697021D01*
X524812Y696722D01*
X525096Y696417D01*
X525373Y696104D01*
X525641Y695785D01*
X525902Y695459D01*
X526155Y695127D01*
X526399Y694789D01*
X526635Y694445D01*
X526863Y694095D01*
X527081Y693740D01*
X527291Y693379D01*
X527493Y693014D01*
X527685Y692643D01*
X527868Y692268D01*
X528042Y691889D01*
X528206Y691506D01*
X528361Y691118D01*
X528506Y690727D01*
X528642Y690333D01*
X528768Y689935D01*
X528884Y689534D01*
X528991Y689131D01*
X529087Y688725D01*
X529173Y688317D01*
X529250Y687906D01*
X529316Y687494D01*
X529372Y687081D01*
X529418Y686666D01*
X529454Y686251D01*
X529480Y685834D01*
X529495Y685417D01*
X529500Y685000D01*
X529495Y684583D01*
X529480Y684166D01*
X529454Y683749D01*
X529418Y683334D01*
X529372Y682919D01*
X529316Y682506D01*
X529250Y682094D01*
X529173Y681683D01*
X529087Y681275D01*
X528991Y680869D01*
X528884Y680466D01*
X528768Y680065D01*
X528642Y679667D01*
X528506Y679273D01*
X528361Y678882D01*
X528206Y678494D01*
X528042Y678111D01*
X527868Y677732D01*
X527685Y677357D01*
X527493Y676986D01*
X527291Y676621D01*
X527081Y676260D01*
X526863Y675905D01*
X526635Y675555D01*
X526399Y675211D01*
X526155Y674873D01*
X525902Y674541D01*
X525641Y674215D01*
X525373Y673896D01*
X525096Y673583D01*
X524812Y673278D01*
X524521Y672979D01*
X524222Y672688D01*
X523917Y672404D01*
X523604Y672127D01*
X523285Y671859D01*
X522959Y671598D01*
X522627Y671345D01*
X522289Y671101D01*
X521945Y670865D01*
X521595Y670637D01*
X521240Y670419D01*
X520879Y670209D01*
X520514Y670007D01*
X520143Y669815D01*
X519768Y669632D01*
X519389Y669458D01*
X519006Y669294D01*
X518618Y669139D01*
X518227Y668994D01*
X517833Y668858D01*
X517435Y668732D01*
X517034Y668616D01*
X516631Y668509D01*
X516225Y668413D01*
X515817Y668327D01*
X515406Y668250D01*
X514994Y668184D01*
X514581Y668128D01*
X514166Y668082D01*
X513751Y668046D01*
X513334Y668020D01*
X512917Y668005D01*
X512500Y668000D01*
X512083Y668005D01*
X511666Y668020D01*
X511249Y668046D01*
X510834Y668082D01*
X510419Y668128D01*
X510006Y668184D01*
X509594Y668250D01*
X509183Y668327D01*
X508775Y668413D01*
X508369Y668509D01*
X507966Y668616D01*
X507565Y668732D01*
X507167Y668858D01*
X506773Y668994D01*
X506382Y669139D01*
X505994Y669294D01*
X505611Y669458D01*
X505232Y669632D01*
X504857Y669815D01*
X504486Y670007D01*
X504121Y670209D01*
X503760Y670419D01*
X503405Y670637D01*
X503055Y670865D01*
X502711Y671101D01*
X502373Y671345D01*
X502041Y671598D01*
X501715Y671859D01*
X501396Y672127D01*
X501083Y672404D01*
X500778Y672688D01*
X500479Y672979D01*
X500188Y673278D01*
X499904Y673583D01*
X499627Y673896D01*
X499359Y674215D01*
X499098Y674541D01*
X498845Y674873D01*
X498601Y675211D01*
X498365Y675555D01*
X498137Y675905D01*
X497919Y676260D01*
X497709Y676621D01*
X497507Y676986D01*
X497315Y677357D01*
X497132Y677732D01*
X496958Y678111D01*
X496794Y678494D01*
X496639Y678882D01*
X496494Y679273D01*
X496358Y679667D01*
X496232Y680065D01*
X496116Y680466D01*
X496009Y680869D01*
X495913Y681275D01*
X495827Y681683D01*
X495750Y682094D01*
X495684Y682506D01*
X495628Y682919D01*
X495582Y683334D01*
X495546Y683749D01*
X495520Y684166D01*
X495505Y684583D01*
X495500Y685000D01*
D12*
X206350Y892700D02*
X193650Y892700D01*
X206350Y892700D02*
X212700Y886350D01*
X212700Y873650D01*
X206350Y867300D01*
X187300Y873650D02*
X187300Y886350D01*
X193650Y892700D01*
X187300Y873650D02*
X193650Y867300D01*
X206350Y867300D01*
X206350Y842700D02*
X193650Y842700D01*
X206350Y842700D02*
X212700Y836350D01*
X212700Y823650D01*
X206350Y817300D01*
X187300Y823650D02*
X187300Y836350D01*
X193650Y842700D01*
X187300Y823650D02*
X193650Y817300D01*
X206350Y817300D01*
X206350Y817700D02*
X193650Y817700D01*
X206350Y817700D02*
X212700Y811350D01*
X212700Y798650D01*
X206350Y792300D01*
X187300Y798650D02*
X187300Y811350D01*
X193650Y817700D01*
X187300Y798650D02*
X193650Y792300D01*
X206350Y792300D01*
X206350Y867700D02*
X193650Y867700D01*
X206350Y867700D02*
X212700Y861350D01*
X212700Y848650D01*
X206350Y842300D01*
X187300Y848650D02*
X187300Y861350D01*
X193650Y867700D01*
X187300Y848650D02*
X193650Y842300D01*
X206350Y842300D01*
X853650Y1082700D02*
X866350Y1082700D01*
X872700Y1076350D01*
X872700Y1063650D01*
X866350Y1057300D01*
X847300Y1063650D02*
X847300Y1076350D01*
X853650Y1082700D01*
X847300Y1063650D02*
X853650Y1057300D01*
X866350Y1057300D01*
M02*
