M48
;GenerationSoftware,Autodesk,EAGLE,9.2.2*%
;CreationDate,2019-02-15T20:23:12Z*%
FMAT,2
ICI,OFF
METRIC,TZ,000.000
T10C0.254
T9C0.350
T8C0.650
T7C0.700
T6C1.000
T5C1.016
T4C1.300
T3C1.854
T2C3.200
T1C3.734
%
G90
M71
T1
X66600Y85041
X41601Y85041
T2
X88000Y60000
X20000Y60000
X88000Y125000
X20000Y100000
X51250Y68500
X88000Y20000
X20000Y20000
T3
X37332Y42473
X70860Y42473
X70860Y94670
X37332Y94670
X78480Y42473
X78480Y59872
X19750Y114380
X29712Y94670
X70860Y77271
X37332Y77271
X29712Y77271
X29712Y112069
X70860Y59872
X37332Y59872
X29712Y59872
X29712Y25074
X78480Y77271
X37332Y112069
X70860Y112069
X78480Y112069
X78480Y94670
X29712Y42473
X37332Y25074
X70860Y25074
X78480Y25074
X19750Y122000
X19750Y118190
T4
X87340Y103250
X18660Y84250
T5
X86000Y104500
X79500Y106000
X86000Y102000
X77000Y106000
X86000Y99500
X77000Y101000
X55810Y132802
X81690Y87491
X76610Y84951
X48190Y132802
X50730Y132802
X53270Y132802
X58350Y132802
X79150Y84951
X81690Y84951
X60890Y132802
X29140Y104608
X31680Y104608
X29140Y102068
X31680Y102068
X76610Y87491
X79150Y87491
X20000Y88000
X20000Y83000
X20000Y80500
X20000Y85500
X86000Y107000
T6
X48730Y125055
X53810Y125055
X56350Y125055
X61430Y125055
X58890Y125055
X61430Y130135
X58890Y130135
X56350Y130135
X53810Y130135
X48730Y130135
T7
X68990Y119372
X55330Y119372
X58830Y119372
X55424Y15219
X60896Y15219
X65490Y119372
T8
X60586Y18287
X55734Y18287
T9
X44042Y15265
X27908Y99346
X45974Y106331
X29146Y99346
X45910Y105410
T10
X56445Y81843
X55207Y75017
X64700Y79970
X57080Y93845
X57842Y93845
X59041Y103161
X54318Y112418
X51651Y119372
X53619Y119340
X61430Y117689
X63176Y102100
X39903Y113434
X40475Y116101
X64636Y107116
X66700Y113053
X68161Y115308
X65970Y126960
X74860Y126960
X54953Y107402
X58413Y85018
X25700Y70690
X42080Y72450
X42850Y117220
X41142Y95813
X63112Y113657
X50000Y119118
X63239Y90496
X60445Y87593
X60445Y83685
X56826Y80859
X61049Y121499
X74670Y123563
X65367Y80700
X60005Y102110
X61715Y111498
X66796Y111561
X56064Y103306
X55746Y106418
X52381Y110640
X48158Y89844
X44094Y104862
X66351Y100353
X54064Y91051
X34220Y123150
X40570Y123150
X67240Y90130
X64700Y123150
X45269Y97274
X48412Y96639
X42824Y119086
X60763Y103751
X63684Y103751
X61015Y104875
X64954Y104925
X61497Y104292
X64319Y104322
X51619Y109307
X56635Y114292
X59302Y113403
X60963Y102608
X61934Y103179
X66288Y106132
X47140Y105096
X46602Y108513
X49523Y110799
X50285Y100322
X51495Y96001
X60604Y98798
X56762Y103306
X56572Y94480
X48076Y103767
X43364Y111498
X63652Y106418
X40253Y98861
X46920Y98861
X49936Y117207
X50444Y88638
X51365Y101274
X61303Y97274
X68859Y89368
X49396Y98226
X59782Y103230
X39935Y100383
X50095Y98925
X34982Y101602
X44412Y101602
X60115Y101448
X62350Y93178
X65301Y107116
X61531Y105391
X65843Y108958
X48926Y101687
X44856Y120292
X50793Y110799
X50813Y99685
X51301Y116197
X57798Y103600
X49333Y115117
X51301Y104259
X52762Y107133
X51086Y97029
X54413Y86003
X50609Y97490
X53968Y85209
X53016Y88765
X53016Y92956
M30