M48
;GenerationSoftware,Autodesk,EAGLE,9.2.2*%
;CreationDate,2019-01-08T21:07:47Z*%
FMAT,2
ICI,OFF
METRIC,TZ,000.000
T11C0.203
T10C0.254
T9C0.350
T8C0.650
T7C0.700
T6C1.000
T5C1.016
T4C1.300
T3C1.854
T2C3.200
T1C3.734
%
G90
M71
T1
X66600Y85041
X41601Y85041
T2
X51250Y68500
X20000Y60000
X88000Y60000
X88000Y20000
X20000Y100000
X88000Y125000
X20000Y20000
T3
X29712Y77271
X29712Y42473
X29712Y94670
X37332Y77271
X19750Y111380
X19750Y115190
X19750Y119000
X78480Y25074
X70860Y25074
X37332Y25074
X29712Y25074
X70860Y77271
X37332Y42473
X70860Y42473
X78480Y42473
X78480Y77271
X78480Y59872
X70860Y59872
X37332Y59872
X29712Y59872
X70860Y94670
X78480Y94670
X78480Y112069
X70860Y112069
X37332Y112069
X29712Y112069
X17210Y131700
X22290Y131700
X37332Y94670
T4
X87340Y103250
X18660Y84250
T5
X50730Y132802
X48190Y132802
X58350Y132802
X76610Y84951
X81690Y87491
X86000Y107000
X20000Y85500
X20000Y83000
X20000Y88000
X20000Y80500
X60890Y132802
X86000Y99500
X77000Y106000
X86000Y102000
X79500Y106000
X86000Y104500
X81690Y84951
X29140Y104608
X77000Y101000
X79150Y84951
X55810Y132802
X79150Y87491
X76610Y87491
X31680Y102068
X29140Y102068
X31680Y104608
X53270Y132802
T6
X53810Y130135
X48730Y130135
X48730Y125055
X56350Y125055
X53810Y125055
X61430Y125055
X61430Y130135
X58890Y130135
X56350Y130135
X58890Y125055
T7
X65490Y119372
X68990Y119372
X58830Y119372
X60896Y15219
X55424Y15219
X55330Y119372
T8
X60586Y18287
X55734Y18287
T9
X45974Y106331
X29146Y99346
X27908Y99346
X45910Y105410
X44042Y15265
T10
X41142Y95813
X63112Y113657
X50000Y119118
X63239Y90496
X60445Y87593
X60445Y83685
X56826Y80859
X61049Y121499
X61715Y111498
X39903Y113434
X40475Y116101
X65367Y80700
X66700Y113053
X68161Y115308
X65970Y126960
X74860Y126960
X74670Y123563
X44412Y101602
X34982Y101602
X40570Y123150
X39935Y100383
X49606Y117657
X40253Y98861
X63652Y106418
X64700Y79970
X55207Y75017
X56445Y81843
X43364Y111498
X46602Y108513
X47110Y105116
X61430Y117689
X42824Y119086
X48412Y96639
X45269Y97274
X64700Y123150
X67240Y90130
X34220Y123150
X54064Y91051
X66351Y100353
X48076Y103767
X44094Y104862
X48158Y89844
X44856Y120292
X52381Y110640
X55746Y106418
X66796Y111561
T11
X63176Y102100
X64636Y107116
X54953Y107402
X58413Y85018
X53619Y119340
X51651Y119372
X54318Y112418
X58921Y103179
X57842Y93845
X57080Y93845
X53016Y92956
X53016Y88765
X53968Y85209
X60055Y102100
X50539Y97528
X54413Y86003
X51143Y97051
X52762Y107053
X51301Y104259
X49333Y115117
X57778Y103560
X51301Y116197
X50793Y99655
X50793Y110799
X48926Y101687
X65843Y108958
X61601Y105411
X65271Y107116
X62350Y93178
X60155Y101438
X56635Y114292
X51619Y109307
X46920Y98861
X64319Y104322
X61557Y104322
X64954Y104925
X60985Y104925
X63684Y103751
X60763Y103751
X68859Y89368
X61303Y97274
X51365Y101274
X50095Y98925
X56572Y94480
X59810Y103338
X56762Y103306
X60604Y98798
X51555Y96131
X50285Y100322
X49523Y110799
X50444Y88638
X49396Y98226
X56064Y103306
X66288Y106132
X61934Y103179
X60963Y102608
X59302Y113403
M30