G04 EAGLE Gerber RS-274X export*
G75*
%MOMM*%
%FSLAX34Y34*%
%LPD*%
%INMilling long slotted pads*%
%IPPOS*%
%AMOC8*
5,1,8,0,0,1.08239X$1,22.5*%
G01*

G36*
X554567Y145946D02*
X554567Y145946D01*
X554592Y145944D01*
X555298Y146024D01*
X555331Y146035D01*
X555381Y146043D01*
X556052Y146278D01*
X556081Y146296D01*
X556129Y146314D01*
X556731Y146693D01*
X556755Y146717D01*
X556797Y146746D01*
X557300Y147249D01*
X557318Y147278D01*
X557353Y147315D01*
X557732Y147917D01*
X557743Y147950D01*
X557768Y147994D01*
X558003Y148665D01*
X558007Y148699D01*
X558022Y148748D01*
X558102Y149454D01*
X558100Y149473D01*
X558104Y149497D01*
X558104Y155339D01*
X558100Y155357D01*
X558102Y155382D01*
X558025Y156060D01*
X558014Y156092D01*
X558007Y156143D01*
X557781Y156787D01*
X557763Y156816D01*
X557744Y156864D01*
X557381Y157442D01*
X557356Y157466D01*
X557328Y157508D01*
X556845Y157991D01*
X556816Y158009D01*
X556779Y158044D01*
X556201Y158407D01*
X556168Y158418D01*
X556124Y158444D01*
X555480Y158670D01*
X555446Y158673D01*
X555397Y158688D01*
X554719Y158765D01*
X554700Y158763D01*
X554676Y158767D01*
X554041Y158767D01*
X554023Y158763D01*
X553998Y158765D01*
X553264Y158682D01*
X553231Y158671D01*
X553181Y158663D01*
X552483Y158419D01*
X552454Y158400D01*
X552406Y158382D01*
X551780Y157989D01*
X551756Y157964D01*
X551713Y157935D01*
X551191Y157413D01*
X551172Y157383D01*
X551137Y157346D01*
X550744Y156720D01*
X550733Y156687D01*
X550707Y156643D01*
X550463Y155945D01*
X550460Y155920D01*
X550451Y155901D01*
X550452Y155888D01*
X550444Y155862D01*
X550361Y155128D01*
X550363Y155109D01*
X550359Y155085D01*
X550359Y149497D01*
X550363Y149479D01*
X550361Y149454D01*
X550441Y148748D01*
X550452Y148715D01*
X550460Y148665D01*
X550695Y147994D01*
X550713Y147965D01*
X550731Y147917D01*
X551110Y147315D01*
X551134Y147291D01*
X551163Y147249D01*
X551666Y146746D01*
X551695Y146728D01*
X551732Y146693D01*
X552334Y146314D01*
X552367Y146303D01*
X552411Y146278D01*
X553082Y146043D01*
X553116Y146039D01*
X553165Y146024D01*
X553871Y145944D01*
X553890Y145946D01*
X553914Y145942D01*
X554549Y145942D01*
X554567Y145946D01*
G37*
G36*
X609304Y145946D02*
X609304Y145946D01*
X609329Y145944D01*
X610035Y146024D01*
X610068Y146035D01*
X610118Y146043D01*
X610789Y146278D01*
X610818Y146296D01*
X610866Y146314D01*
X611468Y146693D01*
X611492Y146717D01*
X611534Y146746D01*
X612037Y147249D01*
X612055Y147278D01*
X612090Y147315D01*
X612469Y147917D01*
X612480Y147950D01*
X612505Y147994D01*
X612740Y148665D01*
X612744Y148699D01*
X612759Y148748D01*
X612839Y149454D01*
X612837Y149473D01*
X612841Y149497D01*
X612841Y155085D01*
X612837Y155103D01*
X612839Y155128D01*
X612756Y155862D01*
X612745Y155895D01*
X612743Y155907D01*
X612742Y155929D01*
X612739Y155935D01*
X612737Y155945D01*
X612493Y156643D01*
X612474Y156672D01*
X612456Y156720D01*
X612063Y157346D01*
X612038Y157370D01*
X612009Y157413D01*
X611487Y157935D01*
X611457Y157954D01*
X611420Y157989D01*
X610794Y158382D01*
X610761Y158393D01*
X610717Y158419D01*
X610019Y158663D01*
X609985Y158667D01*
X609936Y158682D01*
X609202Y158765D01*
X609183Y158763D01*
X609159Y158767D01*
X608524Y158767D01*
X608506Y158763D01*
X608481Y158765D01*
X607803Y158688D01*
X607771Y158677D01*
X607720Y158670D01*
X607076Y158444D01*
X607047Y158426D01*
X606999Y158407D01*
X606421Y158044D01*
X606397Y158019D01*
X606355Y157991D01*
X605872Y157508D01*
X605854Y157479D01*
X605819Y157442D01*
X605456Y156864D01*
X605445Y156831D01*
X605419Y156787D01*
X605194Y156143D01*
X605190Y156109D01*
X605175Y156060D01*
X605098Y155382D01*
X605100Y155363D01*
X605096Y155339D01*
X605096Y149497D01*
X605100Y149479D01*
X605098Y149454D01*
X605178Y148748D01*
X605189Y148715D01*
X605197Y148665D01*
X605432Y147994D01*
X605450Y147965D01*
X605468Y147917D01*
X605847Y147315D01*
X605871Y147291D01*
X605900Y147249D01*
X606403Y146746D01*
X606432Y146728D01*
X606469Y146693D01*
X607071Y146314D01*
X607104Y146303D01*
X607148Y146278D01*
X607819Y146043D01*
X607853Y146039D01*
X607902Y146024D01*
X608608Y145944D01*
X608627Y145946D01*
X608651Y145942D01*
X609286Y145942D01*
X609304Y145946D01*
G37*
G36*
X558109Y177182D02*
X558109Y177182D01*
X558141Y177193D01*
X558192Y177201D01*
X558879Y177441D01*
X558908Y177459D01*
X558955Y177478D01*
X559572Y177865D01*
X559596Y177890D01*
X559638Y177918D01*
X560153Y178433D01*
X560171Y178462D01*
X560206Y178499D01*
X560593Y179116D01*
X560604Y179148D01*
X560630Y179192D01*
X560870Y179879D01*
X560874Y179914D01*
X560889Y179962D01*
X560971Y180685D01*
X560969Y180704D01*
X560973Y180728D01*
X560973Y184728D01*
X560969Y184747D01*
X560971Y184771D01*
X560889Y185494D01*
X560878Y185526D01*
X560875Y185548D01*
X560874Y185564D01*
X560872Y185568D01*
X560870Y185577D01*
X560630Y186264D01*
X560612Y186293D01*
X560593Y186340D01*
X560206Y186957D01*
X560181Y186981D01*
X560153Y187023D01*
X559638Y187538D01*
X559609Y187556D01*
X559572Y187591D01*
X558955Y187978D01*
X558923Y187989D01*
X558879Y188015D01*
X558192Y188255D01*
X558158Y188259D01*
X558109Y188274D01*
X557386Y188356D01*
X557351Y188352D01*
X557300Y188356D01*
X556577Y188274D01*
X556545Y188263D01*
X556494Y188255D01*
X555807Y188015D01*
X555778Y187997D01*
X555731Y187978D01*
X555114Y187591D01*
X555090Y187566D01*
X555048Y187538D01*
X554533Y187023D01*
X554515Y186994D01*
X554480Y186957D01*
X554093Y186340D01*
X554082Y186308D01*
X554056Y186264D01*
X553816Y185577D01*
X553813Y185553D01*
X553805Y185536D01*
X553806Y185523D01*
X553797Y185494D01*
X553715Y184771D01*
X553717Y184752D01*
X553713Y184728D01*
X553713Y180728D01*
X553717Y180710D01*
X553715Y180685D01*
X553797Y179962D01*
X553808Y179930D01*
X553816Y179879D01*
X554056Y179192D01*
X554074Y179163D01*
X554093Y179116D01*
X554480Y178499D01*
X554505Y178475D01*
X554533Y178433D01*
X555048Y177918D01*
X555077Y177900D01*
X555114Y177865D01*
X555731Y177478D01*
X555763Y177467D01*
X555807Y177441D01*
X556494Y177201D01*
X556529Y177197D01*
X556577Y177182D01*
X557300Y177100D01*
X557335Y177104D01*
X557386Y177100D01*
X558109Y177182D01*
G37*
G36*
X606623Y177141D02*
X606623Y177141D01*
X606655Y177152D01*
X606706Y177160D01*
X607393Y177400D01*
X607422Y177418D01*
X607469Y177437D01*
X608086Y177824D01*
X608110Y177849D01*
X608152Y177877D01*
X608667Y178392D01*
X608685Y178421D01*
X608720Y178458D01*
X609107Y179075D01*
X609118Y179107D01*
X609144Y179151D01*
X609384Y179838D01*
X609388Y179873D01*
X609403Y179921D01*
X609485Y180644D01*
X609483Y180663D01*
X609487Y180687D01*
X609487Y184687D01*
X609483Y184705D01*
X609485Y184730D01*
X609403Y185453D01*
X609392Y185485D01*
X609389Y185508D01*
X609388Y185523D01*
X609386Y185527D01*
X609384Y185536D01*
X609144Y186223D01*
X609126Y186252D01*
X609107Y186299D01*
X608720Y186916D01*
X608695Y186940D01*
X608667Y186982D01*
X608152Y187497D01*
X608123Y187515D01*
X608086Y187550D01*
X607469Y187937D01*
X607437Y187948D01*
X607393Y187974D01*
X606706Y188214D01*
X606672Y188218D01*
X606623Y188233D01*
X605900Y188315D01*
X605865Y188311D01*
X605814Y188315D01*
X605091Y188233D01*
X605059Y188222D01*
X605008Y188214D01*
X604321Y187974D01*
X604292Y187956D01*
X604245Y187937D01*
X603628Y187550D01*
X603604Y187525D01*
X603562Y187497D01*
X603047Y186982D01*
X603029Y186953D01*
X602994Y186916D01*
X602607Y186299D01*
X602596Y186267D01*
X602570Y186223D01*
X602330Y185536D01*
X602327Y185512D01*
X602319Y185495D01*
X602320Y185482D01*
X602311Y185453D01*
X602229Y184730D01*
X602231Y184711D01*
X602227Y184687D01*
X602227Y180687D01*
X602231Y180668D01*
X602229Y180644D01*
X602311Y179921D01*
X602322Y179889D01*
X602330Y179838D01*
X602570Y179151D01*
X602589Y179122D01*
X602607Y179075D01*
X602994Y178458D01*
X603019Y178434D01*
X603047Y178392D01*
X603562Y177877D01*
X603591Y177859D01*
X603628Y177824D01*
X604245Y177437D01*
X604277Y177426D01*
X604321Y177400D01*
X605008Y177160D01*
X605043Y177156D01*
X605091Y177141D01*
X605814Y177059D01*
X605849Y177063D01*
X605900Y177059D01*
X606623Y177141D01*
G37*
M02*
